<svg width="466" height="184" viewBox="0 0 466 184" fill="none" xmlns="http://www.w3.org/2000/svg">
<path d="M264.546 104.045C275.426 104.632 286.304 105.284 297.186 105.79C312.781 106.521 328.381 107.138 343.979 107.838C344.656 107.871 345.32 108.254 346 108.475C345.335 108.657 344.666 109.017 344.006 108.999C330.923 108.617 317.84 108.261 304.761 107.758C291.516 107.254 278.279 106.591 265.036 105.974C263.149 105.886 261.246 105.697 259.382 105.47C258.371 105.339 257.014 105.203 256.981 103.896C256.953 102.725 258.227 102.511 259.157 102.385C263.69 101.717 268.212 100.861 272.773 100.546C287.504 99.5386 302.25 98.7124 316.991 97.8182C317.45 97.807 317.901 97.7042 318.32 97.516C313.655 97.3346 308.994 97.0323 304.329 96.9946C280.722 96.8057 257.107 96.3271 233.505 96.647C212.266 96.9366 191.036 98.1406 169.802 98.9139C162.727 99.1658 155.67 99.3522 148.602 99.5562C148.011 99.6051 147.416 99.5712 146.834 99.4555C146.513 99.3698 146.275 98.9517 146 98.6998C146.296 98.4656 146.571 98.0575 146.889 98.0197C151.438 97.4807 155.986 96.8988 160.559 96.5084C179.598 94.8838 198.667 93.71 217.771 93.3473C234.433 93.0349 251.101 92.9644 267.765 93.0148C278.746 93.0475 289.73 93.3599 300.703 93.7704C313.906 94.2742 327.09 95.1205 340.216 96.7125C340.674 96.7679 341.192 96.7603 341.566 96.9769C342.003 97.2288 342.324 97.7049 342.68 98.0827C342.258 98.395 341.851 98.9593 341.417 98.9819C338.182 99.1507 334.938 99.1633 331.701 99.3169C317.12 100.01 302.53 100.629 287.959 101.491C280.53 101.931 273.129 102.823 265.724 103.506C265.324 103.544 264.93 103.627 264.531 103.687L264.546 104.045Z" fill="#FFAF20"/>
<path d="M80.6039 81.136C80.6039 82.972 80.2619 84.736 79.5779 86.428C78.9299 88.12 78.0119 89.596 76.8239 90.856C75.6719 92.152 74.2859 93.178 72.6659 93.934C71.0819 94.69 69.3539 95.068 67.4819 95.068H63.9179L63.6479 87.67H65.6999C67.2119 87.67 68.4899 87.472 69.5339 87.076C70.5419 86.716 71.3519 86.23 71.9639 85.618C72.6119 85.006 73.0619 84.304 73.3139 83.512C73.6019 82.756 73.7459 81.964 73.7459 81.136V65.962H80.6039V81.136ZM104.683 68.068C105.691 69.22 106.429 70.372 106.897 71.524C107.401 72.676 107.653 73.792 107.653 74.872C107.653 75.844 107.473 76.762 107.113 77.626C106.789 78.49 106.267 79.246 105.547 79.894C104.863 80.542 103.999 81.064 102.955 81.46C101.911 81.82 100.705 82 99.3368 82H85.3508L85.0808 74.602H98.1488C99.0848 74.602 99.5528 74.26 99.5528 73.576C99.5528 73.216 99.3728 72.856 99.0128 72.496L90.4268 62.668L95.7728 57.646L104.683 68.068ZM137.35 87.67C138.754 87.67 139.906 87.598 140.806 87.454C141.742 87.346 142.48 87.166 143.02 86.914C143.56 86.662 143.938 86.32 144.154 85.888C144.37 85.492 144.478 84.988 144.478 84.376C144.478 83.764 144.298 83.206 143.938 82.702C143.614 82.234 143.002 82 142.102 82H135.244L135.568 74.602H153.982C154.774 74.602 155.17 75.79 155.17 78.166C155.17 80.722 154.774 82 153.982 82H149.824C150.616 82.54 151.012 83.728 151.012 85.564C151.012 86.536 150.778 87.58 150.31 88.696C149.878 89.812 149.158 90.838 148.15 91.774C147.178 92.71 145.882 93.484 144.262 94.096C142.642 94.744 140.644 95.068 138.268 95.068H132.274C128.242 95.068 125.11 93.826 122.878 91.342C120.646 88.858 119.53 85.456 119.53 81.136V71.308H126.334V80.812C126.334 81.856 126.442 82.792 126.658 83.62C126.874 84.484 127.234 85.204 127.738 85.78C128.278 86.392 128.98 86.86 129.844 87.184C130.744 87.508 131.86 87.67 133.192 87.67H137.35ZM155.151 74.602C156.195 74.602 156.951 74.368 157.419 73.9C157.887 73.396 158.121 72.622 158.121 71.578V48.52H164.979V72.172C164.979 75.448 164.187 77.914 162.603 79.57C161.019 81.19 158.733 82 155.745 82H153.963C153.495 82 153.189 81.712 153.045 81.136C152.865 80.524 152.775 79.624 152.775 78.436C152.775 77.068 152.865 76.096 153.045 75.52C153.189 74.908 153.495 74.602 153.963 74.602H155.151ZM175.923 87.67C178.335 87.67 180.063 87.112 181.107 85.996C182.151 84.916 182.763 83.584 182.943 82H180.405C178.533 82 177.003 81.802 175.815 81.406C174.627 81.01 173.691 80.416 173.007 79.624C172.323 78.832 171.837 77.878 171.549 76.762C171.297 75.61 171.171 74.296 171.171 72.82C171.171 71.416 171.369 70.084 171.765 68.824C172.161 67.528 172.737 66.412 173.493 65.476C174.285 64.54 175.257 63.802 176.409 63.262C177.597 62.686 178.965 62.398 180.513 62.398C181.737 62.398 182.889 62.596 183.969 62.992C185.085 63.388 186.057 64.018 186.885 64.882C187.713 65.746 188.361 66.88 188.829 68.284C189.333 69.688 189.585 71.398 189.585 73.414V74.602H193.473C194.265 74.602 194.661 75.79 194.661 78.166C194.661 80.722 194.265 82 193.473 82H189.531C189.423 83.764 189.045 85.438 188.397 87.022C187.749 88.606 186.849 89.992 185.697 91.18C184.581 92.368 183.213 93.304 181.593 93.988C179.973 94.708 178.173 95.068 176.193 95.068H170.901L170.577 87.67H175.923ZM177.705 72.28C177.705 73.144 177.885 73.756 178.245 74.116C178.641 74.44 179.361 74.602 180.405 74.602H183.051V73.09C183.051 71.722 182.817 70.786 182.349 70.282C181.917 69.778 181.233 69.526 180.297 69.526C178.569 69.526 177.705 70.444 177.705 72.28ZM197.025 74.602C198.069 74.602 198.825 74.368 199.293 73.9C199.761 73.396 199.995 72.622 199.995 71.578V65.962H206.853V71.578C206.853 72.622 207.177 73.396 207.825 73.9C208.473 74.368 209.319 74.602 210.363 74.602H211.551C212.379 74.602 212.793 75.79 212.793 78.166C212.793 80.722 212.379 82 211.551 82H210.093C208.725 82 207.465 81.802 206.313 81.406C205.197 80.974 204.189 80.074 203.289 78.706C202.353 80.074 201.363 80.974 200.319 81.406C199.311 81.802 198.213 82 197.025 82H193.461C192.993 82 192.687 81.712 192.543 81.136C192.363 80.524 192.273 79.624 192.273 78.436C192.273 77.068 192.363 76.096 192.543 75.52C192.687 74.908 192.993 74.602 193.461 74.602H197.025ZM205.611 94.42H198.483V87.886H205.611V94.42ZM213.601 74.602C214.285 74.602 214.843 74.62 215.275 74.656C215.743 74.656 216.157 74.692 216.517 74.764C216.913 74.836 217.291 74.926 217.651 75.034C218.011 75.142 218.443 75.286 218.947 75.466C217.471 74.566 216.499 73.486 216.031 72.226C215.599 70.966 215.383 69.382 215.383 67.474C215.383 66.502 215.563 65.512 215.923 64.504C216.319 63.46 216.895 62.524 217.651 61.696C218.407 60.868 219.343 60.184 220.459 59.644C221.575 59.104 222.871 58.834 224.347 58.834C225.751 58.834 227.029 59.014 228.181 59.374C229.369 59.734 230.377 60.328 231.205 61.156C232.033 61.984 232.681 63.082 233.149 64.45C233.617 65.818 233.851 67.51 233.851 69.526V72.496C233.851 75.484 233.005 77.824 231.313 79.516C229.657 81.172 227.029 82 223.429 82H211.549C211.081 82 210.775 81.712 210.631 81.136C210.451 80.524 210.361 79.624 210.361 78.436C210.361 77.068 210.451 76.096 210.631 75.52C210.775 74.908 211.081 74.602 211.549 74.602H213.601ZM224.185 66.286C223.213 66.286 222.547 66.574 222.187 67.15C221.827 67.726 221.647 68.32 221.647 68.932C221.647 69.292 221.701 69.652 221.809 70.012C221.917 70.336 222.151 70.696 222.511 71.092C222.871 71.488 223.393 71.92 224.077 72.388C224.797 72.856 225.733 73.396 226.885 74.008C227.065 73.72 227.173 73.306 227.209 72.766C227.245 72.19 227.263 71.704 227.263 71.308V70.12C227.263 69.616 227.209 69.13 227.101 68.662C227.029 68.194 226.867 67.798 226.615 67.474C226.399 67.114 226.093 66.826 225.697 66.61C225.301 66.394 224.797 66.286 224.185 66.286ZM231.421 54.676H224.887V48.412H231.421V54.676ZM223.105 54.676H216.571V48.412H223.105V54.676ZM265.372 82C262.816 82 260.746 81.352 259.162 80.056C257.578 78.724 256.786 76.798 256.786 74.278V71.902C256.786 70.102 257.074 68.914 257.65 68.338H257.056C255.724 68.338 254.734 68.572 254.086 69.04C253.474 69.508 253.168 70.264 253.168 71.308V95.068H246.364V70.984C246.364 69.724 246.58 68.518 247.012 67.366C247.48 66.178 248.146 65.134 249.01 64.234C249.874 63.298 250.954 62.56 252.25 62.02C253.546 61.48 255.058 61.21 256.786 61.21H266.56C268.108 61.21 269.404 61.426 270.448 61.858C271.528 62.254 272.392 62.812 273.04 63.532C273.688 64.252 274.156 65.098 274.444 66.07C274.732 67.042 274.876 68.086 274.876 69.202V74.008C274.876 75.412 274.606 76.618 274.066 77.626C273.562 78.634 272.878 79.462 272.014 80.11C271.15 80.758 270.142 81.244 268.99 81.568C267.838 81.856 266.632 82 265.372 82ZM265.858 74.602C266.794 74.602 267.442 74.404 267.802 74.008C268.162 73.612 268.342 73.108 268.342 72.496V70.984C268.342 70.264 268.162 69.688 267.802 69.256C267.478 68.824 266.902 68.608 266.074 68.608H265.48C264.688 68.608 264.13 68.824 263.806 69.256C263.482 69.688 263.32 70.264 263.32 70.984V72.496C263.32 73.108 263.482 73.612 263.806 74.008C264.13 74.404 264.814 74.602 265.858 74.602ZM290.37 74.602C291.414 74.602 292.116 74.422 292.476 74.062C292.836 73.666 293.016 73.252 293.016 72.82C293.016 72.604 292.98 72.316 292.908 71.956C292.836 71.56 292.638 70.912 292.314 70.012C292.026 69.112 291.576 67.834 290.964 66.178C290.388 64.486 289.596 62.236 288.588 59.428L295.068 56.728L300.468 71.578C300.864 72.622 301.296 73.396 301.764 73.9C302.268 74.368 303.114 74.602 304.302 74.602H304.896C305.688 74.602 306.084 75.79 306.084 78.166C306.084 80.722 305.688 82 304.896 82H304.302C303.114 82 301.944 81.802 300.792 81.406C299.676 80.974 298.668 80.074 297.768 78.706C297.012 79.93 296.058 80.794 294.906 81.298C293.79 81.766 292.566 82 291.234 82H279.624L279.354 74.602H290.37ZM306.941 74.602C307.625 74.602 308.183 74.62 308.615 74.656C309.083 74.656 309.497 74.692 309.857 74.764C310.253 74.836 310.631 74.926 310.991 75.034C311.351 75.142 311.783 75.286 312.287 75.466C310.811 74.566 309.839 73.486 309.371 72.226C308.939 70.966 308.723 69.382 308.723 67.474C308.723 66.502 308.903 65.512 309.263 64.504C309.659 63.46 310.235 62.524 310.991 61.696C311.747 60.868 312.683 60.184 313.799 59.644C314.915 59.104 316.211 58.834 317.687 58.834C319.091 58.834 320.369 59.014 321.521 59.374C322.709 59.734 323.717 60.328 324.545 61.156C325.373 61.984 326.021 63.082 326.489 64.45C326.957 65.818 327.191 67.51 327.191 69.526V72.496C327.191 75.484 326.345 77.824 324.653 79.516C322.997 81.172 320.369 82 316.769 82H304.889C304.421 82 304.115 81.712 303.971 81.136C303.791 80.524 303.701 79.624 303.701 78.436C303.701 77.068 303.791 76.096 303.971 75.52C304.115 74.908 304.421 74.602 304.889 74.602H306.941ZM317.525 66.286C316.553 66.286 315.887 66.574 315.527 67.15C315.167 67.726 314.987 68.32 314.987 68.932C314.987 69.292 315.041 69.652 315.149 70.012C315.257 70.336 315.491 70.696 315.851 71.092C316.211 71.488 316.733 71.92 317.417 72.388C318.137 72.856 319.073 73.396 320.225 74.008C320.405 73.72 320.513 73.306 320.549 72.766C320.585 72.19 320.603 71.704 320.603 71.308V70.12C320.603 69.616 320.549 69.13 320.441 68.662C320.369 68.194 320.207 67.798 319.955 67.474C319.739 67.114 319.433 66.826 319.037 66.61C318.641 66.394 318.137 66.286 317.525 66.286ZM324.761 54.676H318.227V48.412H324.761V54.676ZM316.445 54.676H309.911V48.412H316.445V54.676ZM372.644 82C372.032 82 371.402 81.91 370.754 81.73C370.142 81.514 369.584 81.1 369.08 80.488V80.812C369.08 82.828 368.774 84.7 368.162 86.428C367.55 88.156 366.668 89.65 365.516 90.91C364.364 92.206 362.96 93.214 361.304 93.934C359.648 94.69 357.776 95.068 355.688 95.068H352.124C348.092 95.068 344.96 93.826 342.728 91.342C340.496 88.858 339.38 85.456 339.38 81.136V71.308H346.184V80.812C346.184 81.856 346.292 82.792 346.508 83.62C346.724 84.484 347.084 85.204 347.588 85.78C348.128 86.392 348.83 86.86 349.694 87.184C350.594 87.508 351.71 87.67 353.042 87.67H355.418C356.822 87.67 357.974 87.472 358.874 87.076C359.81 86.716 360.548 86.194 361.088 85.51C361.628 84.862 362.006 84.106 362.222 83.242C362.438 82.378 362.546 81.46 362.546 80.488V65.962H369.35V71.578C369.35 72.622 369.674 73.396 370.322 73.9C370.97 74.368 371.744 74.602 372.644 74.602H373.238C374.03 74.602 374.426 75.79 374.426 78.166C374.426 80.722 374.03 82 373.238 82H372.644ZM356.876 65.368H349.748V58.834H356.876V65.368ZM376.796 74.602C377.84 74.602 378.596 74.368 379.064 73.9C379.532 73.396 379.766 72.622 379.766 71.578V65.962H386.624V71.578C386.624 72.622 386.948 73.396 387.596 73.9C388.244 74.368 389.09 74.602 390.134 74.602H391.322C392.15 74.602 392.564 75.79 392.564 78.166C392.564 80.722 392.15 82 391.322 82H389.864C388.496 82 387.236 81.802 386.084 81.406C384.968 80.974 383.96 80.074 383.06 78.706C382.124 80.074 381.134 80.974 380.09 81.406C379.082 81.802 377.984 82 376.796 82H373.232C372.764 82 372.458 81.712 372.314 81.136C372.134 80.524 372.044 79.624 372.044 78.436C372.044 77.068 372.134 76.096 372.314 75.52C372.458 74.908 372.764 74.602 373.232 74.602H376.796ZM389.81 94.15H383.276V87.886H389.81V94.15ZM381.494 94.15H374.96V87.886H381.494V94.15ZM392.508 74.602C393.552 74.602 394.308 74.368 394.776 73.9C395.244 73.396 395.478 72.622 395.478 71.578V48.52H402.336V72.172C402.336 75.448 401.544 77.914 399.96 79.57C398.376 81.19 396.09 82 393.102 82H391.32C390.852 82 390.546 81.712 390.402 81.136C390.222 80.524 390.132 79.624 390.132 78.436C390.132 77.068 390.222 76.096 390.402 75.52C390.546 74.908 390.852 74.602 391.32 74.602H392.508ZM413.281 87.67C415.693 87.67 417.421 87.112 418.465 85.996C419.509 84.916 420.121 83.584 420.301 82H417.763C415.891 82 414.361 81.802 413.173 81.406C411.985 81.01 411.049 80.416 410.365 79.624C409.681 78.832 409.195 77.878 408.907 76.762C408.655 75.61 408.529 74.296 408.529 72.82C408.529 71.416 408.727 70.084 409.123 68.824C409.519 67.528 410.095 66.412 410.851 65.476C411.643 64.54 412.615 63.802 413.767 63.262C414.955 62.686 416.323 62.398 417.871 62.398C419.095 62.398 420.247 62.596 421.327 62.992C422.443 63.388 423.415 64.018 424.243 64.882C425.071 65.746 425.719 66.88 426.187 68.284C426.691 69.688 426.943 71.398 426.943 73.414V81.136C426.943 82.972 426.637 84.736 426.025 86.428C425.413 88.12 424.531 89.596 423.379 90.856C422.227 92.152 420.823 93.178 419.167 93.934C417.511 94.69 415.639 95.068 413.551 95.068H408.259L407.935 87.67H413.281ZM415.063 72.28C415.063 73.144 415.243 73.756 415.603 74.116C415.999 74.44 416.719 74.602 417.763 74.602H420.409V73.09C420.409 71.722 420.175 70.786 419.707 70.282C419.275 69.778 418.591 69.526 417.655 69.526C415.927 69.526 415.063 70.444 415.063 72.28ZM432.898 48.52H439.756V82H432.898V48.52ZM95.6117 119.864C95.6117 121.556 95.5757 123.14 95.5037 124.616C95.4317 126.056 95.3417 127.424 95.2337 128.72C95.1257 130.016 94.9997 131.258 94.8557 132.446C94.7117 133.634 94.5677 134.786 94.4237 135.902H90.2657C90.1217 134.786 89.9597 133.652 89.7797 132.5C89.5997 131.312 89.4377 130.07 89.2937 128.774C89.1497 127.478 89.0237 126.092 88.9157 124.616C88.8437 123.14 88.8077 121.556 88.8077 119.864V113.06H95.6117V119.864ZM92.3717 146C91.2197 146 90.2837 145.712 89.5637 145.136C88.8437 144.524 88.4837 143.588 88.4837 142.328C88.4837 140.996 88.8437 140.042 89.5637 139.466C90.2837 138.89 91.2197 138.602 92.3717 138.602C93.4877 138.602 94.4057 138.89 95.1257 139.466C95.8457 140.042 96.2057 140.996 96.2057 142.328C96.2057 143.588 95.8457 144.524 95.1257 145.136C94.4057 145.712 93.4877 146 92.3717 146ZM110.188 145.136C110.188 146.972 109.846 148.736 109.162 150.428C108.514 152.12 107.596 153.596 106.408 154.856C105.256 156.152 103.87 157.178 102.25 157.934C100.666 158.69 98.9379 159.068 97.0659 159.068H93.5019L93.2319 151.67H95.2839C96.7959 151.67 98.0739 151.472 99.1179 151.076C100.126 150.716 100.936 150.23 101.548 149.618C102.196 149.006 102.646 148.304 102.898 147.512C103.186 146.756 103.33 145.964 103.33 145.136V129.962H110.188V145.136ZM116.123 112.52H122.981V146H116.123V112.52ZM147.609 132.068C148.617 133.22 149.355 134.372 149.823 135.524C150.327 136.676 150.579 137.792 150.579 138.872C150.579 139.844 150.399 140.762 150.039 141.626C149.715 142.49 149.193 143.246 148.473 143.894C147.789 144.542 146.925 145.064 145.881 145.46C144.837 145.82 143.631 146 142.263 146H128.277L128.007 138.602H141.075C142.011 138.602 142.479 138.26 142.479 137.576C142.479 137.216 142.299 136.856 141.939 136.496L133.353 126.668L138.699 121.646L147.609 132.068ZM163.653 145.136C163.653 146.972 163.329 148.736 162.681 150.428C162.069 152.12 161.187 153.596 160.035 154.856C158.919 156.152 157.569 157.178 155.985 157.934C154.437 158.69 152.727 159.068 150.855 159.068H147.291L147.021 151.67H149.073C150.585 151.67 151.863 151.472 152.907 151.076C153.915 150.716 154.725 150.23 155.337 149.618C155.985 149.006 156.435 148.304 156.687 147.512C156.975 146.756 157.119 145.964 157.119 145.136V129.962H163.977V135.578C163.977 136.622 164.283 137.396 164.895 137.9C165.543 138.368 166.317 138.602 167.217 138.602H167.811C168.603 138.602 168.999 139.79 168.999 142.166C168.999 144.722 168.603 146 167.811 146H167.217C166.605 146 165.975 145.91 165.327 145.73C164.715 145.514 164.157 145.1 163.653 144.488V145.136ZM172.908 138.602C173.952 138.602 174.69 138.368 175.122 137.9C175.59 137.396 175.824 136.622 175.824 135.578V129.962H182.682V136.172C182.682 139.448 181.89 141.914 180.306 143.57C178.758 145.19 176.49 146 173.502 146H167.832C167.364 146 167.058 145.712 166.914 145.136C166.734 144.524 166.644 143.624 166.644 142.436C166.644 141.068 166.734 140.096 166.914 139.52C167.058 138.908 167.364 138.602 167.832 138.602H172.908ZM176.148 158.42H169.02V151.886H176.148V158.42ZM200.234 151.67C202.646 151.67 204.374 151.112 205.418 149.996C206.462 148.916 207.074 147.584 207.254 146H204.716C202.844 146 201.314 145.802 200.126 145.406C198.938 145.01 198.002 144.416 197.318 143.624C196.634 142.832 196.148 141.878 195.86 140.762C195.608 139.61 195.482 138.296 195.482 136.82C195.482 135.416 195.68 134.084 196.076 132.824C196.472 131.528 197.048 130.412 197.804 129.476C198.596 128.54 199.568 127.802 200.72 127.262C201.908 126.686 203.276 126.398 204.824 126.398C206.048 126.398 207.2 126.596 208.28 126.992C209.396 127.388 210.368 128.018 211.196 128.882C212.024 129.746 212.672 130.88 213.14 132.284C213.644 133.688 213.896 135.398 213.896 137.414V145.136C213.896 146.972 213.59 148.736 212.978 150.428C212.366 152.12 211.484 153.596 210.332 154.856C209.18 156.152 207.776 157.178 206.12 157.934C204.464 158.69 202.592 159.068 200.504 159.068H195.212L194.888 151.67H200.234ZM202.016 136.28C202.016 137.144 202.196 137.756 202.556 138.116C202.952 138.44 203.672 138.602 204.716 138.602H207.362V137.09C207.362 135.722 207.128 134.786 206.66 134.282C206.228 133.778 205.544 133.526 204.608 133.526C202.88 133.526 202.016 134.444 202.016 136.28ZM215.359 151.67H215.953C217.285 151.67 218.419 151.472 219.355 151.076C220.327 150.716 221.101 150.23 221.677 149.618C222.289 149.006 222.721 148.304 222.973 147.512C223.261 146.756 223.405 145.964 223.405 145.136V129.962H230.263V145.136C230.263 146.972 229.921 148.736 229.237 150.428C228.589 152.12 227.671 153.596 226.483 154.856C225.331 156.152 223.945 157.178 222.325 157.934C220.741 158.69 219.013 159.068 217.141 159.068H215.683L215.359 151.67ZM272.424 144.488C272.424 146.576 272.1 148.502 271.452 150.266C270.84 152.066 269.94 153.614 268.752 154.91C267.564 156.206 266.124 157.214 264.432 157.934C262.74 158.69 260.85 159.068 258.762 159.068H255.198C251.166 159.068 248.034 157.826 245.802 155.342C243.57 152.858 242.454 149.456 242.454 145.136V135.308H249.258V144.812C249.258 145.856 249.366 146.792 249.582 147.62C249.798 148.484 250.158 149.204 250.662 149.78C251.202 150.392 251.904 150.86 252.768 151.184C253.668 151.508 254.784 151.67 256.116 151.67H258.492C259.896 151.67 261.048 151.472 261.948 151.076C262.884 150.716 263.622 150.194 264.162 149.51C264.702 148.862 265.08 148.106 265.296 147.242C265.512 146.378 265.62 145.46 265.62 144.488V129.962H272.424V144.488ZM259.95 129.368H252.822V122.834H259.95V129.368ZM286.108 146C285.064 146 284.074 145.874 283.138 145.622C282.202 145.334 281.374 144.866 280.654 144.218C279.97 143.57 279.412 142.724 278.98 141.68C278.584 140.6 278.386 139.268 278.386 137.684V112.52H285.244V135.902C285.244 137.702 286.036 138.602 287.62 138.602H289.078C289.87 138.602 290.266 139.79 290.266 142.166C290.266 144.722 289.87 146 289.078 146H286.108ZM291.768 138.602C293.748 138.602 294.738 137.594 294.738 135.578V129.962H301.542V135.578C301.542 136.622 301.848 137.396 302.46 137.9C303.108 138.368 303.882 138.602 304.782 138.602C305.97 138.602 306.816 138.368 307.32 137.9C307.824 137.396 308.076 136.622 308.076 135.578V129.962H314.934V135.578C314.934 136.622 315.186 137.396 315.69 137.9C316.23 138.368 316.86 138.602 317.58 138.602C319.344 138.602 320.226 137.594 320.226 135.578V129.962H327.084V136.172C327.084 139.448 326.292 141.914 324.708 143.57C323.124 145.19 320.838 146 317.85 146C316.698 146 315.546 145.802 314.394 145.406C313.278 144.974 312.27 144.074 311.37 142.706C310.47 144.074 309.444 144.974 308.292 145.406C307.14 145.802 305.97 146 304.782 146C303.45 146 302.208 145.802 301.056 145.406C299.904 144.974 298.878 144.074 297.978 142.706C297.078 144.074 296.106 144.974 295.062 145.406C294.054 145.802 292.956 146 291.768 146H289.068C288.6 146 288.294 145.712 288.15 145.136C287.97 144.524 287.88 143.624 287.88 142.436C287.88 141.068 287.97 140.096 288.15 139.52C288.294 138.908 288.6 138.602 289.068 138.602H291.768ZM314.664 115.706H308.076V109.496H314.664V115.706ZM318.768 124.022H312.234V117.758H318.768V124.022ZM310.452 124.022H303.918V117.758H310.452V124.022ZM337.501 151.67C339.913 151.67 341.641 151.112 342.685 149.996C343.729 148.916 344.341 147.584 344.521 146H341.983C340.111 146 338.581 145.802 337.393 145.406C336.205 145.01 335.269 144.416 334.585 143.624C333.901 142.832 333.415 141.878 333.127 140.762C332.875 139.61 332.749 138.296 332.749 136.82C332.749 135.416 332.947 134.084 333.343 132.824C333.739 131.528 334.315 130.412 335.071 129.476C335.863 128.54 336.835 127.802 337.987 127.262C339.175 126.686 340.543 126.398 342.091 126.398C343.315 126.398 344.467 126.596 345.547 126.992C346.663 127.388 347.635 128.018 348.463 128.882C349.291 129.746 349.939 130.88 350.407 132.284C350.911 133.688 351.163 135.398 351.163 137.414V138.602H355.051C355.843 138.602 356.239 139.79 356.239 142.166C356.239 144.722 355.843 146 355.051 146H351.109C351.001 147.764 350.623 149.438 349.975 151.022C349.327 152.606 348.427 153.992 347.275 155.18C346.159 156.368 344.791 157.304 343.171 157.988C341.551 158.708 339.751 159.068 337.771 159.068H332.479L332.155 151.67H337.501ZM339.283 136.28C339.283 137.144 339.463 137.756 339.823 138.116C340.219 138.44 340.939 138.602 341.983 138.602H344.629V137.09C344.629 135.722 344.395 134.786 343.927 134.282C343.495 133.778 342.811 133.526 341.875 133.526C340.147 133.526 339.283 134.444 339.283 136.28ZM367.999 130.556C367.171 130.556 366.487 130.826 365.947 131.366C365.407 131.906 365.137 132.626 365.137 133.526C365.137 134.246 365.371 135.02 365.839 135.848C366.307 136.676 367.063 137.396 368.107 138.008C369.151 137.396 369.853 136.676 370.213 135.848C370.573 135.02 370.753 134.246 370.753 133.526C370.753 132.626 370.483 131.906 369.943 131.366C369.439 130.826 368.791 130.556 367.999 130.556ZM355.039 146C354.571 146 354.265 145.712 354.121 145.136C353.941 144.524 353.851 143.624 353.851 142.436C353.851 141.068 353.941 140.096 354.121 139.52C354.265 138.908 354.571 138.602 355.039 138.602H360.979C360.223 137.558 359.683 136.514 359.359 135.47C359.035 134.426 358.873 133.382 358.873 132.338C358.873 131.15 359.089 130.016 359.521 128.936C359.953 127.856 360.583 126.92 361.411 126.128C362.239 125.3 363.229 124.652 364.381 124.184C365.569 123.68 366.919 123.428 368.431 123.428C369.907 123.428 371.185 123.68 372.265 124.184C373.345 124.688 374.227 125.354 374.911 126.182C375.631 127.01 376.153 127.946 376.477 128.99C376.837 129.998 377.017 131.024 377.017 132.068C377.017 133.4 376.819 134.606 376.423 135.686C376.063 136.73 375.577 137.702 374.965 138.602H381.175C382.111 138.602 382.579 138.26 382.579 137.576C382.579 137.396 382.525 137.216 382.417 137.036C382.345 136.856 382.165 136.568 381.877 136.172L373.453 125.48L378.529 120.728L387.115 131.744C388.195 133.112 388.951 134.372 389.383 135.524C389.851 136.676 390.085 137.792 390.085 138.872C390.085 139.844 389.905 140.762 389.545 141.626C389.221 142.49 388.699 143.246 387.979 143.894C387.295 144.542 386.431 145.064 385.387 145.46C384.343 145.82 383.137 146 381.769 146H375.829C374.173 146 372.697 145.928 371.401 145.784C370.141 145.604 369.151 145.28 368.431 144.812C367.891 145.1 367.243 145.334 366.487 145.514C365.767 145.658 365.011 145.766 364.219 145.838C363.463 145.91 362.707 145.964 361.951 146C361.231 146 360.619 146 360.115 146H355.039ZM403.172 145.136C403.172 146.972 402.848 148.736 402.2 150.428C401.588 152.12 400.706 153.596 399.554 154.856C398.438 156.152 397.088 157.178 395.504 157.934C393.956 158.69 392.246 159.068 390.374 159.068H386.81L386.54 151.67H388.592C390.104 151.67 391.382 151.472 392.426 151.076C393.434 150.716 394.244 150.23 394.856 149.618C395.504 149.006 395.954 148.304 396.206 147.512C396.494 146.756 396.638 145.964 396.638 145.136V129.962H403.496V135.578C403.496 136.622 403.802 137.396 404.414 137.9C405.062 138.368 405.836 138.602 406.736 138.602H407.33C408.122 138.602 408.518 139.79 408.518 142.166C408.518 144.722 408.122 146 407.33 146H406.736C406.124 146 405.494 145.91 404.846 145.73C404.234 145.514 403.676 145.1 403.172 144.488V145.136ZM403.496 124.022H396.368V117.488H403.496V124.022ZM410.916 138.602C411.96 138.602 412.716 138.368 413.184 137.9C413.652 137.396 413.886 136.622 413.886 135.578V129.962H420.744V135.578C420.744 136.622 421.068 137.396 421.716 137.9C422.364 138.368 423.21 138.602 424.254 138.602H425.442C426.27 138.602 426.684 139.79 426.684 142.166C426.684 144.722 426.27 146 425.442 146H423.984C422.616 146 421.356 145.802 420.204 145.406C419.088 144.974 418.08 144.074 417.18 142.706C416.244 144.074 415.254 144.974 414.21 145.406C413.202 145.802 412.104 146 410.916 146H407.352C406.884 146 406.578 145.712 406.434 145.136C406.254 144.524 406.164 143.624 406.164 142.436C406.164 141.068 406.254 140.096 406.434 139.52C406.578 138.908 406.884 138.602 407.352 138.602H410.916ZM423.93 158.15H417.396V151.886H423.93V158.15ZM415.614 158.15H409.08V151.886H415.614V158.15ZM430.515 138.602C431.559 138.602 432.297 138.368 432.729 137.9C433.197 137.396 433.431 136.622 433.431 135.578V129.962H440.289V136.172C440.289 139.448 439.497 141.914 437.913 143.57C436.365 145.19 434.097 146 431.109 146H425.439C424.971 146 424.665 145.712 424.521 145.136C424.341 144.524 424.251 143.624 424.251 142.436C424.251 141.068 424.341 140.096 424.521 139.52C424.665 138.908 424.971 138.602 425.439 138.602H430.515ZM440.235 124.022H433.701V117.758H440.235V124.022ZM431.919 124.022H425.385V117.758H431.919V124.022Z" fill="url(#paint0_linear_421_11)"/>
<path d="M116.323 94.232C116.323 95.96 116.019 97.576 115.411 99.08C114.835 100.584 114.019 101.896 112.963 103.016C111.939 104.136 110.707 105.016 109.267 105.656C107.859 106.296 106.339 106.616 104.707 106.616H101.683L101.443 101.384H103.459C104.899 101.384 106.131 101.176 107.155 100.76C108.147 100.376 108.963 99.848 109.603 99.176C110.243 98.504 110.707 97.736 110.995 96.872C111.283 96.008 111.427 95.128 111.427 94.232V80.936H116.323V94.232ZM138.364 83C139.228 83.992 139.852 84.984 140.236 85.976C140.652 86.936 140.86 87.88 140.86 88.808C140.86 89.672 140.7 90.488 140.38 91.256C140.092 91.992 139.644 92.648 139.036 93.224C138.428 93.768 137.66 94.2 136.732 94.52C135.836 94.84 134.796 95 133.612 95H120.796L120.556 89.72H132.796C134.364 89.72 135.148 89.128 135.148 87.944C135.148 87.368 134.876 86.776 134.332 86.168L126.172 76.856L129.964 73.304L138.364 83ZM167.813 101.384C169.221 101.384 170.389 101.288 171.317 101.096C172.277 100.904 173.029 100.632 173.573 100.28C174.149 99.928 174.549 99.496 174.773 98.984C175.029 98.504 175.156 97.976 175.156 97.4C175.156 96.76 174.981 96.2 174.629 95.72C174.277 95.24 173.685 95 172.853 95H165.941L166.229 89.72H182.885C183.589 89.72 183.941 90.568 183.941 92.264C183.941 94.088 183.589 95 182.885 95H178.757C179.173 95.32 179.445 95.736 179.573 96.248C179.733 96.76 179.812 97.384 179.812 98.12C179.812 98.984 179.621 99.912 179.237 100.904C178.853 101.896 178.213 102.808 177.317 103.64C176.453 104.504 175.285 105.208 173.812 105.752C172.373 106.328 170.597 106.616 168.485 106.616H163.397C159.813 106.616 157.029 105.512 155.045 103.304C153.061 101.096 152.069 98.072 152.069 94.232V85.64H156.917V94.04C156.917 95.16 157.045 96.168 157.301 97.064C157.557 97.96 157.957 98.728 158.501 99.368C159.077 100.008 159.813 100.504 160.709 100.856C161.637 101.208 162.757 101.384 164.069 101.384H167.813ZM184.01 89.72C186.186 89.72 187.274 88.68 187.274 86.6V65.24H192.17V86.936C192.17 89.592 191.482 91.608 190.106 92.984C188.762 94.328 186.874 95 184.442 95H182.906C182.49 95 182.218 94.792 182.09 94.376C181.93 93.928 181.85 93.288 181.85 92.456C181.85 91.528 181.93 90.84 182.09 90.392C182.218 89.944 182.49 89.72 182.906 89.72H184.01ZM202.1 101.384C203.316 101.384 204.356 101.208 205.22 100.856C206.116 100.536 206.852 100.088 207.428 99.512C208.004 98.936 208.452 98.248 208.772 97.448C209.092 96.68 209.284 95.864 209.348 95H206.084C204.42 95 203.06 94.824 202.004 94.472C200.948 94.12 200.116 93.608 199.508 92.936C198.9 92.232 198.468 91.384 198.212 90.392C197.988 89.4 197.876 88.28 197.876 87.032C197.876 85.784 198.052 84.616 198.404 83.528C198.756 82.408 199.268 81.432 199.94 80.6C200.644 79.768 201.508 79.112 202.532 78.632C203.556 78.12 204.74 77.864 206.084 77.864C207.172 77.864 208.196 78.04 209.156 78.392C210.148 78.744 211.012 79.304 211.748 80.072C212.484 80.84 213.06 81.832 213.476 83.048C213.924 84.264 214.148 85.752 214.148 87.512V89.72H218.036C218.74 89.72 219.092 90.568 219.092 92.264C219.092 94.088 218.74 95 218.036 95H214.052C213.988 96.568 213.668 98.056 213.092 99.464C212.516 100.872 211.716 102.104 210.692 103.16C209.7 104.216 208.5 105.048 207.092 105.656C205.684 106.296 204.1 106.616 202.34 106.616H197.492L197.204 101.384H202.1ZM202.58 86.696C202.58 87.816 202.82 88.6 203.3 89.048C203.812 89.496 204.804 89.72 206.276 89.72H209.444V87.464C209.444 85.8 209.124 84.632 208.484 83.96C207.876 83.288 207.012 82.952 205.892 82.952C204.836 82.952 204.02 83.272 203.444 83.912C202.868 84.552 202.58 85.48 202.58 86.696ZM221.376 89.72C223.52 89.72 224.592 88.68 224.592 86.6V80.936H229.536V86.6C229.536 87.72 229.872 88.52 230.544 89C231.248 89.48 232.064 89.72 232.992 89.72H234.24C234.976 89.72 235.344 90.568 235.344 92.264C235.344 94.088 234.976 95 234.24 95H232.848C231.632 95 230.528 94.808 229.536 94.424C228.544 94.008 227.68 93.192 226.944 91.976C226.144 93.192 225.28 94.008 224.352 94.424C223.424 94.808 222.432 95 221.376 95H218.016C217.6 95 217.328 94.792 217.2 94.376C217.04 93.928 216.96 93.288 216.96 92.456C216.96 91.528 217.04 90.84 217.2 90.392C217.328 89.944 217.6 89.72 218.016 89.72H221.376ZM228.528 105.272H223.104V100.376H228.528V105.272ZM238.554 89.72C239.066 89.72 239.514 89.736 239.898 89.768C240.282 89.768 240.634 89.784 240.954 89.816C241.306 89.848 241.642 89.896 241.962 89.96C242.282 90.024 242.634 90.104 243.018 90.2C241.898 89.72 241.002 89.224 240.33 88.712C239.69 88.168 239.194 87.592 238.842 86.984C238.49 86.376 238.25 85.72 238.122 85.016C238.026 84.28 237.978 83.48 237.978 82.616C237.978 81.752 238.138 80.856 238.458 79.928C238.81 79 239.322 78.168 239.994 77.432C240.666 76.696 241.498 76.088 242.49 75.608C243.514 75.128 244.682 74.888 245.994 74.888C247.242 74.888 248.362 75.048 249.354 75.368C250.378 75.688 251.258 76.216 251.994 76.952C252.73 77.688 253.29 78.664 253.674 79.88C254.09 81.064 254.298 82.536 254.298 84.296V86.744C254.298 89.336 253.546 91.368 252.042 92.84C250.57 94.28 248.234 95 245.034 95H234.234C233.818 95 233.546 94.792 233.418 94.376C233.258 93.928 233.178 93.288 233.178 92.456C233.178 91.528 233.258 90.84 233.418 90.392C233.546 89.944 233.818 89.72 234.234 89.72H238.554ZM245.802 80.168C244.682 80.168 243.85 80.536 243.306 81.272C242.762 81.976 242.49 82.728 242.49 83.528C242.49 83.976 242.538 84.408 242.634 84.824C242.762 85.208 243.034 85.608 243.45 86.024C243.866 86.44 244.49 86.888 245.322 87.368C246.154 87.848 247.306 88.392 248.778 89C249.034 88.68 249.226 88.248 249.354 87.704C249.514 87.128 249.594 86.568 249.594 86.024V84.776C249.594 83.432 249.322 82.328 248.778 81.464C248.234 80.6 247.242 80.168 245.802 80.168ZM251.658 70.712H246.666V66.008H251.658V70.712ZM244.794 70.712H239.802V66.008H244.794V70.712ZM282.875 95C280.635 95 278.827 94.424 277.451 93.272C276.075 92.088 275.387 90.376 275.387 88.136V85.688C275.387 84.792 275.467 84.04 275.627 83.432C275.787 82.824 276.091 82.328 276.539 81.944H275.435C273.899 81.944 272.763 82.264 272.027 82.904C271.291 83.544 270.923 84.472 270.923 85.688V106.616H266.027V85.496C266.027 84.376 266.219 83.304 266.603 82.28C267.019 81.224 267.611 80.296 268.379 79.496C269.147 78.696 270.107 78.056 271.259 77.576C272.411 77.096 273.755 76.856 275.291 76.856H283.979C285.323 76.856 286.443 77.048 287.339 77.432C288.267 77.784 289.019 78.28 289.595 78.92C290.171 79.528 290.571 80.248 290.795 81.08C291.051 81.912 291.179 82.792 291.179 83.72V87.944C291.179 89.192 290.955 90.264 290.507 91.16C290.091 92.024 289.499 92.744 288.731 93.32C287.995 93.896 287.115 94.328 286.091 94.616C285.099 94.872 284.027 95 282.875 95ZM283.259 89.72C284.379 89.72 285.195 89.48 285.707 89C286.251 88.52 286.523 87.864 286.523 87.032V84.968C286.523 84.136 286.299 83.464 285.851 82.952C285.435 82.408 284.731 82.136 283.739 82.136H282.731C281.803 82.136 281.115 82.408 280.667 82.952C280.251 83.496 280.043 84.184 280.043 85.016V86.936C280.043 87.8 280.283 88.488 280.763 89C281.275 89.48 282.107 89.72 283.259 89.72ZM305.431 89.72C306.551 89.72 307.319 89.496 307.735 89.048C308.151 88.6 308.359 88.152 308.359 87.704C308.359 87.448 308.311 87.128 308.215 86.744C308.119 86.328 307.927 85.672 307.639 84.776C307.351 83.848 306.919 82.584 306.343 80.984C305.799 79.384 305.047 77.288 304.087 74.696L308.743 72.728L313.687 86.552C314.071 87.672 314.519 88.488 315.031 89C315.575 89.48 316.407 89.72 317.527 89.72H318.151C318.855 89.72 319.207 90.568 319.207 92.264C319.207 94.088 318.855 95 318.151 95H317.527C316.471 95 315.447 94.808 314.455 94.424C313.495 94.04 312.615 93.224 311.815 91.976C311.143 93.128 310.295 93.928 309.271 94.376C308.279 94.792 307.191 95 306.007 95H295.687L295.447 89.72H305.431ZM322.461 89.72C322.973 89.72 323.421 89.736 323.805 89.768C324.189 89.768 324.541 89.784 324.861 89.816C325.213 89.848 325.549 89.896 325.869 89.96C326.189 90.024 326.541 90.104 326.925 90.2C325.805 89.72 324.909 89.224 324.237 88.712C323.597 88.168 323.101 87.592 322.749 86.984C322.397 86.376 322.157 85.72 322.029 85.016C321.933 84.28 321.885 83.48 321.885 82.616C321.885 81.752 322.045 80.856 322.365 79.928C322.717 79 323.229 78.168 323.901 77.432C324.573 76.696 325.405 76.088 326.397 75.608C327.421 75.128 328.589 74.888 329.901 74.888C331.149 74.888 332.269 75.048 333.261 75.368C334.285 75.688 335.165 76.216 335.901 76.952C336.637 77.688 337.197 78.664 337.581 79.88C337.997 81.064 338.205 82.536 338.205 84.296V86.744C338.205 89.336 337.453 91.368 335.949 92.84C334.477 94.28 332.141 95 328.941 95H318.141C317.725 95 317.453 94.792 317.325 94.376C317.165 93.928 317.085 93.288 317.085 92.456C317.085 91.528 317.165 90.84 317.325 90.392C317.453 89.944 317.725 89.72 318.141 89.72H322.461ZM329.709 80.168C328.589 80.168 327.757 80.536 327.213 81.272C326.669 81.976 326.397 82.728 326.397 83.528C326.397 83.976 326.445 84.408 326.541 84.824C326.669 85.208 326.941 85.608 327.357 86.024C327.773 86.44 328.397 86.888 329.229 87.368C330.061 87.848 331.213 88.392 332.685 89C332.941 88.68 333.133 88.248 333.261 87.704C333.421 87.128 333.501 86.568 333.501 86.024V84.776C333.501 83.432 333.229 82.328 332.685 81.464C332.141 80.6 331.149 80.168 329.709 80.168ZM335.565 70.712H330.573V66.008H335.565V70.712ZM328.701 70.712H323.709V66.008H328.701V70.712ZM379.454 95C378.814 95 378.158 94.904 377.486 94.712C376.846 94.488 376.302 94.056 375.854 93.416V94.04C375.854 95.8 375.582 97.432 375.038 98.936C374.494 100.472 373.71 101.8 372.686 102.92C371.694 104.072 370.462 104.968 368.99 105.608C367.518 106.28 365.87 106.616 364.046 106.616H361.022C357.438 106.616 354.654 105.512 352.67 103.304C350.686 101.096 349.694 98.072 349.694 94.232V85.64H354.542V94.04C354.542 95.16 354.67 96.168 354.926 97.064C355.182 97.96 355.582 98.728 356.126 99.368C356.702 100.008 357.438 100.504 358.334 100.856C359.262 101.208 360.382 101.384 361.694 101.384H363.806C365.15 101.384 366.286 101.176 367.214 100.76C368.174 100.376 368.942 99.832 369.518 99.128C370.126 98.456 370.558 97.656 370.814 96.728C371.07 95.832 371.198 94.872 371.198 93.848V80.936H376.046V86.648C376.046 87.672 376.366 88.44 377.006 88.952C377.678 89.464 378.494 89.72 379.454 89.72H379.982C380.686 89.72 381.038 90.568 381.038 92.264C381.038 94.088 380.686 95 379.982 95H379.454ZM364.766 80.216H359.342V75.32H364.766V80.216ZM383.329 89.72C385.473 89.72 386.545 88.68 386.545 86.6V80.936H391.489V86.6C391.489 87.72 391.825 88.52 392.497 89C393.201 89.48 394.017 89.72 394.945 89.72H396.193C396.929 89.72 397.297 90.568 397.297 92.264C397.297 94.088 396.929 95 396.193 95H394.801C393.585 95 392.481 94.808 391.489 94.424C390.497 94.008 389.633 93.192 388.897 91.976C388.097 93.192 387.233 94.008 386.305 94.424C385.377 94.808 384.385 95 383.329 95H379.969C379.553 95 379.281 94.792 379.153 94.376C378.993 93.928 378.913 93.288 378.913 92.456C378.913 91.528 378.993 90.84 379.153 90.392C379.281 89.944 379.553 89.72 379.969 89.72H383.329ZM393.985 105.08H389.041V100.376H393.985V105.08ZM387.073 105.08H382.129V100.376H387.073V105.08ZM397.292 89.72C399.468 89.72 400.556 88.68 400.556 86.6V65.24H405.452V86.936C405.452 89.592 404.764 91.608 403.388 92.984C402.044 94.328 400.156 95 397.724 95H396.188C395.771 95 395.499 94.792 395.371 94.376C395.211 93.928 395.131 93.288 395.131 92.456C395.131 91.528 395.211 90.84 395.371 90.392C395.499 89.944 395.771 89.72 396.188 89.72H397.292ZM415.381 101.384C416.597 101.384 417.637 101.208 418.501 100.856C419.397 100.536 420.133 100.088 420.709 99.512C421.285 98.936 421.733 98.248 422.053 97.448C422.373 96.68 422.565 95.864 422.629 95H419.365C417.701 95 416.341 94.824 415.285 94.472C414.229 94.12 413.397 93.608 412.789 92.936C412.181 92.232 411.749 91.384 411.493 90.392C411.269 89.4 411.157 88.28 411.157 87.032C411.157 85.784 411.333 84.616 411.685 83.528C412.037 82.408 412.549 81.432 413.221 80.6C413.925 79.768 414.789 79.112 415.813 78.632C416.837 78.12 418.021 77.864 419.365 77.864C420.453 77.864 421.477 78.04 422.437 78.392C423.429 78.744 424.293 79.304 425.029 80.072C425.765 80.84 426.341 81.832 426.757 83.048C427.205 84.264 427.429 85.752 427.429 87.512V94.232C427.429 95.864 427.157 97.432 426.613 98.936C426.069 100.44 425.285 101.752 424.261 102.872C423.269 104.024 422.037 104.936 420.565 105.608C419.093 106.28 417.445 106.616 415.621 106.616H410.773L410.485 101.384H415.381ZM415.861 86.696C415.861 87.816 416.101 88.6 416.581 89.048C417.093 89.496 418.085 89.72 419.557 89.72H422.725V87.464C422.725 85.8 422.405 84.632 421.765 83.96C421.157 83.288 420.293 82.952 419.173 82.952C418.117 82.952 417.301 83.272 416.725 83.912C416.149 84.552 415.861 85.48 415.861 86.696ZM433.01 65.24H437.906V95H433.01V65.24ZM134.485 135.96C134.485 137.496 134.453 138.904 134.389 140.184C134.357 141.432 134.293 142.616 134.197 143.736C134.133 144.856 134.053 145.928 133.957 146.952C133.861 147.976 133.749 149.016 133.621 150.072H130.645C130.549 149.016 130.437 147.992 130.309 147C130.181 145.976 130.069 144.904 129.973 143.784C129.877 142.664 129.797 141.464 129.733 140.184C129.669 138.904 129.637 137.496 129.637 135.96V129.912H134.485V135.96ZM132.181 159C131.253 159 130.533 158.776 130.021 158.328C129.509 157.88 129.253 157.144 129.253 156.12C129.253 155.096 129.509 154.36 130.021 153.912C130.533 153.464 131.253 153.24 132.181 153.24C133.045 153.24 133.733 153.464 134.245 153.912C134.789 154.36 135.061 155.096 135.061 156.12C135.061 157.144 134.789 157.88 134.245 158.328C133.733 158.776 133.045 159 132.181 159ZM146.933 158.232C146.933 159.96 146.629 161.576 146.021 163.08C145.445 164.584 144.629 165.896 143.573 167.016C142.549 168.136 141.317 169.016 139.877 169.656C138.469 170.296 136.948 170.616 135.316 170.616H132.292L132.052 165.384H134.068C135.508 165.384 136.741 165.176 137.764 164.76C138.757 164.376 139.573 163.848 140.213 163.176C140.853 162.504 141.317 161.736 141.605 160.872C141.893 160.008 142.037 159.128 142.037 158.232V144.936H146.933V158.232ZM152.51 129.24H157.406V159H152.51V129.24ZM180.036 147C180.9 147.992 181.524 148.984 181.908 149.976C182.324 150.936 182.532 151.88 182.532 152.808C182.532 153.672 182.372 154.488 182.052 155.256C181.764 155.992 181.316 156.648 180.708 157.224C180.1 157.768 179.332 158.2 178.404 158.52C177.508 158.84 176.468 159 175.284 159H162.468L162.228 153.72H174.468C176.036 153.72 176.82 153.128 176.82 151.944C176.82 151.368 176.548 150.776 176.004 150.168L167.844 140.856L171.636 137.304L180.036 147ZM193.661 158.232C193.661 159.96 193.373 161.576 192.797 163.08C192.221 164.584 191.421 165.896 190.397 167.016C189.405 168.136 188.205 169.016 186.797 169.656C185.421 170.296 183.917 170.616 182.285 170.616H179.261L179.021 165.384H181.037C182.477 165.384 183.709 165.176 184.733 164.76C185.725 164.376 186.541 163.848 187.181 163.176C187.821 162.504 188.285 161.736 188.573 160.872C188.861 160.008 189.005 159.128 189.005 158.232V144.936H193.901V150.648C193.901 151.672 194.205 152.44 194.813 152.952C195.453 153.464 196.253 153.72 197.213 153.72H197.741C198.445 153.72 198.797 154.568 198.797 156.264C198.797 158.088 198.445 159 197.741 159H197.213C196.573 159 195.933 158.904 195.293 158.712C194.653 158.488 194.109 158.056 193.661 157.416V158.232ZM202.135 153.72C204.279 153.72 205.351 152.68 205.351 150.6V144.936H210.247V150.936C210.247 153.592 209.575 155.608 208.231 156.984C206.887 158.328 204.999 159 202.567 159H197.719C197.303 159 197.031 158.792 196.903 158.376C196.743 157.928 196.663 157.288 196.663 156.456C196.663 155.528 196.743 154.84 196.903 154.392C197.031 153.944 197.303 153.72 197.719 153.72H202.135ZM204.631 169.272H199.207V164.376H204.631V169.272ZM226.428 165.384C227.644 165.384 228.684 165.208 229.548 164.856C230.444 164.536 231.18 164.088 231.756 163.512C232.332 162.936 232.78 162.248 233.1 161.448C233.42 160.68 233.612 159.864 233.676 159H230.412C228.748 159 227.388 158.824 226.332 158.472C225.276 158.12 224.444 157.608 223.836 156.936C223.228 156.232 222.796 155.384 222.54 154.392C222.316 153.4 222.204 152.28 222.204 151.032C222.204 149.784 222.38 148.616 222.732 147.528C223.084 146.408 223.596 145.432 224.268 144.6C224.972 143.768 225.836 143.112 226.86 142.632C227.884 142.12 229.068 141.864 230.412 141.864C231.5 141.864 232.524 142.04 233.484 142.392C234.476 142.744 235.34 143.304 236.076 144.072C236.812 144.84 237.388 145.832 237.804 147.048C238.252 148.264 238.476 149.752 238.476 151.512V158.232C238.476 159.864 238.204 161.432 237.66 162.936C237.116 164.44 236.332 165.752 235.308 166.872C234.316 168.024 233.084 168.936 231.612 169.608C230.14 170.28 228.492 170.616 226.668 170.616H221.82L221.532 165.384H226.428ZM226.908 150.696C226.908 151.816 227.148 152.6 227.628 153.048C228.14 153.496 229.132 153.72 230.604 153.72H233.772V151.464C233.772 149.8 233.452 148.632 232.812 147.96C232.204 147.288 231.34 146.952 230.22 146.952C229.164 146.952 228.348 147.272 227.772 147.912C227.196 148.552 226.908 149.48 226.908 150.696ZM239.295 165.384H240.015C241.359 165.384 242.511 165.176 243.471 164.76C244.431 164.376 245.199 163.848 245.775 163.176C246.383 162.504 246.831 161.736 247.119 160.872C247.407 160.008 247.551 159.128 247.551 158.232V144.936H252.447V158.232C252.447 159.96 252.143 161.576 251.535 163.08C250.959 164.584 250.143 165.896 249.087 167.016C248.063 168.136 246.831 169.016 245.391 169.656C243.983 170.296 242.463 170.616 240.831 170.616H239.583L239.295 165.384ZM290.264 157.8C290.264 159.624 289.976 161.304 289.4 162.84C288.856 164.408 288.056 165.768 287 166.92C285.976 168.072 284.712 168.968 283.208 169.608C281.736 170.28 280.088 170.616 278.264 170.616H275.24C271.656 170.616 268.872 169.512 266.888 167.304C264.904 165.096 263.912 162.072 263.912 158.232V149.64H268.76V158.04C268.76 159.16 268.888 160.168 269.144 161.064C269.4 161.96 269.8 162.728 270.344 163.368C270.92 164.008 271.656 164.504 272.552 164.856C273.48 165.208 274.6 165.384 275.912 165.384H278.024C279.368 165.384 280.504 165.176 281.432 164.76C282.392 164.376 283.16 163.832 283.736 163.128C284.344 162.456 284.776 161.656 285.032 160.728C285.288 159.832 285.416 158.872 285.416 157.848V144.936H290.264V157.8ZM278.984 144.216H273.56V139.32H278.984V144.216ZM302.572 159C301.676 159 300.812 158.888 299.98 158.664C299.18 158.408 298.476 157.992 297.868 157.416C297.26 156.84 296.78 156.088 296.428 155.16C296.076 154.2 295.9 153.016 295.9 151.608V129.24H300.796V150.408C300.796 151.432 301.02 152.248 301.468 152.856C301.948 153.432 302.652 153.72 303.58 153.72H304.684C305.388 153.72 305.74 154.568 305.74 156.264C305.74 158.088 305.388 159 304.684 159H302.572ZM306.8 153.72C309.008 153.72 310.112 152.68 310.112 150.6V144.936H314.96V150.6C314.96 151.72 315.296 152.52 315.968 153C316.672 153.48 317.472 153.72 318.368 153.72C320.768 153.72 321.968 152.68 321.968 150.6V144.936H326.864V150.6C326.864 151.72 327.152 152.52 327.728 153C328.336 153.48 329.04 153.72 329.84 153.72C330.8 153.72 331.536 153.464 332.048 152.952C332.592 152.408 332.864 151.624 332.864 150.6V144.936H337.76V150.936C337.76 153.592 337.072 155.608 335.696 156.984C334.352 158.328 332.464 159 330.031 159C328.944 159 327.904 158.808 326.912 158.424C325.92 158.008 325.056 157.192 324.32 155.976C323.552 157.192 322.64 158.008 321.584 158.424C320.56 158.808 319.488 159 318.368 159C317.152 159 316.032 158.808 315.008 158.424C314.016 158.008 313.152 157.192 312.416 155.976C311.648 157.192 310.784 158.008 309.824 158.424C308.864 158.808 307.84 159 306.752 159H304.688C304.271 159 303.999 158.792 303.871 158.376C303.711 157.928 303.631 157.288 303.631 156.456C303.631 155.528 303.711 154.84 303.871 154.392C303.999 153.944 304.271 153.72 304.688 153.72H306.8ZM326.912 132.6H321.824V127.944H326.912V132.6ZM330.272 139.32H325.28V134.616H330.272V139.32ZM323.408 139.32H318.416V134.616H323.408V139.32ZM347.178 165.384C348.394 165.384 349.434 165.208 350.298 164.856C351.194 164.536 351.93 164.088 352.506 163.512C353.082 162.936 353.53 162.248 353.85 161.448C354.17 160.68 354.362 159.864 354.426 159H351.162C349.498 159 348.138 158.824 347.082 158.472C346.026 158.12 345.194 157.608 344.586 156.936C343.978 156.232 343.546 155.384 343.29 154.392C343.066 153.4 342.954 152.28 342.954 151.032C342.954 149.784 343.13 148.616 343.482 147.528C343.834 146.408 344.346 145.432 345.018 144.6C345.722 143.768 346.586 143.112 347.61 142.632C348.634 142.12 349.818 141.864 351.162 141.864C352.25 141.864 353.274 142.04 354.234 142.392C355.226 142.744 356.09 143.304 356.826 144.072C357.562 144.84 358.138 145.832 358.554 147.048C359.002 148.264 359.226 149.752 359.226 151.512V153.72H363.114C363.818 153.72 364.17 154.568 364.17 156.264C364.17 158.088 363.818 159 363.114 159H359.13C359.066 160.568 358.746 162.056 358.17 163.464C357.594 164.872 356.794 166.104 355.77 167.16C354.778 168.216 353.578 169.048 352.17 169.656C350.762 170.296 349.178 170.616 347.418 170.616H342.57L342.282 165.384H347.178ZM347.658 150.696C347.658 151.816 347.898 152.6 348.378 153.048C348.89 153.496 349.882 153.72 351.354 153.72H354.522V151.464C354.522 149.8 354.202 148.632 353.562 147.96C352.954 147.288 352.09 146.952 350.97 146.952C349.914 146.952 349.098 147.272 348.522 147.912C347.946 148.552 347.658 149.48 347.658 150.696ZM374.95 144.6C373.862 144.6 372.982 144.952 372.31 145.656C371.67 146.36 371.35 147.24 371.35 148.296C371.35 149.352 371.718 150.312 372.454 151.176C373.222 152.008 374.118 152.696 375.142 153.24C376.102 152.696 376.902 152.008 377.542 151.176C378.182 150.344 378.502 149.416 378.502 148.392C378.502 147.272 378.166 146.36 377.494 145.656C376.854 144.952 376.006 144.6 374.95 144.6ZM363.094 159C362.678 159 362.406 158.792 362.278 158.376C362.118 157.928 362.038 157.288 362.038 156.456C362.038 155.528 362.118 154.84 362.278 154.392C362.406 153.944 362.678 153.72 363.094 153.72H369.862C367.846 151.96 366.838 149.896 366.838 147.528C366.838 146.472 367.03 145.464 367.414 144.504C367.798 143.544 368.358 142.696 369.094 141.96C369.83 141.192 370.71 140.6 371.734 140.184C372.79 139.736 373.99 139.512 375.334 139.512C376.646 139.512 377.782 139.736 378.742 140.184C379.734 140.632 380.534 141.224 381.142 141.96C381.782 142.696 382.246 143.528 382.534 144.456C382.854 145.384 383.014 146.328 383.014 147.288C383.014 148.6 382.758 149.784 382.246 150.84C381.766 151.864 381.062 152.824 380.134 153.72H386.854C388.39 153.72 389.158 153.128 389.158 151.944C389.158 151.688 389.094 151.4 388.966 151.08C388.838 150.76 388.598 150.376 388.246 149.928L380.278 140.232L383.878 136.824L391.99 146.808C392.918 147.928 393.558 148.984 393.91 149.976C394.294 150.936 394.486 151.88 394.486 152.808C394.486 153.672 394.326 154.488 394.006 155.256C393.718 155.992 393.27 156.648 392.662 157.224C392.054 157.768 391.286 158.2 390.358 158.52C389.462 158.84 388.422 159 387.238 159H381.958C380.486 159 379.174 158.936 378.022 158.808C376.902 158.68 376.022 158.44 375.382 158.088C374.902 158.312 374.326 158.488 373.654 158.616C373.014 158.744 372.342 158.84 371.638 158.904C370.966 158.936 370.294 158.968 369.622 159C368.982 159 368.438 159 367.99 159H363.094ZM405.63 158.232C405.63 159.96 405.342 161.576 404.766 163.08C404.19 164.584 403.39 165.896 402.366 167.016C401.374 168.136 400.174 169.016 398.766 169.656C397.39 170.296 395.886 170.616 394.254 170.616H391.23L390.99 165.384H393.006C394.446 165.384 395.678 165.176 396.702 164.76C397.694 164.376 398.51 163.848 399.15 163.176C399.79 162.504 400.254 161.736 400.542 160.872C400.83 160.008 400.974 159.128 400.974 158.232V144.936H405.87V150.648C405.87 151.672 406.174 152.44 406.782 152.952C407.422 153.464 408.222 153.72 409.182 153.72H409.71C410.414 153.72 410.766 154.568 410.766 156.264C410.766 158.088 410.414 159 409.71 159H409.182C408.542 159 407.902 158.904 407.262 158.712C406.622 158.488 406.078 158.056 405.63 157.416V158.232ZM405.918 139.32H400.494V134.424H405.918V139.32ZM413.048 153.72C415.192 153.72 416.264 152.68 416.264 150.6V144.936H421.208V150.6C421.208 151.72 421.544 152.52 422.216 153C422.92 153.48 423.736 153.72 424.664 153.72H425.912C426.648 153.72 427.016 154.568 427.016 156.264C427.016 158.088 426.648 159 425.912 159H424.52C423.304 159 422.2 158.808 421.208 158.424C420.216 158.008 419.352 157.192 418.616 155.976C417.816 157.192 416.952 158.008 416.023 158.424C415.096 158.808 414.104 159 413.048 159H409.688C409.271 159 408.999 158.792 408.871 158.376C408.711 157.928 408.631 157.288 408.631 156.456C408.631 155.528 408.711 154.84 408.871 154.392C408.999 153.944 409.271 153.72 409.688 153.72H413.048ZM423.704 169.08H418.76V164.376H423.704V169.08ZM416.792 169.08H411.848V164.376H416.792V169.08ZM430.322 153.72C432.466 153.72 433.538 152.68 433.538 150.6V144.936H438.434V150.936C438.434 153.592 437.762 155.608 436.418 156.984C435.074 158.328 433.186 159 430.754 159H425.906C425.49 159 425.218 158.792 425.09 158.376C424.93 157.928 424.85 157.288 424.85 156.456C424.85 155.528 424.93 154.84 425.09 154.392C425.218 153.944 425.49 153.72 425.906 153.72H430.322ZM438.578 139.32H433.586V134.616H438.578V139.32ZM431.714 139.32H426.722V134.616H431.714V139.32Z" fill="#191919"/>
<g clip-path="url(#clip0_421_11)">
<path d="M41.8085 65.1966L21.06 66.1518L30.6904 47.4903L41.8085 65.1966Z" fill="#E3ECFF"/>
</g>
<g clip-path="url(#clip1_421_11)">
<path d="M392.699 20.4942L377 6.89462L396.836 3.69549e-06L392.699 20.4942Z" fill="#E3ECFF"/>
</g>
<circle cx="447" cy="19" r="6" fill="#E3ECFF"/>
<circle cx="6" cy="115" r="6" fill="#E3ECFF"/>
<g clip-path="url(#clip2_421_11)">
<path d="M58.55 165.91C58.1769 165.914 57.8173 165.77 57.55 165.51L47.37 155.33C47.1141 155.074 46.9703 154.727 46.9703 154.365C46.9703 154.003 47.1141 153.656 47.37 153.4C47.6259 153.144 47.973 153 48.335 153C48.6969 153 49.0441 153.144 49.3 153.4L59.48 163.58C59.6705 163.774 59.7991 164.02 59.8493 164.287C59.8994 164.555 59.869 164.831 59.7617 165.08C59.6545 165.33 59.4754 165.543 59.2471 165.69C59.0189 165.838 58.7518 165.914 58.48 165.91H58.55Z" fill="#E3ECFF"/>
<path d="M48.37 165.91C47.9969 165.914 47.6373 165.77 47.37 165.51C47.1154 165.253 46.9724 164.907 46.9724 164.545C46.9724 164.183 47.1154 163.837 47.37 163.58L57.58 153.42C57.7067 153.293 57.8571 153.193 58.0227 153.124C58.1883 153.056 58.3658 153.02 58.545 153.02C58.7242 153.02 58.9017 153.056 59.0673 153.124C59.2329 153.193 59.3833 153.293 59.51 153.42C59.6368 153.547 59.7372 153.697 59.8058 153.863C59.8744 154.028 59.9097 154.206 59.9097 154.385C59.9097 154.564 59.8744 154.742 59.8058 154.907C59.7372 155.073 59.6368 155.223 59.51 155.35L49.33 165.53C49.0712 165.776 48.7271 165.912 48.37 165.91Z" fill="#E3ECFF"/>
</g>
<g clip-path="url(#clip3_421_11)">
<path d="M464.55 81.9099C464.177 81.9142 463.817 81.7704 463.55 81.5099L453.37 71.33C453.114 71.074 452.97 70.7269 452.97 70.365C452.97 70.003 453.114 69.6559 453.37 69.4C453.626 69.144 453.973 69.0002 454.335 69.0002C454.697 69.0002 455.044 69.144 455.3 69.4L465.48 79.58C465.671 79.7739 465.799 80.0201 465.849 80.2873C465.899 80.5545 465.869 80.8306 465.762 81.0805C465.654 81.3303 465.475 81.5426 465.247 81.6903C465.019 81.838 464.752 81.9145 464.48 81.9099H464.55Z" fill="#E3ECFF"/>
<path d="M454.37 81.91C453.997 81.9142 453.637 81.7704 453.37 81.51C453.115 81.2534 452.972 80.9065 452.972 80.545C452.972 80.1835 453.115 79.8366 453.37 79.58L463.58 69.42C463.707 69.2933 463.857 69.1927 464.023 69.1241C464.188 69.0556 464.366 69.0203 464.545 69.0203C464.724 69.0203 464.902 69.0556 465.067 69.1241C465.233 69.1927 465.383 69.2933 465.51 69.42C465.637 69.5467 465.737 69.6972 465.806 69.8627C465.874 70.0283 465.91 70.2058 465.91 70.385C465.91 70.5642 465.874 70.7417 465.806 70.9072C465.737 71.0728 465.637 71.2232 465.51 71.35L455.33 81.53C455.071 81.7761 454.727 81.9123 454.37 81.91Z" fill="#E3ECFF"/>
</g>
<defs>
<linearGradient id="paint0_linear_421_11" x1="260.89" y1="42" x2="254.102" y2="238.831" gradientUnits="userSpaceOnUse">
<stop stop-color="#F5F2FF" stop-opacity="0.8"/>
<stop offset="1" stop-color="#FCFBFF"/>
</linearGradient>
<clipPath id="clip0_421_11">
<rect width="21" height="18" fill="white" transform="matrix(0.458592 -0.888647 -0.888647 -0.458592 37.0557 74.4065)"/>
</clipPath>
<clipPath id="clip1_421_11">
<rect width="21" height="18" fill="white" transform="matrix(0.944568 -0.328315 -0.328315 -0.944568 382.91 23.8969)"/>
</clipPath>
<clipPath id="clip2_421_11">
<rect width="12.91" height="12.91" fill="white" transform="translate(47 153)"/>
</clipPath>
<clipPath id="clip3_421_11">
<rect width="12.91" height="12.91" fill="white" transform="translate(453 69)"/>
</clipPath>
</defs>
</svg>
