<svg width="673" height="138" viewBox="0 0 673 138" fill="none" xmlns="http://www.w3.org/2000/svg">
<path d="M539.651 96.0449C548.247 96.6318 556.84 97.2841 565.437 97.7904C577.757 98.5209 590.081 99.138 602.403 99.8383C602.938 99.871 603.463 100.254 604 100.476C603.475 100.657 602.946 101.017 602.425 100.999C592.089 100.617 581.753 100.261 571.422 99.7576C560.958 99.2539 550.5 98.5914 540.039 97.9743C538.548 97.8861 537.045 97.6972 535.571 97.4705C534.773 97.3396 533.701 97.2035 533.675 95.8963C533.653 94.725 534.659 94.5109 535.394 94.3849C538.975 93.7175 542.548 92.861 546.151 92.5462C557.788 91.5387 569.437 90.7125 581.083 89.8183C581.445 89.807 581.802 89.7042 582.133 89.516C578.448 89.3347 574.765 89.0324 571.08 88.9946C552.431 88.8057 533.775 88.3271 515.129 88.647C498.35 88.9367 481.579 90.1407 464.803 90.914C459.214 91.1659 453.639 91.3523 448.056 91.5563C447.589 91.6052 447.118 91.5713 446.659 91.4555C446.405 91.3699 446.218 90.9518 446 90.6999C446.234 90.4656 446.451 90.0576 446.703 90.0198C450.296 89.4808 453.889 88.8989 457.502 88.5085C472.542 86.8838 487.607 85.7101 502.699 85.3473C515.862 85.035 529.03 84.9645 542.194 85.0149C550.87 85.0476 559.547 85.3599 568.216 85.7705C578.645 86.2743 589.061 87.1206 599.431 88.7125C599.792 88.7679 600.201 88.7604 600.497 88.977C600.842 89.2289 601.096 89.7049 601.377 90.0828C601.044 90.3951 600.722 90.9593 600.379 90.982C597.824 91.1508 595.261 91.1633 592.704 91.317C581.184 92.0097 569.659 92.6293 558.147 93.4908C552.279 93.9316 546.432 94.8232 540.582 95.5058C540.266 95.5436 539.955 95.6267 539.639 95.6872L539.651 96.0449Z" fill="#FFAF20"/>
<path d="M53.7964 58.9321C52.4644 58.9321 51.3844 58.5721 50.5564 57.8521C49.7644 57.0961 49.3684 55.9801 49.3684 54.5041C49.3684 52.9921 49.7644 51.8761 50.5564 51.1561C51.3844 50.4001 52.4644 50.0221 53.7964 50.0221C55.1644 50.0221 56.2444 50.4001 57.0364 51.1561C57.8644 51.8761 58.2784 52.9921 58.2784 54.5041C58.2784 55.9801 57.8644 57.0961 57.0364 57.8521C56.2444 58.5721 55.1644 58.9321 53.7964 58.9321ZM53.7964 72.0001C52.4644 72.0001 51.3844 71.6401 50.5564 70.9201C49.7644 70.1641 49.3684 69.0481 49.3684 67.5721C49.3684 66.0601 49.7644 64.9441 50.5564 64.2241C51.3844 63.4681 52.4644 63.0901 53.7964 63.0901C55.1644 63.0901 56.2444 63.4681 57.0364 64.2241C57.8644 64.9441 58.2784 66.0601 58.2784 67.5721C58.2784 69.0481 57.8644 70.1641 57.0364 70.9201C56.2444 71.6401 55.1644 72.0001 53.7964 72.0001ZM71.9615 71.1361C71.9615 72.9721 71.6375 74.7361 70.9895 76.4281C70.3775 78.1201 69.4955 79.5961 68.3435 80.8561C67.2275 82.1521 65.8775 83.1781 64.2935 83.9341C62.7455 84.6901 61.0355 85.0681 59.1635 85.0681H55.5995L55.3295 77.6701H57.3815C58.8935 77.6701 60.1715 77.4721 61.2155 77.0761C62.2235 76.7161 63.0335 76.2301 63.6455 75.6181C64.2935 75.0061 64.7435 74.3041 64.9955 73.5121C65.2835 72.7561 65.4275 71.9641 65.4275 71.1361V55.9621H72.2855V61.5781C72.2855 62.6221 72.5915 63.3961 73.2035 63.9001C73.8515 64.3681 74.6255 64.6021 75.5255 64.6021H76.1195C76.9115 64.6021 77.3075 65.7901 77.3075 68.1661C77.3075 70.7221 76.9115 72.0001 76.1195 72.0001H75.5255C74.9135 72.0001 74.2835 71.9101 73.6355 71.7301C73.0235 71.5141 72.4655 71.1001 71.9615 70.4881V71.1361ZM79.7046 64.6021C80.7486 64.6021 81.5046 64.3681 81.9726 63.9001C82.4406 63.3961 82.6746 62.6221 82.6746 61.5781V55.9621H89.5326V61.5781C89.5326 62.6221 89.8566 63.3961 90.5046 63.9001C91.1526 64.3681 91.9986 64.6021 93.0426 64.6021H94.2306C95.0586 64.6021 95.4726 65.7901 95.4726 68.1661C95.4726 70.7221 95.0586 72.0001 94.2306 72.0001H92.7726C91.4046 72.0001 90.1446 71.8021 88.9926 71.4061C87.8766 70.9741 86.8686 70.0741 85.9686 68.7061C85.0326 70.0741 84.0426 70.9741 82.9986 71.4061C81.9906 71.8021 80.8926 72.0001 79.7046 72.0001H76.1406C75.6726 72.0001 75.3666 71.7121 75.2226 71.1361C75.0426 70.5241 74.9526 69.6241 74.9526 68.4361C74.9526 67.0681 75.0426 66.0961 75.2226 65.5201C75.3666 64.9081 75.6726 64.6021 76.1406 64.6021H79.7046ZM92.7186 84.1501H86.1846V77.8861H92.7186V84.1501ZM84.4026 84.1501H77.8686V77.8861H84.4026V84.1501ZM109.673 69.0301C108.629 69.6421 107.621 70.1461 106.649 70.5421C105.677 70.9021 104.651 71.1901 103.571 71.4061C102.491 71.6221 101.321 71.7841 100.061 71.8921C98.8005 71.9641 97.3605 72.0001 95.7405 72.0001H94.2285C93.7605 72.0001 93.4545 71.7121 93.3105 71.1361C93.1305 70.5241 93.0405 69.6241 93.0405 68.4361C93.0405 67.0681 93.1305 66.0961 93.3105 65.5201C93.4545 64.9081 93.7605 64.6021 94.2285 64.6021H96.0105C97.3425 64.6021 98.5305 64.6021 99.5745 64.6021C100.655 64.5661 101.627 64.4941 102.491 64.3861C103.391 64.2781 104.219 64.0981 104.975 63.8461C105.767 63.5941 106.559 63.2521 107.351 62.8201L112.643 59.7961C112.427 59.5081 112.229 59.2741 112.049 59.0941C111.869 58.8781 111.653 58.7161 111.401 58.6081C111.149 58.5001 110.843 58.4281 110.483 58.3921C110.123 58.3561 109.655 58.3381 109.079 58.3381H98.0625L98.3865 50.8861H110.267C111.311 50.8861 112.319 51.0481 113.291 51.3721C114.299 51.6961 115.235 52.3081 116.099 53.2081C116.963 54.0721 117.755 55.2781 118.475 56.8261C119.231 58.3741 119.861 60.3721 120.365 62.8201L109.673 69.0301ZM111.185 45.5401H104.057V39.0061H111.185V45.5401ZM125.681 38.5201H132.539V72.0001H125.681V38.5201ZM161.91 77.6701C164.754 77.6701 166.842 77.3101 168.174 76.5901C169.542 75.9061 170.226 74.9701 170.226 73.7821C170.226 72.5941 169.632 72.0001 168.444 72.0001H159.21V60.9841C159.21 59.5801 159.426 58.2841 159.858 57.0961C160.29 55.9081 160.92 54.8821 161.748 54.0181C162.576 53.1181 163.584 52.4341 164.772 51.9661C165.96 51.4621 167.292 51.2101 168.768 51.2101H174.978L175.248 58.6081H168.768C166.968 58.6081 166.068 59.5081 166.068 61.3081V64.6021H169.632C172.44 64.6021 174.366 65.3041 175.41 66.7081C176.49 68.1121 177.03 70.0741 177.03 72.5941C177.03 74.3941 176.67 76.0501 175.95 77.5621C175.266 79.0741 174.294 80.3881 173.034 81.5041C171.774 82.6201 170.262 83.4841 168.498 84.0961C166.77 84.7441 164.88 85.0681 162.828 85.0681H158.022C153.99 85.0681 150.858 83.8261 148.626 81.3421C146.394 78.8581 145.278 75.4561 145.278 71.1361V61.3081H152.082V70.8121C152.082 71.8561 152.19 72.7921 152.406 73.6201C152.622 74.4841 152.982 75.2041 153.486 75.7801C154.026 76.3921 154.728 76.8601 155.592 77.1841C156.492 77.5081 157.608 77.6701 158.94 77.6701H161.91ZM190.357 72.0001C189.313 72.0001 188.323 71.8741 187.387 71.6221C186.451 71.3341 185.623 70.8661 184.903 70.2181C184.219 69.5701 183.661 68.7241 183.229 67.6801C182.833 66.6001 182.635 65.2681 182.635 63.6841V38.5201H189.493V61.9021C189.493 63.7021 190.285 64.6021 191.869 64.6021H193.327C194.119 64.6021 194.515 65.7901 194.515 68.1661C194.515 70.7221 194.119 72.0001 193.327 72.0001H190.357ZM206.276 56.5561C205.448 56.5561 204.764 56.8261 204.224 57.3661C203.684 57.9061 203.414 58.6261 203.414 59.5261C203.414 60.2461 203.648 61.0201 204.116 61.8481C204.584 62.6761 205.34 63.3961 206.384 64.0081C207.428 63.3961 208.13 62.6761 208.49 61.8481C208.85 61.0201 209.03 60.2461 209.03 59.5261C209.03 58.6261 208.76 57.9061 208.22 57.3661C207.716 56.8261 207.068 56.5561 206.276 56.5561ZM193.316 72.0001C192.848 72.0001 192.542 71.7121 192.398 71.1361C192.218 70.5241 192.128 69.6241 192.128 68.4361C192.128 67.0681 192.218 66.0961 192.398 65.5201C192.542 64.9081 192.848 64.6021 193.316 64.6021H199.256C198.5 63.5581 197.96 62.5141 197.636 61.4701C197.312 60.4261 197.15 59.3821 197.15 58.3381C197.15 57.1501 197.366 56.0161 197.798 54.9361C198.23 53.8561 198.86 52.9201 199.688 52.1281C200.516 51.3001 201.506 50.6521 202.658 50.1841C203.846 49.6801 205.196 49.4281 206.708 49.4281C208.184 49.4281 209.462 49.6801 210.542 50.1841C211.622 50.6881 212.504 51.3541 213.188 52.1821C213.908 53.0101 214.43 53.9461 214.754 54.9901C215.114 55.9981 215.294 57.0241 215.294 58.0681C215.294 59.4001 215.096 60.6061 214.7 61.6861C214.34 62.7301 213.854 63.7021 213.242 64.6021H219.452C220.388 64.6021 220.856 64.2601 220.856 63.5761C220.856 63.3961 220.802 63.2161 220.694 63.0361C220.622 62.8561 220.442 62.5681 220.154 62.1721L211.73 51.4801L216.806 46.7281L225.392 57.7441C226.472 59.1121 227.228 60.3721 227.66 61.5241C228.128 62.6761 228.362 63.7921 228.362 64.8721C228.362 65.8441 228.182 66.7621 227.822 67.6261C227.498 68.4901 226.976 69.2461 226.256 69.8941C225.572 70.5421 224.708 71.0641 223.664 71.4601C222.62 71.8201 221.414 72.0001 220.046 72.0001H214.106C212.45 72.0001 210.974 71.9281 209.678 71.7841C208.418 71.6041 207.428 71.2801 206.708 70.8121C206.168 71.1001 205.52 71.3341 204.764 71.5141C204.044 71.6581 203.288 71.7661 202.496 71.8381C201.74 71.9101 200.984 71.9641 200.228 72.0001C199.508 72.0001 198.896 72.0001 198.392 72.0001H193.316ZM263.104 70.4881C263.104 72.5761 262.78 74.5021 262.132 76.2661C261.52 78.0661 260.62 79.6141 259.432 80.9101C258.244 82.2061 256.804 83.2141 255.112 83.9341C253.42 84.6901 251.53 85.0681 249.442 85.0681H245.878C241.846 85.0681 238.714 83.8261 236.482 81.3421C234.25 78.8581 233.134 75.4561 233.134 71.1361V61.3081H239.938V70.8121C239.938 71.8561 240.046 72.7921 240.262 73.6201C240.478 74.4841 240.838 75.2041 241.342 75.7801C241.882 76.3921 242.584 76.8601 243.448 77.1841C244.348 77.5081 245.464 77.6701 246.796 77.6701H249.172C250.576 77.6701 251.728 77.4721 252.628 77.0761C253.564 76.7161 254.302 76.1941 254.842 75.5101C255.382 74.8621 255.76 74.1061 255.976 73.2421C256.192 72.3781 256.3 71.4601 256.3 70.4881V38.5201H263.104V70.4881ZM277.316 72.0001C276.272 72.0001 275.282 71.8741 274.346 71.6221C273.41 71.3341 272.582 70.8661 271.862 70.2181C271.178 69.5701 270.62 68.7241 270.188 67.6801C269.792 66.6001 269.594 65.2681 269.594 63.6841V38.5201H276.452V61.9021C276.452 63.7021 277.244 64.6021 278.828 64.6021H280.286C281.078 64.6021 281.474 65.7901 281.474 68.1661C281.474 70.7221 281.078 72.0001 280.286 72.0001H277.316ZM282.975 64.6021C284.955 64.6021 285.945 63.5941 285.945 61.5781V55.9621H292.749V61.5781C292.749 62.6221 293.055 63.3961 293.667 63.9001C294.315 64.3681 295.089 64.6021 295.989 64.6021C297.177 64.6021 298.023 64.3681 298.527 63.9001C299.031 63.3961 299.283 62.6221 299.283 61.5781V55.9621H306.141V61.5781C306.141 62.6221 306.393 63.3961 306.897 63.9001C307.437 64.3681 308.067 64.6021 308.787 64.6021C310.551 64.6021 311.433 63.5941 311.433 61.5781V55.9621H318.291V62.1721C318.291 65.4481 317.499 67.9141 315.915 69.5701C314.331 71.1901 312.045 72.0001 309.057 72.0001C307.905 72.0001 306.753 71.8021 305.601 71.4061C304.485 70.9741 303.477 70.0741 302.577 68.7061C301.677 70.0741 300.651 70.9741 299.499 71.4061C298.347 71.8021 297.177 72.0001 295.989 72.0001C294.657 72.0001 293.415 71.8021 292.263 71.4061C291.111 70.9741 290.085 70.0741 289.185 68.7061C288.285 70.0741 287.313 70.9741 286.269 71.4061C285.261 71.8021 284.163 72.0001 282.975 72.0001H280.275C279.807 72.0001 279.501 71.7121 279.357 71.1361C279.177 70.5241 279.087 69.6241 279.087 68.4361C279.087 67.0681 279.177 66.0961 279.357 65.5201C279.501 64.9081 279.807 64.6021 280.275 64.6021H282.975ZM343.446 71.1361C343.446 72.9721 343.104 74.7361 342.42 76.4281C341.772 78.1201 340.854 79.5961 339.666 80.8561C338.514 82.1521 337.128 83.1781 335.508 83.9341C333.924 84.6901 332.196 85.0681 330.324 85.0681H326.76L326.49 77.6701H328.542C330.054 77.6701 331.332 77.4721 332.376 77.0761C333.384 76.7161 334.194 76.2301 334.806 75.6181C335.454 75.0061 335.904 74.3041 336.156 73.5121C336.444 72.7561 336.588 71.9641 336.588 71.1361V55.9621H343.446V71.1361ZM367.525 58.0681C368.533 59.2201 369.271 60.3721 369.739 61.5241C370.243 62.6761 370.495 63.7921 370.495 64.8721C370.495 65.8441 370.315 66.7621 369.955 67.6261C369.631 68.4901 369.109 69.2461 368.389 69.8941C367.705 70.5421 366.841 71.0641 365.797 71.4601C364.753 71.8201 363.547 72.0001 362.179 72.0001H348.193L347.923 64.6021H360.991C361.927 64.6021 362.395 64.2601 362.395 63.5761C362.395 63.2161 362.215 62.8561 361.855 62.4961L353.269 52.6681L358.615 47.6461L367.525 58.0681ZM399.004 59.7961C398.788 59.5081 398.59 59.2741 398.41 59.0941C398.23 58.8781 398.014 58.7161 397.762 58.6081C397.51 58.5001 397.204 58.4281 396.844 58.3921C396.484 58.3561 396.016 58.3381 395.44 58.3381H384.424L384.748 50.8861H396.628C397.672 50.8861 398.68 51.0481 399.652 51.3721C400.66 51.6961 401.596 52.3081 402.46 53.2081C403.324 54.0721 404.116 55.2781 404.836 56.8261C405.592 58.3741 406.222 60.3721 406.726 62.8201L404.458 64.0621C404.854 64.3141 405.286 64.4761 405.754 64.5481C406.258 64.5841 406.978 64.6021 407.914 64.6021H410.56C411.028 64.6021 411.334 64.8901 411.478 65.4661C411.658 66.0421 411.748 66.9421 411.748 68.1661C411.748 69.4981 411.658 70.4701 411.478 71.0821C411.334 71.6941 411.028 72.0001 410.56 72.0001H407.644C405.232 72.0001 403.432 71.5141 402.244 70.5421C401.092 69.5701 400.246 68.2741 399.706 66.6541L395.926 68.7601C394.378 69.6241 393.136 70.4521 392.2 71.2441C391.264 72.0001 390.544 72.7381 390.04 73.4581C389.572 74.1781 389.266 74.8441 389.122 75.4561C388.978 76.1041 388.906 76.6981 388.906 77.2381C388.906 79.0381 389.482 80.3881 390.634 81.2881C391.822 82.2241 393.82 82.6921 396.628 82.6921H406.456L406.132 90.0901H396.628C394.036 90.0901 391.804 89.7841 389.932 89.1721C388.096 88.5601 386.584 87.7141 385.396 86.6341C384.244 85.5541 383.398 84.2581 382.858 82.7461C382.318 81.2701 382.048 79.6321 382.048 77.8321C382.048 76.3201 382.228 74.8801 382.588 73.5121C382.984 72.1441 383.614 70.8481 384.478 69.6241C385.342 68.3641 386.458 67.1761 387.826 66.0601C389.23 64.9081 390.94 63.8281 392.956 62.8201L399.004 59.7961ZM401.11 79.5601H393.982V73.0261H401.11V79.5601ZM415.658 64.6021C416.702 64.6021 417.44 64.3681 417.872 63.9001C418.34 63.3961 418.574 62.6221 418.574 61.5781V55.9621H425.432V62.1721C425.432 65.4481 424.64 67.9141 423.056 69.5701C421.508 71.1901 419.24 72.0001 416.252 72.0001H410.582C410.114 72.0001 409.808 71.7121 409.664 71.1361C409.484 70.5241 409.394 69.6241 409.394 68.4361C409.394 67.0681 409.484 66.0961 409.664 65.5201C409.808 64.9081 410.114 64.6021 410.582 64.6021H415.658ZM425.108 84.1501H418.574V77.8861H425.108V84.1501ZM416.792 84.1501H410.258V77.8861H416.792V84.1501ZM439.105 72.0001C438.061 72.0001 437.071 71.8741 436.135 71.6221C435.199 71.3341 434.371 70.8661 433.651 70.2181C432.967 69.5701 432.409 68.7241 431.977 67.6801C431.581 66.6001 431.383 65.2681 431.383 63.6841V38.5201H438.241V61.9021C438.241 63.7021 439.033 64.6021 440.617 64.6021H442.075C442.867 64.6021 443.263 65.7901 443.263 68.1661C443.263 70.7221 442.867 72.0001 442.075 72.0001H439.105ZM445.628 64.6021C446.672 64.6021 447.428 64.3681 447.896 63.9001C448.364 63.3961 448.598 62.6221 448.598 61.5781V55.9621H455.456V61.5781C455.456 62.6221 455.78 63.3961 456.428 63.9001C457.076 64.3681 457.922 64.6021 458.966 64.6021H460.154C460.982 64.6021 461.396 65.7901 461.396 68.1661C461.396 70.7221 460.982 72.0001 460.154 72.0001H458.696C457.328 72.0001 456.068 71.8021 454.916 71.4061C453.8 70.9741 452.792 70.0741 451.892 68.7061C450.956 70.0741 449.966 70.9741 448.922 71.4061C447.914 71.8021 446.816 72.0001 445.628 72.0001H442.064C441.596 72.0001 441.29 71.7121 441.146 71.1361C440.966 70.5241 440.876 69.6241 440.876 68.4361C440.876 67.0681 440.966 66.0961 441.146 65.5201C441.29 64.9081 441.596 64.6021 442.064 64.6021H445.628ZM458.642 50.0221H452.108V43.7581H458.642V50.0221ZM450.326 50.0221H443.792V43.7581H450.326V50.0221ZM465.228 64.6021C466.272 64.6021 467.01 64.3681 467.442 63.9001C467.91 63.3961 468.144 62.6221 468.144 61.5781V55.9621H475.002V62.1721C475.002 65.4481 474.21 67.9141 472.626 69.5701C471.078 71.1901 468.81 72.0001 465.822 72.0001H460.152C459.684 72.0001 459.378 71.7121 459.234 71.1361C459.054 70.5241 458.964 69.6241 458.964 68.4361C458.964 67.0681 459.054 66.0961 459.234 65.5201C459.378 64.9081 459.684 64.6021 460.152 64.6021H465.228ZM473.22 50.0221H466.092V43.4881H473.22V50.0221ZM520.472 72.0001C519.86 72.0001 519.23 71.9101 518.582 71.7301C517.97 71.5141 517.412 71.1001 516.908 70.4881V70.8121C516.908 72.8281 516.602 74.7001 515.99 76.4281C515.378 78.1561 514.496 79.6501 513.344 80.9101C512.192 82.2061 510.788 83.2141 509.132 83.9341C507.476 84.6901 505.604 85.0681 503.516 85.0681H499.952C495.92 85.0681 492.788 83.8261 490.556 81.3421C488.324 78.8581 487.208 75.4561 487.208 71.1361V61.3081H494.012V70.8121C494.012 71.8561 494.12 72.7921 494.336 73.6201C494.552 74.4841 494.912 75.2041 495.416 75.7801C495.956 76.3921 496.658 76.8601 497.522 77.1841C498.422 77.5081 499.538 77.6701 500.87 77.6701H503.246C504.65 77.6701 505.802 77.4721 506.702 77.0761C507.638 76.7161 508.376 76.1941 508.916 75.5101C509.456 74.8621 509.834 74.1061 510.05 73.2421C510.266 72.3781 510.374 71.4601 510.374 70.4881V55.9621H517.178V61.5781C517.178 62.6221 517.502 63.3961 518.15 63.9001C518.798 64.3681 519.572 64.6021 520.472 64.6021H521.066C521.858 64.6021 522.254 65.7901 522.254 68.1661C522.254 70.7221 521.858 72.0001 521.066 72.0001H520.472ZM504.704 55.3681H497.576V48.8341H504.704V55.3681ZM521.061 72.0001C520.593 72.0001 520.287 71.7121 520.143 71.1361C519.963 70.5241 519.873 69.6241 519.873 68.4361C519.873 67.0681 519.963 66.0961 520.143 65.5201C520.287 64.9081 520.593 64.6021 521.061 64.6021H533.535C535.515 64.6021 536.505 63.5941 536.505 61.5781V55.9621H543.363V62.1721C543.363 65.4481 542.571 67.9141 540.987 69.5701C539.403 71.1901 537.117 72.0001 534.129 72.0001H521.061ZM536.181 84.1501H529.647V77.8861H536.181V84.1501ZM527.865 84.1501H521.331V77.8861H527.865V84.1501ZM557.019 61.5781C557.019 62.6221 557.325 63.3961 557.937 63.9001C558.585 64.3681 559.359 64.6021 560.259 64.6021H560.853C561.645 64.6021 562.041 65.7901 562.041 68.1661C562.041 70.7221 561.645 72.0001 560.853 72.0001H560.259C559.647 72.0001 559.017 71.9101 558.369 71.7301C557.757 71.5141 557.199 71.1001 556.695 70.4881V71.1361C556.695 72.9721 556.371 74.7361 555.723 76.4281C555.111 78.1201 554.229 79.5961 553.077 80.8561C551.961 82.1521 550.611 83.1781 549.027 83.9341C547.479 84.6901 545.769 85.0681 543.897 85.0681H542.547L542.007 77.6701H542.709C544.041 77.6701 545.175 77.4721 546.111 77.0761C547.083 76.7161 547.857 76.2301 548.433 75.6181C549.045 75.0061 549.477 74.3041 549.729 73.5121C550.017 72.7561 550.161 71.9641 550.161 71.1361V55.9621H557.019V61.5781ZM564.439 64.6021C565.483 64.6021 566.239 64.3681 566.707 63.9001C567.175 63.3961 567.409 62.6221 567.409 61.5781V55.9621H574.267V61.5781C574.267 62.6221 574.591 63.3961 575.239 63.9001C575.887 64.3681 576.733 64.6021 577.777 64.6021H578.965C579.793 64.6021 580.207 65.7901 580.207 68.1661C580.207 70.7221 579.793 72.0001 578.965 72.0001H577.507C576.139 72.0001 574.879 71.8021 573.727 71.4061C572.611 70.9741 571.603 70.0741 570.703 68.7061C569.767 70.0741 568.777 70.9741 567.733 71.4061C566.725 71.8021 565.627 72.0001 564.439 72.0001H560.875C560.407 72.0001 560.101 71.7121 559.957 71.1361C559.777 70.5241 559.687 69.6241 559.687 68.4361C559.687 67.0681 559.777 66.0961 559.957 65.5201C560.101 64.9081 560.407 64.6021 560.875 64.6021H564.439ZM577.453 50.0221H570.919V43.7581H577.453V50.0221ZM569.137 50.0221H562.603V43.7581H569.137V50.0221ZM582.797 64.6021V62.1721C582.797 60.8401 582.923 59.5081 583.175 58.1761C583.463 56.8441 583.949 55.6381 584.633 54.5581C585.317 53.4781 586.253 52.5961 587.441 51.9121C588.665 51.2281 590.195 50.8861 592.031 50.8861C593.363 50.8861 594.551 51.1201 595.595 51.5881C596.639 52.0201 597.503 52.6321 598.187 53.4241C598.907 54.2161 599.447 55.1341 599.807 56.1781C600.167 57.2221 600.347 58.3381 600.347 59.5261C600.347 61.3261 600.023 62.9281 599.375 64.3321C598.727 65.7361 597.863 66.9601 596.783 68.0041C595.739 69.0121 594.533 69.8401 593.165 70.4881C591.833 71.1001 590.465 71.5141 589.061 71.7301V73.8901C589.061 74.7901 589.331 75.4921 589.871 75.9961C590.447 76.5361 591.293 76.8241 592.409 76.8601L596.621 71.2441C597.701 69.8041 598.637 68.6521 599.429 67.7881C600.221 66.9241 600.995 66.2581 601.751 65.7901C602.543 65.3221 603.371 65.0161 604.235 64.8721C605.099 64.6921 606.161 64.6021 607.421 64.6021C607.889 64.6021 608.195 64.8901 608.339 65.4661C608.519 66.0421 608.609 66.9421 608.609 68.1661C608.609 69.4981 608.519 70.4701 608.339 71.0821C608.195 71.6941 607.889 72.0001 607.421 72.0001C606.449 72.0001 605.603 72.0541 604.883 72.1621C604.199 72.3061 603.551 72.5581 602.939 72.9181C602.327 73.2781 601.715 73.8001 601.103 74.4841C600.491 75.1681 599.789 76.0681 598.997 77.1841L593.975 84.2581C590.591 84.2581 587.873 83.4121 585.821 81.7201C583.805 80.0641 582.797 77.6521 582.797 74.4841V72.0001H578.963C578.495 72.0001 578.189 71.7121 578.045 71.1361C577.865 70.5241 577.775 69.6241 577.775 68.4361C577.775 67.0681 577.865 66.0961 578.045 65.5201C578.189 64.9081 578.495 64.6021 578.963 64.6021H582.797ZM589.061 64.8721C590.969 64.5841 592.283 64.0441 593.003 63.2521C593.723 62.4601 594.083 61.6141 594.083 60.7141C594.083 59.9581 593.867 59.3281 593.435 58.8241C593.039 58.3201 592.481 58.0681 591.761 58.0681C590.861 58.0681 590.177 58.3741 589.709 58.9861C589.277 59.5621 589.061 60.4981 589.061 61.7941V64.8721ZM612.515 64.6021C613.559 64.6021 614.297 64.3681 614.729 63.9001C615.197 63.3961 615.431 62.6221 615.431 61.5781V55.9621H622.289V62.1721C622.289 65.4481 621.497 67.9141 619.913 69.5701C618.365 71.1901 616.097 72.0001 613.109 72.0001H607.439C606.971 72.0001 606.665 71.7121 606.521 71.1361C606.341 70.5241 606.251 69.6241 606.251 68.4361C606.251 67.0681 606.341 66.0961 606.521 65.5201C606.665 64.9081 606.971 64.6021 607.439 64.6021H612.515ZM615.755 84.4201H608.627V77.8861H615.755V84.4201Z" fill="url(#paint0_linear_421_13)"/>
<path d="M85.4979 73.3841C84.3139 73.3841 83.3539 73.0641 82.6179 72.4241C81.9139 71.7521 81.5619 70.7601 81.5619 69.4481C81.5619 68.1041 81.9139 67.1121 82.6179 66.4721C83.3539 65.8001 84.3139 65.4641 85.4979 65.4641C86.7139 65.4641 87.6739 65.8001 88.3779 66.4721C89.1139 67.1121 89.4819 68.1041 89.4819 69.4481C89.4819 70.7601 89.1139 71.7521 88.3779 72.4241C87.6739 73.0641 86.7139 73.3841 85.4979 73.3841ZM85.4979 85.0001C84.3139 85.0001 83.3539 84.6801 82.6179 84.0401C81.9139 83.3681 81.5619 82.3761 81.5619 81.0641C81.5619 79.7201 81.9139 78.7281 82.6179 78.0881C83.3539 77.4161 84.3139 77.0801 85.4979 77.0801C86.7139 77.0801 87.6739 77.4161 88.3779 78.0881C89.1139 78.7281 89.4819 79.7201 89.4819 81.0641C89.4819 82.3761 89.1139 83.3681 88.3779 84.0401C87.6739 84.6801 86.7139 85.0001 85.4979 85.0001ZM101.645 84.2321C101.645 85.8641 101.357 87.4321 100.781 88.9361C100.237 90.4401 99.4526 91.7521 98.4286 92.8721C97.4366 94.0241 96.2366 94.9361 94.8286 95.6081C93.4526 96.2801 91.9326 96.6161 90.2686 96.6161H87.1006L86.8606 90.0401H88.6846C90.0286 90.0401 91.1646 89.8641 92.0926 89.5121C92.9886 89.1921 93.7086 88.7601 94.2526 88.2161C94.8286 87.6721 95.2286 87.0481 95.4526 86.3441C95.7086 85.6721 95.8366 84.9681 95.8366 84.2321V70.7441H101.933V75.7361C101.933 76.6641 102.205 77.3521 102.749 77.8001C103.325 78.2161 104.013 78.4241 104.813 78.4241H105.341C106.045 78.4241 106.397 79.4801 106.397 81.5921C106.397 83.8641 106.045 85.0001 105.341 85.0001H104.813C104.269 85.0001 103.709 84.9201 103.133 84.7601C102.589 84.5681 102.093 84.2001 101.645 83.6561V84.2321ZM108.527 78.4241C109.455 78.4241 110.127 78.2161 110.543 77.8001C110.959 77.3521 111.167 76.6641 111.167 75.7361V70.7441H117.263V75.7361C117.263 76.6641 117.551 77.3521 118.127 77.8001C118.703 78.2161 119.455 78.4241 120.383 78.4241H121.439C122.175 78.4241 122.543 79.4801 122.543 81.5921C122.543 83.8641 122.175 85.0001 121.439 85.0001H120.143C118.927 85.0001 117.807 84.8241 116.783 84.4721C115.791 84.0881 114.895 83.2881 114.095 82.0721C113.263 83.2881 112.383 84.0881 111.455 84.4721C110.559 84.8241 109.583 85.0001 108.527 85.0001H105.359C104.943 85.0001 104.671 84.7441 104.543 84.2321C104.383 83.6881 104.303 82.8881 104.303 81.8321C104.303 80.6161 104.383 79.7521 104.543 79.2401C104.671 78.6961 104.943 78.4241 105.359 78.4241H108.527ZM120.095 95.8001H114.287V90.2321H120.095V95.8001ZM112.703 95.8001H106.895V90.2321H112.703V95.8001ZM135.166 82.3601C134.238 82.9041 133.342 83.3521 132.478 83.7041C131.614 84.0241 130.702 84.2801 129.742 84.4721C128.782 84.6641 127.742 84.8081 126.622 84.9041C125.502 84.9681 124.222 85.0001 122.782 85.0001H121.438C121.021 85.0001 120.749 84.7441 120.621 84.2321C120.461 83.6881 120.381 82.8881 120.381 81.8321C120.381 80.6161 120.461 79.7521 120.621 79.2401C120.749 78.6961 121.021 78.4241 121.438 78.4241H123.021C124.206 78.4241 125.262 78.4241 126.19 78.4241C127.15 78.3921 128.014 78.3281 128.782 78.2321C129.582 78.1361 130.318 77.9761 130.99 77.7521C131.694 77.5281 132.398 77.2241 133.102 76.8401L137.806 74.1521C137.614 73.8961 137.438 73.6881 137.278 73.5281C137.118 73.3361 136.926 73.1921 136.702 73.0961C136.478 73.0001 136.206 72.9361 135.886 72.9041C135.566 72.8721 135.15 72.8561 134.638 72.8561H124.846L125.134 66.2321H135.694C136.622 66.2321 137.518 66.3761 138.382 66.6641C139.278 66.9521 140.11 67.4961 140.878 68.2961C141.646 69.0641 142.35 70.1361 142.99 71.5121C143.662 72.8881 144.222 74.6641 144.67 76.8401L135.166 82.3601ZM136.51 61.4801H130.174V55.6721H136.51V61.4801ZM149.396 55.2401H155.492V85.0001H149.396V55.2401ZM181.599 90.0401C184.127 90.0401 185.983 89.7201 187.167 89.0801C188.383 88.4721 188.991 87.6401 188.991 86.5841C188.991 85.5281 188.463 85.0001 187.407 85.0001H179.199V75.2081C179.199 73.9601 179.391 72.8081 179.775 71.7521C180.159 70.6961 180.719 69.7841 181.455 69.0161C182.191 68.2161 183.087 67.6081 184.143 67.1921C185.199 66.7441 186.383 66.5201 187.695 66.5201H193.215L193.455 73.0961H187.695C186.095 73.0961 185.295 73.8961 185.295 75.4961V78.4241H188.463C190.959 78.4241 192.671 79.0481 193.599 80.2961C194.559 81.5441 195.039 83.2881 195.039 85.5281C195.039 87.1281 194.719 88.6001 194.079 89.9441C193.471 91.2881 192.607 92.4561 191.487 93.4481C190.367 94.4401 189.023 95.2081 187.455 95.7521C185.919 96.3281 184.239 96.6161 182.415 96.6161H178.143C174.559 96.6161 171.775 95.5121 169.791 93.3041C167.807 91.0961 166.815 88.0721 166.815 84.2321V75.4961H172.863V83.9441C172.863 84.8721 172.959 85.7041 173.151 86.4401C173.343 87.2081 173.663 87.8481 174.111 88.3601C174.591 88.9041 175.215 89.3201 175.983 89.6081C176.783 89.8961 177.775 90.0401 178.959 90.0401H181.599ZM206.885 85.0001C205.957 85.0001 205.077 84.8881 204.245 84.6641C203.413 84.4081 202.677 83.9921 202.037 83.4161C201.429 82.8401 200.933 82.0881 200.549 81.1601C200.197 80.2001 200.021 79.0161 200.021 77.6081V55.2401H206.117V76.0241C206.117 77.6241 206.821 78.4241 208.229 78.4241H209.525C210.229 78.4241 210.581 79.4801 210.581 81.5921C210.581 83.8641 210.229 85.0001 209.525 85.0001H206.885ZM221.036 71.2721C220.3 71.2721 219.692 71.5121 219.212 71.9921C218.732 72.4721 218.492 73.1121 218.492 73.9121C218.492 74.5521 218.7 75.2401 219.116 75.9761C219.532 76.7121 220.204 77.3521 221.132 77.8961C222.06 77.3521 222.684 76.7121 223.004 75.9761C223.324 75.2401 223.484 74.5521 223.484 73.9121C223.484 73.1121 223.244 72.4721 222.764 71.9921C222.316 71.5121 221.74 71.2721 221.036 71.2721ZM209.516 85.0001C209.1 85.0001 208.828 84.7441 208.7 84.2321C208.54 83.6881 208.46 82.8881 208.46 81.8321C208.46 80.6161 208.54 79.7521 208.7 79.2401C208.828 78.6961 209.1 78.4241 209.516 78.4241H214.796C214.124 77.4961 213.644 76.5681 213.356 75.6401C213.068 74.7121 212.924 73.7841 212.924 72.8561C212.924 71.8001 213.116 70.7921 213.5 69.8321C213.884 68.8721 214.444 68.0401 215.18 67.3361C215.916 66.6001 216.796 66.0241 217.82 65.6081C218.876 65.1601 220.076 64.9361 221.42 64.9361C222.732 64.9361 223.868 65.1601 224.828 65.6081C225.788 66.0561 226.572 66.6481 227.18 67.3841C227.82 68.1201 228.284 68.9521 228.572 69.8801C228.892 70.7761 229.052 71.6881 229.052 72.6161C229.052 73.8001 228.876 74.8721 228.524 75.8321C228.204 76.7601 227.772 77.6241 227.228 78.4241H232.748C233.58 78.4241 233.996 78.1201 233.996 77.5121C233.996 77.3521 233.948 77.1921 233.852 77.0321C233.788 76.8721 233.628 76.6161 233.372 76.2641L225.884 66.7601L230.396 62.5361L238.028 72.3281C238.988 73.5441 239.66 74.6641 240.044 75.6881C240.46 76.7121 240.668 77.7041 240.668 78.6641C240.668 79.5281 240.508 80.3441 240.188 81.1121C239.9 81.8801 239.436 82.5521 238.796 83.1281C238.188 83.7041 237.42 84.1681 236.492 84.5201C235.564 84.8401 234.492 85.0001 233.276 85.0001H227.996C226.524 85.0001 225.212 84.9361 224.06 84.8081C222.94 84.6481 222.06 84.3601 221.42 83.9441C220.94 84.2001 220.364 84.4081 219.692 84.5681C219.052 84.6961 218.38 84.7921 217.676 84.8561C217.004 84.9201 216.332 84.9681 215.66 85.0001C215.02 85.0001 214.476 85.0001 214.028 85.0001H209.516ZM271.549 83.6561C271.549 85.5121 271.261 87.2241 270.685 88.7921C270.141 90.3921 269.341 91.7681 268.285 92.9201C267.229 94.0721 265.949 94.9681 264.445 95.6081C262.941 96.2801 261.261 96.6161 259.405 96.6161H256.237C252.653 96.6161 249.869 95.5121 247.885 93.3041C245.901 91.0961 244.909 88.0721 244.909 84.2321V75.4961H250.957V83.9441C250.957 84.8721 251.053 85.7041 251.245 86.4401C251.437 87.2081 251.757 87.8481 252.205 88.3601C252.685 88.9041 253.309 89.3201 254.077 89.6081C254.877 89.8961 255.869 90.0401 257.053 90.0401H259.165C260.413 90.0401 261.437 89.8641 262.237 89.5121C263.069 89.1921 263.725 88.7281 264.205 88.1201C264.685 87.5441 265.021 86.8721 265.213 86.1041C265.405 85.3361 265.501 84.5201 265.501 83.6561V55.2401H271.549V83.6561ZM284.182 85.0001C283.254 85.0001 282.374 84.8881 281.542 84.6641C280.71 84.4081 279.974 83.9921 279.334 83.4161C278.726 82.8401 278.23 82.0881 277.846 81.1601C277.494 80.2001 277.318 79.0161 277.318 77.6081V55.2401H283.414V76.0241C283.414 77.6241 284.118 78.4241 285.526 78.4241H286.822C287.526 78.4241 287.878 79.4801 287.878 81.5921C287.878 83.8641 287.526 85.0001 286.822 85.0001H284.182ZM289.213 78.4241C290.973 78.4241 291.853 77.5281 291.853 75.7361V70.7441H297.901V75.7361C297.901 76.6641 298.173 77.3521 298.717 77.8001C299.293 78.2161 299.981 78.4241 300.781 78.4241C301.837 78.4241 302.589 78.2161 303.037 77.8001C303.485 77.3521 303.709 76.6641 303.709 75.7361V70.7441H309.805V75.7361C309.805 76.6641 310.029 77.3521 310.477 77.8001C310.957 78.2161 311.517 78.4241 312.156 78.4241C313.725 78.4241 314.509 77.5281 314.509 75.7361V70.7441H320.605V76.2641C320.605 79.1761 319.901 81.3681 318.493 82.8401C317.085 84.2801 315.053 85.0001 312.397 85.0001C311.373 85.0001 310.349 84.8241 309.325 84.4721C308.333 84.0881 307.437 83.2881 306.637 82.0721C305.837 83.2881 304.925 84.0881 303.901 84.4721C302.877 84.8241 301.837 85.0001 300.781 85.0001C299.597 85.0001 298.493 84.8241 297.469 84.4721C296.445 84.0881 295.533 83.2881 294.733 82.0721C293.933 83.2881 293.069 84.0881 292.141 84.4721C291.245 84.8241 290.269 85.0001 289.213 85.0001H286.812C286.396 85.0001 286.124 84.7441 285.996 84.2321C285.836 83.6881 285.756 82.8881 285.756 81.8321C285.756 80.6161 285.836 79.7521 285.996 79.2401C286.124 78.6961 286.396 78.4241 286.812 78.4241H289.213ZM342.964 84.2321C342.964 85.8641 342.66 87.4321 342.052 88.9361C341.476 90.4401 340.66 91.7521 339.604 92.8721C338.58 94.0241 337.348 94.9361 335.908 95.6081C334.5 96.2801 332.964 96.6161 331.3 96.6161H328.132L327.892 90.0401H329.716C331.06 90.0401 332.196 89.8641 333.124 89.5121C334.02 89.1921 334.74 88.7601 335.284 88.2161C335.86 87.6721 336.26 87.0481 336.484 86.3441C336.74 85.6721 336.868 84.9681 336.868 84.2321V70.7441H342.964V84.2321ZM364.367 72.6161C365.263 73.6401 365.919 74.6641 366.335 75.6881C366.783 76.7121 367.007 77.7041 367.007 78.6641C367.007 79.5281 366.847 80.3441 366.527 81.1121C366.239 81.8801 365.775 82.5521 365.135 83.1281C364.527 83.7041 363.759 84.1681 362.831 84.5201C361.903 84.8401 360.831 85.0001 359.615 85.0001H347.183L346.943 78.4241H358.559C359.391 78.4241 359.807 78.1201 359.807 77.5121C359.807 77.1921 359.647 76.8721 359.327 76.5521L351.695 67.8161L356.447 63.3521L364.367 72.6161ZM392.349 74.1521C392.157 73.8961 391.981 73.6881 391.821 73.5281C391.661 73.3361 391.469 73.1921 391.245 73.0961C391.021 73.0001 390.749 72.9361 390.429 72.9041C390.109 72.8721 389.693 72.8561 389.181 72.8561H379.389L379.677 66.2321H390.237C391.165 66.2321 392.061 66.3761 392.925 66.6641C393.821 66.9521 394.653 67.4961 395.421 68.2961C396.189 69.0641 396.893 70.1361 397.533 71.5121C398.205 72.8881 398.765 74.6641 399.213 76.8401L397.293 77.9441C397.677 78.2001 398.109 78.3441 398.589 78.3761C399.101 78.4081 399.661 78.4241 400.269 78.4241H402.621C403.037 78.4241 403.309 78.6801 403.437 79.1921C403.597 79.7041 403.677 80.5041 403.677 81.5921C403.677 82.7761 403.597 83.6401 403.437 84.1841C403.309 84.7281 403.037 85.0001 402.621 85.0001H400.029C398.941 85.0001 398.013 84.8881 397.245 84.6641C396.477 84.4401 395.821 84.1201 395.277 83.7041C394.733 83.2881 394.285 82.8081 393.933 82.2641C393.581 81.6881 393.293 81.0641 393.069 80.3921L389.709 82.3601C388.333 83.1601 387.229 83.9441 386.397 84.7121C385.565 85.4801 384.925 86.2161 384.477 86.9201C384.029 87.6561 383.725 88.3601 383.565 89.0321C383.437 89.7361 383.373 90.4241 383.373 91.0961C383.373 92.8241 383.885 94.2161 384.909 95.2721C385.965 96.3601 387.741 96.9041 390.237 96.9041H398.973L398.685 103.48H390.237C387.997 103.48 386.061 103.176 384.429 102.568C382.797 101.96 381.453 101.112 380.397 100.024C379.341 98.9681 378.557 97.7201 378.045 96.2801C377.533 94.8401 377.277 93.2881 377.277 91.6241C377.277 90.0881 377.437 88.6641 377.757 87.3521C378.109 86.0721 378.669 84.8561 379.437 83.7041C380.205 82.5201 381.213 81.3841 382.461 80.2961C383.709 79.2081 385.245 78.1361 387.069 77.0801L392.349 74.1521ZM395.229 92.8721H388.893V87.0641H395.229V92.8721ZM407.153 78.4241C408.081 78.4241 408.737 78.2161 409.121 77.8001C409.537 77.3521 409.745 76.6641 409.745 75.7361V70.7441H415.841V76.2641C415.841 79.1761 415.137 81.3681 413.729 82.8401C412.353 84.2801 410.337 85.0001 407.681 85.0001H402.641C402.225 85.0001 401.953 84.7441 401.825 84.2321C401.665 83.6881 401.585 82.8881 401.585 81.8321C401.585 80.6161 401.665 79.7521 401.825 79.2401C401.953 78.6961 402.225 78.4241 402.641 78.4241H407.153ZM415.553 95.8001H409.745V90.2321H415.553V95.8001ZM408.161 95.8001H402.353V90.2321H408.161V95.8001ZM427.994 85.0001C427.066 85.0001 426.186 84.8881 425.354 84.6641C424.522 84.4081 423.786 83.9921 423.146 83.4161C422.538 82.8401 422.042 82.0881 421.658 81.1601C421.306 80.2001 421.13 79.0161 421.13 77.6081V55.2401H427.226V76.0241C427.226 77.6241 427.93 78.4241 429.338 78.4241H430.634C431.338 78.4241 431.69 79.4801 431.69 81.5921C431.69 83.8641 431.338 85.0001 430.634 85.0001H427.994ZM433.793 78.4241C434.721 78.4241 435.393 78.2161 435.809 77.8001C436.225 77.3521 436.433 76.6641 436.433 75.7361V70.7441H442.529V75.7361C442.529 76.6641 442.817 77.3521 443.393 77.8001C443.969 78.2161 444.721 78.4241 445.649 78.4241H446.705C447.441 78.4241 447.809 79.4801 447.809 81.5921C447.809 83.8641 447.441 85.0001 446.705 85.0001H445.409C444.193 85.0001 443.073 84.8241 442.049 84.4721C441.057 84.0881 440.161 83.2881 439.361 82.0721C438.529 83.2881 437.649 84.0881 436.721 84.4721C435.825 84.8241 434.849 85.0001 433.793 85.0001H430.625C430.209 85.0001 429.937 84.7441 429.809 84.2321C429.649 83.6881 429.569 82.8881 429.569 81.8321C429.569 80.6161 429.649 79.7521 429.809 79.2401C429.937 78.6961 430.209 78.4241 430.625 78.4241H433.793ZM445.361 65.4641H439.553V59.8961H445.361V65.4641ZM437.969 65.4641H432.161V59.8961H437.969V65.4641ZM451.215 78.4241C452.143 78.4241 452.799 78.2161 453.183 77.8001C453.599 77.3521 453.807 76.6641 453.807 75.7361V70.7441H459.903V76.2641C459.903 79.1761 459.199 81.3681 457.791 82.8401C456.415 84.2801 454.399 85.0001 451.743 85.0001H446.703C446.287 85.0001 446.015 84.7441 445.887 84.2321C445.727 83.6881 445.647 82.8881 445.647 81.8321C445.647 80.6161 445.727 79.7521 445.887 79.2401C446.015 78.6961 446.287 78.4241 446.703 78.4241H451.215ZM458.319 65.4641H451.983V59.6561H458.319V65.4641ZM500.321 85.0001C499.777 85.0001 499.217 84.9201 498.641 84.7601C498.097 84.5681 497.601 84.2001 497.153 83.6561V83.9441C497.153 85.7361 496.881 87.4001 496.337 88.9361C495.793 90.4721 495.009 91.8001 493.985 92.9201C492.961 94.0721 491.713 94.9681 490.241 95.6081C488.769 96.2801 487.105 96.6161 485.249 96.6161H482.081C478.497 96.6161 475.713 95.5121 473.729 93.3041C471.745 91.0961 470.753 88.0721 470.753 84.2321V75.4961H476.801V83.9441C476.801 84.8721 476.897 85.7041 477.089 86.4401C477.281 87.2081 477.601 87.8481 478.049 88.3601C478.529 88.9041 479.153 89.3201 479.921 89.6081C480.721 89.8961 481.713 90.0401 482.897 90.0401H485.009C486.257 90.0401 487.281 89.8641 488.081 89.5121C488.913 89.1921 489.569 88.7281 490.049 88.1201C490.529 87.5441 490.865 86.8721 491.057 86.1041C491.249 85.3361 491.345 84.5201 491.345 83.6561V70.7441H497.393V75.7361C497.393 76.6641 497.681 77.3521 498.257 77.8001C498.833 78.2161 499.521 78.4241 500.321 78.4241H500.849C501.553 78.4241 501.905 79.4801 501.905 81.5921C501.905 83.8641 501.553 85.0001 500.849 85.0001H500.321ZM486.305 70.2161H479.969V64.4081H486.305V70.2161ZM500.844 85.0001C500.428 85.0001 500.156 84.7441 500.028 84.2321C499.868 83.6881 499.788 82.8881 499.788 81.8321C499.788 80.6161 499.868 79.7521 500.028 79.2401C500.156 78.6961 500.428 78.4241 500.844 78.4241H511.932C513.692 78.4241 514.572 77.5281 514.572 75.7361V70.7441H520.668V76.2641C520.668 79.1761 519.964 81.3681 518.556 82.8401C517.148 84.2801 515.116 85.0001 512.46 85.0001H500.844ZM514.284 95.8001H508.476V90.2321H514.284V95.8001ZM506.892 95.8001H501.084V90.2321H506.892V95.8001ZM532.807 75.7361C532.807 76.6641 533.079 77.3521 533.623 77.8001C534.199 78.2161 534.887 78.4241 535.687 78.4241H536.215C536.919 78.4241 537.271 79.4801 537.271 81.5921C537.271 83.8641 536.919 85.0001 536.215 85.0001H535.687C535.143 85.0001 534.583 84.9201 534.007 84.7601C533.463 84.5681 532.967 84.2001 532.519 83.6561V84.2321C532.519 85.8641 532.231 87.4321 531.655 88.9361C531.111 90.4401 530.327 91.7521 529.303 92.8721C528.311 94.0241 527.111 94.9361 525.703 95.6081C524.327 96.2801 522.806 96.6161 521.142 96.6161H519.942L519.462 90.0401H520.086C521.27 90.0401 522.278 89.8641 523.111 89.5121C523.975 89.1921 524.663 88.7601 525.175 88.2161C525.719 87.6721 526.103 87.0481 526.327 86.3441C526.583 85.6721 526.711 84.9681 526.711 84.2321V70.7441H532.807V75.7361ZM539.402 78.4241C540.33 78.4241 541.002 78.2161 541.418 77.8001C541.834 77.3521 542.042 76.6641 542.042 75.7361V70.7441H548.138V75.7361C548.138 76.6641 548.426 77.3521 549.002 77.8001C549.578 78.2161 550.33 78.4241 551.258 78.4241H552.314C553.05 78.4241 553.418 79.4801 553.418 81.5921C553.418 83.8641 553.05 85.0001 552.314 85.0001H551.018C549.802 85.0001 548.682 84.8241 547.658 84.4721C546.666 84.0881 545.77 83.2881 544.97 82.0721C544.138 83.2881 543.258 84.0881 542.33 84.4721C541.434 84.8241 540.458 85.0001 539.402 85.0001H536.234C535.818 85.0001 535.546 84.7441 535.418 84.2321C535.258 83.6881 535.178 82.8881 535.178 81.8321C535.178 80.6161 535.258 79.7521 535.418 79.2401C535.546 78.6961 535.818 78.4241 536.234 78.4241H539.402ZM550.97 65.4641H545.162V59.8961H550.97V65.4641ZM543.578 65.4641H537.77V59.8961H543.578V65.4641ZM555.721 78.4241V76.2641C555.721 75.0801 555.833 73.8961 556.057 72.7121C556.313 71.5281 556.745 70.4561 557.353 69.4961C557.961 68.5361 558.793 67.7521 559.849 67.1441C560.937 66.5361 562.297 66.2321 563.929 66.2321C565.113 66.2321 566.169 66.4401 567.097 66.8561C568.025 67.2401 568.793 67.7841 569.401 68.4881C570.041 69.1921 570.521 70.0081 570.841 70.9361C571.161 71.8641 571.321 72.8561 571.321 73.9121C571.321 75.5121 571.033 76.9361 570.457 78.1841C569.881 79.4321 569.113 80.5201 568.153 81.4481C567.225 82.3441 566.153 83.0801 564.937 83.6561C563.753 84.2001 562.537 84.5681 561.289 84.7601V87.6401C561.289 88.9521 561.881 89.7521 563.065 90.0401L566.809 85.5281C568.249 83.8001 569.417 82.4721 570.313 81.5441C571.209 80.5841 571.993 79.8801 572.665 79.4321C573.369 78.9521 574.057 78.6641 574.729 78.5681C575.433 78.4721 576.313 78.4241 577.369 78.4241C577.785 78.4241 578.057 78.6801 578.185 79.1921C578.345 79.7041 578.425 80.5041 578.425 81.5921C578.425 82.7761 578.345 83.6401 578.185 84.1841C578.057 84.7281 577.785 85.0001 577.369 85.0001C576.665 85.0001 576.041 85.0321 575.497 85.0961C574.953 85.1601 574.377 85.3681 573.769 85.7201C573.193 86.0721 572.521 86.6481 571.753 87.4481C570.985 88.2481 570.041 89.3681 568.921 90.8081L564.457 96.6161C563.209 96.6161 562.041 96.4401 560.953 96.0881C559.897 95.7361 558.969 95.1921 558.169 94.4561C557.401 93.7521 556.793 92.8721 556.345 91.8161C555.929 90.7921 555.721 89.5761 555.721 88.1681V85.0001H552.312C551.896 85.0001 551.624 84.7441 551.496 84.2321C551.336 83.6881 551.256 82.8881 551.256 81.8321C551.256 80.6161 551.336 79.7521 551.496 79.2401C551.624 78.6961 551.896 78.4241 552.312 78.4241H555.721ZM561.289 78.6641C562.985 78.4081 564.153 77.9281 564.793 77.2241C565.433 76.5201 565.753 75.7681 565.753 74.9681C565.753 74.2961 565.561 73.7361 565.177 73.2881C564.825 72.8401 564.329 72.6161 563.689 72.6161C562.889 72.6161 562.281 72.8881 561.865 73.4321C561.481 73.9441 561.289 74.7761 561.289 75.9281V78.6641ZM581.903 78.4241C582.831 78.4241 583.487 78.2161 583.871 77.8001C584.287 77.3521 584.495 76.6641 584.495 75.7361V70.7441H590.591V76.2641C590.591 79.1761 589.887 81.3681 588.479 82.8401C587.103 84.2801 585.087 85.0001 582.431 85.0001H577.391C576.975 85.0001 576.703 84.7441 576.575 84.2321C576.415 83.6881 576.335 82.8881 576.335 81.8321C576.335 80.6161 576.415 79.7521 576.575 79.2401C576.703 78.6961 576.975 78.4241 577.391 78.4241H581.903ZM584.783 96.0401H578.447V90.2321H584.783V96.0401Z" fill="#191919"/>
<g clip-path="url(#clip0_421_13)">
<path d="M90.1609 125.302L109.185 116.965L106.892 137.839L90.1609 125.302Z" fill="#E3ECFF"/>
</g>
<g clip-path="url(#clip1_421_13)">
<path d="M612.93 18.7994L621.762 1.19209e-07L633.778 17.2222L612.93 18.7994Z" fill="#E3ECFF"/>
</g>
<circle cx="6" cy="79.0001" r="6" fill="#E3ECFF"/>
<circle cx="667" cy="58.0001" r="6" fill="#E3ECFF"/>
<g clip-path="url(#clip2_421_13)">
<path d="M55.55 20.91C55.1769 20.9143 54.8173 20.7705 54.55 20.5101L44.37 10.3301C44.1141 10.0741 43.9703 9.72701 43.9703 9.36506C43.9703 9.00312 44.1141 8.656 44.37 8.40007C44.626 8.14413 44.973 8.00035 45.335 8.00035C45.6969 8.00035 46.0441 8.14413 46.3 8.40007L56.48 18.5801C56.6706 18.774 56.7991 19.0202 56.8493 19.2874C56.8994 19.5546 56.869 19.8307 56.7617 20.0806C56.6545 20.3304 56.4754 20.5427 56.2472 20.6904C56.0189 20.8381 55.7519 20.9146 55.48 20.91H55.55Z" fill="#E3ECFF"/>
<path d="M45.37 20.91C44.9969 20.9143 44.6373 20.7705 44.37 20.5101C44.1154 20.2534 43.9724 19.9066 43.9724 19.5451C43.9724 19.1835 44.1154 18.8367 44.37 18.5801L54.58 8.42006C54.7067 8.29333 54.8572 8.1928 55.0227 8.12422C55.1883 8.05563 55.3658 8.02034 55.545 8.02034C55.7242 8.02034 55.9017 8.05563 56.0673 8.12422C56.2329 8.1928 56.3833 8.29333 56.51 8.42006C56.6368 8.54678 56.7372 8.69723 56.8058 8.8628C56.8744 9.02838 56.9098 9.20583 56.9098 9.38505C56.9098 9.56427 56.8744 9.74172 56.8058 9.9073C56.7372 10.0729 56.6368 10.2233 56.51 10.35L46.33 20.53C46.0712 20.7762 45.7271 20.9124 45.37 20.91Z" fill="#E3ECFF"/>
</g>
<g clip-path="url(#clip3_421_13)">
<path d="M641.55 117.91C641.177 117.914 640.817 117.77 640.55 117.51L630.37 107.33C630.114 107.074 629.97 106.727 629.97 106.365C629.97 106.003 630.114 105.656 630.37 105.4C630.626 105.144 630.973 105 631.335 105C631.697 105 632.044 105.144 632.3 105.4L642.48 115.58C642.671 115.774 642.799 116.02 642.849 116.287C642.899 116.555 642.869 116.831 642.762 117.081C642.655 117.33 642.475 117.543 642.247 117.69C642.019 117.838 641.752 117.915 641.48 117.91H641.55Z" fill="#E3ECFF"/>
<path d="M631.37 117.91C630.997 117.914 630.637 117.77 630.37 117.51C630.115 117.253 629.972 116.907 629.972 116.545C629.972 116.184 630.115 115.837 630.37 115.58L640.58 105.42C640.707 105.293 640.857 105.193 641.023 105.124C641.188 105.056 641.366 105.02 641.545 105.02C641.724 105.02 641.902 105.056 642.067 105.124C642.233 105.193 642.383 105.293 642.51 105.42C642.637 105.547 642.737 105.697 642.806 105.863C642.874 106.028 642.91 106.206 642.91 106.385C642.91 106.564 642.874 106.742 642.806 106.907C642.737 107.073 642.637 107.223 642.51 107.35L632.33 117.53C632.071 117.776 631.727 117.912 631.37 117.91Z" fill="#E3ECFF"/>
</g>
<defs>
<linearGradient id="paint0_linear_421_13" x1="346.115" y1="37.0001" x2="345.325" y2="120.129" gradientUnits="userSpaceOnUse">
<stop stop-color="#F5F2FF" stop-opacity="0.8"/>
<stop offset="1" stop-color="#FCFBFF"/>
</linearGradient>
<clipPath id="clip0_421_13">
<rect width="21" height="18" fill="white" transform="matrix(-0.109147 0.994026 0.994026 0.109147 91.2921 115)"/>
</clipPath>
<clipPath id="clip1_421_13">
<rect width="21" height="18" fill="white" transform="matrix(0.572215 0.820104 0.820104 -0.572215 607 10.2999)"/>
</clipPath>
<clipPath id="clip2_421_13">
<rect width="12.91" height="12.91" fill="white" transform="translate(44 8.00006)"/>
</clipPath>
<clipPath id="clip3_421_13">
<rect width="12.91" height="12.91" fill="white" transform="translate(630 105)"/>
</clipPath>
</defs>
</svg>
