<svg width="749" height="158" viewBox="0 0 749 158" fill="none" xmlns="http://www.w3.org/2000/svg">
<path d="M104.213 60.384C106.805 60.384 108.821 59.936 110.261 59.04C111.733 58.144 112.469 56.976 112.469 55.536C112.469 54.864 112.293 54.336 111.941 53.952C111.589 53.536 110.965 53.328 110.069 53.328H101.813V44.16C101.813 42.912 102.005 41.776 102.389 40.752C102.773 39.696 103.317 38.8 104.021 38.064C104.757 37.296 105.637 36.704 106.661 36.288C107.685 35.872 108.837 35.664 110.117 35.664H115.637L115.877 40.944H110.021C109.093 40.944 108.309 41.232 107.669 41.808C107.029 42.352 106.709 43.184 106.709 44.304V48.096H110.933C112.181 48.096 113.205 48.256 114.005 48.576C114.837 48.896 115.493 49.344 115.973 49.92C116.453 50.496 116.789 51.184 116.981 51.984C117.205 52.784 117.317 53.68 117.317 54.672C117.317 56.208 116.997 57.648 116.357 58.992C115.749 60.336 114.885 61.488 113.765 62.448C112.645 63.44 111.317 64.208 109.781 64.752C108.277 65.328 106.645 65.616 104.885 65.616H100.709C97.125 65.616 94.341 64.512 92.357 62.304C90.373 60.096 89.381 57.072 89.381 53.232V44.64H94.229V53.04C94.229 54.16 94.357 55.168 94.613 56.064C94.869 56.96 95.269 57.728 95.813 58.368C96.389 59.008 97.125 59.504 98.021 59.856C98.949 60.208 100.069 60.384 101.381 60.384H104.213ZM139.099 42C139.963 42.992 140.587 43.984 140.971 44.976C141.387 45.936 141.595 46.88 141.595 47.808C141.595 48.672 141.435 49.488 141.115 50.256C140.827 50.992 140.379 51.648 139.771 52.224C139.163 52.768 138.395 53.2 137.467 53.52C136.571 53.84 135.531 54 134.347 54H121.531L121.291 48.72H133.531C135.099 48.72 135.883 48.128 135.883 46.944C135.883 46.368 135.611 45.776 135.067 45.168L126.907 35.856L130.699 32.304L139.099 42ZM150.756 60.384C151.972 60.384 153.012 60.208 153.876 59.856C154.772 59.536 155.508 59.088 156.084 58.512C156.66 57.936 157.108 57.248 157.428 56.448C157.748 55.68 157.94 54.864 158.004 54H154.74C153.076 54 151.716 53.824 150.66 53.472C149.604 53.12 148.772 52.608 148.164 51.936C147.556 51.232 147.124 50.384 146.868 49.392C146.644 48.4 146.532 47.28 146.532 46.032C146.532 44.784 146.708 43.616 147.06 42.528C147.412 41.408 147.924 40.432 148.596 39.6C149.3 38.768 150.164 38.112 151.188 37.632C152.212 37.12 153.396 36.864 154.74 36.864C155.828 36.864 156.852 37.04 157.812 37.392C158.804 37.744 159.668 38.304 160.404 39.072C161.14 39.84 161.716 40.832 162.132 42.048C162.58 43.264 162.804 44.752 162.804 46.512V53.232C162.804 54.864 162.532 56.432 161.988 57.936C161.444 59.44 160.66 60.752 159.636 61.872C158.644 63.024 157.412 63.936 155.94 64.608C154.468 65.28 152.82 65.616 150.996 65.616H146.148L145.86 60.384H150.756ZM151.236 45.696C151.236 46.816 151.476 47.6 151.956 48.048C152.468 48.496 153.46 48.72 154.932 48.72H158.1V46.464C158.1 44.8 157.78 43.632 157.14 42.96C156.532 42.288 155.668 41.952 154.548 41.952C153.492 41.952 152.676 42.272 152.1 42.912C151.524 43.552 151.236 44.48 151.236 45.696ZM163.623 60.384H164.343C165.687 60.384 166.839 60.176 167.799 59.76C168.759 59.376 169.527 58.848 170.103 58.176C170.711 57.504 171.159 56.736 171.447 55.872C171.735 55.008 171.879 54.128 171.879 53.232V39.936H176.775V53.232C176.775 54.96 176.471 56.576 175.863 58.08C175.287 59.584 174.471 60.896 173.415 62.016C172.391 63.136 171.159 64.016 169.719 64.656C168.311 65.296 166.791 65.616 165.159 65.616H163.911L163.623 60.384ZM186.193 60.384C187.409 60.384 188.449 60.208 189.313 59.856C190.209 59.536 190.945 59.088 191.521 58.512C192.097 57.936 192.545 57.248 192.865 56.448C193.185 55.68 193.377 54.864 193.441 54H190.177C188.513 54 187.153 53.824 186.097 53.472C185.041 53.12 184.209 52.608 183.601 51.936C182.993 51.232 182.561 50.384 182.305 49.392C182.081 48.4 181.969 47.28 181.969 46.032C181.969 44.784 182.145 43.616 182.497 42.528C182.849 41.408 183.361 40.432 184.033 39.6C184.737 38.768 185.601 38.112 186.625 37.632C187.649 37.12 188.833 36.864 190.177 36.864C191.265 36.864 192.289 37.04 193.249 37.392C194.241 37.744 195.105 38.304 195.841 39.072C196.577 39.84 197.153 40.832 197.569 42.048C198.017 43.264 198.241 44.752 198.241 46.512V53.232C198.241 54.864 197.969 56.432 197.425 57.936C196.881 59.44 196.097 60.752 195.073 61.872C194.081 63.024 192.849 63.936 191.377 64.608C189.905 65.28 188.257 65.616 186.433 65.616H181.585L181.297 60.384H186.193ZM186.673 45.696C186.673 46.816 186.913 47.6 187.393 48.048C187.905 48.496 188.897 48.72 190.369 48.72H193.537V46.464C193.537 44.8 193.217 43.632 192.577 42.96C191.969 42.288 191.105 41.952 189.985 41.952C188.929 41.952 188.113 42.272 187.537 42.912C186.961 43.552 186.673 44.48 186.673 45.696ZM236.061 52.8C236.061 54.624 235.773 56.304 235.197 57.84C234.653 59.408 233.853 60.768 232.797 61.92C231.773 63.072 230.509 63.968 229.005 64.608C227.533 65.28 225.885 65.616 224.061 65.616H221.037C217.453 65.616 214.669 64.512 212.685 62.304C210.701 60.096 209.709 57.072 209.709 53.232V44.64H214.557V53.04C214.557 54.16 214.685 55.168 214.941 56.064C215.197 56.96 215.597 57.728 216.141 58.368C216.717 59.008 217.453 59.504 218.349 59.856C219.277 60.208 220.397 60.384 221.709 60.384H223.821C225.165 60.384 226.301 60.176 227.229 59.76C228.189 59.376 228.957 58.832 229.533 58.128C230.141 57.456 230.573 56.656 230.829 55.728C231.085 54.832 231.213 53.872 231.213 52.848V39.936H236.061V52.8ZM224.781 39.216H219.357V34.32H224.781V39.216ZM245.537 60.384C246.753 60.384 247.793 60.208 248.657 59.856C249.553 59.536 250.289 59.088 250.865 58.512C251.441 57.936 251.889 57.248 252.209 56.448C252.529 55.68 252.721 54.864 252.785 54H249.521C247.857 54 246.497 53.824 245.441 53.472C244.385 53.12 243.553 52.608 242.945 51.936C242.337 51.232 241.905 50.384 241.649 49.392C241.425 48.4 241.313 47.28 241.313 46.032C241.313 44.784 241.489 43.616 241.841 42.528C242.193 41.408 242.705 40.432 243.377 39.6C244.081 38.768 244.945 38.112 245.969 37.632C246.993 37.12 248.177 36.864 249.521 36.864C250.609 36.864 251.633 37.04 252.593 37.392C253.585 37.744 254.449 38.304 255.185 39.072C255.921 39.84 256.497 40.832 256.913 42.048C257.361 43.264 257.585 44.752 257.585 46.512V48.72H261.473C262.177 48.72 262.529 49.568 262.529 51.264C262.529 53.088 262.177 54 261.473 54H257.489C257.425 55.568 257.105 57.056 256.529 58.464C255.953 59.872 255.153 61.104 254.129 62.16C253.137 63.216 251.937 64.048 250.529 64.656C249.121 65.296 247.537 65.616 245.777 65.616H240.929L240.641 60.384H245.537ZM246.017 45.696C246.017 46.816 246.257 47.6 246.737 48.048C247.249 48.496 248.241 48.72 249.713 48.72H252.881V46.464C252.881 44.8 252.561 43.632 251.921 42.96C251.313 42.288 250.449 41.952 249.329 41.952C248.273 41.952 247.457 42.272 246.881 42.912C246.305 43.552 246.017 44.48 246.017 45.696ZM261.885 48.72C262.973 48.72 263.821 48.512 264.429 48.096C265.037 47.648 265.341 46.928 265.341 45.936V44.88C265.341 43.6 265.517 42.416 265.869 41.328C266.253 40.24 266.797 39.312 267.501 38.544C268.205 37.776 269.053 37.184 270.045 36.768C271.069 36.32 272.205 36.096 273.453 36.096C274.765 36.096 275.917 36.32 276.909 36.768C277.933 37.184 278.781 37.792 279.453 38.592C280.125 39.36 280.637 40.288 280.989 41.376C281.341 42.464 281.517 43.648 281.517 44.928C281.517 47.808 280.781 50.048 279.309 51.648C277.869 53.216 275.901 54 273.405 54C272.125 54 270.893 53.76 269.709 53.28C268.557 52.768 267.677 51.968 267.069 50.88C266.461 52.128 265.677 52.96 264.717 53.376C263.757 53.792 262.813 54 261.885 54H261.453C261.037 54 260.765 53.792 260.637 53.376C260.477 52.928 260.397 52.288 260.397 51.456C260.397 50.528 260.477 49.84 260.637 49.392C260.765 48.944 261.037 48.72 261.453 48.72H261.885ZM276.813 45.264C276.813 44.176 276.557 43.264 276.045 42.528C275.565 41.792 274.685 41.424 273.405 41.424C272.189 41.424 271.309 41.792 270.765 42.528C270.253 43.232 269.997 44.16 269.997 45.312C269.997 46.432 270.301 47.28 270.909 47.856C271.517 48.432 272.349 48.72 273.405 48.72C275.677 48.72 276.813 47.568 276.813 45.264ZM293.167 53.232C293.167 54.96 292.863 56.576 292.255 58.08C291.679 59.584 290.863 60.896 289.807 62.016C288.783 63.136 287.551 64.016 286.111 64.656C284.703 65.296 283.183 65.616 281.551 65.616H278.527L278.287 60.384H280.303C281.743 60.384 282.975 60.176 283.999 59.76C284.991 59.376 285.807 58.848 286.447 58.176C287.087 57.504 287.551 56.736 287.839 55.872C288.127 55.008 288.271 54.128 288.271 53.232V39.936H293.167V53.232ZM293.215 34.32H287.791V29.424H293.215V34.32ZM302.119 31.44H307.015V54H302.119V31.44ZM301.879 26.496C301.239 26.496 300.743 26.56 300.391 26.688C300.039 26.816 299.735 27.184 299.479 27.792L298.471 30.048L295.399 28.56L296.887 25.248C297.175 24.608 297.463 24.08 297.751 23.664C298.007 23.248 298.311 22.912 298.663 22.656C299.015 22.4 299.431 22.224 299.911 22.128C300.391 22.032 300.983 21.984 301.687 21.984H311.383L311.191 26.496H301.879ZM334.813 60.384C336.221 60.384 337.389 60.288 338.317 60.096C339.277 59.904 340.029 59.632 340.573 59.28C341.149 58.928 341.549 58.496 341.773 57.984C342.029 57.504 342.156 56.976 342.156 56.4C342.156 55.76 341.981 55.2 341.629 54.72C341.277 54.24 340.685 54 339.853 54H332.941L333.229 48.72H349.885C350.589 48.72 350.941 49.568 350.941 51.264C350.941 53.088 350.589 54 349.885 54H345.757C346.173 54.32 346.445 54.736 346.573 55.248C346.733 55.76 346.812 56.384 346.812 57.12C346.812 57.984 346.621 58.912 346.237 59.904C345.853 60.896 345.213 61.808 344.317 62.64C343.453 63.504 342.285 64.208 340.812 64.752C339.373 65.328 337.597 65.616 335.485 65.616H330.397C326.813 65.616 324.029 64.512 322.045 62.304C320.061 60.096 319.069 57.072 319.069 53.232V44.64H323.917V53.04C323.917 54.16 324.045 55.168 324.301 56.064C324.557 56.96 324.957 57.728 325.501 58.368C326.077 59.008 326.813 59.504 327.709 59.856C328.637 60.208 329.757 60.384 331.069 60.384H334.813ZM353.41 22.032L367.858 16.56L368.626 20.016L353.65 25.776L353.41 22.032ZM361.81 48.72C362.674 48.72 363.266 48.544 363.586 48.192C363.938 47.84 364.114 47.408 364.114 46.896C364.114 46.416 364.018 45.952 363.826 45.504C363.666 45.024 363.298 44.512 362.722 43.968L353.65 34.896V29.424L369.538 23.424L370.642 28.32L358.402 32.832L365.458 39.984C366.258 40.784 366.914 41.52 367.426 42.192C367.938 42.832 368.338 43.456 368.626 44.064C368.914 44.64 369.106 45.232 369.202 45.84C369.33 46.416 369.394 47.024 369.394 47.664C369.394 48.784 369.202 49.744 368.818 50.544C368.466 51.344 367.97 52 367.33 52.512C366.722 53.024 365.986 53.408 365.122 53.664C364.29 53.888 363.378 54 362.386 54H349.906C349.49 54 349.218 53.792 349.09 53.376C348.93 52.928 348.85 52.288 348.85 51.456C348.85 50.528 348.93 49.84 349.09 49.392C349.218 48.944 349.49 48.72 349.906 48.72H361.81ZM391.474 42C392.338 42.992 392.962 43.984 393.346 44.976C393.762 45.936 393.97 46.88 393.97 47.808C393.97 48.672 393.81 49.488 393.49 50.256C393.202 50.992 392.754 51.648 392.146 52.224C391.538 52.768 390.77 53.2 389.842 53.52C388.946 53.84 387.906 54 386.722 54H373.906L373.666 48.72H385.906C387.474 48.72 388.258 48.128 388.258 46.944C388.258 46.368 387.986 45.776 387.442 45.168L379.282 35.856L383.074 32.304L391.474 42ZM405.963 54C405.067 54 404.203 53.888 403.371 53.664C402.571 53.408 401.867 52.992 401.259 52.416C400.651 51.84 400.171 51.088 399.819 50.16C399.467 49.2 399.291 48.016 399.291 46.608V24.24H404.187V45.408C404.187 46.432 404.411 47.248 404.859 47.856C405.339 48.432 406.043 48.72 406.971 48.72H408.075C408.779 48.72 409.131 49.568 409.131 51.264C409.131 53.088 408.779 54 408.075 54H405.963ZM408.51 48.72C409.598 48.72 410.446 48.512 411.054 48.096C411.662 47.648 411.966 46.928 411.966 45.936V44.88C411.966 43.6 412.142 42.416 412.494 41.328C412.878 40.24 413.422 39.312 414.126 38.544C414.83 37.776 415.678 37.184 416.67 36.768C417.694 36.32 418.83 36.096 420.078 36.096C421.39 36.096 422.542 36.32 423.534 36.768C424.558 37.184 425.406 37.792 426.078 38.592C426.75 39.36 427.262 40.288 427.614 41.376C427.966 42.464 428.142 43.648 428.142 44.928C428.142 47.808 427.406 50.048 425.934 51.648C424.494 53.216 422.526 54 420.03 54C418.75 54 417.518 53.76 416.334 53.28C415.182 52.768 414.302 51.968 413.694 50.88C413.086 52.128 412.302 52.96 411.342 53.376C410.382 53.792 409.438 54 408.51 54H408.078C407.662 54 407.39 53.792 407.262 53.376C407.102 52.928 407.022 52.288 407.022 51.456C407.022 50.528 407.102 49.84 407.262 49.392C407.39 48.944 407.662 48.72 408.078 48.72H408.51ZM423.438 45.264C423.438 44.176 423.182 43.264 422.67 42.528C422.19 41.792 421.31 41.424 420.03 41.424C418.814 41.424 417.934 41.792 417.39 42.528C416.878 43.232 416.622 44.16 416.622 45.312C416.622 46.432 416.926 47.28 417.534 47.856C418.142 48.432 418.974 48.72 420.03 48.72C422.302 48.72 423.438 47.568 423.438 45.264ZM433.744 31.44H438.64V54H433.744V31.44ZM433.504 26.496C432.864 26.496 432.368 26.56 432.016 26.688C431.664 26.816 431.36 27.184 431.104 27.792L430.096 30.048L427.024 28.56L428.512 25.248C428.8 24.608 429.088 24.08 429.376 23.664C429.632 23.248 429.936 22.912 430.288 22.656C430.64 22.4 431.056 22.224 431.536 22.128C432.016 22.032 432.608 21.984 433.312 21.984H443.008L442.816 26.496H433.504ZM450.694 46.608C450.694 45.68 450.806 44.8 451.03 43.968C451.286 43.136 451.638 42.304 452.086 41.472C452.566 40.64 453.158 39.808 453.862 38.976C454.566 38.112 455.382 37.184 456.31 36.192L454.102 33.984L457.414 30.432C459.398 32.384 461.046 34.08 462.358 35.52C463.702 36.96 464.774 38.272 465.574 39.456C466.374 40.608 466.934 41.696 467.254 42.72C467.606 43.744 467.782 44.8 467.782 45.888C467.782 47.072 467.558 48.16 467.11 49.152C466.662 50.144 466.054 51.008 465.286 51.744C464.518 52.448 463.59 53.008 462.502 53.424C461.446 53.808 460.294 54 459.046 54C457.798 54 456.662 53.824 455.638 53.472C454.614 53.12 453.734 52.624 452.998 51.984C452.262 51.312 451.686 50.528 451.27 49.632C450.886 48.736 450.694 47.728 450.694 46.608ZM462.886 45.504C462.886 45.12 462.838 44.752 462.742 44.4C462.646 44.016 462.47 43.6 462.214 43.152C461.958 42.704 461.574 42.208 461.062 41.664C460.582 41.088 459.958 40.416 459.19 39.648C458.39 40.416 457.75 41.104 457.27 41.712C456.79 42.288 456.422 42.816 456.166 43.296C455.91 43.744 455.734 44.16 455.638 44.544C455.574 44.896 455.542 45.248 455.542 45.6C455.542 46.432 455.846 47.168 456.454 47.808C457.062 48.416 457.974 48.72 459.19 48.72C460.374 48.72 461.286 48.4 461.926 47.76C462.566 47.12 462.886 46.368 462.886 45.504ZM478.927 53.232C478.927 54.96 478.639 56.576 478.063 58.08C477.487 59.584 476.687 60.896 475.663 62.016C474.671 63.136 473.471 64.016 472.063 64.656C470.687 65.296 469.183 65.616 467.551 65.616H464.527L464.287 60.384H466.303C467.743 60.384 468.975 60.176 469.999 59.76C470.991 59.376 471.807 58.848 472.447 58.176C473.087 57.504 473.551 56.736 473.839 55.872C474.127 55.008 474.271 54.128 474.271 53.232V39.936H479.167V45.648C479.167 46.672 479.471 47.44 480.079 47.952C480.719 48.464 481.519 48.72 482.479 48.72H483.007C483.711 48.72 484.063 49.568 484.063 51.264C484.063 53.088 483.711 54 483.007 54H482.479C481.839 54 481.199 53.904 480.559 53.712C479.919 53.488 479.375 53.056 478.927 52.416V53.232ZM478.687 27.6H473.599V22.944H478.687V27.6ZM482.047 34.32H477.055V29.616H482.047V34.32ZM475.183 34.32H470.191V29.616H475.183V34.32ZM487.4 48.72C489.544 48.72 490.616 47.68 490.616 45.6V39.936H495.512V45.936C495.512 48.592 494.84 50.608 493.496 51.984C492.152 53.328 490.264 54 487.832 54H482.984C482.568 54 482.296 53.792 482.168 53.376C482.008 52.928 481.928 52.288 481.928 51.456C481.928 50.528 482.008 49.84 482.168 49.392C482.296 48.944 482.568 48.72 482.984 48.72H487.4ZM494.84 64.08H489.896V59.376H494.84V64.08ZM487.928 64.08H482.984V59.376H487.928V64.08ZM504.99 60.384C506.206 60.384 507.246 60.208 508.11 59.856C509.006 59.536 509.742 59.088 510.318 58.512C510.894 57.936 511.342 57.248 511.662 56.448C511.982 55.68 512.174 54.864 512.238 54H508.974C507.31 54 505.95 53.824 504.894 53.472C503.838 53.12 503.006 52.608 502.398 51.936C501.79 51.232 501.358 50.384 501.102 49.392C500.878 48.4 500.766 47.28 500.766 46.032C500.766 44.784 500.942 43.616 501.294 42.528C501.646 41.408 502.158 40.432 502.83 39.6C503.534 38.768 504.398 38.112 505.422 37.632C506.446 37.12 507.63 36.864 508.974 36.864C510.062 36.864 511.086 37.04 512.046 37.392C513.038 37.744 513.902 38.304 514.638 39.072C515.374 39.84 515.95 40.832 516.366 42.048C516.814 43.264 517.038 44.752 517.038 46.512V53.232C517.038 54.864 516.766 56.432 516.222 57.936C515.678 59.44 514.894 60.752 513.87 61.872C512.878 63.024 511.646 63.936 510.174 64.608C508.702 65.28 507.054 65.616 505.23 65.616H500.382L500.094 60.384H504.99ZM505.47 45.696C505.47 46.816 505.71 47.6 506.19 48.048C506.702 48.496 507.694 48.72 509.166 48.72H512.334V46.464C512.334 44.8 512.014 43.632 511.374 42.96C510.766 42.288 509.902 41.952 508.782 41.952C507.726 41.952 506.91 42.272 506.334 42.912C505.758 43.552 505.47 44.48 505.47 45.696ZM535.754 54H529.802V22.128H535.754V54ZM547.056 38.064C547.056 41.68 547.952 44.48 549.744 46.464C551.568 48.416 554.064 49.392 557.232 49.392C560.432 49.392 562.912 48.416 564.672 46.464C566.464 44.48 567.36 41.68 567.36 38.064C567.36 34.48 566.464 31.68 564.672 29.664C562.912 27.648 560.432 26.64 557.232 26.64C554.064 26.64 551.568 27.648 549.744 29.664C547.952 31.68 547.056 34.48 547.056 38.064ZM575.136 60.336H570.24C569.504 60.336 568.864 60.24 568.32 60.048C567.776 59.856 567.264 59.504 566.784 58.992L561.936 53.712C561.232 53.904 560.48 54.048 559.68 54.144C558.88 54.272 558.064 54.336 557.232 54.336C554.8 54.336 552.576 53.936 550.56 53.136C548.576 52.304 546.864 51.168 545.424 49.728C544.016 48.288 542.912 46.576 542.112 44.592C541.344 42.608 540.96 40.432 540.96 38.064C540.96 35.728 541.344 33.568 542.112 31.584C542.912 29.568 544.016 27.84 545.424 26.4C546.864 24.928 548.576 23.792 550.56 22.992C552.576 22.16 554.8 21.744 557.232 21.744C559.664 21.744 561.872 22.16 563.856 22.992C565.872 23.792 567.584 24.928 568.992 26.4C570.432 27.84 571.536 29.568 572.304 31.584C573.104 33.568 573.504 35.728 573.504 38.064C573.504 40.976 572.928 43.584 571.776 45.888C570.624 48.16 569.008 50.016 566.928 51.456L575.136 60.336ZM584.147 46.608C584.147 45.68 584.259 44.8 584.483 43.968C584.739 43.136 585.091 42.304 585.539 41.472C586.019 40.64 586.611 39.808 587.315 38.976C588.019 38.112 588.835 37.184 589.763 36.192L587.555 33.984L590.867 30.432C592.851 32.384 594.499 34.08 595.811 35.52C597.155 36.96 598.227 38.272 599.027 39.456C599.827 40.608 600.387 41.696 600.707 42.72C601.059 43.744 601.235 44.8 601.235 45.888C601.235 47.072 601.011 48.16 600.563 49.152C600.115 50.144 599.507 51.008 598.739 51.744C597.971 52.448 597.043 53.008 595.955 53.424C594.899 53.808 593.747 54 592.499 54C591.251 54 590.115 53.824 589.091 53.472C588.067 53.12 587.187 52.624 586.451 51.984C585.715 51.312 585.139 50.528 584.723 49.632C584.339 48.736 584.147 47.728 584.147 46.608ZM596.339 45.504C596.339 45.12 596.291 44.752 596.195 44.4C596.099 44.016 595.923 43.6 595.667 43.152C595.411 42.704 595.027 42.208 594.515 41.664C594.035 41.088 593.411 40.416 592.643 39.648C591.843 40.416 591.203 41.104 590.723 41.712C590.243 42.288 589.875 42.816 589.619 43.296C589.363 43.744 589.187 44.16 589.091 44.544C589.027 44.896 588.995 45.248 588.995 45.6C588.995 46.432 589.299 47.168 589.907 47.808C590.515 48.416 591.427 48.72 592.643 48.72C593.827 48.72 594.739 48.4 595.379 47.76C596.019 47.12 596.339 46.368 596.339 45.504ZM612.62 53.232C612.62 54.96 612.316 56.576 611.708 58.08C611.132 59.584 610.316 60.896 609.26 62.016C608.236 63.136 607.004 64.016 605.564 64.656C604.156 65.296 602.636 65.616 601.004 65.616H597.98L597.74 60.384H599.756C601.196 60.384 602.428 60.176 603.452 59.76C604.444 59.376 605.26 58.848 605.9 58.176C606.54 57.504 607.004 56.736 607.292 55.872C607.58 55.008 607.724 54.128 607.724 53.232V39.936H612.62V53.232ZM622.037 60.384C623.253 60.384 624.293 60.208 625.157 59.856C626.053 59.536 626.789 59.088 627.365 58.512C627.941 57.936 628.389 57.248 628.709 56.448C629.029 55.68 629.221 54.864 629.285 54H626.021C624.357 54 622.997 53.824 621.941 53.472C620.885 53.12 620.053 52.608 619.445 51.936C618.837 51.232 618.405 50.384 618.149 49.392C617.925 48.4 617.813 47.28 617.813 46.032C617.813 44.784 617.989 43.616 618.341 42.528C618.693 41.408 619.205 40.432 619.877 39.6C620.581 38.768 621.445 38.112 622.469 37.632C623.493 37.12 624.677 36.864 626.021 36.864C627.109 36.864 628.133 37.04 629.093 37.392C630.085 37.744 630.949 38.304 631.685 39.072C632.421 39.84 632.997 40.832 633.413 42.048C633.861 43.264 634.085 44.752 634.085 46.512V53.232C634.085 54.864 633.813 56.432 633.269 57.936C632.725 59.44 631.941 60.752 630.917 61.872C629.925 63.024 628.693 63.936 627.221 64.608C625.749 65.28 624.101 65.616 622.277 65.616H617.429L617.141 60.384H622.037ZM622.517 45.696C622.517 46.816 622.757 47.6 623.237 48.048C623.749 48.496 624.741 48.72 626.213 48.72H629.381V46.464C629.381 44.8 629.061 43.632 628.421 42.96C627.813 42.288 626.949 41.952 625.829 41.952C624.773 41.952 623.957 42.272 623.381 42.912C622.805 43.552 622.517 44.48 622.517 45.696ZM656.13 42C656.994 42.992 657.618 43.984 658.002 44.976C658.418 45.936 658.626 46.88 658.626 47.808C658.626 48.672 658.466 49.488 658.146 50.256C657.858 50.992 657.41 51.648 656.802 52.224C656.194 52.768 655.426 53.2 654.498 53.52C653.602 53.84 652.562 54 651.378 54H638.562L638.322 48.72H650.562C652.13 48.72 652.914 48.128 652.914 46.944C652.914 46.368 652.642 45.776 652.098 45.168L643.938 35.856L647.73 32.304L656.13 42ZM108.239 117.232C108.239 118.96 107.951 120.576 107.375 122.08C106.799 123.584 105.999 124.896 104.975 126.016C103.983 127.136 102.783 128.016 101.375 128.656C99.9994 129.296 98.4954 129.616 96.8634 129.616H93.8394L93.5994 124.384H95.6154C97.0554 124.384 98.2874 124.176 99.3114 123.76C100.303 123.376 101.119 122.848 101.759 122.176C102.399 121.504 102.863 120.736 103.151 119.872C103.439 119.008 103.583 118.128 103.583 117.232V103.936H108.479V109.648C108.479 110.672 108.783 111.44 109.391 111.952C110.031 112.464 110.831 112.72 111.791 112.72H112.319C113.023 112.72 113.375 113.568 113.375 115.264C113.375 117.088 113.023 118 112.319 118H111.791C111.151 118 110.511 117.904 109.871 117.712C109.231 117.488 108.687 117.056 108.239 116.416V117.232ZM116.713 112.72C118.857 112.72 119.929 111.68 119.929 109.6V103.936H124.825V109.936C124.825 112.592 124.153 114.608 122.809 115.984C121.465 117.328 119.577 118 117.145 118H112.297C111.881 118 111.609 117.792 111.481 117.376C111.321 116.928 111.241 116.288 111.241 115.456C111.241 114.528 111.321 113.84 111.481 113.392C111.609 112.944 111.881 112.72 112.297 112.72H116.713ZM124.969 98.32H119.977V93.616H124.969V98.32ZM118.105 98.32H113.113V93.616H118.105V98.32ZM136.271 117.232C136.271 118.96 135.983 120.576 135.407 122.08C134.831 123.584 134.031 124.896 133.007 126.016C132.015 127.136 130.815 128.016 129.407 128.656C128.031 129.296 126.527 129.616 124.895 129.616H121.871L121.631 124.384H123.647C125.087 124.384 126.319 124.176 127.343 123.76C128.335 123.376 129.151 122.848 129.791 122.176C130.431 121.504 130.895 120.736 131.183 119.872C131.471 119.008 131.615 118.128 131.615 117.232V103.936H136.511V109.648C136.511 110.672 136.815 111.44 137.423 111.952C138.063 112.464 138.863 112.72 139.823 112.72H140.351C141.055 112.72 141.407 113.568 141.407 115.264C141.407 117.088 141.055 118 140.351 118H139.823C139.183 118 138.543 117.904 137.903 117.712C137.263 117.488 136.719 117.056 136.271 116.416V117.232ZM144.744 112.72C146.888 112.72 147.96 111.68 147.96 109.6V103.936H152.856V109.936C152.856 112.592 152.184 114.608 150.84 115.984C149.496 117.328 147.608 118 145.176 118H140.328C139.912 118 139.64 117.792 139.512 117.376C139.352 116.928 139.272 116.288 139.272 115.456C139.272 114.528 139.352 113.84 139.512 113.392C139.64 112.944 139.912 112.72 140.328 112.72H144.744ZM147.24 128.272H141.816V123.376H147.24V128.272ZM202.637 109.6C202.637 110.72 202.925 111.52 203.501 112C204.109 112.48 204.813 112.72 205.613 112.72C206.573 112.72 207.309 112.464 207.821 111.952C208.365 111.408 208.637 110.624 208.637 109.6V103.936H213.533V109.936C213.533 112.592 212.861 114.608 211.517 115.984C210.173 117.328 208.269 118 205.805 118C204.717 118 203.677 117.808 202.685 117.424C201.693 117.008 200.829 116.192 200.093 114.976C199.325 116.192 198.429 117.008 197.405 117.424C196.413 117.808 195.405 118 194.381 118C193.485 118 192.717 117.872 192.077 117.616C191.469 117.328 190.957 116.96 190.541 116.512V117.232C190.541 118.864 190.269 120.432 189.725 121.936C189.181 123.44 188.397 124.752 187.373 125.872C186.381 127.024 185.149 127.936 183.677 128.608C182.205 129.28 180.557 129.616 178.733 129.616H175.709C172.125 129.616 169.341 128.512 167.357 126.304C165.373 124.096 164.381 121.072 164.381 117.232V108.64H169.229V117.04C169.229 118.16 169.357 119.168 169.613 120.064C169.869 120.96 170.269 121.728 170.813 122.368C171.389 123.008 172.125 123.504 173.021 123.856C173.949 124.208 175.069 124.384 176.381 124.384H178.493C179.837 124.384 180.973 124.176 181.901 123.76C182.861 123.376 183.629 122.832 184.205 122.128C184.813 121.456 185.245 120.656 185.501 119.728C185.757 118.832 185.885 117.872 185.885 116.848V103.936H190.733V109.648C190.733 110.672 191.053 111.44 191.693 111.952C192.365 112.464 193.197 112.72 194.189 112.72C196.589 112.72 197.789 111.68 197.789 109.6V103.936H202.637V109.6ZM225.151 117.232C225.151 118.96 224.847 120.576 224.239 122.08C223.663 123.584 222.847 124.896 221.791 126.016C220.767 127.136 219.535 128.016 218.095 128.656C216.687 129.296 215.167 129.616 213.535 129.616H210.511L210.271 124.384H212.287C213.727 124.384 214.959 124.176 215.983 123.76C216.975 123.376 217.791 122.848 218.431 122.176C219.071 121.504 219.535 120.736 219.823 119.872C220.111 119.008 220.255 118.128 220.255 117.232V103.936H225.151V117.232ZM230.728 88.24H235.624V118H230.728V88.24ZM250.431 112.72C251.551 112.72 252.319 112.496 252.735 112.048C253.151 111.6 253.359 111.152 253.359 110.704C253.359 110.448 253.311 110.128 253.215 109.744C253.119 109.328 252.927 108.672 252.639 107.776C252.351 106.848 251.919 105.584 251.343 103.984C250.799 102.384 250.047 100.288 249.087 97.696L253.743 95.728L258.687 109.552C259.071 110.672 259.519 111.488 260.031 112C260.575 112.48 261.407 112.72 262.527 112.72H263.151C263.855 112.72 264.207 113.568 264.207 115.264C264.207 117.088 263.855 118 263.151 118H262.527C261.471 118 260.447 117.808 259.455 117.424C258.495 117.04 257.615 116.224 256.815 114.976C256.143 116.128 255.295 116.928 254.271 117.376C253.279 117.792 252.191 118 251.007 118H240.687L240.447 112.72H250.431ZM263.573 112.72C264.661 112.72 265.509 112.512 266.117 112.096C266.725 111.648 267.029 110.928 267.029 109.936V108.88C267.029 107.6 267.205 106.416 267.557 105.328C267.941 104.24 268.485 103.312 269.189 102.544C269.893 101.776 270.741 101.184 271.733 100.768C272.757 100.32 273.893 100.096 275.141 100.096C276.453 100.096 277.605 100.32 278.597 100.768C279.621 101.184 280.469 101.792 281.141 102.592C281.813 103.36 282.325 104.288 282.677 105.376C283.029 106.464 283.205 107.648 283.205 108.928C283.205 111.808 282.469 114.048 280.997 115.648C279.557 117.216 277.589 118 275.093 118C273.813 118 272.581 117.76 271.397 117.28C270.245 116.768 269.365 115.968 268.757 114.88C268.149 116.128 267.365 116.96 266.405 117.376C265.445 117.792 264.501 118 263.573 118H263.141C262.725 118 262.453 117.792 262.325 117.376C262.165 116.928 262.085 116.288 262.085 115.456C262.085 114.528 262.165 113.84 262.325 113.392C262.453 112.944 262.725 112.72 263.141 112.72H263.573ZM278.501 109.264C278.501 108.176 278.245 107.264 277.733 106.528C277.253 105.792 276.373 105.424 275.093 105.424C273.877 105.424 272.997 105.792 272.453 106.528C271.941 107.232 271.685 108.16 271.685 109.312C271.685 110.432 271.989 111.28 272.597 111.856C273.205 112.432 274.037 112.72 275.093 112.72C277.365 112.72 278.501 111.568 278.501 109.264ZM299.35 124.384C300.566 124.384 301.606 124.208 302.47 123.856C303.366 123.536 304.102 123.088 304.678 122.512C305.254 121.936 305.702 121.248 306.022 120.448C306.342 119.68 306.534 118.864 306.598 118H303.334C301.67 118 300.31 117.824 299.254 117.472C298.198 117.12 297.366 116.608 296.758 115.936C296.15 115.232 295.718 114.384 295.462 113.392C295.238 112.4 295.126 111.28 295.126 110.032C295.126 108.784 295.302 107.616 295.654 106.528C296.006 105.408 296.518 104.432 297.19 103.6C297.894 102.768 298.758 102.112 299.782 101.632C300.806 101.12 301.99 100.864 303.334 100.864C304.422 100.864 305.446 101.04 306.406 101.392C307.398 101.744 308.262 102.304 308.998 103.072C309.734 103.84 310.31 104.832 310.726 106.048C311.174 107.264 311.398 108.752 311.398 110.512V117.232C311.398 118.864 311.126 120.432 310.582 121.936C310.038 123.44 309.254 124.752 308.23 125.872C307.238 127.024 306.006 127.936 304.534 128.608C303.062 129.28 301.414 129.616 299.59 129.616H294.742L294.454 124.384H299.35ZM299.83 109.696C299.83 110.816 300.07 111.6 300.55 112.048C301.062 112.496 302.054 112.72 303.526 112.72H306.694V110.464C306.694 108.8 306.374 107.632 305.734 106.96C305.126 106.288 304.262 105.952 303.142 105.952C302.086 105.952 301.27 106.272 300.694 106.912C300.118 107.552 299.83 108.48 299.83 109.696ZM327.713 107.92C327.713 109.744 327.809 111.36 328.001 112.768C328.193 114.176 328.497 115.488 328.913 116.704C329.361 117.92 329.937 119.088 330.641 120.208C331.377 121.328 332.289 122.512 333.377 123.76L330.449 126.736C329.297 125.616 328.241 124.432 327.281 123.184C326.353 121.968 325.553 120.608 324.881 119.104C324.241 117.632 323.745 115.984 323.393 114.16C323.041 112.336 322.865 110.272 322.865 107.968C322.865 105.664 323.041 103.6 323.393 101.776C323.745 99.952 324.241 98.304 324.881 96.832C325.553 95.328 326.353 93.968 327.281 92.752C328.241 91.536 329.297 90.368 330.449 89.248L333.377 92.224C332.289 93.472 331.377 94.656 330.641 95.776C329.937 96.864 329.361 98.016 328.913 99.232C328.497 100.416 328.193 101.712 328.001 103.12C327.809 104.528 327.713 106.128 327.713 107.92ZM355.192 106C356.056 106.992 356.68 107.984 357.064 108.976C357.48 109.936 357.688 110.88 357.688 111.808C357.688 112.672 357.528 113.488 357.208 114.256C356.92 114.992 356.472 115.648 355.864 116.224C355.256 116.768 354.488 117.2 353.56 117.52C352.664 117.84 351.624 118 350.44 118H337.624L337.384 112.72H349.624C351.192 112.72 351.976 112.128 351.976 110.944C351.976 110.368 351.704 109.776 351.16 109.168L343 99.856L346.792 96.304L355.192 106ZM369.682 118C368.786 118 367.922 117.888 367.09 117.664C366.29 117.408 365.586 116.992 364.978 116.416C364.37 115.84 363.89 115.088 363.538 114.16C363.186 113.2 363.01 112.016 363.01 110.608V88.24H367.906V109.408C367.906 110.432 368.13 111.248 368.578 111.856C369.058 112.432 369.762 112.72 370.69 112.72H371.794C372.498 112.72 372.85 113.568 372.85 115.264C372.85 117.088 372.498 118 371.794 118H369.682ZM375.157 112.72C377.301 112.72 378.373 111.68 378.373 109.6V103.936H383.317V109.6C383.317 110.72 383.653 111.52 384.325 112C385.029 112.48 385.845 112.72 386.773 112.72H388.021C388.757 112.72 389.125 113.568 389.125 115.264C389.125 117.088 388.757 118 388.021 118H386.629C385.413 118 384.309 117.808 383.317 117.424C382.325 117.008 381.461 116.192 380.725 114.976C379.925 116.192 379.061 117.008 378.133 117.424C377.205 117.808 376.213 118 375.157 118H371.797C371.381 118 371.109 117.792 370.981 117.376C370.821 116.928 370.741 116.288 370.741 115.456C370.741 114.528 370.821 113.84 370.981 113.392C371.109 112.944 371.381 112.72 371.797 112.72H375.157ZM381.781 134.8H376.693V130.096H381.781V134.8ZM385.141 128.08H380.149V123.376H385.141V128.08ZM378.277 128.08H373.285V123.376H378.277V128.08ZM388.448 112.72C389.536 112.72 390.384 112.512 390.992 112.096C391.6 111.648 391.904 110.928 391.904 109.936V108.88C391.904 107.6 392.08 106.416 392.432 105.328C392.816 104.24 393.36 103.312 394.064 102.544C394.768 101.776 395.616 101.184 396.608 100.768C397.632 100.32 398.768 100.096 400.016 100.096C401.328 100.096 402.48 100.32 403.472 100.768C404.496 101.184 405.344 101.792 406.016 102.592C406.688 103.36 407.2 104.272 407.552 105.328C407.904 106.384 408.08 107.536 408.08 108.784V109.696C408.08 110.848 408.416 111.648 409.088 112.096C409.792 112.512 410.528 112.72 411.296 112.72H411.968C412.384 112.72 412.656 112.944 412.784 113.392C412.944 113.808 413.024 114.432 413.024 115.264C413.024 116.192 412.944 116.88 412.784 117.328C412.656 117.776 412.384 118 411.968 118H411.296C410.368 118 409.424 117.808 408.464 117.424C407.504 117.008 406.672 116.144 405.968 114.832C405.104 116.144 404.128 117.008 403.04 117.424C401.984 117.808 400.896 118 399.776 118C398.496 118 397.296 117.76 396.176 117.28C395.088 116.768 394.24 115.968 393.632 114.88C393.024 116.128 392.24 116.96 391.28 117.376C390.32 117.792 389.376 118 388.448 118H388.016C387.6 118 387.328 117.792 387.2 117.376C387.04 116.928 386.96 116.288 386.96 115.456C386.96 114.528 387.04 113.84 387.2 113.392C387.328 112.944 387.6 112.72 388.016 112.72H388.448ZM403.376 109.264C403.376 108.176 403.12 107.264 402.608 106.528C402.128 105.792 401.248 105.424 399.968 105.424C398.752 105.424 397.872 105.792 397.328 106.528C396.816 107.232 396.56 108.16 396.56 109.312C396.56 110.432 396.864 111.28 397.472 111.856C398.08 112.432 398.912 112.72 399.968 112.72C402.24 112.72 403.376 111.568 403.376 109.264ZM414.081 112.72C416.289 112.72 417.393 111.68 417.393 109.6V103.936H422.241V109.6C422.241 110.72 422.577 111.52 423.249 112C423.953 112.48 424.753 112.72 425.649 112.72C428.049 112.72 429.249 111.68 429.249 109.6V103.936H434.145V109.6C434.145 110.72 434.433 111.52 435.009 112C435.617 112.48 436.321 112.72 437.121 112.72C438.081 112.72 438.817 112.464 439.329 111.952C439.873 111.408 440.145 110.624 440.145 109.6V103.936H445.041V109.936C445.041 112.592 444.353 114.608 442.977 115.984C441.633 117.328 439.745 118 437.313 118C436.225 118 435.185 117.808 434.193 117.424C433.201 117.008 432.337 116.192 431.601 114.976C430.833 116.192 429.921 117.008 428.865 117.424C427.841 117.808 426.769 118 425.649 118C424.433 118 423.313 117.808 422.289 117.424C421.297 117.008 420.433 116.192 419.697 114.976C418.929 116.192 418.065 117.008 417.105 117.424C416.145 117.808 415.121 118 414.033 118H411.969C411.553 118 411.281 117.792 411.153 117.376C410.993 116.928 410.913 116.288 410.913 115.456C410.913 114.528 410.993 113.84 411.153 113.392C411.281 112.944 411.553 112.72 411.969 112.72H414.081ZM455.467 108.016C455.467 106.192 455.371 104.576 455.179 103.168C454.987 101.76 454.667 100.448 454.219 99.232C453.803 98.016 453.227 96.848 452.491 95.728C451.787 94.608 450.891 93.424 449.803 92.176L452.731 89.2C453.883 90.32 454.923 91.504 455.851 92.752C456.811 93.968 457.611 95.328 458.251 96.832C458.923 98.304 459.435 99.952 459.787 101.776C460.139 103.6 460.315 105.664 460.315 107.968C460.315 110.272 460.139 112.336 459.787 114.16C459.435 115.984 458.923 117.632 458.251 119.104C457.611 120.608 456.811 121.968 455.851 123.184C454.923 124.4 453.883 125.568 452.731 126.688L449.803 123.712C450.891 122.464 451.787 121.28 452.491 120.16C453.227 119.072 453.803 117.936 454.219 116.752C454.667 115.536 454.987 114.224 455.179 112.816C455.371 111.408 455.467 109.808 455.467 108.016ZM497.905 116.8C497.905 118.624 497.617 120.304 497.041 121.84C496.497 123.408 495.697 124.768 494.641 125.92C493.617 127.072 492.353 127.968 490.849 128.608C489.377 129.28 487.729 129.616 485.905 129.616H482.881C479.297 129.616 476.513 128.512 474.529 126.304C472.545 124.096 471.553 121.072 471.553 117.232V108.64H476.401V117.04C476.401 118.16 476.529 119.168 476.785 120.064C477.041 120.96 477.441 121.728 477.985 122.368C478.561 123.008 479.297 123.504 480.193 123.856C481.121 124.208 482.241 124.384 483.553 124.384H485.665C487.009 124.384 488.145 124.176 489.073 123.76C490.033 123.376 490.801 122.832 491.377 122.128C491.985 121.456 492.417 120.656 492.673 119.728C492.929 118.832 493.057 117.872 493.057 116.848V103.936H497.905V116.8ZM486.625 103.216H481.201V98.32H486.625V103.216ZM510.213 118C509.317 118 508.453 117.888 507.621 117.664C506.821 117.408 506.117 116.992 505.509 116.416C504.901 115.84 504.421 115.088 504.069 114.16C503.717 113.2 503.541 112.016 503.541 110.608V88.24H508.437V109.408C508.437 110.432 508.661 111.248 509.109 111.856C509.589 112.432 510.293 112.72 511.221 112.72H512.325C513.029 112.72 513.381 113.568 513.381 115.264C513.381 117.088 513.029 118 512.325 118H510.213ZM514.44 112.72C516.648 112.72 517.752 111.68 517.752 109.6V103.936H522.6V109.6C522.6 110.72 522.936 111.52 523.608 112C524.312 112.48 525.112 112.72 526.008 112.72C528.408 112.72 529.608 111.68 529.608 109.6V103.936H534.504V109.6C534.504 110.72 534.792 111.52 535.368 112C535.976 112.48 536.68 112.72 537.48 112.72C538.44 112.72 539.176 112.464 539.688 111.952C540.232 111.408 540.504 110.624 540.504 109.6V103.936H545.4V109.936C545.4 112.592 544.712 114.608 543.336 115.984C541.992 117.328 540.104 118 537.672 118C536.584 118 535.544 117.808 534.552 117.424C533.56 117.008 532.696 116.192 531.96 114.976C531.192 116.192 530.28 117.008 529.224 117.424C528.2 117.808 527.128 118 526.008 118C524.792 118 523.672 117.808 522.648 117.424C521.656 117.008 520.792 116.192 520.056 114.976C519.288 116.192 518.424 117.008 517.464 117.424C516.504 117.808 515.48 118 514.392 118H512.328C511.912 118 511.64 117.792 511.512 117.376C511.352 116.928 511.272 116.288 511.272 115.456C511.272 114.528 511.352 113.84 511.512 113.392C511.64 112.944 511.912 112.72 512.328 112.72H514.44ZM534.552 91.6H529.464V86.944H534.552V91.6ZM537.912 98.32H532.92V93.616H537.912V98.32ZM531.048 98.32H526.056V93.616H531.048V98.32ZM554.818 124.384C556.034 124.384 557.074 124.208 557.938 123.856C558.834 123.536 559.57 123.088 560.146 122.512C560.722 121.936 561.17 121.248 561.49 120.448C561.81 119.68 562.002 118.864 562.066 118H558.802C557.138 118 555.778 117.824 554.722 117.472C553.666 117.12 552.834 116.608 552.226 115.936C551.618 115.232 551.186 114.384 550.93 113.392C550.706 112.4 550.594 111.28 550.594 110.032C550.594 108.784 550.77 107.616 551.122 106.528C551.474 105.408 551.986 104.432 552.658 103.6C553.362 102.768 554.226 102.112 555.25 101.632C556.274 101.12 557.458 100.864 558.802 100.864C559.89 100.864 560.914 101.04 561.874 101.392C562.866 101.744 563.73 102.304 564.466 103.072C565.202 103.84 565.778 104.832 566.194 106.048C566.642 107.264 566.866 108.752 566.866 110.512V112.72H570.754C571.458 112.72 571.81 113.568 571.81 115.264C571.81 117.088 571.458 118 570.754 118H566.77C566.706 119.568 566.386 121.056 565.81 122.464C565.234 123.872 564.434 125.104 563.41 126.16C562.418 127.216 561.218 128.048 559.81 128.656C558.402 129.296 556.818 129.616 555.058 129.616H550.21L549.922 124.384H554.818ZM555.298 109.696C555.298 110.816 555.538 111.6 556.018 112.048C556.53 112.496 557.522 112.72 558.994 112.72H562.162V110.464C562.162 108.8 561.842 107.632 561.202 106.96C560.594 106.288 559.73 105.952 558.61 105.952C557.554 105.952 556.738 106.272 556.162 106.912C555.586 107.552 555.298 108.48 555.298 109.696ZM582.59 103.6C581.502 103.6 580.622 103.952 579.95 104.656C579.31 105.36 578.99 106.24 578.99 107.296C578.99 108.352 579.358 109.312 580.094 110.176C580.862 111.008 581.758 111.696 582.782 112.24C583.742 111.696 584.542 111.008 585.182 110.176C585.822 109.344 586.142 108.416 586.142 107.392C586.142 106.272 585.806 105.36 585.134 104.656C584.494 103.952 583.646 103.6 582.59 103.6ZM570.734 118C570.318 118 570.046 117.792 569.918 117.376C569.758 116.928 569.678 116.288 569.678 115.456C569.678 114.528 569.758 113.84 569.918 113.392C570.046 112.944 570.318 112.72 570.734 112.72H577.502C575.486 110.96 574.478 108.896 574.478 106.528C574.478 105.472 574.67 104.464 575.054 103.504C575.438 102.544 575.998 101.696 576.734 100.96C577.47 100.192 578.35 99.6 579.374 99.184C580.43 98.736 581.63 98.512 582.974 98.512C584.286 98.512 585.422 98.736 586.382 99.184C587.374 99.632 588.174 100.224 588.782 100.96C589.422 101.696 589.886 102.528 590.174 103.456C590.494 104.384 590.654 105.328 590.654 106.288C590.654 107.6 590.398 108.784 589.886 109.84C589.406 110.864 588.702 111.824 587.774 112.72H594.494C596.03 112.72 596.798 112.128 596.798 110.944C596.798 110.688 596.734 110.4 596.606 110.08C596.478 109.76 596.238 109.376 595.886 108.928L587.918 99.232L591.518 95.824L599.63 105.808C600.558 106.928 601.198 107.984 601.55 108.976C601.934 109.936 602.126 110.88 602.126 111.808C602.126 112.672 601.966 113.488 601.646 114.256C601.358 114.992 600.91 115.648 600.302 116.224C599.694 116.768 598.926 117.2 597.998 117.52C597.102 117.84 596.062 118 594.878 118H589.598C588.126 118 586.814 117.936 585.662 117.808C584.542 117.68 583.662 117.44 583.022 117.088C582.542 117.312 581.966 117.488 581.294 117.616C580.654 117.744 579.982 117.84 579.278 117.904C578.606 117.936 577.934 117.968 577.262 118C576.622 118 576.078 118 575.63 118H570.734ZM613.271 117.232C613.271 118.96 612.983 120.576 612.407 122.08C611.831 123.584 611.031 124.896 610.007 126.016C609.015 127.136 607.815 128.016 606.407 128.656C605.031 129.296 603.527 129.616 601.895 129.616H598.871L598.631 124.384H600.647C602.087 124.384 603.319 124.176 604.343 123.76C605.335 123.376 606.151 122.848 606.791 122.176C607.431 121.504 607.895 120.736 608.183 119.872C608.471 119.008 608.615 118.128 608.615 117.232V103.936H613.511V109.648C613.511 110.672 613.815 111.44 614.423 111.952C615.063 112.464 615.863 112.72 616.823 112.72H617.351C618.055 112.72 618.407 113.568 618.407 115.264C618.407 117.088 618.055 118 617.351 118H616.823C616.183 118 615.543 117.904 614.903 117.712C614.263 117.488 613.719 117.056 613.271 116.416V117.232ZM613.559 98.32H608.135V93.424H613.559V98.32ZM620.688 112.72C622.832 112.72 623.904 111.68 623.904 109.6V103.936H628.848V109.6C628.848 110.72 629.184 111.52 629.856 112C630.56 112.48 631.376 112.72 632.304 112.72H633.552C634.288 112.72 634.656 113.568 634.656 115.264C634.656 117.088 634.288 118 633.552 118H632.16C630.944 118 629.84 117.808 628.848 117.424C627.856 117.008 626.992 116.192 626.256 114.976C625.456 116.192 624.592 117.008 623.664 117.424C622.736 117.808 621.744 118 620.688 118H617.328C616.912 118 616.64 117.792 616.512 117.376C616.352 116.928 616.272 116.288 616.272 115.456C616.272 114.528 616.352 113.84 616.512 113.392C616.64 112.944 616.912 112.72 617.328 112.72H620.688ZM631.344 128.08H626.4V123.376H631.344V128.08ZM624.432 128.08H619.488V123.376H624.432V128.08ZM637.963 112.72C640.107 112.72 641.179 111.68 641.179 109.6V103.936H646.075V109.936C646.075 112.592 645.403 114.608 644.059 115.984C642.715 117.328 640.827 118 638.395 118H633.547C633.131 118 632.859 117.792 632.731 117.376C632.571 116.928 632.491 116.288 632.491 115.456C632.491 114.528 632.571 113.84 632.731 113.392C632.859 112.944 633.131 112.72 633.547 112.72H637.963ZM646.219 98.32H641.227V93.616H646.219V98.32ZM639.355 98.32H634.363V93.616H639.355V98.32Z" fill="url(#paint0_linear_421_12)"/>
<path d="M395.651 79.0448C404.247 79.6317 412.84 80.2841 421.437 80.7904C433.757 81.5208 446.081 82.138 458.403 82.8382C458.938 82.8709 459.463 83.2538 460 83.4755C459.475 83.6568 458.946 84.017 458.425 83.9994C448.089 83.6165 437.753 83.2614 427.422 82.7576C416.958 82.2538 406.5 81.5914 396.039 80.9742C394.548 80.8861 393.045 80.6972 391.571 80.4705C390.773 80.3395 389.701 80.2035 389.675 78.8962C389.653 77.7249 390.659 77.5108 391.394 77.3849C394.975 76.7174 398.548 75.861 402.151 75.5461C413.788 74.5386 425.437 73.7124 437.083 72.8182C437.445 72.807 437.802 72.7042 438.133 72.516C434.448 72.3346 430.765 72.0323 427.08 71.9946C408.431 71.8057 389.775 71.3271 371.129 71.647C354.35 71.9366 337.579 73.1406 320.803 73.9139C315.214 74.1658 309.639 74.3522 304.056 74.5562C303.589 74.6051 303.118 74.5712 302.659 74.4555C302.405 74.3698 302.218 73.9517 302 73.6998C302.234 73.4656 302.451 73.0575 302.703 73.0197C306.296 72.4807 309.889 71.8988 313.502 71.5084C328.542 69.8838 343.607 68.71 358.699 68.3473C371.862 68.0349 385.03 67.9644 398.194 68.0148C406.87 68.0475 415.547 68.3599 424.216 68.7704C434.645 69.2742 445.061 70.1205 455.431 71.7125C455.792 71.7679 456.201 71.7603 456.497 71.9769C456.842 72.2288 457.096 72.7049 457.377 73.0827C457.044 73.395 456.722 73.9593 456.379 73.9819C453.824 74.1507 451.261 74.1633 448.704 74.3169C437.184 75.0096 425.659 75.6293 414.147 76.4907C408.279 76.9315 402.432 77.8232 396.582 78.5058C396.266 78.5436 395.955 78.6267 395.639 78.6871L395.651 79.0448Z" fill="#FFAF20"/>
<g clip-path="url(#clip0_421_12)">
<path d="M693.288 89.5484L713.5 94.3339L699.11 109.629L693.288 89.5484Z" fill="#E3ECFF"/>
</g>
<g clip-path="url(#clip1_421_12)">
<path d="M684.339 20.1331L689.58 0.0346928L704.546 14.7661L684.339 20.1331Z" fill="#E3ECFF"/>
</g>
<g clip-path="url(#clip2_421_12)">
<path d="M21.4759 128.085L11.8019 146.465L0.577891 128.716L21.4759 128.085Z" fill="#E3ECFF"/>
</g>
<circle cx="49" cy="84" r="6" fill="#E3ECFF"/>
<g clip-path="url(#clip3_421_12)">
<path d="M747.55 54.91C747.177 54.9142 746.817 54.7704 746.55 54.51L736.37 44.33C736.114 44.0741 735.97 43.727 735.97 43.365C735.97 43.0031 736.114 42.656 736.37 42.4C736.626 42.1441 736.973 42.0003 737.335 42.0003C737.697 42.0003 738.044 42.1441 738.3 42.4L748.48 52.58C748.671 52.7739 748.799 53.0202 748.849 53.2874C748.899 53.5546 748.869 53.8307 748.762 54.0805C748.655 54.3304 748.475 54.5427 748.247 54.6904C748.019 54.8381 747.752 54.9145 747.48 54.91H747.55Z" fill="#E3ECFF"/>
<path d="M737.37 54.91C736.997 54.9142 736.637 54.7704 736.37 54.51C736.115 54.2534 735.972 53.9065 735.972 53.545C735.972 53.1835 736.115 52.8366 736.37 52.58L746.58 42.42C746.707 42.2933 746.857 42.1927 747.023 42.1241C747.188 42.0556 747.366 42.0203 747.545 42.0203C747.724 42.0203 747.902 42.0556 748.067 42.1241C748.233 42.1927 748.383 42.2933 748.51 42.42C748.637 42.5467 748.737 42.6972 748.806 42.8627C748.874 43.0283 748.91 43.2058 748.91 43.385C748.91 43.5642 748.874 43.7417 748.806 43.9072C748.737 44.0728 748.637 44.2232 748.51 44.35L738.33 54.53C738.071 54.7761 737.727 54.9123 737.37 54.91Z" fill="#E3ECFF"/>
</g>
<g clip-path="url(#clip4_421_12)">
<path d="M47.55 20.91C47.1769 20.9142 46.8173 20.7704 46.55 20.51L36.37 10.33C36.1141 10.0741 35.9703 9.72697 35.9703 9.36502C35.9703 9.00308 36.1141 8.65596 36.37 8.40002C36.626 8.14409 36.973 8.00031 37.335 8.00031C37.6969 8.00031 38.0441 8.14409 38.3 8.40002L48.48 18.58C48.6706 18.7739 48.7991 19.0202 48.8493 19.2874C48.8994 19.5546 48.869 19.8307 48.7617 20.0805C48.6545 20.3304 48.4754 20.5427 48.2472 20.6904C48.0189 20.8381 47.7519 20.9145 47.48 20.91H47.55Z" fill="#E3ECFF"/>
<path d="M37.37 20.91C36.9969 20.9142 36.6373 20.7704 36.37 20.51C36.1154 20.2534 35.9724 19.9065 35.9724 19.545C35.9724 19.1835 36.1154 18.8366 36.37 18.58L46.58 8.41998C46.7067 8.29326 46.8572 8.19273 47.0227 8.12415C47.1883 8.05556 47.3658 8.02026 47.545 8.02026C47.7242 8.02026 47.9017 8.05556 48.0673 8.12415C48.2329 8.19273 48.3833 8.29326 48.51 8.41998C48.6368 8.54671 48.7372 8.69716 48.8058 8.86273C48.8744 9.02831 48.9098 9.20576 48.9098 9.38498C48.9098 9.5642 48.8744 9.74165 48.8058 9.90723C48.7372 10.0728 48.6368 10.2232 48.51 10.35L38.33 20.53C38.0712 20.7761 37.7271 20.9123 37.37 20.91Z" fill="#E3ECFF"/>
</g>
<path d="M104.213 75.384C106.805 75.384 108.821 74.936 110.261 74.04C111.733 73.144 112.469 71.976 112.469 70.536C112.469 69.864 112.293 69.336 111.941 68.952C111.589 68.536 110.965 68.328 110.069 68.328H101.813V59.16C101.813 57.912 102.005 56.776 102.389 55.752C102.773 54.696 103.317 53.8 104.021 53.064C104.757 52.296 105.637 51.704 106.661 51.288C107.685 50.872 108.837 50.664 110.117 50.664H115.637L115.877 55.944H110.021C109.093 55.944 108.309 56.232 107.669 56.808C107.029 57.352 106.709 58.184 106.709 59.304V63.096H110.933C112.181 63.096 113.205 63.256 114.005 63.576C114.837 63.896 115.493 64.344 115.973 64.92C116.453 65.496 116.789 66.184 116.981 66.984C117.205 67.784 117.317 68.68 117.317 69.672C117.317 71.208 116.997 72.648 116.357 73.992C115.749 75.336 114.885 76.488 113.765 77.448C112.645 78.44 111.317 79.208 109.781 79.752C108.277 80.328 106.645 80.616 104.885 80.616H100.709C97.125 80.616 94.341 79.512 92.357 77.304C90.373 75.096 89.381 72.072 89.381 68.232V59.64H94.229V68.04C94.229 69.16 94.357 70.168 94.613 71.064C94.869 71.96 95.269 72.728 95.813 73.368C96.389 74.008 97.125 74.504 98.021 74.856C98.949 75.208 100.069 75.384 101.381 75.384H104.213ZM139.099 57C139.963 57.992 140.587 58.984 140.971 59.976C141.387 60.936 141.595 61.88 141.595 62.808C141.595 63.672 141.435 64.488 141.115 65.256C140.827 65.992 140.379 66.648 139.771 67.224C139.163 67.768 138.395 68.2 137.467 68.52C136.571 68.84 135.531 69 134.347 69H121.531L121.291 63.72H133.531C135.099 63.72 135.883 63.128 135.883 61.944C135.883 61.368 135.611 60.776 135.067 60.168L126.907 50.856L130.699 47.304L139.099 57ZM150.756 75.384C151.972 75.384 153.012 75.208 153.876 74.856C154.772 74.536 155.508 74.088 156.084 73.512C156.66 72.936 157.108 72.248 157.428 71.448C157.748 70.68 157.94 69.864 158.004 69H154.74C153.076 69 151.716 68.824 150.66 68.472C149.604 68.12 148.772 67.608 148.164 66.936C147.556 66.232 147.124 65.384 146.868 64.392C146.644 63.4 146.532 62.28 146.532 61.032C146.532 59.784 146.708 58.616 147.06 57.528C147.412 56.408 147.924 55.432 148.596 54.6C149.3 53.768 150.164 53.112 151.188 52.632C152.212 52.12 153.396 51.864 154.74 51.864C155.828 51.864 156.852 52.04 157.812 52.392C158.804 52.744 159.668 53.304 160.404 54.072C161.14 54.84 161.716 55.832 162.132 57.048C162.58 58.264 162.804 59.752 162.804 61.512V68.232C162.804 69.864 162.532 71.432 161.988 72.936C161.444 74.44 160.66 75.752 159.636 76.872C158.644 78.024 157.412 78.936 155.94 79.608C154.468 80.28 152.82 80.616 150.996 80.616H146.148L145.86 75.384H150.756ZM151.236 60.696C151.236 61.816 151.476 62.6 151.956 63.048C152.468 63.496 153.46 63.72 154.932 63.72H158.1V61.464C158.1 59.8 157.78 58.632 157.14 57.96C156.532 57.288 155.668 56.952 154.548 56.952C153.492 56.952 152.676 57.272 152.1 57.912C151.524 58.552 151.236 59.48 151.236 60.696ZM163.623 75.384H164.343C165.687 75.384 166.839 75.176 167.799 74.76C168.759 74.376 169.527 73.848 170.103 73.176C170.711 72.504 171.159 71.736 171.447 70.872C171.735 70.008 171.879 69.128 171.879 68.232V54.936H176.775V68.232C176.775 69.96 176.471 71.576 175.863 73.08C175.287 74.584 174.471 75.896 173.415 77.016C172.391 78.136 171.159 79.016 169.719 79.656C168.311 80.296 166.791 80.616 165.159 80.616H163.911L163.623 75.384ZM186.193 75.384C187.409 75.384 188.449 75.208 189.313 74.856C190.209 74.536 190.945 74.088 191.521 73.512C192.097 72.936 192.545 72.248 192.865 71.448C193.185 70.68 193.377 69.864 193.441 69H190.177C188.513 69 187.153 68.824 186.097 68.472C185.041 68.12 184.209 67.608 183.601 66.936C182.993 66.232 182.561 65.384 182.305 64.392C182.081 63.4 181.969 62.28 181.969 61.032C181.969 59.784 182.145 58.616 182.497 57.528C182.849 56.408 183.361 55.432 184.033 54.6C184.737 53.768 185.601 53.112 186.625 52.632C187.649 52.12 188.833 51.864 190.177 51.864C191.265 51.864 192.289 52.04 193.249 52.392C194.241 52.744 195.105 53.304 195.841 54.072C196.577 54.84 197.153 55.832 197.569 57.048C198.017 58.264 198.241 59.752 198.241 61.512V68.232C198.241 69.864 197.969 71.432 197.425 72.936C196.881 74.44 196.097 75.752 195.073 76.872C194.081 78.024 192.849 78.936 191.377 79.608C189.905 80.28 188.257 80.616 186.433 80.616H181.585L181.297 75.384H186.193ZM186.673 60.696C186.673 61.816 186.913 62.6 187.393 63.048C187.905 63.496 188.897 63.72 190.369 63.72H193.537V61.464C193.537 59.8 193.217 58.632 192.577 57.96C191.969 57.288 191.105 56.952 189.985 56.952C188.929 56.952 188.113 57.272 187.537 57.912C186.961 58.552 186.673 59.48 186.673 60.696ZM236.061 67.8C236.061 69.624 235.773 71.304 235.197 72.84C234.653 74.408 233.853 75.768 232.797 76.92C231.773 78.072 230.509 78.968 229.005 79.608C227.533 80.28 225.885 80.616 224.061 80.616H221.037C217.453 80.616 214.669 79.512 212.685 77.304C210.701 75.096 209.709 72.072 209.709 68.232V59.64H214.557V68.04C214.557 69.16 214.685 70.168 214.941 71.064C215.197 71.96 215.597 72.728 216.141 73.368C216.717 74.008 217.453 74.504 218.349 74.856C219.277 75.208 220.397 75.384 221.709 75.384H223.821C225.165 75.384 226.301 75.176 227.229 74.76C228.189 74.376 228.957 73.832 229.533 73.128C230.141 72.456 230.573 71.656 230.829 70.728C231.085 69.832 231.213 68.872 231.213 67.848V54.936H236.061V67.8ZM224.781 54.216H219.357V49.32H224.781V54.216ZM245.537 75.384C246.753 75.384 247.793 75.208 248.657 74.856C249.553 74.536 250.289 74.088 250.865 73.512C251.441 72.936 251.889 72.248 252.209 71.448C252.529 70.68 252.721 69.864 252.785 69H249.521C247.857 69 246.497 68.824 245.441 68.472C244.385 68.12 243.553 67.608 242.945 66.936C242.337 66.232 241.905 65.384 241.649 64.392C241.425 63.4 241.313 62.28 241.313 61.032C241.313 59.784 241.489 58.616 241.841 57.528C242.193 56.408 242.705 55.432 243.377 54.6C244.081 53.768 244.945 53.112 245.969 52.632C246.993 52.12 248.177 51.864 249.521 51.864C250.609 51.864 251.633 52.04 252.593 52.392C253.585 52.744 254.449 53.304 255.185 54.072C255.921 54.84 256.497 55.832 256.913 57.048C257.361 58.264 257.585 59.752 257.585 61.512V63.72H261.473C262.177 63.72 262.529 64.568 262.529 66.264C262.529 68.088 262.177 69 261.473 69H257.489C257.425 70.568 257.105 72.056 256.529 73.464C255.953 74.872 255.153 76.104 254.129 77.16C253.137 78.216 251.937 79.048 250.529 79.656C249.121 80.296 247.537 80.616 245.777 80.616H240.929L240.641 75.384H245.537ZM246.017 60.696C246.017 61.816 246.257 62.6 246.737 63.048C247.249 63.496 248.241 63.72 249.713 63.72H252.881V61.464C252.881 59.8 252.561 58.632 251.921 57.96C251.313 57.288 250.449 56.952 249.329 56.952C248.273 56.952 247.457 57.272 246.881 57.912C246.305 58.552 246.017 59.48 246.017 60.696ZM261.885 63.72C262.973 63.72 263.821 63.512 264.429 63.096C265.037 62.648 265.341 61.928 265.341 60.936V59.88C265.341 58.6 265.517 57.416 265.869 56.328C266.253 55.24 266.797 54.312 267.501 53.544C268.205 52.776 269.053 52.184 270.045 51.768C271.069 51.32 272.205 51.096 273.453 51.096C274.765 51.096 275.917 51.32 276.909 51.768C277.933 52.184 278.781 52.792 279.453 53.592C280.125 54.36 280.637 55.288 280.989 56.376C281.341 57.464 281.517 58.648 281.517 59.928C281.517 62.808 280.781 65.048 279.309 66.648C277.869 68.216 275.901 69 273.405 69C272.125 69 270.893 68.76 269.709 68.28C268.557 67.768 267.677 66.968 267.069 65.88C266.461 67.128 265.677 67.96 264.717 68.376C263.757 68.792 262.813 69 261.885 69H261.453C261.037 69 260.765 68.792 260.637 68.376C260.477 67.928 260.397 67.288 260.397 66.456C260.397 65.528 260.477 64.84 260.637 64.392C260.765 63.944 261.037 63.72 261.453 63.72H261.885ZM276.813 60.264C276.813 59.176 276.557 58.264 276.045 57.528C275.565 56.792 274.685 56.424 273.405 56.424C272.189 56.424 271.309 56.792 270.765 57.528C270.253 58.232 269.997 59.16 269.997 60.312C269.997 61.432 270.301 62.28 270.909 62.856C271.517 63.432 272.349 63.72 273.405 63.72C275.677 63.72 276.813 62.568 276.813 60.264ZM293.167 68.232C293.167 69.96 292.863 71.576 292.255 73.08C291.679 74.584 290.863 75.896 289.807 77.016C288.783 78.136 287.551 79.016 286.111 79.656C284.703 80.296 283.183 80.616 281.551 80.616H278.527L278.287 75.384H280.303C281.743 75.384 282.975 75.176 283.999 74.76C284.991 74.376 285.807 73.848 286.447 73.176C287.087 72.504 287.551 71.736 287.839 70.872C288.127 70.008 288.271 69.128 288.271 68.232V54.936H293.167V68.232ZM293.215 49.32H287.791V44.424H293.215V49.32ZM302.119 46.44H307.015V69H302.119V46.44ZM301.879 41.496C301.239 41.496 300.743 41.56 300.391 41.688C300.039 41.816 299.735 42.184 299.479 42.792L298.471 45.048L295.399 43.56L296.887 40.248C297.175 39.608 297.463 39.08 297.751 38.664C298.007 38.248 298.311 37.912 298.663 37.656C299.015 37.4 299.431 37.224 299.911 37.128C300.391 37.032 300.983 36.984 301.687 36.984H311.383L311.191 41.496H301.879ZM334.813 75.384C336.221 75.384 337.389 75.288 338.317 75.096C339.277 74.904 340.029 74.632 340.573 74.28C341.149 73.928 341.549 73.496 341.773 72.984C342.029 72.504 342.156 71.976 342.156 71.4C342.156 70.76 341.981 70.2 341.629 69.72C341.277 69.24 340.685 69 339.853 69H332.941L333.229 63.72H349.885C350.589 63.72 350.941 64.568 350.941 66.264C350.941 68.088 350.589 69 349.885 69H345.757C346.173 69.32 346.445 69.736 346.573 70.248C346.733 70.76 346.812 71.384 346.812 72.12C346.812 72.984 346.621 73.912 346.237 74.904C345.853 75.896 345.213 76.808 344.317 77.64C343.453 78.504 342.285 79.208 340.812 79.752C339.373 80.328 337.597 80.616 335.485 80.616H330.397C326.813 80.616 324.029 79.512 322.045 77.304C320.061 75.096 319.069 72.072 319.069 68.232V59.64H323.917V68.04C323.917 69.16 324.045 70.168 324.301 71.064C324.557 71.96 324.957 72.728 325.501 73.368C326.077 74.008 326.813 74.504 327.709 74.856C328.637 75.208 329.757 75.384 331.069 75.384H334.813ZM353.41 37.032L367.858 31.56L368.626 35.016L353.65 40.776L353.41 37.032ZM361.81 63.72C362.674 63.72 363.266 63.544 363.586 63.192C363.938 62.84 364.114 62.408 364.114 61.896C364.114 61.416 364.018 60.952 363.826 60.504C363.666 60.024 363.298 59.512 362.722 58.968L353.65 49.896V44.424L369.538 38.424L370.642 43.32L358.402 47.832L365.458 54.984C366.258 55.784 366.914 56.52 367.426 57.192C367.938 57.832 368.338 58.456 368.626 59.064C368.914 59.64 369.106 60.232 369.202 60.84C369.33 61.416 369.394 62.024 369.394 62.664C369.394 63.784 369.202 64.744 368.818 65.544C368.466 66.344 367.97 67 367.33 67.512C366.722 68.024 365.986 68.408 365.122 68.664C364.29 68.888 363.378 69 362.386 69H349.906C349.49 69 349.218 68.792 349.09 68.376C348.93 67.928 348.85 67.288 348.85 66.456C348.85 65.528 348.93 64.84 349.09 64.392C349.218 63.944 349.49 63.72 349.906 63.72H361.81ZM391.474 57C392.338 57.992 392.962 58.984 393.346 59.976C393.762 60.936 393.97 61.88 393.97 62.808C393.97 63.672 393.81 64.488 393.49 65.256C393.202 65.992 392.754 66.648 392.146 67.224C391.538 67.768 390.77 68.2 389.842 68.52C388.946 68.84 387.906 69 386.722 69H373.906L373.666 63.72H385.906C387.474 63.72 388.258 63.128 388.258 61.944C388.258 61.368 387.986 60.776 387.442 60.168L379.282 50.856L383.074 47.304L391.474 57ZM405.963 69C405.067 69 404.203 68.888 403.371 68.664C402.571 68.408 401.867 67.992 401.259 67.416C400.651 66.84 400.171 66.088 399.819 65.16C399.467 64.2 399.291 63.016 399.291 61.608V39.24H404.187V60.408C404.187 61.432 404.411 62.248 404.859 62.856C405.339 63.432 406.043 63.72 406.971 63.72H408.075C408.779 63.72 409.131 64.568 409.131 66.264C409.131 68.088 408.779 69 408.075 69H405.963ZM408.51 63.72C409.598 63.72 410.446 63.512 411.054 63.096C411.662 62.648 411.966 61.928 411.966 60.936V59.88C411.966 58.6 412.142 57.416 412.494 56.328C412.878 55.24 413.422 54.312 414.126 53.544C414.83 52.776 415.678 52.184 416.67 51.768C417.694 51.32 418.83 51.096 420.078 51.096C421.39 51.096 422.542 51.32 423.534 51.768C424.558 52.184 425.406 52.792 426.078 53.592C426.75 54.36 427.262 55.288 427.614 56.376C427.966 57.464 428.142 58.648 428.142 59.928C428.142 62.808 427.406 65.048 425.934 66.648C424.494 68.216 422.526 69 420.03 69C418.75 69 417.518 68.76 416.334 68.28C415.182 67.768 414.302 66.968 413.694 65.88C413.086 67.128 412.302 67.96 411.342 68.376C410.382 68.792 409.438 69 408.51 69H408.078C407.662 69 407.39 68.792 407.262 68.376C407.102 67.928 407.022 67.288 407.022 66.456C407.022 65.528 407.102 64.84 407.262 64.392C407.39 63.944 407.662 63.72 408.078 63.72H408.51ZM423.438 60.264C423.438 59.176 423.182 58.264 422.67 57.528C422.19 56.792 421.31 56.424 420.03 56.424C418.814 56.424 417.934 56.792 417.39 57.528C416.878 58.232 416.622 59.16 416.622 60.312C416.622 61.432 416.926 62.28 417.534 62.856C418.142 63.432 418.974 63.72 420.03 63.72C422.302 63.72 423.438 62.568 423.438 60.264ZM433.744 46.44H438.64V69H433.744V46.44ZM433.504 41.496C432.864 41.496 432.368 41.56 432.016 41.688C431.664 41.816 431.36 42.184 431.104 42.792L430.096 45.048L427.024 43.56L428.512 40.248C428.8 39.608 429.088 39.08 429.376 38.664C429.632 38.248 429.936 37.912 430.288 37.656C430.64 37.4 431.056 37.224 431.536 37.128C432.016 37.032 432.608 36.984 433.312 36.984H443.008L442.816 41.496H433.504ZM450.694 61.608C450.694 60.68 450.806 59.8 451.03 58.968C451.286 58.136 451.638 57.304 452.086 56.472C452.566 55.64 453.158 54.808 453.862 53.976C454.566 53.112 455.382 52.184 456.31 51.192L454.102 48.984L457.414 45.432C459.398 47.384 461.046 49.08 462.358 50.52C463.702 51.96 464.774 53.272 465.574 54.456C466.374 55.608 466.934 56.696 467.254 57.72C467.606 58.744 467.782 59.8 467.782 60.888C467.782 62.072 467.558 63.16 467.11 64.152C466.662 65.144 466.054 66.008 465.286 66.744C464.518 67.448 463.59 68.008 462.502 68.424C461.446 68.808 460.294 69 459.046 69C457.798 69 456.662 68.824 455.638 68.472C454.614 68.12 453.734 67.624 452.998 66.984C452.262 66.312 451.686 65.528 451.27 64.632C450.886 63.736 450.694 62.728 450.694 61.608ZM462.886 60.504C462.886 60.12 462.838 59.752 462.742 59.4C462.646 59.016 462.47 58.6 462.214 58.152C461.958 57.704 461.574 57.208 461.062 56.664C460.582 56.088 459.958 55.416 459.19 54.648C458.39 55.416 457.75 56.104 457.27 56.712C456.79 57.288 456.422 57.816 456.166 58.296C455.91 58.744 455.734 59.16 455.638 59.544C455.574 59.896 455.542 60.248 455.542 60.6C455.542 61.432 455.846 62.168 456.454 62.808C457.062 63.416 457.974 63.72 459.19 63.72C460.374 63.72 461.286 63.4 461.926 62.76C462.566 62.12 462.886 61.368 462.886 60.504ZM478.927 68.232C478.927 69.96 478.639 71.576 478.063 73.08C477.487 74.584 476.687 75.896 475.663 77.016C474.671 78.136 473.471 79.016 472.063 79.656C470.687 80.296 469.183 80.616 467.551 80.616H464.527L464.287 75.384H466.303C467.743 75.384 468.975 75.176 469.999 74.76C470.991 74.376 471.807 73.848 472.447 73.176C473.087 72.504 473.551 71.736 473.839 70.872C474.127 70.008 474.271 69.128 474.271 68.232V54.936H479.167V60.648C479.167 61.672 479.471 62.44 480.079 62.952C480.719 63.464 481.519 63.72 482.479 63.72H483.007C483.711 63.72 484.063 64.568 484.063 66.264C484.063 68.088 483.711 69 483.007 69H482.479C481.839 69 481.199 68.904 480.559 68.712C479.919 68.488 479.375 68.056 478.927 67.416V68.232ZM478.687 42.6H473.599V37.944H478.687V42.6ZM482.047 49.32H477.055V44.616H482.047V49.32ZM475.183 49.32H470.191V44.616H475.183V49.32ZM487.4 63.72C489.544 63.72 490.616 62.68 490.616 60.6V54.936H495.512V60.936C495.512 63.592 494.84 65.608 493.496 66.984C492.152 68.328 490.264 69 487.832 69H482.984C482.568 69 482.296 68.792 482.168 68.376C482.008 67.928 481.928 67.288 481.928 66.456C481.928 65.528 482.008 64.84 482.168 64.392C482.296 63.944 482.568 63.72 482.984 63.72H487.4ZM494.84 79.08H489.896V74.376H494.84V79.08ZM487.928 79.08H482.984V74.376H487.928V79.08ZM504.99 75.384C506.206 75.384 507.246 75.208 508.11 74.856C509.006 74.536 509.742 74.088 510.318 73.512C510.894 72.936 511.342 72.248 511.662 71.448C511.982 70.68 512.174 69.864 512.238 69H508.974C507.31 69 505.95 68.824 504.894 68.472C503.838 68.12 503.006 67.608 502.398 66.936C501.79 66.232 501.358 65.384 501.102 64.392C500.878 63.4 500.766 62.28 500.766 61.032C500.766 59.784 500.942 58.616 501.294 57.528C501.646 56.408 502.158 55.432 502.83 54.6C503.534 53.768 504.398 53.112 505.422 52.632C506.446 52.12 507.63 51.864 508.974 51.864C510.062 51.864 511.086 52.04 512.046 52.392C513.038 52.744 513.902 53.304 514.638 54.072C515.374 54.84 515.95 55.832 516.366 57.048C516.814 58.264 517.038 59.752 517.038 61.512V68.232C517.038 69.864 516.766 71.432 516.222 72.936C515.678 74.44 514.894 75.752 513.87 76.872C512.878 78.024 511.646 78.936 510.174 79.608C508.702 80.28 507.054 80.616 505.23 80.616H500.382L500.094 75.384H504.99ZM505.47 60.696C505.47 61.816 505.71 62.6 506.19 63.048C506.702 63.496 507.694 63.72 509.166 63.72H512.334V61.464C512.334 59.8 512.014 58.632 511.374 57.96C510.766 57.288 509.902 56.952 508.782 56.952C507.726 56.952 506.91 57.272 506.334 57.912C505.758 58.552 505.47 59.48 505.47 60.696ZM535.754 69H529.802V37.128H535.754V69ZM547.056 53.064C547.056 56.68 547.952 59.48 549.744 61.464C551.568 63.416 554.064 64.392 557.232 64.392C560.432 64.392 562.912 63.416 564.672 61.464C566.464 59.48 567.36 56.68 567.36 53.064C567.36 49.48 566.464 46.68 564.672 44.664C562.912 42.648 560.432 41.64 557.232 41.64C554.064 41.64 551.568 42.648 549.744 44.664C547.952 46.68 547.056 49.48 547.056 53.064ZM575.136 75.336H570.24C569.504 75.336 568.864 75.24 568.32 75.048C567.776 74.856 567.264 74.504 566.784 73.992L561.936 68.712C561.232 68.904 560.48 69.048 559.68 69.144C558.88 69.272 558.064 69.336 557.232 69.336C554.8 69.336 552.576 68.936 550.56 68.136C548.576 67.304 546.864 66.168 545.424 64.728C544.016 63.288 542.912 61.576 542.112 59.592C541.344 57.608 540.96 55.432 540.96 53.064C540.96 50.728 541.344 48.568 542.112 46.584C542.912 44.568 544.016 42.84 545.424 41.4C546.864 39.928 548.576 38.792 550.56 37.992C552.576 37.16 554.8 36.744 557.232 36.744C559.664 36.744 561.872 37.16 563.856 37.992C565.872 38.792 567.584 39.928 568.992 41.4C570.432 42.84 571.536 44.568 572.304 46.584C573.104 48.568 573.504 50.728 573.504 53.064C573.504 55.976 572.928 58.584 571.776 60.888C570.624 63.16 569.008 65.016 566.928 66.456L575.136 75.336ZM584.147 61.608C584.147 60.68 584.259 59.8 584.483 58.968C584.739 58.136 585.091 57.304 585.539 56.472C586.019 55.64 586.611 54.808 587.315 53.976C588.019 53.112 588.835 52.184 589.763 51.192L587.555 48.984L590.867 45.432C592.851 47.384 594.499 49.08 595.811 50.52C597.155 51.96 598.227 53.272 599.027 54.456C599.827 55.608 600.387 56.696 600.707 57.72C601.059 58.744 601.235 59.8 601.235 60.888C601.235 62.072 601.011 63.16 600.563 64.152C600.115 65.144 599.507 66.008 598.739 66.744C597.971 67.448 597.043 68.008 595.955 68.424C594.899 68.808 593.747 69 592.499 69C591.251 69 590.115 68.824 589.091 68.472C588.067 68.12 587.187 67.624 586.451 66.984C585.715 66.312 585.139 65.528 584.723 64.632C584.339 63.736 584.147 62.728 584.147 61.608ZM596.339 60.504C596.339 60.12 596.291 59.752 596.195 59.4C596.099 59.016 595.923 58.6 595.667 58.152C595.411 57.704 595.027 57.208 594.515 56.664C594.035 56.088 593.411 55.416 592.643 54.648C591.843 55.416 591.203 56.104 590.723 56.712C590.243 57.288 589.875 57.816 589.619 58.296C589.363 58.744 589.187 59.16 589.091 59.544C589.027 59.896 588.995 60.248 588.995 60.6C588.995 61.432 589.299 62.168 589.907 62.808C590.515 63.416 591.427 63.72 592.643 63.72C593.827 63.72 594.739 63.4 595.379 62.76C596.019 62.12 596.339 61.368 596.339 60.504ZM612.62 68.232C612.62 69.96 612.316 71.576 611.708 73.08C611.132 74.584 610.316 75.896 609.26 77.016C608.236 78.136 607.004 79.016 605.564 79.656C604.156 80.296 602.636 80.616 601.004 80.616H597.98L597.74 75.384H599.756C601.196 75.384 602.428 75.176 603.452 74.76C604.444 74.376 605.26 73.848 605.9 73.176C606.54 72.504 607.004 71.736 607.292 70.872C607.58 70.008 607.724 69.128 607.724 68.232V54.936H612.62V68.232ZM622.037 75.384C623.253 75.384 624.293 75.208 625.157 74.856C626.053 74.536 626.789 74.088 627.365 73.512C627.941 72.936 628.389 72.248 628.709 71.448C629.029 70.68 629.221 69.864 629.285 69H626.021C624.357 69 622.997 68.824 621.941 68.472C620.885 68.12 620.053 67.608 619.445 66.936C618.837 66.232 618.405 65.384 618.149 64.392C617.925 63.4 617.813 62.28 617.813 61.032C617.813 59.784 617.989 58.616 618.341 57.528C618.693 56.408 619.205 55.432 619.877 54.6C620.581 53.768 621.445 53.112 622.469 52.632C623.493 52.12 624.677 51.864 626.021 51.864C627.109 51.864 628.133 52.04 629.093 52.392C630.085 52.744 630.949 53.304 631.685 54.072C632.421 54.84 632.997 55.832 633.413 57.048C633.861 58.264 634.085 59.752 634.085 61.512V68.232C634.085 69.864 633.813 71.432 633.269 72.936C632.725 74.44 631.941 75.752 630.917 76.872C629.925 78.024 628.693 78.936 627.221 79.608C625.749 80.28 624.101 80.616 622.277 80.616H617.429L617.141 75.384H622.037ZM622.517 60.696C622.517 61.816 622.757 62.6 623.237 63.048C623.749 63.496 624.741 63.72 626.213 63.72H629.381V61.464C629.381 59.8 629.061 58.632 628.421 57.96C627.813 57.288 626.949 56.952 625.829 56.952C624.773 56.952 623.957 57.272 623.381 57.912C622.805 58.552 622.517 59.48 622.517 60.696ZM656.13 57C656.994 57.992 657.618 58.984 658.002 59.976C658.418 60.936 658.626 61.88 658.626 62.808C658.626 63.672 658.466 64.488 658.146 65.256C657.858 65.992 657.41 66.648 656.802 67.224C656.194 67.768 655.426 68.2 654.498 68.52C653.602 68.84 652.562 69 651.378 69H638.562L638.322 63.72H650.562C652.13 63.72 652.914 63.128 652.914 61.944C652.914 61.368 652.642 60.776 652.098 60.168L643.938 50.856L647.73 47.304L656.13 57ZM108.239 132.232C108.239 133.96 107.951 135.576 107.375 137.08C106.799 138.584 105.999 139.896 104.975 141.016C103.983 142.136 102.783 143.016 101.375 143.656C99.9994 144.296 98.4954 144.616 96.8634 144.616H93.8394L93.5994 139.384H95.6154C97.0554 139.384 98.2874 139.176 99.3114 138.76C100.303 138.376 101.119 137.848 101.759 137.176C102.399 136.504 102.863 135.736 103.151 134.872C103.439 134.008 103.583 133.128 103.583 132.232V118.936H108.479V124.648C108.479 125.672 108.783 126.44 109.391 126.952C110.031 127.464 110.831 127.72 111.791 127.72H112.319C113.023 127.72 113.375 128.568 113.375 130.264C113.375 132.088 113.023 133 112.319 133H111.791C111.151 133 110.511 132.904 109.871 132.712C109.231 132.488 108.687 132.056 108.239 131.416V132.232ZM116.713 127.72C118.857 127.72 119.929 126.68 119.929 124.6V118.936H124.825V124.936C124.825 127.592 124.153 129.608 122.809 130.984C121.465 132.328 119.577 133 117.145 133H112.297C111.881 133 111.609 132.792 111.481 132.376C111.321 131.928 111.241 131.288 111.241 130.456C111.241 129.528 111.321 128.84 111.481 128.392C111.609 127.944 111.881 127.72 112.297 127.72H116.713ZM124.969 113.32H119.977V108.616H124.969V113.32ZM118.105 113.32H113.113V108.616H118.105V113.32ZM136.271 132.232C136.271 133.96 135.983 135.576 135.407 137.08C134.831 138.584 134.031 139.896 133.007 141.016C132.015 142.136 130.815 143.016 129.407 143.656C128.031 144.296 126.527 144.616 124.895 144.616H121.871L121.631 139.384H123.647C125.087 139.384 126.319 139.176 127.343 138.76C128.335 138.376 129.151 137.848 129.791 137.176C130.431 136.504 130.895 135.736 131.183 134.872C131.471 134.008 131.615 133.128 131.615 132.232V118.936H136.511V124.648C136.511 125.672 136.815 126.44 137.423 126.952C138.063 127.464 138.863 127.72 139.823 127.72H140.351C141.055 127.72 141.407 128.568 141.407 130.264C141.407 132.088 141.055 133 140.351 133H139.823C139.183 133 138.543 132.904 137.903 132.712C137.263 132.488 136.719 132.056 136.271 131.416V132.232ZM144.744 127.72C146.888 127.72 147.96 126.68 147.96 124.6V118.936H152.856V124.936C152.856 127.592 152.184 129.608 150.84 130.984C149.496 132.328 147.608 133 145.176 133H140.328C139.912 133 139.64 132.792 139.512 132.376C139.352 131.928 139.272 131.288 139.272 130.456C139.272 129.528 139.352 128.84 139.512 128.392C139.64 127.944 139.912 127.72 140.328 127.72H144.744ZM147.24 143.272H141.816V138.376H147.24V143.272ZM202.637 124.6C202.637 125.72 202.925 126.52 203.501 127C204.109 127.48 204.813 127.72 205.613 127.72C206.573 127.72 207.309 127.464 207.821 126.952C208.365 126.408 208.637 125.624 208.637 124.6V118.936H213.533V124.936C213.533 127.592 212.861 129.608 211.517 130.984C210.173 132.328 208.269 133 205.805 133C204.717 133 203.677 132.808 202.685 132.424C201.693 132.008 200.829 131.192 200.093 129.976C199.325 131.192 198.429 132.008 197.405 132.424C196.413 132.808 195.405 133 194.381 133C193.485 133 192.717 132.872 192.077 132.616C191.469 132.328 190.957 131.96 190.541 131.512V132.232C190.541 133.864 190.269 135.432 189.725 136.936C189.181 138.44 188.397 139.752 187.373 140.872C186.381 142.024 185.149 142.936 183.677 143.608C182.205 144.28 180.557 144.616 178.733 144.616H175.709C172.125 144.616 169.341 143.512 167.357 141.304C165.373 139.096 164.381 136.072 164.381 132.232V123.64H169.229V132.04C169.229 133.16 169.357 134.168 169.613 135.064C169.869 135.96 170.269 136.728 170.813 137.368C171.389 138.008 172.125 138.504 173.021 138.856C173.949 139.208 175.069 139.384 176.381 139.384H178.493C179.837 139.384 180.973 139.176 181.901 138.76C182.861 138.376 183.629 137.832 184.205 137.128C184.813 136.456 185.245 135.656 185.501 134.728C185.757 133.832 185.885 132.872 185.885 131.848V118.936H190.733V124.648C190.733 125.672 191.053 126.44 191.693 126.952C192.365 127.464 193.197 127.72 194.189 127.72C196.589 127.72 197.789 126.68 197.789 124.6V118.936H202.637V124.6ZM225.151 132.232C225.151 133.96 224.847 135.576 224.239 137.08C223.663 138.584 222.847 139.896 221.791 141.016C220.767 142.136 219.535 143.016 218.095 143.656C216.687 144.296 215.167 144.616 213.535 144.616H210.511L210.271 139.384H212.287C213.727 139.384 214.959 139.176 215.983 138.76C216.975 138.376 217.791 137.848 218.431 137.176C219.071 136.504 219.535 135.736 219.823 134.872C220.111 134.008 220.255 133.128 220.255 132.232V118.936H225.151V132.232ZM230.728 103.24H235.624V133H230.728V103.24ZM250.431 127.72C251.551 127.72 252.319 127.496 252.735 127.048C253.151 126.6 253.359 126.152 253.359 125.704C253.359 125.448 253.311 125.128 253.215 124.744C253.119 124.328 252.927 123.672 252.639 122.776C252.351 121.848 251.919 120.584 251.343 118.984C250.799 117.384 250.047 115.288 249.087 112.696L253.743 110.728L258.687 124.552C259.071 125.672 259.519 126.488 260.031 127C260.575 127.48 261.407 127.72 262.527 127.72H263.151C263.855 127.72 264.207 128.568 264.207 130.264C264.207 132.088 263.855 133 263.151 133H262.527C261.471 133 260.447 132.808 259.455 132.424C258.495 132.04 257.615 131.224 256.815 129.976C256.143 131.128 255.295 131.928 254.271 132.376C253.279 132.792 252.191 133 251.007 133H240.687L240.447 127.72H250.431ZM263.573 127.72C264.661 127.72 265.509 127.512 266.117 127.096C266.725 126.648 267.029 125.928 267.029 124.936V123.88C267.029 122.6 267.205 121.416 267.557 120.328C267.941 119.24 268.485 118.312 269.189 117.544C269.893 116.776 270.741 116.184 271.733 115.768C272.757 115.32 273.893 115.096 275.141 115.096C276.453 115.096 277.605 115.32 278.597 115.768C279.621 116.184 280.469 116.792 281.141 117.592C281.813 118.36 282.325 119.288 282.677 120.376C283.029 121.464 283.205 122.648 283.205 123.928C283.205 126.808 282.469 129.048 280.997 130.648C279.557 132.216 277.589 133 275.093 133C273.813 133 272.581 132.76 271.397 132.28C270.245 131.768 269.365 130.968 268.757 129.88C268.149 131.128 267.365 131.96 266.405 132.376C265.445 132.792 264.501 133 263.573 133H263.141C262.725 133 262.453 132.792 262.325 132.376C262.165 131.928 262.085 131.288 262.085 130.456C262.085 129.528 262.165 128.84 262.325 128.392C262.453 127.944 262.725 127.72 263.141 127.72H263.573ZM278.501 124.264C278.501 123.176 278.245 122.264 277.733 121.528C277.253 120.792 276.373 120.424 275.093 120.424C273.877 120.424 272.997 120.792 272.453 121.528C271.941 122.232 271.685 123.16 271.685 124.312C271.685 125.432 271.989 126.28 272.597 126.856C273.205 127.432 274.037 127.72 275.093 127.72C277.365 127.72 278.501 126.568 278.501 124.264ZM299.35 139.384C300.566 139.384 301.606 139.208 302.47 138.856C303.366 138.536 304.102 138.088 304.678 137.512C305.254 136.936 305.702 136.248 306.022 135.448C306.342 134.68 306.534 133.864 306.598 133H303.334C301.67 133 300.31 132.824 299.254 132.472C298.198 132.12 297.366 131.608 296.758 130.936C296.15 130.232 295.718 129.384 295.462 128.392C295.238 127.4 295.126 126.28 295.126 125.032C295.126 123.784 295.302 122.616 295.654 121.528C296.006 120.408 296.518 119.432 297.19 118.6C297.894 117.768 298.758 117.112 299.782 116.632C300.806 116.12 301.99 115.864 303.334 115.864C304.422 115.864 305.446 116.04 306.406 116.392C307.398 116.744 308.262 117.304 308.998 118.072C309.734 118.84 310.31 119.832 310.726 121.048C311.174 122.264 311.398 123.752 311.398 125.512V132.232C311.398 133.864 311.126 135.432 310.582 136.936C310.038 138.44 309.254 139.752 308.23 140.872C307.238 142.024 306.006 142.936 304.534 143.608C303.062 144.28 301.414 144.616 299.59 144.616H294.742L294.454 139.384H299.35ZM299.83 124.696C299.83 125.816 300.07 126.6 300.55 127.048C301.062 127.496 302.054 127.72 303.526 127.72H306.694V125.464C306.694 123.8 306.374 122.632 305.734 121.96C305.126 121.288 304.262 120.952 303.142 120.952C302.086 120.952 301.27 121.272 300.694 121.912C300.118 122.552 299.83 123.48 299.83 124.696ZM327.713 122.92C327.713 124.744 327.809 126.36 328.001 127.768C328.193 129.176 328.497 130.488 328.913 131.704C329.361 132.92 329.937 134.088 330.641 135.208C331.377 136.328 332.289 137.512 333.377 138.76L330.449 141.736C329.297 140.616 328.241 139.432 327.281 138.184C326.353 136.968 325.553 135.608 324.881 134.104C324.241 132.632 323.745 130.984 323.393 129.16C323.041 127.336 322.865 125.272 322.865 122.968C322.865 120.664 323.041 118.6 323.393 116.776C323.745 114.952 324.241 113.304 324.881 111.832C325.553 110.328 326.353 108.968 327.281 107.752C328.241 106.536 329.297 105.368 330.449 104.248L333.377 107.224C332.289 108.472 331.377 109.656 330.641 110.776C329.937 111.864 329.361 113.016 328.913 114.232C328.497 115.416 328.193 116.712 328.001 118.12C327.809 119.528 327.713 121.128 327.713 122.92ZM355.192 121C356.056 121.992 356.68 122.984 357.064 123.976C357.48 124.936 357.688 125.88 357.688 126.808C357.688 127.672 357.528 128.488 357.208 129.256C356.92 129.992 356.472 130.648 355.864 131.224C355.256 131.768 354.488 132.2 353.56 132.52C352.664 132.84 351.624 133 350.44 133H337.624L337.384 127.72H349.624C351.192 127.72 351.976 127.128 351.976 125.944C351.976 125.368 351.704 124.776 351.16 124.168L343 114.856L346.792 111.304L355.192 121ZM369.682 133C368.786 133 367.922 132.888 367.09 132.664C366.29 132.408 365.586 131.992 364.978 131.416C364.37 130.84 363.89 130.088 363.538 129.16C363.186 128.2 363.01 127.016 363.01 125.608V103.24H367.906V124.408C367.906 125.432 368.13 126.248 368.578 126.856C369.058 127.432 369.762 127.72 370.69 127.72H371.794C372.498 127.72 372.85 128.568 372.85 130.264C372.85 132.088 372.498 133 371.794 133H369.682ZM375.157 127.72C377.301 127.72 378.373 126.68 378.373 124.6V118.936H383.317V124.6C383.317 125.72 383.653 126.52 384.325 127C385.029 127.48 385.845 127.72 386.773 127.72H388.021C388.757 127.72 389.125 128.568 389.125 130.264C389.125 132.088 388.757 133 388.021 133H386.629C385.413 133 384.309 132.808 383.317 132.424C382.325 132.008 381.461 131.192 380.725 129.976C379.925 131.192 379.061 132.008 378.133 132.424C377.205 132.808 376.213 133 375.157 133H371.797C371.381 133 371.109 132.792 370.981 132.376C370.821 131.928 370.741 131.288 370.741 130.456C370.741 129.528 370.821 128.84 370.981 128.392C371.109 127.944 371.381 127.72 371.797 127.72H375.157ZM381.781 149.8H376.693V145.096H381.781V149.8ZM385.141 143.08H380.149V138.376H385.141V143.08ZM378.277 143.08H373.285V138.376H378.277V143.08ZM388.448 127.72C389.536 127.72 390.384 127.512 390.992 127.096C391.6 126.648 391.904 125.928 391.904 124.936V123.88C391.904 122.6 392.08 121.416 392.432 120.328C392.816 119.24 393.36 118.312 394.064 117.544C394.768 116.776 395.616 116.184 396.608 115.768C397.632 115.32 398.768 115.096 400.016 115.096C401.328 115.096 402.48 115.32 403.472 115.768C404.496 116.184 405.344 116.792 406.016 117.592C406.688 118.36 407.2 119.272 407.552 120.328C407.904 121.384 408.08 122.536 408.08 123.784V124.696C408.08 125.848 408.416 126.648 409.088 127.096C409.792 127.512 410.528 127.72 411.296 127.72H411.968C412.384 127.72 412.656 127.944 412.784 128.392C412.944 128.808 413.024 129.432 413.024 130.264C413.024 131.192 412.944 131.88 412.784 132.328C412.656 132.776 412.384 133 411.968 133H411.296C410.368 133 409.424 132.808 408.464 132.424C407.504 132.008 406.672 131.144 405.968 129.832C405.104 131.144 404.128 132.008 403.04 132.424C401.984 132.808 400.896 133 399.776 133C398.496 133 397.296 132.76 396.176 132.28C395.088 131.768 394.24 130.968 393.632 129.88C393.024 131.128 392.24 131.96 391.28 132.376C390.32 132.792 389.376 133 388.448 133H388.016C387.6 133 387.328 132.792 387.2 132.376C387.04 131.928 386.96 131.288 386.96 130.456C386.96 129.528 387.04 128.84 387.2 128.392C387.328 127.944 387.6 127.72 388.016 127.72H388.448ZM403.376 124.264C403.376 123.176 403.12 122.264 402.608 121.528C402.128 120.792 401.248 120.424 399.968 120.424C398.752 120.424 397.872 120.792 397.328 121.528C396.816 122.232 396.56 123.16 396.56 124.312C396.56 125.432 396.864 126.28 397.472 126.856C398.08 127.432 398.912 127.72 399.968 127.72C402.24 127.72 403.376 126.568 403.376 124.264ZM414.081 127.72C416.289 127.72 417.393 126.68 417.393 124.6V118.936H422.241V124.6C422.241 125.72 422.577 126.52 423.249 127C423.953 127.48 424.753 127.72 425.649 127.72C428.049 127.72 429.249 126.68 429.249 124.6V118.936H434.145V124.6C434.145 125.72 434.433 126.52 435.009 127C435.617 127.48 436.321 127.72 437.121 127.72C438.081 127.72 438.817 127.464 439.329 126.952C439.873 126.408 440.145 125.624 440.145 124.6V118.936H445.041V124.936C445.041 127.592 444.353 129.608 442.977 130.984C441.633 132.328 439.745 133 437.313 133C436.225 133 435.185 132.808 434.193 132.424C433.201 132.008 432.337 131.192 431.601 129.976C430.833 131.192 429.921 132.008 428.865 132.424C427.841 132.808 426.769 133 425.649 133C424.433 133 423.313 132.808 422.289 132.424C421.297 132.008 420.433 131.192 419.697 129.976C418.929 131.192 418.065 132.008 417.105 132.424C416.145 132.808 415.121 133 414.033 133H411.969C411.553 133 411.281 132.792 411.153 132.376C410.993 131.928 410.913 131.288 410.913 130.456C410.913 129.528 410.993 128.84 411.153 128.392C411.281 127.944 411.553 127.72 411.969 127.72H414.081ZM455.467 123.016C455.467 121.192 455.371 119.576 455.179 118.168C454.987 116.76 454.667 115.448 454.219 114.232C453.803 113.016 453.227 111.848 452.491 110.728C451.787 109.608 450.891 108.424 449.803 107.176L452.731 104.2C453.883 105.32 454.923 106.504 455.851 107.752C456.811 108.968 457.611 110.328 458.251 111.832C458.923 113.304 459.435 114.952 459.787 116.776C460.139 118.6 460.315 120.664 460.315 122.968C460.315 125.272 460.139 127.336 459.787 129.16C459.435 130.984 458.923 132.632 458.251 134.104C457.611 135.608 456.811 136.968 455.851 138.184C454.923 139.4 453.883 140.568 452.731 141.688L449.803 138.712C450.891 137.464 451.787 136.28 452.491 135.16C453.227 134.072 453.803 132.936 454.219 131.752C454.667 130.536 454.987 129.224 455.179 127.816C455.371 126.408 455.467 124.808 455.467 123.016ZM497.905 131.8C497.905 133.624 497.617 135.304 497.041 136.84C496.497 138.408 495.697 139.768 494.641 140.92C493.617 142.072 492.353 142.968 490.849 143.608C489.377 144.28 487.729 144.616 485.905 144.616H482.881C479.297 144.616 476.513 143.512 474.529 141.304C472.545 139.096 471.553 136.072 471.553 132.232V123.64H476.401V132.04C476.401 133.16 476.529 134.168 476.785 135.064C477.041 135.96 477.441 136.728 477.985 137.368C478.561 138.008 479.297 138.504 480.193 138.856C481.121 139.208 482.241 139.384 483.553 139.384H485.665C487.009 139.384 488.145 139.176 489.073 138.76C490.033 138.376 490.801 137.832 491.377 137.128C491.985 136.456 492.417 135.656 492.673 134.728C492.929 133.832 493.057 132.872 493.057 131.848V118.936H497.905V131.8ZM486.625 118.216H481.201V113.32H486.625V118.216ZM510.213 133C509.317 133 508.453 132.888 507.621 132.664C506.821 132.408 506.117 131.992 505.509 131.416C504.901 130.84 504.421 130.088 504.069 129.16C503.717 128.2 503.541 127.016 503.541 125.608V103.24H508.437V124.408C508.437 125.432 508.661 126.248 509.109 126.856C509.589 127.432 510.293 127.72 511.221 127.72H512.325C513.029 127.72 513.381 128.568 513.381 130.264C513.381 132.088 513.029 133 512.325 133H510.213ZM514.44 127.72C516.648 127.72 517.752 126.68 517.752 124.6V118.936H522.6V124.6C522.6 125.72 522.936 126.52 523.608 127C524.312 127.48 525.112 127.72 526.008 127.72C528.408 127.72 529.608 126.68 529.608 124.6V118.936H534.504V124.6C534.504 125.72 534.792 126.52 535.368 127C535.976 127.48 536.68 127.72 537.48 127.72C538.44 127.72 539.176 127.464 539.688 126.952C540.232 126.408 540.504 125.624 540.504 124.6V118.936H545.4V124.936C545.4 127.592 544.712 129.608 543.336 130.984C541.992 132.328 540.104 133 537.672 133C536.584 133 535.544 132.808 534.552 132.424C533.56 132.008 532.696 131.192 531.96 129.976C531.192 131.192 530.28 132.008 529.224 132.424C528.2 132.808 527.128 133 526.008 133C524.792 133 523.672 132.808 522.648 132.424C521.656 132.008 520.792 131.192 520.056 129.976C519.288 131.192 518.424 132.008 517.464 132.424C516.504 132.808 515.48 133 514.392 133H512.328C511.912 133 511.64 132.792 511.512 132.376C511.352 131.928 511.272 131.288 511.272 130.456C511.272 129.528 511.352 128.84 511.512 128.392C511.64 127.944 511.912 127.72 512.328 127.72H514.44ZM534.552 106.6H529.464V101.944H534.552V106.6ZM537.912 113.32H532.92V108.616H537.912V113.32ZM531.048 113.32H526.056V108.616H531.048V113.32ZM554.818 139.384C556.034 139.384 557.074 139.208 557.938 138.856C558.834 138.536 559.57 138.088 560.146 137.512C560.722 136.936 561.17 136.248 561.49 135.448C561.81 134.68 562.002 133.864 562.066 133H558.802C557.138 133 555.778 132.824 554.722 132.472C553.666 132.12 552.834 131.608 552.226 130.936C551.618 130.232 551.186 129.384 550.93 128.392C550.706 127.4 550.594 126.28 550.594 125.032C550.594 123.784 550.77 122.616 551.122 121.528C551.474 120.408 551.986 119.432 552.658 118.6C553.362 117.768 554.226 117.112 555.25 116.632C556.274 116.12 557.458 115.864 558.802 115.864C559.89 115.864 560.914 116.04 561.874 116.392C562.866 116.744 563.73 117.304 564.466 118.072C565.202 118.84 565.778 119.832 566.194 121.048C566.642 122.264 566.866 123.752 566.866 125.512V127.72H570.754C571.458 127.72 571.81 128.568 571.81 130.264C571.81 132.088 571.458 133 570.754 133H566.77C566.706 134.568 566.386 136.056 565.81 137.464C565.234 138.872 564.434 140.104 563.41 141.16C562.418 142.216 561.218 143.048 559.81 143.656C558.402 144.296 556.818 144.616 555.058 144.616H550.21L549.922 139.384H554.818ZM555.298 124.696C555.298 125.816 555.538 126.6 556.018 127.048C556.53 127.496 557.522 127.72 558.994 127.72H562.162V125.464C562.162 123.8 561.842 122.632 561.202 121.96C560.594 121.288 559.73 120.952 558.61 120.952C557.554 120.952 556.738 121.272 556.162 121.912C555.586 122.552 555.298 123.48 555.298 124.696ZM582.59 118.6C581.502 118.6 580.622 118.952 579.95 119.656C579.31 120.36 578.99 121.24 578.99 122.296C578.99 123.352 579.358 124.312 580.094 125.176C580.862 126.008 581.758 126.696 582.782 127.24C583.742 126.696 584.542 126.008 585.182 125.176C585.822 124.344 586.142 123.416 586.142 122.392C586.142 121.272 585.806 120.36 585.134 119.656C584.494 118.952 583.646 118.6 582.59 118.6ZM570.734 133C570.318 133 570.046 132.792 569.918 132.376C569.758 131.928 569.678 131.288 569.678 130.456C569.678 129.528 569.758 128.84 569.918 128.392C570.046 127.944 570.318 127.72 570.734 127.72H577.502C575.486 125.96 574.478 123.896 574.478 121.528C574.478 120.472 574.67 119.464 575.054 118.504C575.438 117.544 575.998 116.696 576.734 115.96C577.47 115.192 578.35 114.6 579.374 114.184C580.43 113.736 581.63 113.512 582.974 113.512C584.286 113.512 585.422 113.736 586.382 114.184C587.374 114.632 588.174 115.224 588.782 115.96C589.422 116.696 589.886 117.528 590.174 118.456C590.494 119.384 590.654 120.328 590.654 121.288C590.654 122.6 590.398 123.784 589.886 124.84C589.406 125.864 588.702 126.824 587.774 127.72H594.494C596.03 127.72 596.798 127.128 596.798 125.944C596.798 125.688 596.734 125.4 596.606 125.08C596.478 124.76 596.238 124.376 595.886 123.928L587.918 114.232L591.518 110.824L599.63 120.808C600.558 121.928 601.198 122.984 601.55 123.976C601.934 124.936 602.126 125.88 602.126 126.808C602.126 127.672 601.966 128.488 601.646 129.256C601.358 129.992 600.91 130.648 600.302 131.224C599.694 131.768 598.926 132.2 597.998 132.52C597.102 132.84 596.062 133 594.878 133H589.598C588.126 133 586.814 132.936 585.662 132.808C584.542 132.68 583.662 132.44 583.022 132.088C582.542 132.312 581.966 132.488 581.294 132.616C580.654 132.744 579.982 132.84 579.278 132.904C578.606 132.936 577.934 132.968 577.262 133C576.622 133 576.078 133 575.63 133H570.734ZM613.271 132.232C613.271 133.96 612.983 135.576 612.407 137.08C611.831 138.584 611.031 139.896 610.007 141.016C609.015 142.136 607.815 143.016 606.407 143.656C605.031 144.296 603.527 144.616 601.895 144.616H598.871L598.631 139.384H600.647C602.087 139.384 603.319 139.176 604.343 138.76C605.335 138.376 606.151 137.848 606.791 137.176C607.431 136.504 607.895 135.736 608.183 134.872C608.471 134.008 608.615 133.128 608.615 132.232V118.936H613.511V124.648C613.511 125.672 613.815 126.44 614.423 126.952C615.063 127.464 615.863 127.72 616.823 127.72H617.351C618.055 127.72 618.407 128.568 618.407 130.264C618.407 132.088 618.055 133 617.351 133H616.823C616.183 133 615.543 132.904 614.903 132.712C614.263 132.488 613.719 132.056 613.271 131.416V132.232ZM613.559 113.32H608.135V108.424H613.559V113.32ZM620.688 127.72C622.832 127.72 623.904 126.68 623.904 124.6V118.936H628.848V124.6C628.848 125.72 629.184 126.52 629.856 127C630.56 127.48 631.376 127.72 632.304 127.72H633.552C634.288 127.72 634.656 128.568 634.656 130.264C634.656 132.088 634.288 133 633.552 133H632.16C630.944 133 629.84 132.808 628.848 132.424C627.856 132.008 626.992 131.192 626.256 129.976C625.456 131.192 624.592 132.008 623.664 132.424C622.736 132.808 621.744 133 620.688 133H617.328C616.912 133 616.64 132.792 616.512 132.376C616.352 131.928 616.272 131.288 616.272 130.456C616.272 129.528 616.352 128.84 616.512 128.392C616.64 127.944 616.912 127.72 617.328 127.72H620.688ZM631.344 143.08H626.4V138.376H631.344V143.08ZM624.432 143.08H619.488V138.376H624.432V143.08ZM637.963 127.72C640.107 127.72 641.179 126.68 641.179 124.6V118.936H646.075V124.936C646.075 127.592 645.403 129.608 644.059 130.984C642.715 132.328 640.827 133 638.395 133H633.547C633.131 133 632.859 132.792 632.731 132.376C632.571 131.928 632.491 131.288 632.491 130.456C632.491 129.528 632.571 128.84 632.731 128.392C632.859 127.944 633.131 127.72 633.547 127.72H637.963ZM646.219 113.32H641.227V108.616H646.219V113.32ZM639.355 113.32H634.363V108.616H639.355V113.32Z" fill="#191919"/>
<defs>
<linearGradient id="paint0_linear_421_12" x1="390.477" y1="15" x2="386.812" y2="211.996" gradientUnits="userSpaceOnUse">
<stop stop-color="#F5F2FF" stop-opacity="0.8"/>
<stop offset="1" stop-color="#FCFBFF"/>
</linearGradient>
<clipPath id="clip0_421_12">
<rect width="21" height="18" fill="white" transform="matrix(-0.685219 0.728338 0.728338 0.685219 700.39 82)"/>
</clipPath>
<clipPath id="clip1_421_12">
<rect width="21" height="18" fill="white" transform="matrix(0.712672 0.701497 0.701497 -0.712672 676.953 12.8628)"/>
</clipPath>
<clipPath id="clip2_421_12">
<rect width="21" height="18" fill="white" transform="matrix(-0.534477 -0.845183 -0.845183 0.534477 27.0152 136.844)"/>
</clipPath>
<clipPath id="clip3_421_12">
<rect width="12.91" height="12.91" fill="white" transform="translate(736 42)"/>
</clipPath>
<clipPath id="clip4_421_12">
<rect width="12.91" height="12.91" fill="white" transform="translate(36 8)"/>
</clipPath>
</defs>
</svg>
