<svg width="407" height="96" viewBox="0 0 407 96" fill="none" xmlns="http://www.w3.org/2000/svg">
<path d="M72.6695 49.9321C71.3375 49.9321 70.2575 49.5721 69.4295 48.8521C68.6375 48.0961 68.2415 46.9801 68.2415 45.5041C68.2415 43.9921 68.6375 42.8761 69.4295 42.1561C70.2575 41.4001 71.3375 41.0221 72.6695 41.0221C74.0375 41.0221 75.1175 41.4001 75.9095 42.1561C76.7375 42.8761 77.1515 43.9921 77.1515 45.5041C77.1515 46.9801 76.7375 48.0961 75.9095 48.8521C75.1175 49.5721 74.0375 49.9321 72.6695 49.9321ZM72.6695 63.0001C71.3375 63.0001 70.2575 62.6401 69.4295 61.9201C68.6375 61.1641 68.2415 60.0481 68.2415 58.5721C68.2415 57.0601 68.6375 55.9441 69.4295 55.2241C70.2575 54.4681 71.3375 54.0901 72.6695 54.0901C74.0375 54.0901 75.1175 54.4681 75.9095 55.2241C76.7375 55.9441 77.1515 57.0601 77.1515 58.5721C77.1515 60.0481 76.7375 61.1641 75.9095 61.9201C75.1175 62.6401 74.0375 63.0001 72.6695 63.0001ZM91.1586 62.1361C91.1586 63.9721 90.8166 65.7361 90.1326 67.4281C89.4846 69.1201 88.5666 70.5961 87.3786 71.8561C86.2266 73.1521 84.8406 74.1781 83.2206 74.9341C81.6366 75.6901 79.9086 76.0681 78.0366 76.0681H74.4726L74.2026 68.6701H76.2546C77.7666 68.6701 79.0446 68.4721 80.0886 68.0761C81.0966 67.7161 81.9066 67.2301 82.5186 66.6181C83.1666 66.0061 83.6166 65.3041 83.8686 64.5121C84.1566 63.7561 84.3006 62.9641 84.3006 62.1361V46.9621H91.1586V62.1361ZM97.0935 29.5201H103.952V63.0001H97.0935V29.5201ZM117.887 62.1361C117.887 63.9721 117.563 65.7361 116.915 67.4281C116.303 69.1201 115.421 70.5961 114.269 71.8561C113.153 73.1521 111.803 74.1781 110.219 74.9341C108.671 75.6901 106.961 76.0681 105.089 76.0681H101.525L101.255 68.6701H103.307C104.819 68.6701 106.097 68.4721 107.141 68.0761C108.149 67.7161 108.959 67.2301 109.571 66.6181C110.219 66.0061 110.669 65.3041 110.921 64.5121C111.209 63.7561 111.353 62.9641 111.353 62.1361V46.9621H118.211V52.5781C118.211 53.6221 118.517 54.3961 119.129 54.9001C119.777 55.3681 120.551 55.6021 121.451 55.6021H122.045C122.837 55.6021 123.233 56.7901 123.233 59.1661C123.233 61.7221 122.837 63.0001 122.045 63.0001H121.451C120.839 63.0001 120.209 62.9101 119.561 62.7301C118.949 62.5141 118.391 62.1001 117.887 61.4881V62.1361ZM134.864 55.6021C135.44 55.6021 135.818 55.4761 135.998 55.2241C136.214 54.9721 136.322 54.7021 136.322 54.4141C136.322 53.9461 136.232 53.5321 136.052 53.1721C135.908 52.8121 135.602 52.4161 135.134 51.9841L125.9 42.8041V35.0821L143.774 28.5481L145.232 35.3521L132.488 39.8341L139.292 46.6921C141.524 48.9241 143.324 50.6521 144.692 51.8761C146.096 53.0641 147.284 53.9461 148.256 54.5221C149.264 55.0621 150.2 55.3861 151.064 55.4941C151.928 55.5661 152.954 55.6021 154.142 55.6021C154.934 55.6021 155.33 56.7901 155.33 59.1661C155.33 61.7221 154.934 63.0001 154.142 63.0001C152.99 63.0001 151.946 62.9821 151.01 62.9461C150.11 62.9101 149.228 62.7661 148.364 62.5141C147.5 62.2261 146.636 61.7941 145.772 61.2181C144.908 60.6421 143.954 59.8141 142.91 58.7341C142.37 60.3181 141.434 61.4341 140.102 62.0821C138.806 62.6941 137.348 63.0001 135.728 63.0001H122.066C121.598 63.0001 121.292 62.7121 121.148 62.1361C120.968 61.5241 120.878 60.6241 120.878 59.4361C120.878 58.0681 120.968 57.0961 121.148 56.5201C121.292 55.9081 121.598 55.6021 122.066 55.6021H134.864ZM159.205 55.6021C160.249 55.6021 160.987 55.3681 161.419 54.9001C161.887 54.3961 162.121 53.6221 162.121 52.5781V46.9621H168.979V53.1721C168.979 56.4481 168.187 58.9141 166.603 60.5701C165.055 62.1901 162.787 63.0001 159.799 63.0001H154.129C153.661 63.0001 153.355 62.7121 153.211 62.1361C153.031 61.5241 152.941 60.6241 152.941 59.4361C152.941 58.0681 153.031 57.0961 153.211 56.5201C153.355 55.9081 153.661 55.6021 154.129 55.6021H159.205ZM168.925 41.0221H162.391V34.7581H168.925V41.0221ZM160.609 41.0221H154.075V34.7581H160.609V41.0221ZM182.381 62.1361C182.381 63.9721 182.057 65.7361 181.409 67.4281C180.797 69.1201 179.915 70.5961 178.763 71.8561C177.647 73.1521 176.297 74.1781 174.713 74.9341C173.165 75.6901 171.455 76.0681 169.583 76.0681H166.019L165.749 68.6701H167.801C169.313 68.6701 170.591 68.4721 171.635 68.0761C172.643 67.7161 173.453 67.2301 174.065 66.6181C174.713 66.0061 175.163 65.3041 175.415 64.5121C175.703 63.7561 175.847 62.9641 175.847 62.1361V46.9621H182.705V52.5781C182.705 53.6221 183.011 54.3961 183.623 54.9001C184.271 55.3681 185.045 55.6021 185.945 55.6021H186.539C187.331 55.6021 187.727 56.7901 187.727 59.1661C187.727 61.7221 187.331 63.0001 186.539 63.0001H185.945C185.333 63.0001 184.703 62.9101 184.055 62.7301C183.443 62.5141 182.885 62.1001 182.381 61.4881V62.1361ZM191.637 55.6021C192.681 55.6021 193.419 55.3681 193.851 54.9001C194.319 54.3961 194.553 53.6221 194.553 52.5781V46.9621H201.411V53.1721C201.411 56.4481 200.619 58.9141 199.035 60.5701C197.487 62.1901 195.219 63.0001 192.231 63.0001H186.561C186.093 63.0001 185.787 62.7121 185.643 62.1361C185.463 61.5241 185.373 60.6241 185.373 59.4361C185.373 58.0681 185.463 57.0961 185.643 56.5201C185.787 55.9081 186.093 55.6021 186.561 55.6021H191.637ZM196.983 83.4661H190.395V77.2021H196.983V83.4661ZM201.087 75.1501H194.553V68.8861H201.087V75.1501ZM192.771 75.1501H186.237V68.8861H192.771V75.1501ZM222.256 63.0001C220.78 63.0001 219.502 62.7841 218.422 62.3521C217.378 61.8841 216.514 61.2721 215.83 60.5161C215.182 59.7601 214.696 58.8781 214.372 57.8701C214.084 56.8621 213.94 55.8001 213.94 54.6841V46.6921H220.744V52.9021C220.744 53.3341 220.762 53.7301 220.798 54.0901C220.87 54.4141 221.014 54.7021 221.23 54.9541C221.446 55.1701 221.752 55.3321 222.148 55.4401C222.544 55.5481 223.084 55.6021 223.768 55.6021H239.752C240.94 55.6021 241.732 55.3681 242.128 54.9001C242.524 54.3961 242.722 53.6221 242.722 52.5781V46.9621H249.58V54.4141C249.58 55.8901 249.328 57.1681 248.824 58.2481C248.32 59.3281 247.654 60.2281 246.826 60.9481C245.998 61.6321 245.062 62.1541 244.018 62.5141C243.01 62.8381 241.984 63.0001 240.94 63.0001H222.256ZM239.158 42.8041H232.624V36.5401H239.158V42.8041ZM230.842 42.8041H224.308V36.5401H230.842V42.8041ZM255.508 29.5201H262.366V55.6021H266.2C267.1 55.6021 267.712 55.4401 268.036 55.1161C268.396 54.7921 268.576 54.2521 268.576 53.4961V29.5201H275.434V54.6841C275.434 56.0881 275.2 57.3121 274.732 58.3561C274.3 59.4001 273.688 60.2641 272.896 60.9481C272.14 61.6321 271.258 62.1541 270.25 62.5141C269.242 62.8381 268.18 63.0001 267.064 63.0001H255.508V29.5201ZM281.928 29.5201H288.786V63.0001H281.928V29.5201ZM299.751 68.6701C302.163 68.6701 303.891 68.1121 304.935 66.9961C305.979 65.9161 306.591 64.5841 306.771 63.0001H304.233C302.361 63.0001 300.831 62.8021 299.643 62.4061C298.455 62.0101 297.519 61.4161 296.835 60.6241C296.151 59.8321 295.665 58.8781 295.377 57.7621C295.125 56.6101 294.999 55.2961 294.999 53.8201C294.999 52.4161 295.197 51.0841 295.593 49.8241C295.989 48.5281 296.565 47.4121 297.321 46.4761C298.113 45.5401 299.085 44.8021 300.237 44.2621C301.425 43.6861 302.793 43.3981 304.341 43.3981C305.565 43.3981 306.717 43.5961 307.797 43.9921C308.913 44.3881 309.885 45.0181 310.713 45.8821C311.541 46.7461 312.189 47.8801 312.657 49.2841C313.161 50.6881 313.413 52.3981 313.413 54.4141V55.6021H317.301C318.093 55.6021 318.489 56.7901 318.489 59.1661C318.489 61.7221 318.093 63.0001 317.301 63.0001H313.359C313.251 64.7641 312.873 66.4381 312.225 68.0221C311.577 69.6061 310.677 70.9921 309.525 72.1801C308.409 73.3681 307.041 74.3041 305.421 74.9881C303.801 75.7081 302.001 76.0681 300.021 76.0681H294.729L294.405 68.6701H299.751ZM301.533 53.2801C301.533 54.1441 301.713 54.7561 302.073 55.1161C302.469 55.4401 303.189 55.6021 304.233 55.6021H306.879V54.0901C306.879 52.7221 306.645 51.7861 306.177 51.2821C305.745 50.7781 305.061 50.5261 304.125 50.5261C302.397 50.5261 301.533 51.4441 301.533 53.2801ZM319.989 55.6021C321.969 55.6021 322.959 54.5941 322.959 52.5781V46.9621H329.763V52.5781C329.763 53.6221 330.069 54.3961 330.681 54.9001C331.329 55.3681 332.103 55.6021 333.003 55.6021C334.191 55.6021 335.037 55.3681 335.541 54.9001C336.045 54.3961 336.297 53.6221 336.297 52.5781V46.9621H343.155V52.5781C343.155 53.6221 343.407 54.3961 343.911 54.9001C344.451 55.3681 345.081 55.6021 345.801 55.6021C347.565 55.6021 348.447 54.5941 348.447 52.5781V46.9621H355.305V53.1721C355.305 56.4481 354.513 58.9141 352.929 60.5701C351.345 62.1901 349.059 63.0001 346.071 63.0001C344.919 63.0001 343.767 62.8021 342.615 62.4061C341.499 61.9741 340.491 61.0741 339.591 59.7061C338.691 61.0741 337.665 61.9741 336.513 62.4061C335.361 62.8021 334.191 63.0001 333.003 63.0001C331.671 63.0001 330.429 62.8021 329.277 62.4061C328.125 61.9741 327.099 61.0741 326.199 59.7061C325.299 61.0741 324.327 61.9741 323.283 62.4061C322.275 62.8021 321.177 63.0001 319.989 63.0001H317.289C316.821 63.0001 316.515 62.7121 316.371 62.1361C316.191 61.5241 316.101 60.6241 316.101 59.4361C316.101 58.0681 316.191 57.0961 316.371 56.5201C316.515 55.9081 316.821 55.6021 317.289 55.6021H319.989Z" fill="url(#paint0_linear_421_14)"/>
<path d="M159.684 87.0449C166.538 87.6318 173.391 88.2842 180.247 88.7905C190.072 89.521 199.9 90.1381 209.727 90.8383C210.153 90.8711 210.572 91.2539 211 91.4756C210.581 91.6569 210.16 92.0171 209.744 91.9995C201.502 91.6166 193.259 91.2615 185.02 90.7577C176.675 90.2539 168.336 89.5915 159.993 88.9744C158.804 88.8862 157.605 88.6973 156.43 88.4706C155.794 88.3396 154.939 88.2036 154.918 86.8963C154.901 85.7251 155.703 85.5109 156.289 85.385C159.144 84.7175 161.994 83.8611 164.867 83.5463C174.147 82.5387 183.437 81.7125 192.724 80.8184C193.013 80.8071 193.298 80.7043 193.561 80.5161C190.623 80.3347 187.686 80.0325 184.747 79.9947C169.875 79.8058 154.998 79.3272 140.128 79.6471C126.747 79.9368 113.373 81.1408 99.9951 81.914C95.5379 82.1659 91.0919 82.3523 86.6396 82.5563C86.267 82.6053 85.8919 82.5714 85.5253 82.4556C85.3231 82.37 85.1735 81.9518 85 81.6999C85.1862 81.4657 85.3598 81.0576 85.5603 81.0199C88.4256 80.4808 91.2909 79.899 94.1721 79.5086C106.167 77.8839 118.18 76.7101 130.216 76.3474C140.713 76.0351 151.214 75.9645 161.712 76.0149C168.63 76.0477 175.55 76.36 182.463 76.7706C190.781 77.2743 199.087 78.1207 207.356 79.7126C207.644 79.768 207.971 79.7604 208.206 79.9771C208.482 80.2289 208.684 80.705 208.908 81.0828C208.642 81.3952 208.386 81.9594 208.112 81.9821C206.075 82.1508 204.031 82.1634 201.992 82.3171C192.805 83.0097 183.614 83.6294 174.434 84.4908C169.754 84.9316 165.092 85.8233 160.426 86.5059C160.174 86.5437 159.926 86.6268 159.674 86.6873L159.684 87.0449Z" fill="#FFAF20"/>
<path d="M88.3729 64.3841C87.1889 64.3841 86.2289 64.0641 85.4929 63.4241C84.7889 62.7521 84.4369 61.7601 84.4369 60.4481C84.4369 59.1041 84.7889 58.1121 85.4929 57.4721C86.2289 56.8001 87.1889 56.4641 88.3729 56.4641C89.5889 56.4641 90.5489 56.8001 91.2529 57.4721C91.9889 58.1121 92.3569 59.1041 92.3569 60.4481C92.3569 61.7601 91.9889 62.7521 91.2529 63.4241C90.5489 64.0641 89.5889 64.3841 88.3729 64.3841ZM88.3729 76.0001C87.1889 76.0001 86.2289 75.6801 85.4929 75.0401C84.7889 74.3681 84.4369 73.3761 84.4369 72.0641C84.4369 70.7201 84.7889 69.7281 85.4929 69.0881C86.2289 68.4161 87.1889 68.0801 88.3729 68.0801C89.5889 68.0801 90.5489 68.4161 91.2529 69.0881C91.9889 69.7281 92.3569 70.7201 92.3569 72.0641C92.3569 73.3761 91.9889 74.3681 91.2529 75.0401C90.5489 75.6801 89.5889 76.0001 88.3729 76.0001ZM104.808 75.2321C104.808 76.8641 104.504 78.4321 103.896 79.9361C103.32 81.4401 102.504 82.7521 101.448 83.8721C100.424 85.0241 99.1916 85.9361 97.7516 86.6081C96.3436 87.2801 94.8076 87.6161 93.1436 87.6161H89.9756L89.7356 81.0401H91.5596C92.9036 81.0401 94.0396 80.8641 94.9676 80.5121C95.8636 80.1921 96.5836 79.7601 97.1276 79.2161C97.7036 78.6721 98.1036 78.0481 98.3276 77.3441C98.5836 76.6721 98.7116 75.9681 98.7116 75.2321V61.7441H104.808V75.2321ZM110.083 46.2401H116.179V76.0001H110.083V46.2401ZM128.567 75.2321C128.567 76.8641 128.279 78.4321 127.703 79.9361C127.159 81.4401 126.375 82.7521 125.351 83.8721C124.359 85.0241 123.159 85.9361 121.751 86.6081C120.375 87.2801 118.854 87.6161 117.19 87.6161H114.022L113.782 81.0401H115.606C116.95 81.0401 118.086 80.8641 119.014 80.5121C119.911 80.1921 120.631 79.7601 121.175 79.2161C121.751 78.6721 122.151 78.0481 122.375 77.3441C122.631 76.6721 122.759 75.9681 122.759 75.2321V61.7441H128.855V66.7361C128.855 67.6641 129.127 68.3521 129.671 68.8001C130.247 69.2161 130.935 69.4241 131.734 69.4241H132.263C132.967 69.4241 133.319 70.4801 133.319 72.5921C133.319 74.8641 132.967 76.0001 132.263 76.0001H131.734C131.191 76.0001 130.631 75.9201 130.055 75.7601C129.511 75.5681 129.015 75.2001 128.567 74.6561V75.2321ZM143.657 69.4241C144.169 69.4241 144.505 69.3121 144.665 69.0881C144.857 68.8641 144.953 68.6241 144.953 68.3681C144.953 67.9521 144.873 67.5841 144.713 67.2641C144.585 66.9441 144.313 66.5921 143.897 66.2081L135.689 58.0481V51.1841L151.577 45.3761L152.873 51.4241L141.545 55.4081L147.593 61.5041C149.577 63.4881 151.177 65.0241 152.393 66.1121C153.641 67.1681 154.697 67.9521 155.561 68.4641C156.457 68.9441 157.289 69.2321 158.057 69.3281C158.825 69.3921 159.737 69.4241 160.793 69.4241C161.497 69.4241 161.849 70.4801 161.849 72.5921C161.849 74.8641 161.497 76.0001 160.793 76.0001C159.769 76.0001 158.841 75.9841 158.009 75.9521C157.209 75.9201 156.425 75.7921 155.657 75.5681C154.889 75.3121 154.121 74.9281 153.353 74.4161C152.585 73.9041 151.737 73.1681 150.809 72.2081C150.329 73.6161 149.497 74.6081 148.313 75.1841C147.161 75.7281 145.865 76.0001 144.425 76.0001H132.281C131.865 76.0001 131.593 75.7441 131.465 75.2321C131.305 74.6881 131.225 73.8881 131.225 72.8321C131.225 71.6161 131.305 70.7521 131.465 70.2401C131.593 69.6961 131.865 69.4241 132.281 69.4241H143.657ZM165.293 69.4241C166.221 69.4241 166.877 69.2161 167.261 68.8001C167.677 68.3521 167.885 67.6641 167.885 66.7361V61.7441H173.981V67.2641C173.981 70.1761 173.277 72.3681 171.869 73.8401C170.493 75.2801 168.477 76.0001 165.821 76.0001H160.781C160.365 76.0001 160.093 75.7441 159.965 75.2321C159.805 74.6881 159.725 73.8881 159.725 72.8321C159.725 71.6161 159.805 70.7521 159.965 70.2401C160.093 69.6961 160.365 69.4241 160.781 69.4241H165.293ZM173.933 56.4641H168.125V50.8961H173.933V56.4641ZM166.541 56.4641H160.733V50.8961H166.541V56.4641ZM185.895 75.2321C185.895 76.8641 185.607 78.4321 185.031 79.9361C184.487 81.4401 183.703 82.7521 182.679 83.8721C181.687 85.0241 180.487 85.9361 179.079 86.6081C177.703 87.2801 176.183 87.6161 174.519 87.6161H171.351L171.111 81.0401H172.935C174.279 81.0401 175.415 80.8641 176.343 80.5121C177.239 80.1921 177.959 79.7601 178.503 79.2161C179.079 78.6721 179.479 78.0481 179.703 77.3441C179.959 76.6721 180.087 75.9681 180.087 75.2321V61.7441H186.183V66.7361C186.183 67.6641 186.455 68.3521 186.999 68.8001C187.575 69.2161 188.263 69.4241 189.063 69.4241H189.591C190.295 69.4241 190.647 70.4801 190.647 72.5921C190.647 74.8641 190.295 76.0001 189.591 76.0001H189.063C188.519 76.0001 187.959 75.9201 187.383 75.7601C186.839 75.5681 186.343 75.2001 185.895 74.6561V75.2321ZM194.121 69.4241C195.049 69.4241 195.705 69.2161 196.089 68.8001C196.505 68.3521 196.713 67.6641 196.713 66.7361V61.7441H202.809V67.2641C202.809 70.1761 202.105 72.3681 200.697 73.8401C199.321 75.2801 197.305 76.0001 194.649 76.0001H189.609C189.193 76.0001 188.921 75.7441 188.793 75.2321C188.633 74.6881 188.553 73.8881 188.553 72.8321C188.553 71.6161 188.633 70.7521 188.793 70.2401C188.921 69.6961 189.193 69.4241 189.609 69.4241H194.121ZM198.873 94.1921H193.017V88.6241H198.873V94.1921ZM202.521 86.8001H196.713V81.2321H202.521V86.8001ZM195.129 86.8001H189.321V81.2321H195.129V86.8001ZM221.339 76.0001C220.027 76.0001 218.891 75.8081 217.931 75.4241C217.003 75.0081 216.235 74.4641 215.627 73.7921C215.051 73.1201 214.619 72.3361 214.331 71.4401C214.075 70.5441 213.947 69.6001 213.947 68.6081V61.5041H219.995V67.0241C219.995 67.4081 220.011 67.7601 220.043 68.0801C220.107 68.3681 220.235 68.6241 220.427 68.8481C220.619 69.0401 220.891 69.1841 221.243 69.2801C221.595 69.3761 222.075 69.4241 222.683 69.4241H236.891C237.947 69.4241 238.651 69.2161 239.003 68.8001C239.355 68.3521 239.531 67.6641 239.531 66.7361V61.7441H245.627V68.3681C245.627 69.6801 245.403 70.8161 244.955 71.7761C244.507 72.7361 243.915 73.5361 243.179 74.1761C242.443 74.7841 241.611 75.2481 240.683 75.5681C239.787 75.8561 238.875 76.0001 237.947 76.0001H221.339ZM236.363 58.0481H230.555V52.4801H236.363V58.0481ZM228.971 58.0481H223.163V52.4801H228.971V58.0481ZM250.896 46.2401H256.992V69.4241H260.4C261.2 69.4241 261.744 69.2801 262.032 68.9921C262.352 68.7041 262.512 68.2241 262.512 67.5521V46.2401H268.608V68.6081C268.608 69.8561 268.4 70.9441 267.984 71.8721C267.6 72.8001 267.056 73.5681 266.352 74.1761C265.68 74.7841 264.896 75.2481 264 75.5681C263.104 75.8561 262.16 76.0001 261.168 76.0001H250.896V46.2401ZM274.38 46.2401H280.476V76.0001H274.38V46.2401ZM290.223 81.0401C292.367 81.0401 293.903 80.5441 294.831 79.5521C295.759 78.5921 296.303 77.4081 296.463 76.0001H294.207C292.543 76.0001 291.183 75.8241 290.127 75.4721C289.071 75.1201 288.239 74.5921 287.631 73.8881C287.023 73.1841 286.591 72.3361 286.335 71.3441C286.111 70.3201 285.999 69.1521 285.999 67.8401C285.999 66.5921 286.175 65.4081 286.527 64.2881C286.879 63.1361 287.391 62.1441 288.063 61.3121C288.767 60.4801 289.631 59.8241 290.655 59.3441C291.711 58.8321 292.927 58.5761 294.303 58.5761C295.391 58.5761 296.415 58.7521 297.375 59.1041C298.367 59.4561 299.231 60.0161 299.967 60.7841C300.703 61.5521 301.279 62.5601 301.695 63.8081C302.143 65.0561 302.367 66.5761 302.367 68.3681V69.4241H305.823C306.527 69.4241 306.879 70.4801 306.879 72.5921C306.879 74.8641 306.527 76.0001 305.823 76.0001H302.319C302.223 77.5681 301.887 79.0561 301.311 80.4641C300.735 81.8721 299.935 83.1041 298.911 84.1601C297.919 85.2161 296.703 86.0481 295.263 86.6561C293.823 87.2961 292.223 87.6161 290.463 87.6161H285.759L285.471 81.0401H290.223ZM291.807 67.3601C291.807 68.1281 291.967 68.6721 292.287 68.9921C292.639 69.2801 293.279 69.4241 294.207 69.4241H296.559V68.0801C296.559 66.8641 296.351 66.0321 295.935 65.5841C295.551 65.1361 294.943 64.9121 294.111 64.9121C292.575 64.9121 291.807 65.7281 291.807 67.3601ZM308.213 69.4241C309.973 69.4241 310.853 68.5281 310.853 66.7361V61.7441H316.901V66.7361C316.901 67.6641 317.173 68.3521 317.717 68.8001C318.293 69.2161 318.981 69.4241 319.781 69.4241C320.837 69.4241 321.589 69.2161 322.037 68.8001C322.485 68.3521 322.709 67.6641 322.709 66.7361V61.7441H328.805V66.7361C328.805 67.6641 329.029 68.3521 329.477 68.8001C329.957 69.2161 330.517 69.4241 331.156 69.4241C332.725 69.4241 333.509 68.5281 333.509 66.7361V61.7441H339.605V67.2641C339.605 70.1761 338.901 72.3681 337.493 73.8401C336.085 75.2801 334.053 76.0001 331.397 76.0001C330.373 76.0001 329.349 75.8241 328.325 75.4721C327.333 75.0881 326.437 74.2881 325.637 73.0721C324.837 74.2881 323.925 75.0881 322.901 75.4721C321.877 75.8241 320.837 76.0001 319.781 76.0001C318.597 76.0001 317.493 75.8241 316.469 75.4721C315.445 75.0881 314.533 74.2881 313.733 73.0721C312.933 74.2881 312.069 75.0881 311.141 75.4721C310.245 75.8241 309.269 76.0001 308.213 76.0001H305.812C305.396 76.0001 305.124 75.7441 304.996 75.2321C304.836 74.6881 304.756 73.8881 304.756 72.8321C304.756 71.6161 304.836 70.7521 304.996 70.2401C305.124 69.6961 305.396 69.4241 305.812 69.4241H308.213Z" fill="#191919"/>
<g clip-path="url(#clip0_421_14)">
<path d="M375.288 75.5486L395.5 80.3341L381.11 95.6291L375.288 75.5486Z" fill="#E3ECFF"/>
</g>
<path d="M67.1191 20.1858L47 15.0249L61.6718 0.000291049L67.1191 20.1858Z" fill="#E3ECFF"/>
<circle cx="6" cy="42.0001" r="6" fill="#E3ECFF"/>
<circle cx="401" cy="34.0001" r="6" fill="#E3ECFF"/>
<g clip-path="url(#clip1_421_14)">
<path d="M363.55 13.9101C363.177 13.9143 362.817 13.7705 362.55 13.5101L352.37 3.33008C352.114 3.07414 351.97 2.72703 351.97 2.36508C351.97 2.00314 352.114 1.65602 352.37 1.40009C352.626 1.14415 352.973 1.00037 353.335 1.00037C353.697 1.00037 354.044 1.14415 354.3 1.40009L364.48 11.5801C364.671 11.774 364.799 12.0202 364.849 12.2874C364.899 12.5547 364.869 12.8308 364.762 13.0806C364.655 13.3304 364.475 13.5427 364.247 13.6904C364.019 13.8381 363.752 13.9146 363.48 13.9101H363.55Z" fill="#E3ECFF"/>
<path d="M353.37 13.9101C352.997 13.9143 352.637 13.7705 352.37 13.5101C352.115 13.2535 351.972 12.9066 351.972 12.5451C351.972 12.1836 352.115 11.8367 352.37 11.5801L362.58 1.4201C362.707 1.29338 362.857 1.19285 363.023 1.12427C363.188 1.05568 363.366 1.02039 363.545 1.02039C363.724 1.02039 363.902 1.05568 364.067 1.12427C364.233 1.19285 364.383 1.29338 364.51 1.4201C364.637 1.54683 364.737 1.69728 364.806 1.86285C364.874 2.02843 364.91 2.20588 364.91 2.3851C364.91 2.56432 364.874 2.74177 364.806 2.90735C364.737 3.07292 364.637 3.22337 364.51 3.3501L354.33 13.5301C354.071 13.7762 353.727 13.9124 353.37 13.9101Z" fill="#E3ECFF"/>
</g>
<g clip-path="url(#clip2_421_14)">
<path d="M44.55 88.9101C44.1769 88.9143 43.8173 88.7705 43.55 88.5101L33.37 78.3301C33.1141 78.0741 32.9703 77.727 32.9703 77.3651C32.9703 77.0031 33.1141 76.656 33.37 76.4001C33.6259 76.1442 33.973 76.0004 34.335 76.0004C34.6969 76.0004 35.0441 76.1442 35.3 76.4001L45.48 86.5801C45.6705 86.774 45.7991 87.0202 45.8493 87.2874C45.8994 87.5547 45.869 87.8308 45.7617 88.0806C45.6545 88.3304 45.4754 88.5427 45.2471 88.6904C45.0189 88.8381 44.7518 88.9146 44.48 88.9101H44.55Z" fill="#E3ECFF"/>
<path d="M34.37 88.9101C33.9969 88.9143 33.6373 88.7705 33.37 88.5101C33.1154 88.2535 32.9724 87.9066 32.9724 87.5451C32.9724 87.1836 33.1154 86.8367 33.37 86.5801L43.58 76.4201C43.7067 76.2934 43.8571 76.1929 44.0227 76.1243C44.1883 76.0557 44.3658 76.0204 44.545 76.0204C44.7242 76.0204 44.9017 76.0557 45.0673 76.1243C45.2329 76.1929 45.3833 76.2934 45.51 76.4201C45.6368 76.5468 45.7372 76.6973 45.8058 76.8629C45.8744 77.0284 45.9097 77.2059 45.9097 77.3851C45.9097 77.5643 45.8744 77.7418 45.8058 77.9073C45.7372 78.0729 45.6368 78.2234 45.51 78.3501L35.33 88.5301C35.0712 88.7762 34.7271 88.9124 34.37 88.9101Z" fill="#E3ECFF"/>
</g>
<defs>
<linearGradient id="paint0_linear_421_14" x1="218.319" y1="28.0001" x2="216.743" y2="111.107" gradientUnits="userSpaceOnUse">
<stop stop-color="#F5F2FF" stop-opacity="0.8"/>
<stop offset="1" stop-color="#FCFBFF"/>
</linearGradient>
<clipPath id="clip0_421_14">
<rect width="21" height="18" fill="white" transform="matrix(-0.685219 0.728338 0.728338 0.685219 382.39 68.0001)"/>
</clipPath>
<clipPath id="clip1_421_14">
<rect width="12.91" height="12.91" fill="white" transform="translate(352 1.00012)"/>
</clipPath>
<clipPath id="clip2_421_14">
<rect width="12.91" height="12.91" fill="white" transform="translate(33 76.0001)"/>
</clipPath>
</defs>
</svg>
