<svg width="161" height="70" viewBox="0 0 161 70" fill="none" xmlns="http://www.w3.org/2000/svg">
<path d="M101.81 55.8314L20.7615 49.5101L19.8816 60.7926L100.93 67.1139L101.81 55.8314Z" fill="white" stroke="#353535" stroke-width="2" stroke-linecap="round" stroke-linejoin="round"/>
<path d="M139.715 39.5849L58.6653 33.262L20.7556 49.5074L101.812 55.8301L139.715 39.5849Z" fill="white" stroke="#353535" stroke-width="2" stroke-linecap="round" stroke-linejoin="round"/>
<path d="M101.807 55.8766L100.923 67.1587L138.833 50.9133L139.711 39.6313L101.807 55.8766Z" fill="white" stroke="#353535" stroke-width="2" stroke-linecap="round" stroke-linejoin="round"/>
<path d="M102.969 42.0302L33.4919 36.6115L32.7374 46.2855L102.214 51.7042L102.969 42.0302Z" fill="#FFAF20" stroke="#353535" stroke-width="2" stroke-linecap="round" stroke-linejoin="round"/>
<path d="M135.469 28.1075L65.9854 22.6849L33.4907 36.6112L102.974 42.0338L135.469 28.1075Z" fill="#FFAF20" stroke="#353535" stroke-width="2" stroke-linecap="round" stroke-linejoin="round"/>
<path d="M102.969 42.0688L102.217 51.7399L134.711 37.8194L135.464 28.1425L102.969 42.0688Z" fill="white" stroke="#353535" stroke-width="2" stroke-linecap="round" stroke-linejoin="round"/>
<path d="M103.554 18.1997L45.1977 13.6482L43.6074 34.0377L101.964 38.5891L103.554 18.1997Z" fill="#0269F7" stroke="#353535" stroke-width="2" stroke-linecap="round" stroke-linejoin="round"/>
<path d="M130.849 6.50902L72.4911 1.95616L45.1985 13.6553L103.557 18.2024L130.849 6.50902Z" fill="#0269F7" stroke="#353535" stroke-width="2" stroke-linecap="round" stroke-linejoin="round"/>
<path d="M103.557 18.2373L101.961 38.6264L129.253 26.9272L130.844 6.5382L103.557 18.2373Z" fill="white" stroke="#353535" stroke-width="2" stroke-linecap="round" stroke-linejoin="round"/>
<path d="M50.9655 21.069L96.6901 23.7768" stroke="#353535" stroke-width="1.8" stroke-linecap="round" stroke-linejoin="round"/>
<path d="M58.7864 28.441L85.4554 30.4909" stroke="#353535" stroke-width="1.8" stroke-linecap="round" stroke-linejoin="round"/>
<path d="M116.173 20.2975L130.209 14.7379" stroke="#353535" stroke-width="1.8" stroke-linecap="round" stroke-linejoin="round"/>
<path d="M110.445 27.947L126.957 21.5118" stroke="#353535" stroke-width="1.8" stroke-linecap="round" stroke-linejoin="round"/>
<path d="M25.3552 55.8914L95.6083 61.4704" stroke="#353535" stroke-width="1.8" stroke-linecap="round" stroke-linejoin="round"/>
<path d="M113.514 55.8158L139.348 44.3011" stroke="#353535" stroke-width="1.8" stroke-linecap="round" stroke-linejoin="round"/>
<path d="M121.923 54.9602L139.097 47.5113" stroke="#353535" stroke-width="1.8" stroke-linecap="round" stroke-linejoin="round"/>
<path d="M111.88 42.0897L135.1 32.7716" stroke="#353535" stroke-width="1.8" stroke-linecap="round" stroke-linejoin="round"/>
<path d="M75.7821 4.70735L61.6186 11.2858L72.1707 12.2326L85.0743 5.64258L75.7821 4.70735Z" fill="white"/>
<g clip-path="url(#clip0_421_9)">
<path d="M25.55 25.9099C25.1769 25.9142 24.8173 25.7704 24.55 25.5099L14.37 15.33C14.1141 15.074 13.9703 14.7269 13.9703 14.365C13.9703 14.003 14.1141 13.6559 14.37 13.4C14.6259 13.144 14.973 13.0002 15.335 13.0002C15.6969 13.0002 16.0441 13.144 16.3 13.4L26.48 23.58C26.6705 23.7739 26.7991 24.0201 26.8493 24.2873C26.8994 24.5545 26.869 24.8306 26.7617 25.0805C26.6545 25.3303 26.4754 25.5426 26.2471 25.6903C26.0189 25.838 25.7518 25.9145 25.48 25.9099H25.55Z" fill="#E3ECFF"/>
<path d="M15.37 25.91C14.9969 25.9142 14.6373 25.7704 14.37 25.51C14.1154 25.2534 13.9724 24.9065 13.9724 24.545C13.9724 24.1835 14.1154 23.8366 14.37 23.58L24.58 13.42C24.7067 13.2933 24.8571 13.1927 25.0227 13.1241C25.1883 13.0556 25.3658 13.0203 25.545 13.0203C25.7242 13.0203 25.9017 13.0556 26.0673 13.1241C26.2329 13.1927 26.3833 13.2933 26.51 13.42C26.6368 13.5467 26.7372 13.6972 26.8058 13.8627C26.8744 14.0283 26.9097 14.2058 26.9097 14.385C26.9097 14.5642 26.8744 14.7417 26.8058 14.9072C26.7372 15.0728 26.6368 15.2232 26.51 15.35L16.33 25.53C16.0712 25.7761 15.7271 25.9123 15.37 25.91Z" fill="#E3ECFF"/>
</g>
<g clip-path="url(#clip1_421_9)">
<path d="M154.55 68.9099C154.177 68.9142 153.817 68.7704 153.55 68.5099L143.37 58.33C143.114 58.074 142.97 57.7269 142.97 57.365C142.97 57.003 143.114 56.6559 143.37 56.4C143.626 56.144 143.973 56.0002 144.335 56.0002C144.697 56.0002 145.044 56.144 145.3 56.4L155.48 66.58C155.671 66.7739 155.799 67.0201 155.849 67.2873C155.899 67.5545 155.869 67.8306 155.762 68.0805C155.655 68.3303 155.475 68.5426 155.247 68.6903C155.019 68.838 154.752 68.9145 154.48 68.9099H154.55Z" fill="#E3ECFF"/>
<path d="M144.37 68.91C143.997 68.9142 143.637 68.7704 143.37 68.51C143.115 68.2534 142.972 67.9065 142.972 67.545C142.972 67.1835 143.115 66.8366 143.37 66.58L153.58 56.42C153.707 56.2933 153.857 56.1927 154.023 56.1241C154.188 56.0556 154.366 56.0203 154.545 56.0203C154.724 56.0203 154.902 56.0556 155.067 56.1241C155.233 56.1927 155.383 56.2933 155.51 56.42C155.637 56.5467 155.737 56.6972 155.806 56.8627C155.874 57.0283 155.91 57.2058 155.91 57.385C155.91 57.5642 155.874 57.7417 155.806 57.9072C155.737 58.0728 155.637 58.2232 155.51 58.35L145.33 68.53C145.071 68.7761 144.727 68.9123 144.37 68.91Z" fill="#E3ECFF"/>
</g>
<circle cx="156" cy="15" r="5" fill="#E3ECFF"/>
<circle cx="5" cy="65" r="5" fill="#E3ECFF"/>
<defs>
<clipPath id="clip0_421_9">
<rect width="12.91" height="12.91" fill="white" transform="translate(14 13)"/>
</clipPath>
<clipPath id="clip1_421_9">
<rect width="12.91" height="12.91" fill="white" transform="translate(143 56)"/>
</clipPath>
</defs>
</svg>
