<svg width="110" height="94" viewBox="0 0 110 94" fill="none" xmlns="http://www.w3.org/2000/svg">
<path d="M70.4766 83.0207C70.9183 83.5861 71.1968 84.2616 71.282 84.9741C71.3382 85.4725 71.2915 85.9772 71.1448 86.4569C70.9981 86.9366 70.7545 87.3811 70.4291 87.7628C70.1038 88.1445 69.7035 88.4553 69.2532 88.6761C68.8028 88.8968 68.312 89.0227 67.811 89.046C67.6903 89.0469 67.5725 89.0833 67.4723 89.1506C67.3721 89.2179 67.2938 89.3132 67.2473 89.4246C65.544 92.405 62.979 94.0201 59.5484 93.9959C56.1177 93.9718 53.6413 92.3446 51.9703 89.4125C51.9348 89.3086 51.8683 89.2181 51.7797 89.1532C51.6911 89.0884 51.5847 89.0524 51.475 89.05C50.8024 89.0426 50.146 88.843 49.5831 88.4748C49.0202 88.1066 48.5743 87.5851 48.298 86.9718C47.9912 86.366 47.8628 85.6855 47.9277 85.0095C47.9925 84.3336 48.248 83.6899 48.6644 83.1536C48.6926 83.1173 48.7167 83.069 48.7449 83.0287C48.2639 82.7149 47.8606 82.2957 47.5653 81.803C47.2701 81.3103 47.0907 80.757 47.0406 80.1847C46.9906 79.6125 47.0713 79.0364 47.2765 78.4999C47.4818 77.9634 47.8063 77.4806 48.2255 77.088L48.004 76.8423C47.4434 76.2394 47.1023 75.4651 47.0358 74.6444C46.9693 73.8237 47.1813 73.0046 47.6376 72.3193C47.6993 72.2352 47.7402 72.1378 47.757 72.0349C47.7738 71.932 47.766 71.8265 47.7342 71.7272L47.6255 71.3245H71.7974C71.7974 71.3889 71.7571 71.4614 71.741 71.5299C71.6208 71.9836 71.668 72.4654 71.8739 72.8872C72.1521 73.4916 72.254 74.1624 72.1678 74.8222C72.0816 75.4821 71.8108 76.1041 71.3867 76.6167C71.2659 76.7738 71.1249 76.9188 70.984 77.092C71.4073 77.4806 71.7359 77.9612 71.9444 78.4967C72.153 79.0322 72.2359 79.6084 72.1869 80.1811C72.1379 80.7537 71.9583 81.3074 71.6618 81.7997C71.3653 82.292 70.9598 82.7097 70.4766 83.0207Z" fill="white"/>
<path d="M82.0693 55.8866C81.0465 58.0776 79.5526 59.9344 77.9742 61.7347C76.7662 63.1323 75.5059 64.5258 74.3502 65.9879C73.1357 67.5717 72.2661 69.3923 71.7973 71.3325H47.6376C46.9058 68.9138 45.6287 66.6954 43.9049 64.848C42.6123 63.4102 41.2674 62.0287 39.995 60.5546C37.4449 57.6337 35.8784 53.9841 35.5174 50.1231C35.0624 45.9263 35.4409 41.8302 37.0355 37.8993C39.2937 32.1246 43.6911 27.4433 49.3127 24.8296C52.8047 23.1365 56.6671 22.3511 60.5429 22.546C67.5895 22.8722 73.4523 25.7157 78.0748 31.0443C81.3025 34.7243 83.2928 39.3257 83.7645 44.1984C84.1631 48.222 83.8007 52.161 82.0693 55.8866Z" fill="#FFAF20"/>
<path d="M83.7443 44.1945C83.2718 39.3231 81.2816 34.7233 78.0547 31.0443C73.4321 25.7158 67.5855 22.8682 60.5228 22.542C56.6471 22.3492 52.7852 23.1345 49.2925 24.8257C43.6726 27.4417 39.276 32.1222 37.0153 37.8953C35.4046 41.8343 35.0422 45.9223 35.4972 50.1191C35.8608 53.983 37.4317 57.6342 39.9869 60.5547C41.2594 62.0127 42.6042 63.4102 43.8968 64.8481C45.6212 66.6966 46.8982 68.9165 47.6295 71.3366L47.7382 71.7394C47.77 71.8387 47.7778 71.9441 47.761 72.047C47.7442 72.1499 47.7032 72.2474 47.6416 72.3314C47.1853 73.0167 46.9732 73.8359 47.0397 74.6565C47.1062 75.4772 47.4473 76.2516 48.008 76.8544L48.2294 77.1001C47.8102 77.4927 47.4858 77.9755 47.2805 78.512C47.0752 79.0485 46.9946 79.6246 47.0446 80.1968C47.0946 80.7691 47.2741 81.3225 47.5693 81.8152C47.8646 82.3079 48.2679 82.727 48.7489 83.0408C48.7207 83.0811 48.6966 83.1295 48.6684 83.1657C48.252 83.7021 47.9965 84.3457 47.9316 85.0216C47.8667 85.6976 47.9952 86.3781 48.3019 86.9839C48.5783 87.5972 49.0242 88.1187 49.5871 88.4869C50.15 88.8552 50.8064 89.0547 51.479 89.0621C51.5887 89.0645 51.6951 89.1005 51.7837 89.1654C51.8722 89.2302 51.9388 89.3207 51.9742 89.4246C53.6453 92.3567 56.1659 93.9839 59.5523 94.008C62.9387 94.0322 65.548 92.4171 67.2512 89.4367C67.2978 89.3253 67.376 89.23 67.4763 89.1627C67.5765 89.0954 67.6943 89.059 67.815 89.0581C68.3159 89.0348 68.8068 88.9089 69.2571 88.6882C69.7075 88.4674 70.1077 88.1566 70.4331 87.7749C70.7585 87.3932 71.002 86.9487 71.1487 86.469C71.2954 85.9893 71.3421 85.4847 71.2859 84.9862C71.2007 84.2737 70.9222 83.5982 70.4806 83.0328C70.9619 82.7219 71.3657 82.3049 71.6612 81.8139C71.9567 81.3229 72.1359 80.7708 72.1853 80.1998C72.2346 79.6288 72.1527 79.0541 71.9459 78.5197C71.7391 77.9852 71.4128 77.5052 70.992 77.1162C71.141 76.943 71.2819 76.798 71.3946 76.641C71.8188 76.1283 72.0896 75.5063 72.1758 74.8464C72.262 74.1866 72.1601 73.5158 71.8819 72.9114C71.676 72.4896 71.6288 72.0078 71.749 71.5541C71.749 71.4856 71.7852 71.4131 71.8054 71.3487C72.2732 69.4057 73.1428 67.5823 74.3582 65.996C75.5018 64.5339 76.742 63.1444 77.9822 61.7468C79.5606 59.9505 81.0545 58.0898 82.0773 55.8987C83.8007 52.1571 84.1631 48.2181 83.7443 44.1945ZM50.6978 72.5288C52.0306 72.5006 53.3634 72.5288 54.6962 72.5288H68.3868C68.8174 72.5028 69.2436 72.6283 69.5914 72.8835C69.9393 73.1388 70.1869 73.5077 70.2914 73.9263C70.3583 74.1997 70.3609 74.4849 70.2988 74.7594C70.2368 75.0339 70.1118 75.2902 69.9337 75.5082C69.7557 75.7261 69.5294 75.8997 69.2729 76.0152C69.0163 76.1307 68.7363 76.185 68.4552 76.1738C66.4419 76.1738 64.4286 76.1738 62.4152 76.1738H50.7662C50.5283 76.1785 50.2917 76.1364 50.07 76.0497C49.8484 75.963 49.646 75.8335 49.4743 75.6685C49.3027 75.5036 49.1653 75.3065 49.0698 75.0884C48.9744 74.8703 48.9228 74.6356 48.918 74.3976C48.9133 74.1596 48.9554 73.9229 49.0421 73.7012C49.1288 73.4795 49.2582 73.2771 49.4231 73.1054C49.588 72.9337 49.7851 72.7962 50.0031 72.7007C50.2211 72.6053 50.4558 72.5537 50.6937 72.5489L50.6978 72.5288ZM59.9832 92.1433C57.2088 92.3205 54.8573 90.6369 53.9916 89.0863H65.3064C63.9615 90.9712 62.2301 92.0023 59.9832 92.1433ZM69.2444 86.2066C69.0903 86.5202 68.8475 86.7817 68.5462 86.9585C68.2448 87.1354 67.8981 87.2198 67.5492 87.2014H51.781C51.4206 87.2314 51.0596 87.1526 50.7445 86.9753C50.4294 86.7979 50.1747 86.5302 50.0133 86.2066C49.8665 85.9316 49.7942 85.623 49.8034 85.3115C49.8127 84.9999 49.9031 84.6962 50.0659 84.4304C50.2287 84.1646 50.4581 83.946 50.7314 83.7962C51.0047 83.6464 51.3123 83.5707 51.6239 83.5765C54.0882 83.5765 56.5525 83.5765 59.0168 83.5765H59.6208C62.2743 83.5765 64.9279 83.5765 67.5774 83.5765C67.8902 83.5695 68.1995 83.6438 68.475 83.7921C68.7505 83.9405 68.9828 84.1578 69.1491 84.4229C69.3155 84.6879 69.4103 84.9916 69.4241 85.3043C69.438 85.6169 69.3706 85.9278 69.2283 86.2066H69.2444ZM68.3545 81.7077C62.6904 81.7077 57.0236 81.7077 51.3541 81.7077C51.1528 81.7077 50.9514 81.7077 50.7501 81.7077C50.5072 81.7131 50.2657 81.6698 50.0397 81.5806C49.8137 81.4913 49.6079 81.3577 49.4342 81.1878C49.2605 81.0178 49.1226 80.8149 49.0284 80.5908C48.9342 80.3668 48.8857 80.1262 48.8858 79.8832C48.8856 79.6405 48.9345 79.4004 49.0294 79.1771C49.1244 78.9538 49.2634 78.752 49.4383 78.5838C49.6132 78.4157 49.8203 78.2846 50.0471 78.1985C50.2739 78.1124 50.5158 78.0731 50.7582 78.0828C53.7097 78.0828 56.6652 78.0828 59.6168 78.0828H68.3626C69.5102 78.0828 70.3316 78.836 70.3397 79.9033C70.3477 80.9706 69.5061 81.7077 68.3545 81.7077ZM57.08 56.1323H62.1334C62.0529 56.8613 61.9804 57.5541 61.9079 58.2509L60.6999 69.5282C60.6717 69.8182 60.6556 70.1041 60.6033 70.3861C60.6033 70.4787 60.4744 70.6237 60.4019 70.6277C59.8261 70.6479 59.2504 70.6277 58.6343 70.6277C58.1068 65.7543 57.6115 60.9494 57.0961 56.1122L57.08 56.1323ZM81.9364 49.0437C81.6022 53.2606 79.8748 56.817 77.1044 59.9183C75.7233 61.4568 74.3462 63.0155 73.0456 64.6266C71.6642 66.3522 70.6639 68.3507 70.1102 70.4908C70.1102 70.5311 70.0739 70.5754 70.0578 70.6156H62.5079C62.5482 70.1444 62.5763 69.7135 62.6206 69.2825C63.0394 65.2388 63.4595 61.1991 63.8809 57.1634C63.8809 57.0748 63.9011 56.9862 63.9132 56.9016C64.0219 56.0961 64.0219 56.1162 64.8433 56.1162C66.1721 56.1162 67.5089 56.1686 68.8176 55.8423C69.5472 55.6892 70.2263 55.3543 70.7921 54.8688C71.3579 54.3832 71.792 53.7627 72.0542 53.0646C72.3164 52.3666 72.3982 51.6137 72.2921 50.8756C72.1859 50.1375 71.8953 49.4381 71.447 48.8423C71.0458 48.2049 70.4988 47.672 69.8512 47.2876C69.2037 46.9031 68.474 46.6781 67.7224 46.6312C65.85 46.5265 64.1588 47.6663 63.3495 49.519C62.7982 50.8967 62.4746 52.355 62.3911 53.8366C62.3589 54.1669 62.2502 54.2394 61.9321 54.2394C60.3858 54.2394 58.8356 54.2394 57.2894 54.2394H56.9431C56.7498 53.1318 56.6008 52.0926 56.3753 51.0616C56.2472 50.4844 56.054 49.9237 55.7995 49.3901C54.3338 46.2445 50.5891 45.6847 48.2415 48.2422C46.7034 49.9177 46.4416 52.1047 47.5852 53.8809C47.9465 54.4688 48.4423 54.9623 49.0318 55.3209C49.6213 55.6794 50.2876 55.8927 50.9756 55.943C52.1836 56.0639 53.3916 56.0598 54.6278 56.1122H55.2277C55.7311 60.9453 56.2304 65.7785 56.7337 70.6116H56.331H49.7314C49.5461 70.6116 49.369 70.6479 49.2844 70.3861C48.3019 67.164 46.3168 64.6024 44.0498 62.214C42.5691 60.7599 41.2215 59.1761 40.0232 57.4816C38.58 55.2736 37.6816 52.7543 37.4018 50.1312C37.1461 48.0689 37.1461 45.9829 37.4018 43.9206C38.0109 39.2803 40.0508 34.9452 43.2378 31.5185C46.4247 28.0918 50.6003 25.7439 55.1834 24.8015C58.6238 24.1121 62.1777 24.2378 65.5609 25.1685C68.944 26.0992 72.0623 27.809 74.6663 30.1612C77.2704 32.5134 79.2878 35.4426 80.5572 38.7145C81.8266 41.9864 82.3127 45.51 81.9766 49.0035L81.9364 49.0437ZM64.2192 54.2152C64.3561 52.7089 64.5131 51.2227 65.25 49.8774C65.4301 49.5237 65.6904 49.217 66.0101 48.9818C66.3298 48.7466 66.7 48.5895 67.0913 48.5229C67.4825 48.4564 67.8839 48.4823 68.2634 48.5986C68.6428 48.7149 68.9898 48.9184 69.2766 49.1927C69.6116 49.4964 69.8981 49.8495 70.1263 50.2399C70.3325 50.5799 70.4555 50.9638 70.4854 51.3604C70.5152 51.757 70.451 52.155 70.2979 52.5221C70.1449 52.8891 69.9073 53.2148 69.6046 53.4726C69.3019 53.7304 68.9425 53.9131 68.5559 54.0058C68.1822 54.1157 67.7971 54.1819 67.4083 54.2031C66.3573 54.2071 65.3145 54.195 64.2192 54.195V54.2152ZM54.9902 54.2152C53.9432 54.2152 52.9285 54.2152 51.9138 54.2152C51.5756 54.1978 51.2399 54.1478 50.9112 54.0662C48.8576 53.5869 48.0925 51.5731 49.3327 49.8533C50.0857 48.8061 51.2051 48.3026 52.252 48.5765C52.5838 48.6471 52.8978 48.7846 53.1747 48.9805C53.4517 49.1765 53.6857 49.4269 53.8627 49.7163C54.6801 51.0978 54.8492 52.6323 54.9902 54.1991V54.2152Z" fill="#353535"/>
<path d="M25.4911 45.6364H27.9755C28.1079 45.6189 28.2425 45.6299 28.3704 45.6687C28.4982 45.7074 28.6163 45.773 28.7167 45.8611C28.8171 45.9492 28.8976 46.0577 28.9527 46.1794C29.0078 46.3011 29.0364 46.4331 29.0364 46.5667C29.0364 46.7003 29.0078 46.8324 28.9527 46.9541C28.8976 47.0758 28.8171 47.1843 28.7167 47.2724C28.6163 47.3604 28.4982 47.426 28.3704 47.4648C28.2425 47.5036 28.1079 47.5146 27.9755 47.4971H23.1435C23.0323 47.5052 22.9206 47.5052 22.8093 47.4971C22.5755 47.4718 22.36 47.3589 22.2061 47.181C22.0522 47.0032 21.9714 46.7736 21.9799 46.5385C21.9862 46.3035 22.0839 46.0802 22.2524 45.9162C22.4209 45.7522 22.6467 45.6604 22.8818 45.6605C23.7475 45.6605 24.6132 45.6605 25.479 45.6605L25.4911 45.6364Z" fill="#353535"/>
<path d="M58.6866 13.5323C58.6866 12.7267 58.6866 11.8769 58.6866 11.0472C58.6691 10.9148 58.6802 10.7801 58.7189 10.6523C58.7577 10.5244 58.8232 10.4063 58.9113 10.3058C58.9994 10.2054 59.1079 10.1249 59.2295 10.0698C59.3512 10.0146 59.4832 9.98608 59.6167 9.98608C59.7503 9.98608 59.8823 10.0146 60.004 10.0698C60.1256 10.1249 60.2341 10.2054 60.3222 10.3058C60.4102 10.4063 60.4758 10.5244 60.5146 10.6523C60.5533 10.7801 60.5644 10.9148 60.5469 11.0472C60.5469 12.7012 60.5469 14.3579 60.5469 16.0173C60.5662 16.2135 60.5213 16.4108 60.4189 16.5793C60.3165 16.7478 60.1622 16.8785 59.9792 16.9517C59.8159 17.0393 59.6274 17.0679 59.4454 17.0327C59.2635 16.9975 59.0994 16.9006 58.9806 16.7584C58.8166 16.5443 58.7199 16.2864 58.7027 16.0173C58.6665 15.1916 58.7027 14.3619 58.7027 13.5323H58.6866Z" fill="#353535"/>
<path d="M38.3763 24.439C38.3613 24.6307 38.2955 24.8149 38.1859 24.9727C38.0762 25.1305 37.9265 25.2563 37.7521 25.3372C37.577 25.4122 37.383 25.4315 37.1965 25.3926C37.01 25.3537 36.8399 25.2584 36.7092 25.1197L34.7644 23.1744C34.2248 22.6347 33.6812 22.095 33.1538 21.5633C33.0541 21.4814 32.9723 21.3799 32.9134 21.2651C32.8546 21.1503 32.82 21.0246 32.8116 20.8958C32.8033 20.7671 32.8216 20.638 32.8652 20.5166C32.9088 20.3951 32.9769 20.2839 33.0652 20.1899C33.1538 20.0951 33.2616 20.0202 33.3813 19.9701C33.5011 19.92 33.6301 19.8958 33.7599 19.8992C33.8896 19.9027 34.0172 19.9336 34.1341 19.9899C34.2511 20.0463 34.3547 20.1268 34.4382 20.2262C35.6435 21.4183 36.8408 22.6172 38.03 23.8228C38.1708 24.0129 38.2872 24.2199 38.3763 24.439Z" fill="#353535"/>
<path d="M38.3763 68.7227C38.2904 68.9367 38.1767 69.1385 38.0381 69.3228C36.8328 70.5526 35.6248 71.7703 34.4141 72.9759C34.3282 73.0641 34.2255 73.1341 34.1121 73.182C33.9987 73.2298 33.8768 73.2545 33.7538 73.2545C33.6307 73.2545 33.5088 73.2298 33.3954 73.182C33.282 73.1341 33.1793 73.0641 33.0934 72.9759C33.0038 72.8912 32.9325 72.7891 32.8837 72.6759C32.8349 72.5626 32.8098 72.4406 32.8098 72.3174C32.8098 72.1941 32.8349 72.0721 32.8837 71.9589C32.9325 71.8456 33.0038 71.7435 33.0934 71.6588C34.3014 70.4344 35.5174 69.2181 36.7415 68.0098C36.8705 67.8699 37.0407 67.7746 37.2275 67.7376C37.4142 67.7007 37.6078 67.7241 37.7804 67.8044C37.9542 67.8883 38.1017 68.0183 38.2067 68.1802C38.3118 68.3421 38.3705 68.5298 38.3763 68.7227Z" fill="#353535"/>
<path d="M81.8639 67.8043C82.0752 67.8908 82.272 68.009 82.4477 68.1548C83.6114 69.363 84.7631 70.5713 85.9107 71.8199C86.006 71.9071 86.0821 72.0131 86.1342 72.1314C86.1863 72.2496 86.2132 72.3774 86.2132 72.5066C86.2132 72.6358 86.1863 72.7636 86.1342 72.8818C86.0821 73.0001 86.006 73.1061 85.9107 73.1933C85.82 73.2813 85.7119 73.3495 85.5934 73.3934C85.475 73.4373 85.3486 73.4561 85.2225 73.4486C85.0963 73.441 84.9731 73.4072 84.8608 73.3494C84.7484 73.2916 84.6493 73.211 84.5698 73.1128C83.394 71.8722 82.2236 70.629 81.0586 69.3832C80.9261 69.255 80.8373 69.0884 80.8048 68.907C80.7723 68.7255 80.7977 68.5385 80.8774 68.3722C80.9649 68.1887 81.1061 68.0361 81.2823 67.9347C81.4585 67.8333 81.6613 67.7878 81.8639 67.8043Z" fill="#353535"/>
<path d="M93.4887 47.5696C92.6472 47.5696 91.8056 47.5696 90.9681 47.5696C90.8372 47.58 90.7056 47.5627 90.5818 47.5188C90.4581 47.4749 90.3449 47.4054 90.2498 47.3148C90.1548 47.2243 90.0798 47.1147 90.0299 46.9932C89.98 46.8717 89.9563 46.7411 89.9603 46.6098C89.9643 46.4785 89.9959 46.3495 90.0531 46.2313C90.1103 46.1131 90.1917 46.0082 90.2921 45.9236C90.3925 45.839 90.5097 45.7765 90.6358 45.7401C90.762 45.7038 90.8944 45.6946 91.0244 45.7129C92.6673 45.7652 94.3102 45.8136 95.953 45.882C96.6778 45.9143 97.1127 46.4177 96.9758 47.0178C96.9288 47.2344 96.8051 47.4267 96.6275 47.5592C96.4499 47.6917 96.2304 47.7555 96.0094 47.7388H93.4887V47.5696Z" fill="#353535"/>
<path d="M81.739 25.5506C81.1994 25.5224 80.9095 25.3452 80.7606 24.9908C80.6785 24.8254 80.6514 24.6381 80.6833 24.4562C80.7152 24.2744 80.8043 24.1074 80.9377 23.9798C81.5538 23.3515 82.1779 22.7353 82.798 22.111C83.4181 21.4868 83.9456 20.9551 84.5255 20.3792C84.6084 20.2761 84.712 20.1916 84.8296 20.1311C84.9472 20.0706 85.0762 20.0354 85.2082 20.0278C85.3403 20.0202 85.4724 20.0404 85.5962 20.087C85.7199 20.1337 85.8325 20.2058 85.9267 20.2986C86.3294 20.7014 86.2851 21.2411 85.8301 21.7002C84.6704 22.8642 83.5148 24.0322 82.339 25.1841C82.1565 25.3328 81.9546 25.4561 81.739 25.5506Z" fill="#353535"/>
<g clip-path="url(#clip0_421_8)">
<path d="M108.55 67.9099C108.177 67.9142 107.817 67.7704 107.55 67.5099L97.37 57.33C97.1141 57.074 96.9703 56.7269 96.9703 56.365C96.9703 56.003 97.1141 55.6559 97.37 55.4C97.6259 55.144 97.973 55.0002 98.335 55.0002C98.6969 55.0002 99.0441 55.144 99.3 55.4L109.48 65.58C109.671 65.7739 109.799 66.0201 109.849 66.2873C109.899 66.5545 109.869 66.8306 109.762 67.0805C109.655 67.3303 109.475 67.5426 109.247 67.6903C109.019 67.838 108.752 67.9145 108.48 67.9099H108.55Z" fill="#E3ECFF"/>
<path d="M98.37 67.91C97.9969 67.9142 97.6373 67.7704 97.37 67.51C97.1154 67.2534 96.9724 66.9065 96.9724 66.545C96.9724 66.1835 97.1154 65.8366 97.37 65.58L107.58 55.42C107.707 55.2933 107.857 55.1927 108.023 55.1241C108.188 55.0556 108.366 55.0203 108.545 55.0203C108.724 55.0203 108.902 55.0556 109.067 55.1241C109.233 55.1927 109.383 55.2933 109.51 55.42C109.637 55.5467 109.737 55.6972 109.806 55.8627C109.874 56.0283 109.91 56.2058 109.91 56.385C109.91 56.5642 109.874 56.7417 109.806 56.9072C109.737 57.0728 109.637 57.2232 109.51 57.35L99.33 67.53C99.0712 67.7761 98.7271 67.9123 98.37 67.91Z" fill="#E3ECFF"/>
</g>
<g clip-path="url(#clip1_421_8)">
<path d="M11.55 29.9099C11.1769 29.9142 10.8173 29.7704 10.55 29.5099L0.37001 19.33C0.114076 19.074 -0.0297089 18.7269 -0.0297089 18.365C-0.0297089 18.003 0.114076 17.6559 0.37001 17.4C0.625944 17.144 0.973031 17.0002 1.33498 17.0002C1.69692 17.0002 2.04407 17.144 2.3 17.4L12.48 27.58C12.6705 27.7739 12.7991 28.0201 12.8493 28.2873C12.8994 28.5545 12.869 28.8306 12.7617 29.0805C12.6545 29.3303 12.4754 29.5426 12.2471 29.6903C12.0189 29.838 11.7518 29.9145 11.48 29.9099H11.55Z" fill="#E3ECFF"/>
<path d="M1.37001 29.91C0.99688 29.9142 0.637282 29.7704 0.37001 29.51C0.115363 29.2534 -0.0275726 28.9065 -0.0275726 28.545C-0.0275726 28.1835 0.115363 27.8366 0.37001 27.58L10.58 17.42C10.7067 17.2933 10.8571 17.1927 11.0227 17.1241C11.1883 17.0556 11.3658 17.0203 11.545 17.0203C11.7242 17.0203 11.9017 17.0556 12.0673 17.1241C12.2329 17.1927 12.3833 17.2933 12.51 17.42C12.6368 17.5467 12.7372 17.6972 12.8058 17.8627C12.8744 18.0283 12.9097 18.2058 12.9097 18.385C12.9097 18.5642 12.8744 18.7417 12.8058 18.9072C12.7372 19.0728 12.6368 19.2232 12.51 19.35L2.32997 29.53C2.07119 29.7761 1.72712 29.9123 1.37001 29.91Z" fill="#E3ECFF"/>
</g>
<circle cx="92" cy="5" r="5" fill="#E3ECFF"/>
<circle cx="13" cy="78" r="5" fill="#E3ECFF"/>
<defs>
<clipPath id="clip0_421_8">
<rect width="12.91" height="12.91" fill="white" transform="translate(97 55)"/>
</clipPath>
<clipPath id="clip1_421_8">
<rect width="12.91" height="12.91" fill="white" transform="translate(0 17)"/>
</clipPath>
</defs>
</svg>
