<svg width="117" height="85" viewBox="0 0 117 85" fill="none" xmlns="http://www.w3.org/2000/svg">
<path d="M88.3932 4.21187C87.2261 2.869 85.5713 2.03976 83.7905 1.90544C83.6091 1.90544 83.4278 1.88291 83.2464 1.88291H77.6778C74.7983 1.88291 72.0594 1.83336 69.4157 1.78381C66.772 1.73426 64.0422 1.68921 61.1717 1.68921C60.4235 1.68921 59.5438 1.65768 58.6096 1.63065C57.5077 1.59011 56.2833 1.54956 55.0227 1.54956C50.5651 1.54956 45.6496 2.0586 44.1395 5.03623C42.9741 7.28861 43.2598 17.6495 43.4094 23.1858C43.4548 24.8346 43.491 26.1319 43.491 26.9428C43.4541 27.9212 43.518 28.9008 43.6815 29.8664C43.7587 30.287 43.8866 30.6969 44.0624 31.0872C45.2051 33.5648 48.0983 34.7405 52.8914 34.691C54.864 34.691 56.9408 34.6324 59.1356 34.5964C62.1829 34.5423 65.3163 34.4882 68.2049 34.4702C68.2367 33.1864 68.2639 32.3125 68.2639 32.2944C68.2656 32.2296 68.2803 32.1657 68.3071 32.1065C68.3339 32.0472 68.3722 31.9939 68.4198 31.9495C68.4675 31.9051 68.5235 31.8705 68.5847 31.8478C68.6459 31.825 68.711 31.8145 68.7763 31.8169C68.9054 31.8216 69.0277 31.8759 69.1173 31.9683C69.207 32.0607 69.2571 32.1841 69.257 32.3125C69.189 34.4612 69.1436 37.065 69.1391 39.3579H75.4876C77.832 37.2406 80.5211 34.736 83.0832 32.2944L83.455 31.9386C83.5006 31.8871 83.5564 31.8456 83.6189 31.8167C83.6815 31.7878 83.7494 31.7721 83.8184 31.7706C83.8873 31.7691 83.9559 31.7818 84.0196 31.8079C84.0834 31.8341 84.141 31.8731 84.1889 31.9224C84.2367 31.9718 84.2737 32.0305 84.2975 32.0949C84.3214 32.1592 84.3315 32.2277 84.3273 32.2961C84.3231 32.3645 84.3047 32.4313 84.2732 32.4923C84.2417 32.5532 84.1978 32.607 84.1443 32.6503C84.1443 32.6503 83.3598 33.3981 82.1853 34.5018C82.5345 34.5018 82.8836 34.4612 83.2282 34.4297C84.0194 34.3752 84.8024 34.2363 85.5636 34.0152C89.6765 32.7764 89.6448 29.1952 89.6448 25.7265C89.6448 25.4382 89.6448 25.1544 89.6448 24.8751C89.6448 23.2895 89.6448 21.7218 89.6448 20.1136C89.6448 16.9828 89.6766 13.7439 89.6766 10.5636C89.6766 10.3653 89.6766 10.1671 89.6766 9.96442C89.6856 7.99135 89.7128 5.73897 88.3932 4.21187Z" fill="white"/>
<path d="M58.4237 16.2621C58.2884 15.6889 57.9564 15.1802 57.4848 14.8235C57.0132 14.4668 56.4313 14.2842 55.839 14.3071C55.1235 14.3007 54.4336 14.5713 53.9156 15.0615C53.3975 15.5518 53.092 16.2231 53.0638 16.9334C53.0292 17.4058 53.1409 17.8775 53.3841 18.285C53.6273 18.6925 53.9903 19.0162 54.4242 19.2128C54.9594 19.4468 55.5484 19.5327 56.1287 19.4613C56.7091 19.3899 57.2592 19.164 57.7208 18.8073C58.085 18.5047 58.3474 18.0988 58.473 17.644C58.5987 17.1891 58.5815 16.707 58.4237 16.2621Z" fill="#FFAF20"/>
<path d="M69.1072 16.2216C68.9456 15.5811 68.5535 15.0215 68.005 14.6484C67.4565 14.2754 66.7895 14.1147 66.13 14.1967C65.4704 14.2788 64.8638 14.5979 64.4249 15.0937C63.9859 15.5896 63.7448 16.228 63.7472 16.8883C63.7116 17.3615 63.823 17.8342 64.0662 18.2426C64.3095 18.651 64.6729 18.9755 65.1076 19.1722C65.6438 19.4052 66.2333 19.4905 66.8142 19.4192C67.3951 19.3479 67.9459 19.1225 68.4089 18.7668C68.7712 18.4628 69.032 18.0567 69.1567 17.6022C69.2814 17.1476 69.2642 16.6662 69.1072 16.2216Z" fill="#FFAF20"/>
<path d="M75.7278 19.1722C76.2633 19.4053 76.852 19.4907 77.4322 19.4193C78.0124 19.348 78.5625 19.1226 79.0245 18.7668C79.3924 18.4668 79.6587 18.0619 79.7876 17.6068C79.9166 17.1517 79.9019 16.6682 79.7455 16.2216C79.5839 15.5811 79.1919 15.0215 78.6434 14.6484C78.0949 14.2754 77.4279 14.1147 76.7683 14.1967C76.1087 14.2788 75.5022 14.5979 75.0632 15.0937C74.6242 15.5896 74.3831 16.228 74.3855 16.8883C74.3484 17.3595 74.4571 17.8307 74.697 18.2389C74.9369 18.647 75.2965 18.9727 75.7278 19.1722Z" fill="#FFAF20"/>
<path d="M88.5201 41.6419C87.527 40.6824 85.9988 40.3806 84.2439 40.2905C83.3007 40.2499 82.2895 40.2905 81.2601 40.2905C80.5527 40.2905 79.8181 40.331 79.0971 40.331C74.4143 40.331 69.7285 40.331 65.0396 40.331L40.7883 40.2815H36.9112H36.5801C34.5894 40.2815 32.0455 40.3581 30.8393 41.9572C29.9006 43.2096 29.9777 45.1376 30.0457 46.8404C30.0457 47.2638 30.0774 47.6647 30.0774 48.0567V56.0436C30.0774 57.7328 30.0774 59.4266 30.0774 61.1159C30.0774 64.062 30.1001 67.0892 30.1001 70.0939C30.1001 70.4678 30.1001 70.8462 30.1001 71.2246C30.1001 74.459 31.4106 75.7293 34.7481 75.7293H39.9675C40.183 74.7576 40.309 73.7685 40.3439 72.7742C40.3439 72.7093 40.3568 72.6451 40.3819 72.5852C40.407 72.5254 40.4439 72.471 40.4903 72.4254C40.5366 72.3797 40.5917 72.3437 40.6522 72.3192C40.7127 72.2948 40.7774 72.2826 40.8427 72.2832C40.908 72.2832 40.9726 72.296 41.0329 72.321C41.0932 72.3459 41.1479 72.3825 41.1938 72.4286C41.2398 72.4746 41.2761 72.5293 41.3006 72.5894C41.3252 72.6495 41.3376 72.7138 41.337 72.7787V72.8192C41.1612 76.6006 39.9424 80.2612 37.8136 83.4009C39.1513 83.1171 42.3482 81.9549 45.9034 80.18C50.6875 77.8015 54.0658 75.3959 55.1994 73.5355L55.3173 73.3283C55.3402 73.2604 55.3776 73.1983 55.4269 73.1462C55.4762 73.0941 55.5363 73.0532 55.6031 73.0264C55.6698 72.9995 55.7417 72.9873 55.8136 72.9907C55.8855 72.994 55.9559 73.0128 56.0198 73.0457C56.0837 73.0786 56.1398 73.1249 56.184 73.1813C56.2282 73.2378 56.2596 73.3031 56.276 73.3727C56.2924 73.4424 56.2934 73.5147 56.279 73.5848C56.2646 73.6549 56.2351 73.7211 56.1925 73.7787C55.7667 74.5055 55.2298 75.162 54.6008 75.7248H64.5771C63.9482 75.162 63.4112 74.5055 62.9855 73.7787C62.9429 73.7211 62.9134 73.6549 62.8989 73.5848C62.8845 73.5147 62.8855 73.4424 62.9019 73.3727C62.9184 73.3031 62.9498 73.2378 62.994 73.1813C63.0382 73.1249 63.0942 73.0786 63.1582 73.0457C63.2221 73.0128 63.2924 72.994 63.3644 72.9907C63.4363 72.9873 63.5081 72.9995 63.5749 73.0264C63.6416 73.0532 63.7017 73.0941 63.751 73.1462C63.8004 73.1983 63.8378 73.2604 63.8606 73.3283L63.9785 73.5355C65.1303 75.3959 68.5132 77.8015 73.27 80.18C76.8388 81.9549 80.0267 83.1171 81.3644 83.4009C79.2364 80.2608 78.0176 76.6005 77.841 72.8192V72.7967C77.8404 72.7319 77.8527 72.6675 77.8773 72.6074C77.9018 72.5473 77.9382 72.4927 77.9842 72.4466C78.0301 72.4005 78.0848 72.364 78.1451 72.339C78.2053 72.314 78.27 72.3012 78.3353 72.3012C78.4006 72.3006 78.4653 72.3129 78.5258 72.3373C78.5863 72.3617 78.6413 72.3978 78.6877 72.4434C78.7341 72.4891 78.7709 72.5434 78.796 72.6032C78.8211 72.6631 78.8341 72.7273 78.8341 72.7922C78.8689 73.7851 78.9949 74.7727 79.2104 75.7428H84.9876C85.5218 75.7532 86.0563 75.7337 86.5883 75.6842C87.208 75.659 87.8066 75.454 88.3103 75.0946C88.814 74.7351 89.2006 74.2369 89.4225 73.6616C89.7275 72.6595 89.8534 71.6121 89.7944 70.5669C89.8155 62.4043 89.8352 54.2417 89.8533 46.0791C89.8987 43.9889 89.4497 42.5383 88.5201 41.6419Z" fill="#0269F7"/>
<path d="M64.5998 45.8538C64.0066 45.2913 63.2913 44.8716 62.509 44.6271C61.7267 44.3827 60.8984 44.3199 60.0879 44.4438C56.0429 45.079 55.136 47.6196 54.7596 50.3C54.6191 51.2865 54.7052 51.9892 55.0045 52.3316C55.3038 52.674 55.7391 52.6785 56.2697 52.683C56.3884 52.6815 56.5068 52.6694 56.6234 52.6469C56.8486 52.6149 57.065 52.5382 57.2598 52.4213C57.4545 52.3044 57.6237 52.1498 57.757 51.9667C57.831 51.8085 57.8583 51.6327 57.8358 51.4597C57.8133 51.2867 57.742 51.1236 57.6301 50.9892C57.3922 50.6287 57.2972 50.1936 57.3634 49.7676C57.4295 49.3417 57.6522 48.9552 57.9883 48.6828C58.6902 48.071 59.5894 47.729 60.5232 47.7187C60.9755 47.7038 61.4216 47.8263 61.8019 48.0701C63.6974 49.4215 62.4912 51.264 61.2124 53.2371L60.9812 53.6019C60.5246 54.274 60.0215 54.9137 59.4756 55.5165C58.3782 56.7868 57.3398 57.9896 57.6074 59.3139C57.647 59.572 57.761 59.8131 57.9357 60.0082C58.1103 60.2032 58.338 60.3439 58.5914 60.4131C58.6733 60.4398 58.7566 60.4624 58.8408 60.4807C59.335 60.5834 59.8487 60.5412 60.3191 60.3591C60.3191 60.3005 60.3191 60.2329 60.3191 60.1563C60.226 59.1128 60.5053 58.0699 61.1082 57.2102C61.3757 56.7868 61.8064 56.2417 62.3098 55.6111C63.7427 53.8092 65.7108 51.327 65.9375 49.1873C65.9906 48.5666 65.8973 47.9422 65.6651 47.3636C65.4329 46.7849 65.0682 46.268 64.5998 45.8538Z" fill="white"/>
<path d="M60.011 64.1385C59.7403 63.9539 59.4296 63.835 59.1041 63.7916C59.0166 63.7848 58.9286 63.7848 58.8411 63.7916C58.4275 63.771 58.0196 63.8948 57.6883 64.1417C57.357 64.3885 57.1231 64.7428 57.0272 65.1431C56.9408 65.4004 56.92 65.6751 56.9667 65.9424C57.0134 66.2097 57.1261 66.4613 57.2948 66.6747C57.3622 66.7574 57.4382 66.8329 57.5215 66.8999C57.845 67.1507 58.2311 67.3096 58.6383 67.3595C59.0456 67.4095 59.4589 67.3488 59.8342 67.1837C60.1284 67.0433 60.3728 66.8173 60.5348 66.5357C60.6968 66.2541 60.7687 65.9302 60.7411 65.6071C60.7526 65.3212 60.6919 65.0369 60.5644 64.7804C60.4368 64.5239 60.2466 64.3032 60.011 64.1385Z" fill="white"/>
<path d="M55.3353 13.3565C54.4374 13.4462 53.6053 13.8651 53.0016 14.5315C52.3979 15.1978 52.0659 16.0638 52.0704 16.9603C52.0425 17.6139 52.2086 18.2613 52.548 18.8219C52.8875 19.3825 53.3852 19.8317 53.9795 20.1136C54.5185 20.3594 55.105 20.4854 55.6981 20.483C56.6559 20.4926 57.5878 20.1745 58.3373 19.5821C58.8485 19.1617 59.2217 18.5992 59.4091 17.9668C59.5965 17.3344 59.5896 16.6608 59.3893 16.0324C59.1677 15.1665 58.6302 14.4133 57.8811 13.9188C57.132 13.4244 56.2247 13.224 55.3353 13.3565ZM57.7025 18.8163C57.2408 19.1729 56.6907 19.3989 56.1103 19.4703C55.53 19.5416 54.941 19.4558 54.4058 19.2217C53.9719 19.0252 53.6089 18.7014 53.3657 18.2939C53.1225 17.8865 53.0107 17.4148 53.0454 16.9423C53.0736 16.2321 53.3792 15.5607 53.8972 15.0705C54.4153 14.5802 55.1051 14.3096 55.8206 14.316C56.4129 14.2932 56.9948 14.4757 57.4664 14.8325C57.938 15.1892 58.2699 15.6978 58.4053 16.2711C58.561 16.7148 58.5772 17.195 58.4516 17.648C58.3261 18.101 58.0648 18.5053 57.7025 18.8073V18.8163Z" fill="#353535"/>
<path d="M55.8251 13.3205C55.6615 13.3202 55.4979 13.3293 55.3353 13.3475C54.4374 13.4371 53.6053 13.8561 53.0016 14.5224C52.3979 15.1888 52.0659 16.0548 52.0704 16.9513C52.0425 17.6049 52.2086 18.2523 52.548 18.8129C52.8875 19.3735 53.3852 19.8227 53.9795 20.1046C54.5185 20.3503 55.105 20.4764 55.6981 20.474C56.6559 20.4836 57.5878 20.1654 58.3373 19.5731C58.8485 19.1527 59.2217 18.5902 59.4091 17.9578C59.5965 17.3254 59.5896 16.6518 59.3893 16.0233C59.1981 15.2347 58.7394 14.5355 58.0903 14.0433C57.4412 13.5511 56.6413 13.2958 55.8251 13.3205ZM55.6981 19.4875C55.2522 19.4913 54.811 19.3975 54.4058 19.2127C53.9719 19.0162 53.6089 18.6924 53.3657 18.2849C53.1225 17.8774 53.0107 17.4058 53.0454 16.9333C53.0736 16.2231 53.3792 15.5517 53.8972 15.0614C54.4153 14.5712 55.1051 14.3006 55.8206 14.307C56.4129 14.2841 56.9948 14.4667 57.4664 14.8234C57.938 15.1802 58.2699 15.6888 58.4053 16.2621C58.561 16.7087 58.5754 17.192 58.4465 17.647C58.3176 18.1019 58.0516 18.5068 57.6843 18.8073C57.1143 19.2553 56.4068 19.4954 55.68 19.4875H55.6981Z" fill="#353535"/>
<path d="M70.0688 15.9784C69.8245 15.1281 69.2824 14.3925 68.5401 13.9043C67.7979 13.4162 66.9045 13.2077 66.0211 13.3165C65.1377 13.4252 64.3225 13.844 63.7227 14.4974C63.1228 15.1507 62.7778 15.9955 62.7499 16.8793C62.723 17.5333 62.89 18.1808 63.2302 18.7413C63.5704 19.3019 64.0687 19.7509 64.6635 20.0326C65.2023 20.2792 65.789 20.4053 66.3821 20.402C67.3384 20.4109 68.2686 20.0928 69.0167 19.5011C69.5237 19.0835 69.8943 18.5257 70.0816 17.8985C70.2689 17.2713 70.2645 16.603 70.0688 15.9784ZM68.4 18.7623C67.9371 19.118 67.3862 19.3434 66.8054 19.4147C66.2245 19.486 65.635 19.4007 65.0988 19.1677C64.6641 18.9709 64.3007 18.6465 64.0574 18.2381C63.8141 17.8297 63.7028 17.357 63.7384 16.8838C63.736 16.2235 63.9771 15.5851 64.416 15.0892C64.855 14.5933 65.4616 14.2743 66.1211 14.1922C66.7807 14.1102 67.4477 14.2708 67.9962 14.6439C68.5447 15.017 68.9368 15.5766 69.0984 16.2171C69.2553 16.6617 69.2726 17.1431 69.1479 17.5977C69.0232 18.0522 68.7624 18.4583 68.4 18.7623Z" fill="#353535"/>
<path d="M66.5091 13.2799C66.3454 13.2797 66.1819 13.2887 66.0193 13.307C65.1206 13.3955 64.2874 13.814 63.6828 14.4805C63.0781 15.147 62.7455 16.0135 62.7499 16.9107C62.723 17.5647 62.89 18.2122 63.2302 18.7728C63.5704 19.3333 64.0687 19.7823 64.6635 20.0641C65.2023 20.3106 65.789 20.4367 66.3821 20.4335C67.3384 20.4423 68.2686 20.1242 69.0167 19.5325C69.5289 19.1129 69.9028 18.5505 70.0903 17.9178C70.2779 17.2851 70.2704 16.6112 70.0688 15.9828C69.8785 15.1945 69.4206 14.4954 68.7723 14.0032C68.124 13.5109 67.3247 13.2555 66.5091 13.2799ZM66.3776 19.4469C65.9318 19.4502 65.4906 19.3564 65.0852 19.1721C64.6505 18.9753 64.287 18.6509 64.0438 18.2425C63.8005 17.8341 63.6892 17.3614 63.7248 16.8882C63.7182 16.2343 63.9617 15.6022 64.4061 15.1197C64.8506 14.6372 65.4628 14.3403 66.1191 14.289C66.2453 14.271 66.3726 14.262 66.5 14.262C67.0928 14.2402 67.6747 14.4237 68.1462 14.7812C68.6177 15.1386 68.9495 15.6478 69.0848 16.2215C69.2423 16.6642 69.2611 17.1438 69.1389 17.5973C69.0167 18.0508 68.7591 18.4569 68.4 18.7622C67.8272 19.2083 67.119 19.4481 66.3912 19.4424L66.3776 19.4469Z" fill="#353535"/>
<path d="M75.3015 20.0641C75.8419 20.3104 76.4301 20.4365 77.0247 20.4335C77.9809 20.4423 78.9112 20.1242 79.6593 19.5325C80.1705 19.1121 80.5437 18.5497 80.7311 17.9173C80.9186 17.2849 80.9117 16.6113 80.7114 15.9828C80.4671 15.1324 79.9249 14.3969 79.1827 13.9087C78.4405 13.4206 77.547 13.2121 76.6637 13.3209C75.7803 13.4296 74.9651 13.8484 74.3653 14.5018C73.7654 15.1551 73.4204 15.9999 73.3924 16.8837C73.3591 17.5418 73.5226 18.195 73.8623 18.761C74.2021 19.3269 74.7028 19.7803 75.3015 20.0641ZM76.7843 14.289C77.4326 14.1781 78.099 14.316 78.6488 14.6748C79.1986 15.0336 79.5906 15.5864 79.7455 16.2215C79.9018 16.6681 79.9165 17.1515 79.7876 17.6067C79.6587 18.0618 79.3923 18.4667 79.0245 18.7667C78.5624 19.1224 78.0123 19.3479 77.4322 19.4192C76.852 19.4906 76.2632 19.4052 75.7278 19.1721C75.2931 18.9753 74.9297 18.6509 74.6864 18.2425C74.4431 17.8341 74.3318 17.3614 74.3674 16.8882C74.3622 16.2309 74.6093 15.5964 75.0582 15.1136C75.5072 14.6308 76.1244 14.3359 76.7843 14.289Z" fill="#353535"/>
<path d="M77.1474 13.2801C76.9852 13.28 76.8232 13.289 76.6621 13.3071C75.7634 13.3957 74.9302 13.8141 74.3255 14.4806C73.7209 15.1471 73.3882 16.0137 73.3927 16.9109C73.3648 17.5645 73.5309 18.2118 73.8703 18.7725C74.2097 19.3331 74.7075 19.7823 75.3017 20.0642C75.8422 20.3106 76.4303 20.4366 77.0249 20.4336C77.9812 20.4425 78.9114 20.1244 79.6595 19.5326C80.1707 19.1122 80.5439 18.5498 80.7314 17.9174C80.9188 17.285 80.9119 16.6114 80.7116 15.9829C80.5211 15.1939 80.0626 14.4942 79.4133 14.0018C78.7641 13.5095 77.9638 13.2546 77.1474 13.2801ZM77.0204 19.4471C76.5745 19.4509 76.1332 19.3571 75.728 19.1723C75.2933 18.9755 74.9299 18.651 74.6866 18.2426C74.4434 17.8342 74.332 17.3616 74.3676 16.8884C74.4058 16.1808 74.715 15.5146 75.2319 15.0262C75.7487 14.5379 76.4341 14.2645 77.1474 14.2621C77.7395 14.2405 78.3208 14.4242 78.7916 14.7817C79.2623 15.1393 79.5932 15.6483 79.7276 16.2217C79.8839 16.6682 79.8986 17.1517 79.7697 17.6068C79.6408 18.0619 79.3744 18.4668 79.0066 18.7668C78.4355 19.2129 77.7287 19.4528 77.0022 19.4471H77.0204Z" fill="#353535"/>
<path d="M89.2143 40.9346C87.4004 39.1643 84.3985 39.2498 81.2333 39.3354C80.5304 39.358 79.8139 39.3715 79.0974 39.376H76.9254C77.0025 39.3129 77.0705 39.2498 77.143 39.1778C78.5306 37.9164 79.8955 36.6416 81.0519 35.574C81.8001 35.547 82.5438 35.5064 83.2829 35.4478C84.1444 35.3862 84.997 35.2352 85.8269 34.9974C90.6472 33.5468 90.6245 29.2268 90.6064 25.7581C90.6064 25.4743 90.6064 25.1905 90.6064 24.9158C90.6064 23.3301 90.6064 21.7399 90.6064 20.1542C90.6064 17.0234 90.6382 13.7845 90.6382 10.5997C90.6382 10.406 90.6382 10.2078 90.6382 10.0096C90.6608 7.84728 90.688 5.40121 89.1235 3.5903C88.3928 2.74929 87.4877 2.07515 86.4702 1.61407C85.4527 1.153 84.3468 0.915886 83.2285 0.918986H77.66C74.7895 0.918986 72.0551 0.869433 69.4159 0.819881C66.7768 0.770329 64.0333 0.725285 61.1538 0.725285C60.4237 0.725285 59.5485 0.693752 58.628 0.662219C53.3859 0.491039 45.4775 0.211742 43.2101 4.60837C42.0266 6.9103 42.149 15.0729 42.3712 23.2355C42.4166 24.8752 42.4529 26.1681 42.4483 26.9609C42.4483 28.4024 42.4483 30.0376 43.1104 31.5197C44.4073 34.3307 47.4954 35.7001 52.5334 35.7001H52.8599C54.8325 35.6776 56.9094 35.6415 59.1087 35.601C62.1424 35.5469 65.2622 35.4929 68.1327 35.4794C68.1327 36.4074 68.1009 37.457 68.0918 38.5156C68.0918 38.8219 68.0918 39.1057 68.0918 39.385H65.0264L40.7796 39.3354H36.8979C34.6578 39.3354 31.5969 39.3354 30.0324 41.4076C28.8806 42.9437 28.9622 45.052 29.0393 46.9169C29.0393 47.3359 29.0711 47.7278 29.0711 48.0972V56.0886C29.0711 57.7779 29.0711 59.4716 29.0711 61.1609C29.0711 64.4719 29.0711 67.8955 29.0711 71.265C29.0711 75.058 30.8215 76.7518 34.7167 76.7518H39.7049C39.0978 79.1203 38.0538 81.3565 36.6259 83.3468C36.5363 83.4481 36.4779 83.573 36.4578 83.7064C36.4377 83.8398 36.4567 83.9761 36.5125 84.0991C36.5836 84.2245 36.6903 84.3264 36.8193 84.3921C36.9483 84.4578 37.094 84.4843 37.238 84.4685C39.0882 84.4685 48.4205 80.68 53.4041 76.7518H65.6477C70.6358 80.6845 79.9635 84.473 81.8137 84.473C81.9577 84.4883 82.1031 84.4615 82.2319 84.3958C82.3608 84.3302 82.4677 84.2286 82.5393 84.1036C82.595 83.9806 82.614 83.8443 82.5939 83.7109C82.5738 83.5775 82.5155 83.4526 82.4259 83.3513C80.996 81.3605 79.9518 79.1225 79.3469 76.7518H84.8882C85.4686 76.7518 86.0309 76.7518 86.5932 76.6888C88.3799 76.5041 89.6813 75.5626 90.2572 74.031C90.6098 72.9205 90.7633 71.7571 90.7107 70.5938C90.7318 62.4312 90.7515 54.2672 90.7696 46.1016C90.8921 43.705 90.3434 42.0293 89.2143 40.9346ZM69.23 32.308C69.2301 32.1797 69.1801 32.0563 69.0904 31.9639C69.0007 31.8714 68.8785 31.8172 68.7494 31.8125C68.6841 31.8101 68.619 31.8206 68.5578 31.8433C68.4966 31.8661 68.4405 31.9007 68.3929 31.9451C68.3452 31.9895 68.3069 32.0428 68.2801 32.102C68.2534 32.1612 68.2387 32.2251 68.2369 32.29C68.2369 32.29 68.2097 33.191 68.178 34.4658C65.2985 34.4658 62.165 34.5379 59.1087 34.5919C56.9139 34.628 54.837 34.664 52.8644 34.6865C48.0713 34.7406 45.1555 33.5649 44.0355 31.0828C43.8596 30.6925 43.7317 30.2826 43.6546 29.862C43.491 28.8964 43.4272 27.9168 43.4641 26.9384C43.4641 26.1275 43.4278 24.8302 43.3825 23.1814C43.2328 17.6316 42.929 7.30221 44.1125 5.03182C45.6407 2.05418 50.5563 1.54514 54.9957 1.54514C56.2563 1.54514 57.4807 1.58569 58.5826 1.62623C59.5168 1.65326 60.3965 1.68479 61.1447 1.68479C64.0152 1.68479 66.7451 1.73435 69.3888 1.77939C72.0325 1.82444 74.7714 1.8785 77.6509 1.8785H83.2195C83.4009 1.8785 83.5822 1.8785 83.7636 1.90102C85.5444 2.03535 87.1992 2.86458 88.3663 4.20745C89.6859 5.73456 89.6586 7.98693 89.6405 9.97352C89.6405 10.1762 89.6405 10.3744 89.6405 10.5727C89.6405 13.753 89.6405 16.9919 89.6088 20.1227C89.6088 21.7084 89.6088 23.2985 89.6088 24.8842C89.6088 25.1635 89.6088 25.4473 89.6088 25.7356C89.6088 29.2043 89.6451 32.7855 85.5276 34.0243C84.7664 34.2454 83.9834 34.3843 83.1922 34.4388C82.8476 34.4703 82.4984 34.4928 82.1492 34.5109C83.3237 33.4072 84.0901 32.6729 84.1082 32.6594C84.1618 32.6161 84.2057 32.5623 84.2372 32.5014C84.2687 32.4404 84.2871 32.3736 84.2912 32.3052C84.2954 32.2368 84.2853 32.1683 84.2615 32.1039C84.2377 32.0396 84.2007 31.9809 84.1529 31.9315C84.105 31.8822 84.0474 31.8432 83.9836 31.817C83.9199 31.7909 83.8513 31.7782 83.7824 31.7797C83.7134 31.7812 83.6455 31.7969 83.5829 31.8258C83.5204 31.8547 83.4646 31.8962 83.419 31.9477L83.0471 32.3035C80.4851 34.7451 77.796 37.2588 75.4516 39.367H69.1031C69.1031 37.0741 69.153 34.4703 69.221 32.3216L69.23 32.308ZM89.8355 70.5533C89.8945 71.5985 89.7686 72.646 89.4636 73.6481C89.2418 74.2234 88.8551 74.7215 88.3515 75.081C87.8478 75.4404 87.2491 75.6454 86.6295 75.6707C86.0974 75.7201 85.5631 75.7397 85.0288 75.7292H79.2516C79.0361 74.7591 78.9101 73.7715 78.8752 72.7786C78.8752 72.7138 78.8623 72.6496 78.8372 72.5897C78.8121 72.5298 78.7753 72.4755 78.7289 72.4298C78.6825 72.3842 78.6275 72.3481 78.567 72.3237C78.5065 72.2993 78.4417 72.287 78.3764 72.2876C78.3111 72.2876 78.2465 72.3005 78.1862 72.3254C78.126 72.3504 78.0713 72.387 78.0253 72.433C77.9794 72.4791 77.9431 72.5338 77.9185 72.5939C77.8939 72.654 77.8816 72.7183 77.8822 72.7832V72.8192C78.0588 76.6004 79.2776 80.2608 81.4056 83.4008C80.0452 83.117 76.8709 81.9548 73.3112 80.1799C68.5317 77.8014 65.1715 75.3959 64.0197 73.5354L63.9018 73.3282C63.8789 73.2604 63.8416 73.1983 63.7922 73.1462C63.7429 73.0941 63.6828 73.0532 63.616 73.0263C63.5493 72.9995 63.4775 72.9873 63.4056 72.9906C63.3336 72.994 63.2633 73.0127 63.1993 73.0456C63.1354 73.0786 63.0794 73.1248 63.0351 73.1813C62.9909 73.2377 62.9596 73.303 62.9431 73.3727C62.9267 73.4423 62.9257 73.5147 62.9401 73.5848C62.9545 73.6549 62.984 73.721 63.0266 73.7787C63.4524 74.5054 63.9894 75.162 64.6183 75.7248H54.642C55.271 75.162 55.8079 74.5054 56.2337 73.7787C56.2763 73.721 56.3058 73.6549 56.3202 73.5848C56.3346 73.5147 56.3336 73.4423 56.3172 73.3727C56.3008 73.303 56.2694 73.2377 56.2251 73.1813C56.1809 73.1248 56.1249 73.0786 56.061 73.0456C55.997 73.0127 55.9267 72.994 55.8548 72.9906C55.7828 72.9873 55.711 72.9995 55.6442 73.0263C55.5775 73.0532 55.5174 73.0941 55.4681 73.1462C55.4188 73.1983 55.3814 73.2604 55.3585 73.3282L55.2406 73.5354C54.0888 75.3959 50.7059 77.8014 45.9445 80.1799C42.3803 81.9548 39.1925 83.117 37.8547 83.4008C39.9835 80.2612 41.2024 76.6006 41.3782 72.8192V72.7967C41.3788 72.7318 41.3664 72.6675 41.3419 72.6074C41.3173 72.5473 41.281 72.4926 41.235 72.4466C41.1891 72.4005 41.1344 72.3639 41.0741 72.339C41.0138 72.314 40.9491 72.3011 40.8839 72.3011C40.8186 72.3006 40.7538 72.3128 40.6933 72.3372C40.6328 72.3616 40.5778 72.3977 40.5314 72.4434C40.485 72.489 40.4483 72.5433 40.4231 72.6032C40.398 72.6631 40.385 72.7273 40.3851 72.7922C40.3501 73.7865 40.2242 74.7756 40.0087 75.7473H34.7893C31.4518 75.7473 30.1503 74.4814 30.1413 71.2425C30.1413 70.8641 30.1413 70.4857 30.1413 70.1118C30.1413 67.1072 30.1413 64.08 30.1186 61.1339C30.1186 59.4446 30.1186 57.7508 30.1186 56.0616V48.0746C30.1186 47.6827 30.1186 47.2818 30.0869 46.8584C30.0188 45.1556 29.9418 43.2275 30.8804 41.9752C32.0776 40.376 34.6306 40.2994 36.6213 40.2994H36.9523H40.8294L65.0808 40.349C69.7606 40.349 74.4464 40.349 79.1383 40.349C79.8593 40.349 80.5939 40.349 81.3013 40.3085C82.3306 40.2814 83.3419 40.2544 84.2851 40.3085C86.04 40.3805 87.5682 40.6824 88.5613 41.6599C89.5543 42.6374 89.9216 44.0023 89.9216 46.0835C89.8854 54.2341 89.8567 62.3952 89.8355 70.5668V70.5533Z" fill="#353535" stroke="#353535" stroke-linecap="round" stroke-linejoin="round"/>
<path d="M59.2126 62.8096C58.5171 62.6974 57.8046 62.8492 57.2165 63.2347C56.6285 63.6203 56.2079 64.2114 56.0383 64.8908C55.8877 65.3807 55.8857 65.9039 56.0324 66.395C56.1792 66.886 56.4683 67.3233 56.8636 67.6522C57.4416 68.1139 58.1627 68.3622 58.9042 68.3549C59.3631 68.3572 59.8168 68.2588 60.2329 68.0667C60.6987 67.847 61.0889 67.4955 61.3543 67.0563C61.6198 66.6171 61.7487 66.1098 61.7248 65.598C61.7286 64.9065 61.4737 64.2383 61.0094 63.723C60.5452 63.2078 59.9048 62.8822 59.2126 62.8096ZM59.8338 67.1747C59.4586 67.3397 59.0453 67.4005 58.638 67.3505C58.2307 67.3006 57.8447 67.1417 57.5211 66.8909C57.4378 66.8239 57.3618 66.7484 57.2944 66.6657C57.1257 66.4523 57.013 66.2007 56.9663 65.9334C56.9196 65.6661 56.9404 65.3914 57.0269 65.1341C57.1227 64.7338 57.3566 64.3795 57.6879 64.1327C58.0192 63.8858 58.4271 63.762 58.8407 63.7826C58.9283 63.7758 59.0162 63.7758 59.1037 63.7826C59.4292 63.826 59.7399 63.9449 60.0107 64.1295C60.2474 64.2918 60.4395 64.5104 60.5694 64.7653C60.6993 65.0202 60.7629 65.3034 60.7544 65.589C60.7827 65.9152 60.7097 66.2421 60.5451 66.5257C60.3804 66.8092 60.1322 67.0358 59.8338 67.1747Z" fill="#353535"/>
<path d="M58.8319 62.7871C58.1972 62.7685 57.5754 62.9675 57.0708 63.3506C56.5663 63.7336 56.2099 64.2775 56.0613 64.8908C55.9107 65.3807 55.9086 65.9039 56.0554 66.3949C56.2021 66.886 56.4912 67.3233 56.8866 67.6522C57.4645 68.1138 58.1856 68.3622 58.9272 68.3549C59.386 68.3572 59.8397 68.2588 60.2558 68.0666C60.7217 67.847 61.1119 67.4955 61.3773 67.0563C61.6428 66.6171 61.7716 66.1098 61.7477 65.598C61.751 64.903 61.4929 64.2318 61.024 63.716C60.5551 63.2002 59.9092 62.877 59.2128 62.8096C59.086 62.8027 58.9588 62.8027 58.8319 62.8096V62.7871ZM58.9272 67.3684C58.4174 67.3738 57.9212 67.2052 57.5214 66.8909C57.4381 66.8239 57.3621 66.7484 57.2947 66.6657C57.126 66.4523 57.0133 66.2007 56.9666 65.9333C56.9199 65.666 56.9407 65.3914 57.0272 65.134C57.123 64.7338 57.3569 64.3795 57.6882 64.1327C58.0195 63.8858 58.4274 63.762 58.841 63.7826C58.9286 63.7758 59.0165 63.7758 59.104 63.7826C59.4295 63.826 59.7402 63.9448 60.0109 64.1295C60.2477 64.2918 60.4397 64.5104 60.5696 64.7653C60.6995 65.0202 60.7631 65.3034 60.7546 65.589C60.7822 65.9122 60.7103 66.236 60.5483 66.5176C60.3863 66.7992 60.142 67.0252 59.8477 67.1657C59.5635 67.296 59.2538 67.3622 58.9408 67.3594L58.9272 67.3684Z" fill="#353535"/>
<path d="M59.9291 43.4662C55.2358 44.205 54.1838 47.2547 53.7756 50.1378C53.5897 51.4531 53.7439 52.3901 54.2291 52.9532C54.8186 53.6379 55.7074 53.6425 56.238 53.647C56.7031 53.6557 57.163 53.5486 57.5757 53.3354C57.9884 53.1221 58.3407 52.8095 58.6005 52.4262C58.7639 52.1137 58.8361 51.7621 58.8088 51.411C58.7816 51.06 58.656 50.7235 58.4464 50.4396C58.3884 50.3568 58.3475 50.2634 58.3264 50.1648C58.3053 50.0662 58.3042 49.9644 58.3232 49.8654C58.3422 49.7663 58.3809 49.6721 58.4371 49.5881C58.4933 49.5041 58.5658 49.4322 58.6504 49.3765C59.3215 48.7458 60.6593 48.4755 61.2079 48.8584C62.2282 49.5702 61.7838 50.4711 60.3554 52.6829L60.1196 53.0478C59.6882 53.6798 59.214 54.2818 58.7003 54.8497C57.494 56.2462 56.247 57.6877 56.6098 59.4806C56.9091 60.9762 58.1879 61.4987 59.3578 61.4987H59.5619C60.3191 61.4582 61.2261 61.1879 61.2851 60.5617C61.2963 60.4028 61.2963 60.2432 61.2851 60.0842C61.202 59.2456 61.4275 58.4055 61.9199 57.7192C62.1602 57.3408 62.5774 56.8183 63.0626 56.2057C64.5726 54.3046 66.6404 51.7009 66.908 49.2774C66.9774 48.5087 66.8652 47.7345 66.5802 47.0166C66.2952 46.2986 65.8453 45.6567 65.2664 45.142C64.5649 44.4761 63.719 43.9787 62.7937 43.6882C61.8685 43.3977 60.8885 43.3218 59.9291 43.4662ZM65.9421 49.1647C65.7018 51.3045 63.7337 53.7821 62.3144 55.5885C61.811 56.2192 61.3803 56.7642 61.1127 57.1877C60.5099 58.0473 60.2305 59.0902 60.3237 60.1338C60.3237 60.2104 60.3237 60.2779 60.3237 60.3365C59.8532 60.5186 59.3396 60.5609 58.8454 60.4581C58.7612 60.4398 58.6779 60.4173 58.596 60.3906C58.3426 60.3213 58.1149 60.1807 57.9402 59.9856C57.7656 59.7906 57.6516 59.5495 57.6119 59.2914C57.3444 57.967 58.3828 56.7642 59.4802 55.4939C60.0261 54.8912 60.5292 54.2514 60.9858 53.5794L61.217 53.2145C62.4958 51.2414 63.702 49.3765 61.8065 48.0476C61.4262 47.8038 60.9801 47.6812 60.5277 47.6962C59.594 47.7064 58.6948 48.0484 57.9929 48.6602C57.6568 48.9327 57.4341 49.3192 57.3679 49.7451C57.3018 50.171 57.3968 50.6062 57.6346 50.9666C57.7466 51.101 57.8179 51.2642 57.8404 51.4372C57.8629 51.6102 57.8355 51.786 57.7616 51.9442C57.6282 52.1273 57.4591 52.2819 57.2644 52.3988C57.0696 52.5156 56.8532 52.5923 56.628 52.6244C56.5114 52.6469 56.393 52.6589 56.2742 52.6604C55.7437 52.6604 55.2811 52.6289 55.009 52.3091C54.737 51.9892 54.6236 51.264 54.7642 50.2774C55.1406 47.6196 56.0475 45.0789 60.0924 44.4212C60.903 44.2974 61.7313 44.3601 62.5136 44.6046C63.2959 44.849 64.0112 45.2687 64.6044 45.8312C65.0727 46.2454 65.4374 46.7624 65.6696 47.341C65.9018 47.9196 65.9951 48.5441 65.9421 49.1647Z" fill="#353535"/>
<path d="M60.895 43.3896C60.5716 43.3905 60.2486 43.4161 59.9291 43.4662C55.2358 44.205 54.1838 47.2547 53.7756 50.1378C53.5897 51.4531 53.7439 52.3901 54.2291 52.9532C54.8186 53.6379 55.7074 53.6424 56.238 53.647C56.7029 53.6549 57.1626 53.5474 57.5751 53.3342C57.9877 53.1211 58.3401 52.8089 58.6005 52.4262C58.7639 52.1137 58.8361 51.7621 58.8088 51.411C58.7816 51.06 58.656 50.7235 58.4464 50.4396C58.3884 50.3568 58.3475 50.2634 58.3264 50.1648C58.3053 50.0662 58.3042 49.9644 58.3232 49.8654C58.3422 49.7663 58.3809 49.6721 58.4371 49.5881C58.4933 49.5041 58.5658 49.4322 58.6504 49.3765C59.1655 48.9352 59.8204 48.688 60.5005 48.6782C60.7492 48.6665 60.9956 48.7293 61.2079 48.8584C62.2282 49.5702 61.7838 50.4711 60.3554 52.6829L60.1196 53.0478C59.6882 53.6797 59.214 54.2818 58.7003 54.8497C57.494 56.2462 56.247 57.6877 56.6098 59.4806C56.9091 60.9762 58.1879 61.4987 59.3578 61.4987H59.5619C60.3191 61.4582 61.2261 61.1879 61.2851 60.5617C61.2963 60.4028 61.2963 60.2432 61.2851 60.0842C61.202 59.2456 61.4275 58.4055 61.9199 57.7192C62.1602 57.3408 62.5774 56.8183 63.0626 56.2056C64.5726 54.3046 66.6404 51.7009 66.908 49.2774C66.9774 48.5087 66.8652 47.7345 66.5802 47.0166C66.2952 46.2986 65.8453 45.6567 65.2664 45.142C64.0829 44.0219 62.5116 43.3962 60.8769 43.3942L60.895 43.3896ZM56.2788 52.6604C55.7482 52.6604 55.2857 52.6289 55.0136 52.309C54.7415 51.9892 54.6281 51.2639 54.7687 50.2774C55.1451 47.6196 56.052 45.0789 60.0969 44.4212C60.3652 44.3777 60.6368 44.3566 60.9086 44.3582C62.2865 44.3602 63.611 44.8875 64.6089 45.8312C65.0782 46.2409 65.4453 46.7531 65.6813 47.3277C65.9174 47.9022 66.016 48.5234 65.9693 49.1422C65.729 51.282 63.761 53.7596 62.3416 55.566C61.8383 56.1966 61.4075 56.7417 61.1399 57.1652C60.5371 58.0248 60.2578 59.0677 60.3509 60.1113C60.3509 60.1878 60.3509 60.2554 60.3509 60.314C60.0507 60.4375 59.7279 60.4973 59.4032 60.4897C59.225 60.4889 59.0472 60.4708 58.8726 60.4356C58.7884 60.4173 58.7051 60.3947 58.6232 60.368C58.3698 60.2988 58.142 60.1581 57.9674 59.9631C57.7928 59.768 57.6788 59.5269 57.6392 59.2689C57.3716 57.9445 58.4101 56.7417 59.5074 55.4714C60.0533 54.8686 60.5564 54.2289 61.0129 53.5569L61.2442 53.192C62.523 51.2189 63.7292 49.3539 61.8337 48.025C61.4534 47.7813 61.0073 47.6587 60.5549 47.6737C59.6212 47.6839 58.722 48.0259 58.0201 48.6377C57.6839 48.9101 57.4613 49.2966 57.3952 49.7226C57.329 50.1485 57.424 50.5837 57.6618 50.9441C57.7737 51.0785 57.8451 51.2416 57.8676 51.4146C57.89 51.5876 57.8627 51.7634 57.7888 51.9216C57.6554 52.1048 57.4864 52.2594 57.2916 52.3762C57.0968 52.4931 56.8804 52.5698 56.6551 52.6018C56.5416 52.6245 56.4262 52.6366 56.3105 52.6379L56.2788 52.6604Z" fill="#353535"/>
<g clip-path="url(#clip0_356_13219)">
<path d="M115.55 25.9099C115.177 25.9142 114.817 25.7704 114.55 25.5099L104.37 15.33C104.114 15.074 103.97 14.7269 103.97 14.365C103.97 14.003 104.114 13.6559 104.37 13.4C104.626 13.144 104.973 13.0002 105.335 13.0002C105.697 13.0002 106.044 13.144 106.3 13.4L116.48 23.58C116.671 23.7739 116.799 24.0201 116.849 24.2873C116.899 24.5545 116.869 24.8306 116.762 25.0805C116.655 25.3303 116.475 25.5426 116.247 25.6903C116.019 25.838 115.752 25.9145 115.48 25.9099H115.55Z" fill="#E3ECFF"/>
<path d="M105.37 25.91C104.997 25.9142 104.637 25.7704 104.37 25.51C104.115 25.2534 103.972 24.9065 103.972 24.545C103.972 24.1835 104.115 23.8366 104.37 23.58L114.58 13.42C114.707 13.2933 114.857 13.1927 115.023 13.1241C115.188 13.0556 115.366 13.0203 115.545 13.0203C115.724 13.0203 115.902 13.0556 116.067 13.1241C116.233 13.1927 116.383 13.2933 116.51 13.42C116.637 13.5467 116.737 13.6972 116.806 13.8627C116.874 14.0283 116.91 14.2058 116.91 14.385C116.91 14.5642 116.874 14.7417 116.806 14.9072C116.737 15.0728 116.637 15.2232 116.51 15.35L106.33 25.53C106.071 25.7761 105.727 25.9123 105.37 25.91Z" fill="#E3ECFF"/>
</g>
<g clip-path="url(#clip1_356_13219)">
<path d="M11.55 67.9099C11.1769 67.9142 10.8173 67.7704 10.55 67.5099L0.370026 57.33C0.114092 57.074 -0.0296936 56.7269 -0.0296936 56.365C-0.0296936 56.003 0.114092 55.6559 0.370026 55.4C0.62596 55.144 0.973046 55.0002 1.33499 55.0002C1.69694 55.0002 2.04408 55.144 2.30002 55.4L12.48 65.58C12.6706 65.7739 12.7991 66.0201 12.8493 66.2873C12.8994 66.5545 12.869 66.8306 12.7617 67.0805C12.6545 67.3303 12.4754 67.5426 12.2472 67.6903C12.0189 67.838 11.7519 67.9145 11.48 67.9099H11.55Z" fill="#E3ECFF"/>
<path d="M1.37003 67.91C0.996895 67.9142 0.637297 67.7704 0.370026 67.51C0.115379 67.2534 -0.0275574 66.9065 -0.0275574 66.545C-0.0275574 66.1835 0.115379 65.8366 0.370026 65.58L10.58 55.42C10.7067 55.2933 10.8572 55.1927 11.0227 55.1241C11.1883 55.0556 11.3658 55.0203 11.545 55.0203C11.7242 55.0203 11.9017 55.0556 12.0673 55.1241C12.2329 55.1927 12.3833 55.2933 12.51 55.42C12.6368 55.5467 12.7372 55.6972 12.8058 55.8627C12.8744 56.0283 12.9098 56.2058 12.9098 56.385C12.9098 56.5642 12.8744 56.7417 12.8058 56.9072C12.7372 57.0728 12.6368 57.2232 12.51 57.35L2.32999 67.53C2.07121 67.7761 1.72714 67.9123 1.37003 67.91Z" fill="#E3ECFF"/>
</g>
<circle cx="21" cy="27" r="5" fill="#E3ECFF"/>
<circle cx="105" cy="59" r="5" fill="#E3ECFF"/>
<defs>
<clipPath id="clip0_356_13219">
<rect width="12.91" height="12.91" fill="white" transform="translate(104 13)"/>
</clipPath>
<clipPath id="clip1_356_13219">
<rect width="12.91" height="12.91" fill="white" transform="translate(0 55)"/>
</clipPath>
</defs>
</svg>
