<svg width="1440" height="4883" viewBox="0 0 1440 4883" fill="none" xmlns="http://www.w3.org/2000/svg">
<path d="M409.5 1759C758 1981 1340 1681 1287.5 1981C1250.2 2194.12 1118.5 2036.5 1179.5 1961.5C1240.5 1886.5 1473 2160 1223.5 2324" stroke="#E3ECFF" stroke-width="30"/>
<path d="M-59 9C203.5 202.5 38 405 203.5 443.5C369 482 325.881 293 203.5 293C9.5 293 -5.64635 662.101 149.5 708.5C310 756.5 298.5 614 417 614C569.5 614 603 802 738 810C873 818 889 616 1042 624.5C1195 633 1326 856.5 1453.5 787.5" stroke="#E3ECFF" stroke-width="3" stroke-dasharray="6 6"/>
<path d="M-28.5 1517C3 1855.5 307.5 1838 186.5 1943.5C94.8044 2023.45 165.5 2164 215.5 2122C265.5 2080 -52.5 1947 -68 2349.5" stroke="#E3ECFF" stroke-width="3" stroke-dasharray="6 6"/>
<path d="M1458.5 2491C1440.5 2691 1299 2715 1230.5 2707.5C1162 2700 1291 2595 1306 2670.5C1321 2746 1264.5 2915.5 1458.5 2938" stroke="#E3ECFF" stroke-width="3" stroke-dasharray="6 6"/>
<path d="M-14.5 3590C101 3671.5 232.5 3815.5 133 3967C33.5 4118.5 38.5 4264.5 101 4333.5C163.5 4402.5 194 4361.5 191.5 4333.5C189 4305.5 69 4337.5 89.5 4438C110 4538.5 204.5 4719 107.5 4799.5C10.5 4880 3 4683 107.5 4754C212 4825 338 4848 433.5 4820C529 4792 1005.5 4739 1129 4889" stroke="#E3ECFF" stroke-width="3" stroke-dasharray="6 6"/>
<path d="M1391.5 145.5C1379.67 178.5 1347.4 253.3 1313 288.5" stroke="#FFE5B7" stroke-width="3"/>
<path d="M243 870.5C203 876.667 119.2 910.6 104 997" stroke="#FFE5B7" stroke-width="3"/>
<path d="M724.5 1326.5C631.5 1322.5 572 1266.5 439.5 1331" stroke="#FFE5B7" stroke-width="3"/>
<path d="M715.5 1821C768.667 1824.67 899.6 1828.3 998 1813.5" stroke="#FFE5B7" stroke-width="3"/>
<path d="M1320.5 2001C1344 2030.33 1383.3 2112.6 1352.5 2207" stroke="#FFE5B7" stroke-width="3"/>
<path d="M74.5 2626C80.3333 2662 99.4 2739 129 2759" stroke="#FFE5B7" stroke-width="3"/>
<path d="M392 3614.5C427.5 3627.67 524.7 3652.9 629.5 3648.5" stroke="#FFE5B7" stroke-width="3"/>
<path d="M1234.5 3788C1253.33 3819.17 1282.1 3901.8 1246.5 3983" stroke="#FFE5B7" stroke-width="3"/>
<path d="M1202.5 4452C1227.17 4464.83 1284.4 4502.8 1316 4552" stroke="#FFE5B7" stroke-width="3"/>
<path d="M1306.5 3094.5C1322.17 3120.67 1342.4 3189.7 1298 3256.5" stroke="#FFE5B7" stroke-width="3"/>
<path d="M1288 461C1292.67 497.667 1294 589.3 1262 662.5" stroke="#FFE5B7" stroke-width="3"/>
<path d="M1466.5 5.99561C1406 175.496 1360.5 373.5 1206.01 355.496C1113.91 344.763 1117.93 234.835 1206.01 246C1348 264 1403.01 824.5 1058.01 824.5C799.655 824.5 909.004 573.996 737.504 573.996C566.004 573.996 642.5 833 364.5 833C271 833 77 845.5 77 1025.5C77 1238.81 580.008 1198.5 809.008 1136.5C1038.01 1074.5 1356.55 1056.1 1351.5 1181C1344 1366.5 911.049 1354.12 628.5 1284C425 1233.5 132 1451.5 312 1687.5C338.428 1722.15 372.275 1747.59 412 1766.34M1202.01 2344.5C993.506 2468.5 868.508 2272.5 596.508 2360.5C324.508 2448.5 256.994 2309 141.994 2445.5C53.7427 2550.25 118.5 2844 285.5 2785C392 2747.38 315.994 2618 199.494 2713C94.0836 2798.96 88.5 3072.29 316 3035C587.5 2990.5 1156.5 2951.13 1281.5 3035C1397 3112.5 1353.76 3300.5 1247 3313C1025 3339 1039 3053.5 653 3135.5C351.302 3180.34 169 3206.5 169 3433C169 3649.57 544 3709.5 818.5 3659C1234.5 3582.47 1307.25 3823 1287.5 3934C1235.78 4224.6 754.5 4001 494 4143.5C351.97 4221.19 407.5 4547 803.5 4422.5C1286.11 4270.77 1419 4629 1371.5 4708C1324 4787 1173.01 4703.5 1269.51 4614.5C1366.01 4525.5 1482 4542.5 1488 4406" stroke="#E3ECFF" stroke-width="30"/>
</svg>
