<svg width="72" height="74" viewBox="0 0 72 74" fill="none" xmlns="http://www.w3.org/2000/svg">
<g clip-path="url(#clip0_356_12619)">
<path d="M21.9008 33.0624C26.2188 33.0624 29.7193 29.5401 29.7193 25.1951C29.7193 20.8502 26.2188 17.3279 21.9008 17.3279C17.5827 17.3279 14.0822 20.8502 14.0822 25.1951C14.0822 29.5401 17.5827 33.0624 21.9008 33.0624Z" fill="#0269F7"/>
<path d="M16.8574 39.4414H27.438C29.7043 39.4414 31.8777 40.3473 33.4802 41.9598C35.0827 43.5722 35.983 45.7592 35.983 48.0396V51.6209H8.31241V48.0475C8.31138 46.9177 8.53164 45.7988 8.96061 44.7547C9.38957 43.7106 10.0188 42.7618 10.8124 41.9626C11.606 41.1633 12.5483 40.5293 13.5856 40.0967C14.6228 39.6641 15.7346 39.4414 16.8574 39.4414Z" fill="#0269F7"/>
<path d="M6.26894 50.0249C6.16964 47.5664 6.53025 45.2919 7.79501 43.2462C9.92472 39.7727 13.037 37.9269 17.0848 37.8243C20.278 37.7428 23.4739 37.7717 26.6672 37.8243C32.7323 37.9032 37.4568 42.6835 37.5587 48.7996C37.5587 49.2886 37.5587 49.7777 37.5587 50.4114H40.4933C41.9932 50.4114 43.4906 50.4114 44.9905 50.4114C46.2239 50.4114 46.9399 51.0004 46.9425 51.989C46.9452 52.9777 46.2239 53.5667 44.9931 53.5667H16.536C13.7321 53.5667 10.9308 53.5667 8.12688 53.5667C3.37357 53.5483 0.0261315 50.1642 0.00783944 45.3708C-0.00261315 36.1222 -0.00261315 26.8727 0.00783944 17.6224C0.00783944 12.8894 3.38664 9.49223 8.07985 9.47119C16.1963 9.47119 24.3127 9.45016 32.4291 9.50012C33.0873 9.52646 33.7096 9.80934 34.1643 10.2889C34.8594 11.1277 34.2087 12.3925 33.1007 12.5923C32.7773 12.6306 32.4512 12.6412 32.126 12.6239H8.36467C5.03291 12.6239 3.13838 14.5223 3.13838 17.8538C3.13838 27.0042 3.13838 36.1555 3.13838 45.3077C3.13838 47.6242 4.19933 49.2729 6.26894 50.0249ZM12.5248 50.3614C12.5248 49.7987 12.5248 49.3438 12.5248 48.8863C12.5248 48.4288 12.5248 47.9687 12.5248 47.5111C12.5483 46.37 13.1703 45.6705 14.1214 45.6837C15.0726 45.6968 15.6292 46.3857 15.6501 47.4796C15.6658 48.4209 15.6501 49.3622 15.6501 50.3456H28.1671C28.1671 49.3833 28.1671 48.4735 28.1671 47.5611C28.1802 46.3989 28.7655 45.6968 29.7115 45.6837C30.6574 45.6705 31.2793 46.3778 31.2793 47.5243C31.2793 48.4604 31.2793 49.3991 31.2793 50.3246H34.3916C34.3916 49.5963 34.4282 48.9416 34.3916 48.2895C34.1486 44.3611 30.9161 41.0901 27.0173 40.9823C23.5993 40.8902 20.1761 40.8745 16.7607 40.9823C12.0832 41.1374 8.58419 45.7152 9.50663 50.3562L12.5248 50.3614Z" fill="#353535"/>
<path d="M40.6893 22.1003C37.496 21.627 35.9987 19.8864 35.9856 16.7573C35.9856 12.8553 35.9856 8.95232 35.9856 5.0485C35.9856 1.97733 37.9481 0.00787845 41.0055 0.00524902C47.0349 0.00524902 53.0643 0.00524902 59.0937 0.00524902C62.2112 0.00524902 64.1423 1.96155 64.1475 5.11423C64.1475 9.04786 64.1475 12.9832 64.1475 16.9204C64.1475 20.1151 62.2112 22.0425 59.0127 22.0478C55.9474 22.0478 52.8848 22.0267 49.8196 22.0688C49.316 22.0902 48.8287 22.2542 48.4137 22.5421C46.7413 23.7385 45.1107 24.9927 43.4723 26.2391C42.8948 26.6782 42.3042 26.9622 41.5804 26.6045C40.8565 26.2469 40.6527 25.5791 40.6736 24.8034C40.7102 23.9225 40.6893 23.039 40.6893 22.1003ZM43.9009 21.9768C45.0742 21.0959 46.109 20.244 47.2248 19.5182C47.7544 19.1639 48.3691 18.9595 49.0043 18.9266C52.4014 18.8688 55.7985 18.9056 59.1747 18.8951C60.3689 18.8951 61.0169 18.3324 61.0222 17.2227C61.0431 13.0893 61.0431 8.9567 61.0222 4.825C61.0222 3.77322 60.4081 3.16582 59.3681 3.1632C53.1749 3.14742 46.9826 3.14742 40.7912 3.1632C39.7459 3.1632 39.1397 3.77848 39.1371 4.825C39.1162 8.95495 39.1162 13.0867 39.1371 17.2201C39.1371 18.2719 39.7512 18.8372 40.7886 18.8951C43.6003 19.0607 43.6003 19.0607 43.9009 21.9768Z" fill="#353535"/>
<path d="M56.3891 56.5117C58.8794 56.701 61.4298 56.6169 63.8496 57.1349C68.4304 58.1157 71.7805 62.4332 71.9634 67.1399C72.0314 68.8411 72.0026 70.5581 71.9869 72.2515C71.9869 73.3217 71.3284 74.0106 70.4191 74C69.5097 73.9895 68.9034 73.3032 68.8721 72.2226C68.8146 70.2268 68.9583 68.2022 68.6682 66.2432C68.1299 62.5988 64.9524 59.9326 61.3018 59.8564C58.0145 59.7985 54.7245 59.7985 51.4319 59.8564C49.4221 59.9064 47.5095 60.7368 46.0945 62.1739C44.6795 63.6109 43.8719 65.5431 43.8407 67.5658C43.812 69.0725 43.8407 70.5818 43.8407 72.0884C43.8407 73.298 43.2005 74.0342 42.2284 74C41.2563 73.9659 40.6815 73.2638 40.7259 72.0911C40.8121 69.7088 40.6632 67.2661 41.144 64.9601C42.1344 60.2087 46.4853 56.8351 51.3117 56.7063C53.0051 56.6616 54.7088 56.7063 56.3943 56.7063L56.3891 56.5117Z" fill="#353535"/>
<path d="M31.3029 25.2162C31.2918 27.7195 30.2958 30.1164 28.5328 31.8825C26.7698 33.6486 24.3833 34.6401 21.8955 34.6401C19.4078 34.629 17.0258 33.6268 15.2706 31.8528C13.5154 30.0788 12.53 27.6774 12.53 25.1742C12.5404 22.6705 13.5361 20.2729 15.2992 18.5062C17.0623 16.7395 19.4492 15.7477 21.9374 15.7477C24.4255 15.7588 26.808 16.7614 28.5632 18.536C30.3185 20.3105 31.3036 22.7125 31.3029 25.2162ZM21.9348 31.4927C23.5796 31.4824 25.1545 30.8224 26.3203 29.6548C27.4861 28.4872 28.1493 26.9054 28.1671 25.2504C28.1775 23.5772 27.5271 21.9683 26.3589 20.7775C25.1907 19.5867 23.6002 18.9115 21.9374 18.9004C20.2772 18.9004 18.6848 19.5627 17.5092 20.7422C16.3335 21.9217 15.6706 23.5221 15.6658 25.1926C15.6686 26.8631 16.3295 28.4643 17.5036 29.6453C18.6778 30.8263 20.2694 31.4906 21.9295 31.4927H21.9348Z" fill="#353535"/>
<path d="M65.7232 44.0324C65.7364 46.5374 64.7607 48.9452 63.0104 50.7266C61.2601 52.508 58.8785 53.5172 56.3891 53.5325C53.9026 53.5424 51.5135 52.5613 49.7438 50.8037C47.9741 49.0462 46.9679 46.6552 46.9452 44.1533C46.9396 42.9036 47.1801 41.6652 47.6527 40.5094C48.1253 39.3537 48.8206 38.3036 49.6986 37.4196C50.5765 36.5357 51.6198 35.8354 52.7681 35.3593C53.9164 34.8831 55.1471 34.6405 56.3891 34.6453C58.8578 34.6646 61.2201 35.6596 62.9664 37.4157C64.7126 39.1718 65.7027 41.5483 65.7232 44.0324ZM62.5875 44.0692C62.5778 42.3964 61.9085 40.796 60.7266 39.6195C59.5447 38.4431 57.947 37.787 56.2845 37.7954C54.6217 37.8114 53.0331 38.4912 51.8683 39.6855C50.7035 40.8797 50.0578 42.4906 50.0731 44.1639C50.0957 45.8197 50.7643 47.4003 51.9346 48.5646C53.1049 49.729 54.6832 50.3837 56.329 50.3877C57.1528 50.387 57.9684 50.223 58.7292 49.9051C59.49 49.5871 60.1811 49.1215 60.763 48.5347C61.3449 47.948 61.8063 47.2516 62.1207 46.4854C62.435 45.7192 62.5963 44.8982 62.5953 44.0692H62.5875Z" fill="#353535"/>
<path d="M54.7768 28.3321C54.7768 27.3145 54.7533 26.2969 54.7768 25.282C54.8003 24.267 55.4562 23.6228 56.3447 23.6307C57.2331 23.6386 57.876 24.2986 57.889 25.3083C57.9117 27.3417 57.9117 29.3751 57.889 31.4085C57.8734 32.4077 57.2044 33.0703 56.3211 33.0624C55.4379 33.0546 54.8055 32.3893 54.7794 31.3822C54.7533 30.3752 54.7768 29.3497 54.7768 28.3321Z" fill="#353535"/>
<path d="M50.0783 70.0743C50.0783 70.8263 50.0992 71.5836 50.0783 72.3356C50.0417 73.3401 49.4015 74.0027 48.5104 74C47.6193 73.9974 46.9739 73.3374 46.9425 72.333C46.9164 70.8237 46.9164 69.3153 46.9425 67.8077C46.9608 66.8007 47.6115 66.1433 48.5104 66.1433C49.4094 66.1433 50.0313 66.8033 50.0783 67.8104C50.0992 68.565 50.0783 69.3197 50.0783 70.0743Z" fill="#353535"/>
<path d="M65.7258 70.0927C65.7258 70.8447 65.7494 71.602 65.7258 72.354C65.6866 73.3532 65.0333 74.0131 64.1579 74C63.2825 73.9868 62.6397 73.3242 62.6214 72.3145C62.5979 70.8052 62.5953 69.2959 62.6214 67.7893C62.6397 66.7901 63.3061 66.1301 64.1893 66.1433C65.0725 66.1564 65.6971 66.8164 65.7284 67.8287C65.7467 68.5834 65.7258 69.338 65.7258 70.0927Z" fill="#353535"/>
<path d="M45.3773 11.1093C45.351 11.5232 45.1654 11.9104 44.86 12.1888C44.5545 12.4672 44.1533 12.6148 43.7414 12.6002C43.3308 12.5738 42.9467 12.3874 42.6705 12.0805C42.3944 11.7736 42.2479 11.3706 42.2624 10.9568C42.2847 10.542 42.4687 10.1528 42.7745 9.87367C43.0803 9.59454 43.4831 9.44803 43.8956 9.46595C44.3066 9.49172 44.6915 9.67788 44.9682 9.9848C45.2449 10.2917 45.3917 10.6952 45.3773 11.1093Z" fill="#353535"/>
<path d="M50.094 12.5923C49.6826 12.5923 49.2878 12.4297 48.9945 12.1395C48.7012 11.8493 48.5329 11.4548 48.5261 11.0409C48.526 10.6275 48.6873 10.2305 48.9751 9.93544C49.263 9.64039 49.6544 9.47084 50.0652 9.46326C50.4766 9.4632 50.8715 9.6258 51.1648 9.91601C51.4581 10.2062 51.6263 10.6008 51.6331 11.0146C51.6332 11.4281 51.472 11.825 51.1841 12.1201C50.8963 12.4151 50.5048 12.5847 50.094 12.5923Z" fill="#353535"/>
<path d="M57.8942 10.9778C57.9041 11.3928 57.7511 11.7949 57.4684 12.0971C57.1857 12.3993 56.796 12.5772 56.3838 12.5923C55.9715 12.6016 55.5722 12.4469 55.2723 12.162C54.9725 11.877 54.7963 11.4846 54.782 11.0699C54.7728 10.6554 54.9261 10.254 55.2087 9.95232C55.4914 9.65069 55.8807 9.47313 56.2924 9.45804C56.7043 9.44878 57.1033 9.60303 57.403 9.88744C57.7028 10.1718 57.8792 10.5635 57.8942 10.9778Z" fill="#353535"/>
</g>
<defs>
<clipPath id="clip0_356_12619">
<rect width="72" height="74" fill="white"/>
</clipPath>
</defs>
</svg>
