<svg width="78" height="73" viewBox="0 0 78 73" fill="none" xmlns="http://www.w3.org/2000/svg">
<g clip-path="url(#clip0_356_13358)">
<path d="M33.1006 43.5789H44.8938C44.8938 43.5789 47.6863 32.3548 53.8382 24.9107C59.99 17.4666 52.3516 0.394946 38.9083 1.67842C25.465 2.96189 20.1932 12.7925 23.0082 21.4439C25.8232 30.0954 33.786 33.407 33.1006 43.5789Z" fill="#FFAF20"/>
<path d="M76.0706 34.3971H73.2951C73.2951 33.9232 73.2951 33.455 73.2951 32.9867C73.2951 31.596 73.2951 30.2872 73.2951 28.9586C73.3329 28.5921 73.25 28.2232 73.0591 27.9081C72.8682 27.5929 72.5797 27.3487 72.2374 27.2125C68.2884 25.3931 64.8387 24.3437 61.3975 23.9093C60.1762 23.7542 58.9238 23.6498 57.7306 23.5511L56.3739 23.4382C58.3484 15.0548 56.0326 8.39197 49.4633 3.63325C43.4327 -0.7362 36.5954 -1.08034 30.2122 2.65725C22.4328 7.21287 19.6234 14.2424 21.8546 23.5539L20.9322 23.6103C20.0183 23.6667 19.0734 23.726 18.1454 23.8247C14.3234 24.2281 10.7834 25.5002 7.82737 26.6935C7.51427 26.8176 7.24913 26.9191 7.01784 27.0066C5.51724 27.5707 5.44389 27.6892 5.45235 29.5143C5.45235 29.7089 5.45235 29.9233 5.45235 30.1602C5.45235 31.1673 5.45235 32.1743 5.45235 33.2095V34.3915H1.99421C0.45412 34.3915 0.0197372 34.84 0.0197372 36.366C0.0197372 47.9145 0.0197372 59.4629 0.0197372 71.0114C0.0197372 72.5684 0.440038 72.9859 1.98012 72.9859H76.0735C77.5628 72.9859 78.0169 72.5346 78.0169 71.0593V36.3519C78 34.8654 77.5487 34.4084 76.0706 34.3971ZM33.8593 47.1331C33.6469 47.1608 33.4317 47.1086 33.2557 46.9864C33.1257 46.7841 33.0717 46.5422 33.1034 46.3038C33.1034 45.6465 33.2275 45.5281 33.8988 45.5281H35.9946H40.5415C41.7281 45.5281 42.9146 45.5281 44.1012 45.5281C44.7753 45.5281 44.8938 45.6466 44.8966 46.3066C44.9309 46.5442 44.8767 46.7862 44.7443 46.9864C44.5683 47.1086 44.3531 47.1608 44.1407 47.1331C40.7305 47.1416 37.2695 47.1416 33.8593 47.1331ZM53.8297 18.7331C53.7144 22.2103 52.3656 25.5331 50.0246 28.1067C46.7526 31.8161 44.7612 36.0501 44.1012 40.6904C44.0419 41.1107 44.0025 41.5366 43.9601 41.9738C43.9601 42.1064 43.9348 42.239 43.9207 42.3744H43.0745V31.3478C43.2117 31.3333 43.3469 31.304 43.4778 31.2604C44.1773 31.0178 44.5102 30.4734 44.4425 29.6863C44.3748 28.8993 43.9094 28.4339 43.1958 28.4057H42.9842C41.6613 28.3493 40.9308 28.3211 40.4851 28.7555C40.0394 29.1899 40.0112 29.8415 40.0281 31.1362C40.0648 33.6073 40.0563 36.1235 40.0479 38.555C40.0479 39.6175 40.0479 40.6791 40.0479 41.7397V42.3575H38.6601V36.1658C38.6601 34.1743 38.6601 32.1809 38.6601 30.1856C38.6601 28.8429 38.2003 28.386 36.8492 28.3747H36.5869C36.1836 28.3747 35.7661 28.3747 35.3515 28.3747C34.4404 28.417 33.9045 28.9388 33.8763 29.7851C33.848 30.6313 34.4094 31.2434 35.3317 31.3168L35.6505 31.3422V42.3236H34.4404C34.3304 41.8102 34.2288 41.2968 34.1273 40.7891C33.8763 39.5225 33.6167 38.2137 33.2416 36.9612C32.229 33.7025 30.4502 30.734 28.0544 28.3041C25.2732 25.4043 23.8995 21.8304 23.9757 17.6809C24.0124 15.6962 24.4516 13.7396 25.2666 11.9296C26.0816 10.1196 27.2555 8.49383 28.7172 7.15081C30.1594 5.79205 31.862 4.7396 33.7221 4.05698C35.5823 3.37436 37.5614 3.07573 39.5401 3.1791C43.4962 3.35056 47.2226 5.08459 49.9016 8.00064C52.5806 10.9167 53.9933 14.7765 53.8297 18.7331ZM30.9597 43.6268C29.7806 45.0852 29.806 47.6268 31.0161 49.0654C31.1998 49.3235 31.31 49.6268 31.3348 49.9427C31.3644 50.2124 31.3766 50.4837 31.3715 50.7551C31.362 51.1127 31.3846 51.4705 31.4392 51.8241C31.6215 52.723 32.1043 53.5331 32.8082 54.1211C33.512 54.7092 34.395 55.0401 35.312 55.0596C35.9156 55.0766 36.5107 55.0737 37.1426 55.0596H37.7377V65.2146C28.0379 63.037 17.9752 63.0447 8.27867 65.2371V35.1728C8.27867 33.4662 8.27867 31.7004 8.27867 29.9628C8.27867 29.6356 8.34072 29.534 8.62843 29.4127C13.4038 27.4382 17.7872 26.4565 22.0069 26.4565C22.2269 26.4565 22.4469 26.4565 22.6641 26.4565C22.8309 26.4479 22.9965 26.4889 23.14 26.5742C23.2836 26.6595 23.3986 26.7854 23.4708 26.936L23.5921 27.1166C24.2563 28.1632 25.0014 29.1564 25.8204 30.0869C29.177 33.7117 31.0133 37.9373 31.2812 42.648C31.2867 43.0011 31.1734 43.3458 30.9597 43.6268ZM34.3614 50.1486H43.6329C43.7514 50.8453 43.695 51.3305 43.4552 51.6267C43.2155 51.9229 42.6824 52.1006 41.8841 52.1006H36.1413C35.3176 52.1006 34.8183 51.9595 34.5645 51.6605C34.3106 51.3615 34.2599 50.8933 34.3614 50.1486ZM40.9025 55.0709H41.2241C41.6585 55.0709 42.0703 55.0709 42.5019 55.0709C44.8938 55.0314 46.5975 53.3417 46.6426 50.9582C46.6595 50.0132 46.7216 49.2205 47.3252 48.3799C48.1714 47.2149 48.1714 45.7312 47.3647 44.0866C47.1911 43.7754 47.0944 43.4273 47.0826 43.0711C47.2473 38.5755 48.9318 34.2686 51.8608 30.8542C52.4786 30.1236 53.0455 29.3366 53.5956 28.5749C54.0017 28.0108 54.4248 27.4269 54.8592 26.8825C55.0534 26.6803 55.3158 26.5576 55.5954 26.5383C59.6656 26.4114 63.8374 27.1758 68.3476 28.8796C69.4026 29.2745 69.8765 29.4635 70.088 29.7766C70.2996 30.0897 70.308 30.6511 70.308 31.7681V65.2146C60.6316 63.0059 50.5818 63.0059 40.9054 65.2146L40.9025 55.0709ZM5.458 66.8817C5.47492 67.5502 5.67236 68.0326 6.04468 68.3203C6.41701 68.608 6.93322 68.6729 7.58197 68.5178C13.0175 67.1942 18.5993 66.5677 24.1929 66.6532C28.6449 66.7316 33.0759 67.2848 37.4106 68.3034C37.5742 68.3429 37.7349 68.388 37.9154 68.436L37.9888 68.4557V68.6221C37.9888 68.9183 37.9888 69.206 37.9888 69.4938C37.9888 69.6404 37.9888 69.7758 37.969 69.9507H3.01246V37.4521H5.458V66.3824C5.458 66.5488 5.458 66.7153 5.458 66.8817ZM41.021 68.3372C41.0951 68.2499 41.1932 68.1861 41.3031 68.1539C42.0985 68.0241 42.8911 67.8718 43.6866 67.742C45.7428 67.3781 47.8724 67.0002 49.9738 66.7971C57.048 66.1341 64.1836 66.6904 71.0696 68.4416C71.7635 68.6137 72.3135 68.5488 72.7028 68.2441C73.092 67.9395 73.3036 67.3979 73.3064 66.6447V37.4323H74.9988V69.9677H40.9984C40.9984 69.8774 40.9984 69.7871 40.9984 69.6997C40.9804 69.2465 40.9851 68.7927 41.0126 68.34L41.021 68.3372Z" fill="#353535"/>
<path d="M12.6874 6.3469C13.6372 6.95408 14.6256 7.49871 15.6462 7.97734C15.8341 8.06618 16.0393 8.11241 16.2471 8.11273C16.5215 8.11093 16.7896 8.03067 17.0199 7.88143C17.2522 7.72725 17.4422 7.51746 17.5727 7.27114C17.7033 7.02482 17.7702 6.74978 17.7674 6.47102V6.41178L17.7476 6.36383C17.7476 6.34408 17.7476 6.31306 17.7251 6.27638C17.7111 6.15666 17.6734 6.04091 17.6143 5.93583C17.5553 5.83076 17.476 5.73846 17.381 5.66426L17.0735 5.48655C16.0265 4.84142 14.9424 4.25839 13.8269 3.74046C13.6973 3.68466 13.5576 3.65588 13.4165 3.65588C13.2754 3.65588 13.1357 3.68466 13.0061 3.74046C12.8123 3.82888 12.6378 3.95461 12.4927 4.11045C12.3475 4.2663 12.2344 4.44922 12.1599 4.64877C12.0244 4.94726 12.0032 5.28515 12.1004 5.59823C12.1977 5.9113 12.4066 6.17774 12.6874 6.3469Z" fill="#353535"/>
<path d="M63.0871 8.08733H63.1153H63.1435H63.2169C63.356 8.07933 63.4921 8.04386 63.6174 7.98296L64.2605 7.64164C64.9967 7.25237 65.7611 6.84899 66.4804 6.39483C67.1207 5.98864 67.2955 5.2665 66.9458 4.44565C66.8739 4.28781 66.7705 4.14634 66.642 4.02992C66.5134 3.9135 66.3624 3.82458 66.1983 3.76865C65.9943 3.69332 65.7773 3.65998 65.5601 3.67064C65.343 3.68131 65.1302 3.73575 64.9346 3.83071C64.1054 4.23691 63.214 4.72491 62.1281 5.36806C61.8378 5.52754 61.6155 5.78733 61.5028 6.09884C61.3901 6.41035 61.3948 6.75224 61.516 7.06055C61.6655 7.50906 62.0604 8.07604 63.0871 8.08733Z" fill="#353535"/>
<path d="M57.2596 5.07743H57.3358L57.4007 5.04076C57.4402 5.02101 57.4965 4.99844 57.5614 4.97305C57.8542 4.8864 58.1151 4.71574 58.3117 4.48223C58.8586 3.71211 59.3371 2.89567 59.7418 2.04223C59.8202 1.87992 59.8656 1.7037 59.8755 1.52375C59.8854 1.34379 59.8596 1.16366 59.7996 0.993724C59.7395 0.823793 59.6464 0.667431 59.5257 0.533663C59.4049 0.399894 59.2588 0.291362 59.0959 0.214332C58.9392 0.114336 58.7642 0.046314 58.5811 0.0141679C58.398 -0.0179783 58.2104 -0.0136131 58.029 0.0270203C57.8476 0.0676537 57.676 0.143753 57.5241 0.250935C57.3722 0.358117 57.2431 0.49427 57.144 0.651564C56.662 1.33975 56.2321 2.06295 55.8578 2.81513C55.7337 3.05055 55.6717 3.3137 55.6776 3.57973C55.6836 3.84576 55.7572 4.10589 55.8916 4.33555C56.0368 4.56622 56.2389 4.75563 56.4785 4.88556C56.7181 5.01549 56.9871 5.08157 57.2596 5.07743Z" fill="#353535"/>
<path d="M20.8701 4.46252C20.9807 4.61969 21.1214 4.75326 21.2842 4.85545C21.4469 4.95764 21.6283 5.02641 21.8179 5.05772C21.9025 5.07374 21.9885 5.0813 22.0746 5.08028C22.3854 5.07768 22.6878 4.97917 22.9405 4.7982C23.6005 4.32994 23.7613 3.53447 23.3467 2.77003L23.2254 2.54437C22.9157 1.93743 22.5621 1.35385 22.1676 0.798279C21.9547 0.543485 21.6941 0.332684 21.4004 0.177695L21.2255 0.0676875L21.1494 0.0112676H21.0535C20.7519 0.0049639 20.4533 0.072626 20.1838 0.208341C19.9144 0.344056 19.6823 0.543697 19.5078 0.789817C19.3957 0.967729 19.3297 1.17081 19.3159 1.38064C19.3021 1.59047 19.3409 1.80043 19.4288 1.99149C19.8294 2.85923 20.312 3.68667 20.8701 4.46252Z" fill="#353535"/>
<path d="M16.2217 11.5485H15.9932L15.4291 11.5823C15.0652 11.6021 14.7211 11.619 14.3826 11.6613C14.1909 11.6698 14.0031 11.7181 13.8311 11.8032C13.6592 11.8883 13.5069 12.0084 13.384 12.1558C13.2611 12.3031 13.1702 12.4745 13.1173 12.6589C13.0644 12.8433 13.0505 13.0368 13.0766 13.2269C13.087 13.603 13.2454 13.9598 13.5174 14.2197C13.7895 14.4796 14.1531 14.6216 14.5293 14.6147H14.6111C15.4573 14.5752 16.3035 14.468 17.1046 14.3665C17.284 14.3526 17.4588 14.3025 17.6182 14.219C17.7777 14.1356 17.9186 14.0206 18.0323 13.881C18.146 13.7415 18.2301 13.5803 18.2796 13.4072C18.3291 13.2342 18.3429 13.0528 18.3202 12.8743C18.2779 12.1042 17.7561 11.6134 16.9099 11.557C16.6758 11.54 16.4248 11.5457 16.2217 11.5485Z" fill="#353535"/>
<path d="M62.1224 14.4849C63.0194 14.561 63.8402 14.6062 64.63 14.6203H64.6808C65.5608 14.6203 66.0911 14.1633 66.1419 13.3622C66.2039 12.4116 65.7329 11.8587 64.788 11.7684C64.4727 11.7431 64.1562 11.7375 63.8402 11.7515H63.7161V11.7317L63.4538 11.7148L63.0956 11.6866C62.8276 11.6669 62.5484 11.6443 62.2691 11.6415C61.4427 11.6415 60.9067 12.1774 60.8588 13.0519C60.8108 13.9263 61.3073 14.4143 62.1224 14.4849Z" fill="#353535"/>
<path d="M62.1535 59.1892C62.3726 59.1966 62.591 59.1596 62.7955 59.0806C63 59.0016 63.1865 58.8822 63.3438 58.7294C63.4767 58.5849 63.5788 58.4149 63.6438 58.2296C63.7088 58.0443 63.7353 57.8477 63.7218 57.6519C63.7252 57.4579 63.6885 57.2654 63.6141 57.0862C63.5398 56.9071 63.4293 56.7452 63.2895 56.6107C63.1497 56.4762 62.9837 56.372 62.8018 56.3046C62.6199 56.2372 62.4261 56.208 62.2325 56.2189C57.0791 56.2189 52.566 56.2189 48.4281 56.2189C48.1907 56.2135 47.9555 56.265 47.7421 56.3691C47.5286 56.4731 47.3431 56.6266 47.2011 56.8169C47.062 57.0185 46.9733 57.2505 46.9424 57.4934C46.9115 57.7364 46.9392 57.9832 47.0234 58.2132C47.3534 59.2005 48.2899 59.2005 48.7412 59.2005H55.2908H55.5729H57.2653C58.8646 59.2033 60.5288 59.2061 62.1535 59.1892Z" fill="#353535"/>
<path d="M53.4319 51.4546C54.4305 51.4546 55.429 51.4546 56.4275 51.4546H60.2552C60.8419 51.4546 61.4286 51.4546 62.0124 51.4546C63.0787 51.4546 63.7048 50.9158 63.733 50.0018C63.7474 49.8078 63.7215 49.613 63.6569 49.4295C63.5924 49.246 63.4906 49.0778 63.3579 48.9356C63.1762 48.7684 62.9626 48.6395 62.73 48.5566C62.4974 48.4738 62.2505 48.4386 62.004 48.4532C59.2454 48.4391 56.4388 48.4391 53.4235 48.4532C51.8975 48.4532 51.6719 49.401 51.6747 49.9623C51.6775 50.5237 51.9088 51.4433 53.4319 51.4546Z" fill="#353535"/>
<path d="M54.6421 43.5648C55.8831 43.5648 57.1205 43.5695 58.3541 43.5789C59.6234 43.5789 60.8795 43.5742 62.1225 43.5648C63.1154 43.5648 63.7302 43.0006 63.7331 42.0867C63.7359 41.1727 63.1097 40.6058 62.0548 40.5973C61.2086 40.5973 60.3878 40.5973 59.5528 40.5973H57.3414C56.4444 40.5973 55.5475 40.5973 54.6505 40.5973C53.6266 40.5973 53.0456 41.1135 53.0202 42.0246C53.0034 42.2229 53.0273 42.4224 53.0903 42.6111C53.1534 42.7998 53.2543 42.9736 53.3869 43.1219C53.5553 43.2768 53.7533 43.3958 53.9691 43.4719C54.1848 43.5481 54.4138 43.5797 54.6421 43.5648Z" fill="#353535"/>
<path d="M56.1793 35.6975C56.5685 35.6975 56.9578 35.6975 57.3471 35.6975H60.038C60.7234 35.6975 61.4117 35.6975 62.0971 35.6975C63.0928 35.6834 63.7049 35.1333 63.7331 34.256C63.7466 34.0636 63.7206 33.8705 63.6565 33.6885C63.5925 33.5066 63.4918 33.3397 63.3607 33.1982C63.1911 33.0387 62.9909 32.9153 62.7723 32.8353C62.5537 32.7553 62.3211 32.7204 62.0886 32.7328C59.9477 32.7159 58.0127 32.7159 56.1652 32.7328C55.1441 32.7328 54.5856 33.2687 54.5885 34.2165C54.5913 35.1643 55.178 35.6834 56.1793 35.6975Z" fill="#353535"/>
<path d="M23.8657 56.2104H17.3048C16.6448 56.2104 16.1568 56.3712 15.8493 56.6787C15.7196 56.8155 15.6191 56.9775 15.5541 57.1545C15.4891 57.3315 15.461 57.52 15.4714 57.7083C15.4714 58.2725 15.7055 59.1949 17.2371 59.1977H23.8629C26.0997 59.1977 28.3139 59.1977 30.4943 59.1977C30.7417 59.2166 30.9904 59.1859 31.2258 59.1074C31.4612 59.029 31.6785 58.9043 31.8651 58.7407C31.9968 58.6015 32.0987 58.4369 32.1647 58.257C32.2306 58.077 32.2592 57.8856 32.2487 57.6942C32.2487 57.1441 32.0118 56.2161 30.483 56.2133C28.9542 56.2105 27.3408 56.2133 25.7697 56.2133L23.8657 56.2104Z" fill="#353535"/>
<path d="M17.2371 48.4504C16.1089 48.4504 15.4799 49.0146 15.4827 49.9596C15.4827 50.5237 15.7168 51.4433 17.2428 51.4546C18.2413 51.4546 19.2398 51.4546 20.2355 51.4546H24.0744C24.6611 51.4546 25.2478 51.4546 25.8345 51.4546C26.8979 51.4546 27.5269 50.9187 27.5523 50.0019C27.5667 49.8079 27.5408 49.613 27.4762 49.4295C27.4117 49.246 27.3098 49.0779 27.1772 48.9356C26.996 48.7685 26.7829 48.6397 26.5507 48.5568C26.3186 48.4739 26.0721 48.4387 25.8261 48.4533C23.059 48.4392 20.2524 48.4363 17.2371 48.4504Z" fill="#353535"/>
<path d="M17.1779 40.5972C16.1258 40.5972 15.4855 41.1614 15.4855 42.0641C15.4855 42.9667 16.0947 43.5506 17.1468 43.5676C17.6405 43.5676 18.1397 43.5676 18.6333 43.5676H20.8899C21.2678 43.5676 21.6317 43.5676 22.0012 43.5676C22.8474 43.5676 23.6936 43.5676 24.5567 43.5676C25.9304 43.5422 26.2069 42.7213 26.1956 42.0528C26.1843 41.3843 25.8825 40.6029 24.5032 40.5972C22.0012 40.5916 19.536 40.5916 17.1779 40.5972Z" fill="#353535"/>
<path d="M17.1525 35.7003C17.8295 35.7003 18.5036 35.7003 19.1806 35.7003H21.8602C22.2636 35.7003 22.6697 35.7003 23.0731 35.7003C24.018 35.6834 24.5962 35.1361 24.6245 34.2673C24.6405 34.0696 24.6163 33.8706 24.5533 33.6825C24.4903 33.4944 24.3897 33.321 24.2578 33.1728C24.1008 33.0247 23.9153 32.91 23.7126 32.8358C23.5099 32.7616 23.2943 32.7294 23.0787 32.7412C21.2284 32.7215 19.268 32.7215 17.0848 32.7412C16.0835 32.7412 15.4855 33.3054 15.4827 34.2137C15.4799 35.122 16.1032 35.689 17.1525 35.7003Z" fill="#353535"/>
</g>
<defs>
<clipPath id="clip0_356_13358">
<rect width="78" height="73" fill="white"/>
</clipPath>
</defs>
</svg>
