<svg width="77" height="54" viewBox="0 0 77 54" fill="none" xmlns="http://www.w3.org/2000/svg">
<g clip-path="url(#clip0_356_12551)">
<path d="M54.5515 42.2929C54.5522 42.9825 54.5065 43.6714 54.4149 44.3551H47.1797C46.7792 44.3596 46.3868 44.4667 46.0412 44.6656C45.0589 45.2502 43.9304 45.5545 42.7822 45.5442H34.158C33.0786 45.5488 32.0158 45.283 31.0698 44.772C30.6163 44.5301 30.1112 44.3968 29.5955 44.383C27.2881 44.383 24.9712 44.3784 22.6449 44.369C22.5532 43.6854 22.5076 42.9965 22.5083 42.3069C22.5083 38.1296 24.1963 34.1235 27.2009 31.1697C30.2055 28.2159 34.2807 26.5565 38.5299 26.5565C42.7766 26.5565 46.8496 28.214 49.8539 31.1647C52.8581 34.1155 54.5477 38.1181 54.5515 42.2929Z" fill="#0269F7"/>
<path d="M38.4758 27.7149C43.2734 27.7149 47.1626 23.8916 47.1626 19.1752C47.1626 14.4589 43.2734 10.6355 38.4758 10.6355C33.6782 10.6355 29.789 14.4589 29.789 19.1752C29.789 23.8916 33.6782 27.7149 38.4758 27.7149Z" fill="#0269F7"/>
<path d="M76.9829 44.411C76.9829 43.9213 76.9829 43.4316 76.9829 42.942C76.9829 41.6325 76.3368 40.9833 75.0105 40.9833C74.4981 40.9833 73.9886 40.9833 73.4507 40.9833H72.093V30.0708C72.093 22.3407 72.093 14.6068 72.093 6.86923C72.093 2.8428 69.224 0.0279404 65.1254 0.0279404C45.5886 0.0279404 28.1752 0.0279404 11.9002 0.0279404C11.2831 0.022264 10.6672 0.0851548 10.0644 0.215413C6.8908 0.940114 4.91835 3.48636 4.91835 6.84964C4.91835 14.6973 4.91835 22.5422 4.91835 30.3842V40.9917H4.3491C4.11286 40.9917 3.88799 40.9917 3.67452 40.9917C3.21627 40.9917 2.78365 41.0085 2.35101 40.9749C1.16412 40.891 0.441174 41.2911 0.0256195 42.2676V48.2751C0.0549509 48.3283 0.0778731 48.3846 0.0939271 48.443C1.05881 52.24 3.36997 54.0084 7.36043 54.0112H69.8929C70.0665 54.0112 70.2401 54.0112 70.4109 54.0112C73.946 53.8992 76.6983 51.4089 76.9573 48.0848C77.0199 46.8649 77.0029 45.6113 76.9829 44.411ZM11.9173 3.38283C29.6363 3.38283 47.3543 3.38283 65.0713 3.38283C67.3483 3.38283 68.6377 4.64196 68.6377 6.83565C68.6377 17.7798 68.6377 28.725 68.6377 39.671C68.6377 39.8277 68.6377 39.9872 68.6149 40.1719C68.6149 40.253 68.6149 40.3482 68.595 40.4517L68.5637 40.9777H67.1548C66.3009 40.9777 65.447 40.9777 64.5931 40.9777C62.2563 40.9777 59.8427 40.9777 57.4775 40.9945H57.4348C56.6264 40.9945 56.0486 40.7679 55.8409 39.699C54.7365 33.9965 51.4832 29.7463 46.1778 27.0657L46.0184 26.9846C45.9074 26.9314 45.7964 26.8754 45.6854 26.8139C45.5647 26.75 45.4657 26.6527 45.4008 26.5341L45.1161 26.1647L45.4349 25.8346C49.6047 21.4276 48.506 15.4425 45.0364 12.2079C41.5668 8.97338 35.9284 8.80829 32.2282 11.8918C30.2042 13.6643 28.972 16.1493 28.7985 18.8086C28.7182 20.0843 28.9083 21.3625 29.3566 22.5623C29.8049 23.7621 30.5017 24.8573 31.4028 25.7786L31.8497 26.2543L31.3061 26.618C30.8535 26.9202 30.3867 27.2168 29.937 27.5078C28.9396 28.1148 27.9788 28.7781 27.0594 29.4944C23.8005 32.147 21.7796 35.6502 21.051 39.9285C20.9713 40.3845 20.7663 40.9945 19.8385 40.9945C17.3489 40.9833 14.8594 40.9833 12.3699 40.9945H9.23898C9.1431 40.9918 9.04775 40.9796 8.95435 40.9581C8.9202 40.9581 8.87465 40.9414 8.82057 40.9274L8.37655 40.8462L8.35662 40.4041C8.35662 40.3286 8.35662 40.2558 8.35662 40.1747C8.35662 39.9928 8.3367 39.8025 8.3367 39.6151C8.3367 28.7194 8.3367 17.8237 8.3367 6.92799C8.33385 4.62797 9.60614 3.38283 11.9173 3.38283ZM42.8989 23.529C42.3089 24.0995 41.6103 24.5501 40.8431 24.8549C40.0758 25.1598 39.255 25.313 38.4274 25.3057C36.7857 25.2939 35.2156 24.6435 34.0603 23.4968C32.905 22.3501 32.2586 20.8003 32.2624 19.1863C32.257 17.5769 32.898 16.0304 34.046 14.883C35.194 13.7356 36.7563 13.0799 38.3933 13.0586C39.2256 13.0416 40.053 13.1875 40.8275 13.4877C41.602 13.788 42.308 14.2365 42.9046 14.8074C43.4824 15.3789 43.939 16.0576 44.2478 16.804C44.5566 17.5505 44.7115 18.3498 44.7034 19.1556C44.7123 19.9661 44.5574 20.7703 44.2476 21.5216C43.9378 22.2728 43.4794 22.9561 42.8989 23.5317V23.529ZM24.5462 40.3817C24.8564 34.6289 31.289 28.946 37.787 28.697C45.8163 28.3864 51.543 34.3463 52.451 40.2838L52.5449 40.8938L51.9187 40.9274H51.6683C51.4832 40.9442 51.2897 40.9525 51.099 40.9553H50.4671C49.0753 40.9553 47.6208 40.9553 46.2148 40.9553C45.5969 40.9424 44.9935 41.1401 44.507 41.515C43.9622 41.8902 43.3189 42.1029 42.6541 42.1277C41.2651 42.1501 39.8733 42.1641 38.49 42.1641C37.1067 42.1641 35.6979 42.1641 34.3203 42.1277C33.6559 42.0982 33.0145 41.8806 32.473 41.501C32.0035 41.1413 31.426 40.9445 30.8307 40.9414C29.6922 40.9414 28.5366 40.9414 27.3896 40.9414H24.5263L24.5462 40.3817ZM73.4649 48.0065C73.3112 49.3608 72.1955 50.4016 70.687 50.5863C70.4876 50.6088 70.2871 50.619 70.0864 50.6171H7.2352C4.60809 50.6171 3.43829 49.4615 3.43829 46.8733V44.355H22.6449C24.9674 44.355 27.2843 44.3597 29.5955 44.369C30.1112 44.3828 30.6163 44.5161 31.0698 44.7579C32.012 45.2759 33.0728 45.5493 34.1523 45.5526H42.7765C43.9247 45.5628 45.0532 45.2586 46.0355 44.674C46.3811 44.475 46.7735 44.3679 47.174 44.3634H54.4092H72.3407C72.4687 44.3634 72.5997 44.3774 72.7477 44.3858H72.9498L73.482 44.4222V44.9454C73.482 45.2588 73.482 45.5638 73.4963 45.8716C73.5372 46.584 73.5267 47.2983 73.4649 48.0093V48.0065Z" fill="#353535"/>
</g>
<defs>
<clipPath id="clip0_356_12551">
<rect width="77" height="54" fill="white"/>
</clipPath>
</defs>
</svg>
