<svg width="74" height="74" viewBox="0 0 74 74" fill="none" xmlns="http://www.w3.org/2000/svg">
<g clip-path="url(#clip0_356_13352)">
<path d="M63.4271 61.8538C59.1012 66.3465 53.7182 69.4888 47.4289 71.2356C47.1483 71.3222 46.8558 71.3641 46.5622 71.3598C46.2157 71.3286 45.8912 71.1769 45.6449 70.9311C45.3987 70.6854 45.2464 70.3611 45.2144 70.0147C45.1815 69.655 45.2767 69.2952 45.4831 68.9988C45.6895 68.7024 45.994 68.4884 46.3428 68.3947C46.7234 68.2678 47.1065 68.1489 47.4897 68.03C48.1081 67.8397 48.7476 67.6415 49.3659 67.4142C53.2875 65.9607 57.3676 63.45 60.0155 60.8918L60.1133 60.7994L60.0181 60.7042C59.7142 60.4003 59.413 60.1043 59.1117 59.8083C58.319 59.0155 57.5553 58.2676 56.8021 57.4906C56.5242 57.2182 56.311 56.8867 56.1785 56.5207C56.0878 56.2105 56.1051 55.8787 56.2275 55.5796C56.3499 55.2805 56.5702 55.0319 56.8523 54.8743C57.0828 54.7378 57.3456 54.6657 57.6134 54.6655C58.0184 54.6679 58.4066 54.827 58.6969 55.1095C59.7301 56.0952 60.7184 57.0995 61.5508 57.9531C61.6719 58.0918 61.7733 58.2466 61.8521 58.4129C61.897 58.4949 61.9419 58.5768 61.9895 58.6534L62.0741 58.7935L62.193 58.6799C66.9972 54.0445 70.9135 44.7446 70.8897 37.9447V37.8126H69.793C69.4072 37.8126 69.0214 37.8126 68.6356 37.8126C67.7688 37.8126 66.873 37.8126 65.993 37.7994C65.002 37.7756 64.3652 37.1704 64.3705 36.2639C64.3758 35.3575 65.0179 34.7681 66.0115 34.7444C66.9126 34.7232 67.8296 34.7285 68.7149 34.7444C69.106 34.7444 69.5076 34.7444 69.8882 34.7444H70.8501V34.6122C70.7999 29.2844 68.5431 20.6954 62.3515 14.0172L62.259 13.9194L61.749 14.4241L60.8691 15.2989L60.1952 15.9728C59.7803 16.3877 59.3654 16.8053 58.9479 17.2176C58.7685 17.4167 58.5514 17.5783 58.3092 17.693C58.067 17.8078 57.8045 17.8734 57.5368 17.8862C57.3492 17.8816 57.1646 17.8393 56.9938 17.7616C56.8231 17.684 56.6698 17.5726 56.5432 17.4343C55.901 16.7736 55.9909 15.875 56.7731 15.0848C57.5103 14.3422 58.2529 13.6049 58.9928 12.8728L60.0314 11.8395L59.9626 11.7497C56.8233 7.61904 45.4761 2.87792 39.3902 3.14219H39.2634V6.79714C39.2634 6.92135 39.2634 7.0482 39.2634 7.17505C39.2634 7.48161 39.2634 7.79875 39.2475 8.10531C39.1788 9.04878 38.5737 9.64868 37.6884 9.63283C37.4907 9.63287 37.2949 9.59343 37.1126 9.51681C36.9304 9.4402 36.7652 9.32795 36.6269 9.18666C36.4885 9.04537 36.3798 8.87787 36.3071 8.694C36.2343 8.51012 36.199 8.31357 36.2033 8.11588C36.1716 7.3574 36.1768 6.58307 36.1821 5.83517C36.1821 5.51275 36.1821 5.18769 36.1821 4.86264V3.07084H36.0421C28.1514 3.55975 21.3969 6.35844 15.3956 11.6228L15.29 11.718L16.3179 12.7354C17.0314 13.4384 17.7343 14.1308 18.432 14.8285C19.016 15.4073 19.3225 15.9834 19.3172 16.4881C19.3133 16.6713 19.2713 16.8516 19.194 17.0177C19.1166 17.1837 19.0056 17.3319 18.868 17.4528C17.9748 18.3196 16.9785 17.688 16.2968 17.0035C15.615 16.319 14.912 15.6134 14.2118 14.9051L13.1759 13.848L13.0808 13.9511C9.91916 17.4158 7.53666 21.5179 6.09378 25.981C6.00393 26.2452 5.92201 26.5333 5.82952 26.8108C5.73703 27.0883 5.68684 27.297 5.6102 27.5402C5.30631 28.4889 4.55315 28.9488 3.70488 28.7056C2.85662 28.4625 2.42853 27.6644 2.6875 26.7236C4.52582 19.8864 8.34952 13.7477 13.6753 9.08313C19.2644 4.14645 25.7625 1.18919 32.9899 0.293296C43.5153 -1.01223 52.9572 1.76003 61.0488 8.53079C68.0093 14.3449 72.2057 21.7657 73.5164 30.5529C75.3213 42.5405 71.9203 53.0666 63.4271 61.8538Z" fill="#353535"/>
<path d="M37.5853 70.1073C37.5833 70.5596 37.5193 71.0095 37.3951 71.4445C37.1625 72.2373 36.6631 72.5941 35.7778 72.5518C20.1602 71.9334 7.21424 61.8433 2.79585 46.8457C1.98362 44.0219 1.53256 41.1066 1.45344 38.1695C1.43232 37.937 1.45892 37.7027 1.53163 37.481C1.60434 37.2592 1.72161 37.0546 1.87624 36.8798C2.03834 36.7251 2.23006 36.6049 2.43989 36.5263C2.64971 36.4477 2.87329 36.4124 3.09711 36.4226C5.00505 36.4226 6.7967 36.4226 8.50116 36.4226C10.351 36.4226 12.0713 36.4226 13.7255 36.4358C15.0468 36.4358 15.9849 37.2471 16.1039 38.484C16.307 41.026 16.9414 43.515 17.9801 45.8441C18.2073 46.3435 18.0409 46.7003 17.4516 46.9672C16.273 47.509 15.0997 48.0587 13.929 48.6057L12.4465 49.3008L12.4756 49.4065C13.4349 53.0641 20.5725 60.2207 24.5971 61.5632L24.7081 61.6002L25.4163 60.0886C25.9254 58.9944 26.4372 57.9003 26.9516 56.8062C27.4035 55.8443 27.5806 55.7729 28.5107 56.1825C30.6308 57.1184 32.894 57.6885 35.2044 57.8686C36.7371 57.9875 37.5827 58.894 37.5827 60.4215C37.6012 63.7488 37.6012 67.0099 37.5853 70.1073Z" fill="#FFAF20"/>
<path d="M35.9046 74H35.7091C19.4705 73.3552 5.99864 62.8581 1.4032 47.2526C0.554512 44.3106 0.0838593 41.2726 0.00262239 38.2117C-0.0284314 37.7838 0.0295151 37.3542 0.172783 36.9498C0.316051 36.5455 0.541539 36.1752 0.83504 35.8623C1.13178 35.5689 1.48448 35.3382 1.87217 35.1838C2.25985 35.0295 2.67463 34.9546 3.09181 34.9638H3.16845C7.11117 34.9638 10.5677 34.9638 13.7387 34.9638C15.8026 34.977 17.3696 36.3618 17.552 38.3333C17.7398 40.7136 18.3323 43.0445 19.304 45.2256C19.7691 46.2457 19.5683 47.583 18.0673 48.2701C17.0103 48.7511 15.9823 49.2373 14.9437 49.7236L14.2884 50.0275C15.8343 53.1169 20.6966 57.9558 23.9946 59.6974L24.1082 59.4542L25.6435 56.1719C26.4363 54.4885 27.4378 54.1 29.1053 54.8347C31.0745 55.7048 33.1769 56.2347 35.3233 56.4019C37.6144 56.5789 39.0414 58.1117 39.0493 60.3977C39.0625 64.0157 39.0493 67.1923 39.0493 70.1072C39.0474 70.6938 38.9638 71.2773 38.8009 71.8409C38.6454 72.4819 38.2708 73.0484 37.742 73.4427C37.2132 73.8369 36.5633 74.034 35.9046 74ZM2.92532 37.8893C2.90874 37.9621 2.90253 38.0368 2.90684 38.1113C2.98126 40.9259 3.41281 43.7196 4.19113 46.4254C8.41925 60.8153 20.8393 70.4957 35.8359 71.0903H35.9813C35.9885 71.0704 35.9947 71.0501 35.9998 71.0295C36.0873 70.7245 36.1317 70.4087 36.1319 70.0914C36.1478 67.1843 36.1504 64.013 36.1319 60.4056C36.1319 59.6366 35.8676 59.3485 35.0907 59.2983C32.7076 59.1135 30.3707 58.5404 28.1725 57.6017C27.6915 58.6271 27.2115 59.6542 26.7323 60.6831L25.4744 63.3655L24.1373 62.9215C19.6053 61.4099 12.1558 53.9044 11.0671 49.7553L10.7183 48.4841L13.7017 47.0861C14.5949 46.6686 15.4908 46.2519 16.3892 45.8361C15.4373 43.5271 14.8499 41.0843 14.6478 38.5949C14.6293 38.4179 14.5791 37.8734 13.7123 37.8682C10.5412 37.8549 7.10589 37.8549 3.1711 37.8682H3.0971C3.03917 37.8677 2.98142 37.8748 2.92532 37.8893Z" fill="#353535"/>
<path d="M37.588 44.5516C37.5887 44.9491 37.4326 45.3308 37.1535 45.6139C36.8745 45.8969 36.495 46.0584 36.0976 46.0633C34.9718 46.0871 33.825 46.0844 32.7151 46.0791H30.3843C29.5625 46.0791 28.7142 46.0791 27.8792 46.0791C26.9173 46.0633 26.2936 45.4951 26.2936 44.5966V44.1711C26.2241 42.5091 26.2391 40.8446 26.3385 39.1842C26.5394 36.6366 28.4526 34.858 31.1243 34.7549C31.3542 34.7549 31.5814 34.7549 31.8113 34.7549C32.0941 34.7549 32.3874 34.7549 32.6781 34.7417C33.0033 34.7331 33.3237 34.6613 33.6215 34.5303C34.5437 34.0652 34.9163 32.5456 34.5041 30.9176C34.2742 30.0032 33.603 29.5355 32.5116 29.5249C31.8668 29.5249 31.222 29.5249 30.5772 29.5249C29.6867 29.5249 28.7644 29.5249 27.858 29.5117C27.601 29.5155 27.3467 29.4575 27.1168 29.3425C26.8869 29.2275 26.6879 29.0589 26.5367 28.851C26.4069 28.6562 26.3256 28.4332 26.2994 28.2006C26.2732 27.968 26.3029 27.7325 26.3861 27.5137C26.475 27.213 26.6614 26.9503 26.9159 26.7671C27.1704 26.5839 27.4786 26.4905 27.792 26.5016H28.6931C30.1518 26.4831 31.6607 26.4619 33.1353 26.528C34.2666 26.5915 35.3373 27.0601 36.1515 27.8482C36.9657 28.6362 37.4691 29.6911 37.5695 30.8198C37.6684 31.7621 37.6604 32.7124 37.5457 33.6529C37.2207 36.0631 35.2916 37.7439 32.7494 37.8337C32.4984 37.8337 32.25 37.8337 31.999 37.8337C31.6581 37.8337 31.3066 37.8337 30.9604 37.8575C30.5611 37.8655 30.179 38.0216 29.8884 38.2956C29.5978 38.5696 29.4195 38.9419 29.3881 39.3401C29.3484 40.1488 29.3564 40.9548 29.3643 41.8058C29.3643 42.1731 29.3643 42.5484 29.3643 42.9316V43.0638H35.3524C35.5981 43.0638 35.8492 43.0638 36.0949 43.0638C36.4885 43.0685 36.8647 43.2267 37.1435 43.5045C37.4224 43.7824 37.5818 44.158 37.588 44.5516Z" fill="#353535"/>
<path d="M52.4868 44.5067C52.4943 44.71 52.4606 44.9126 52.3878 45.1025C52.315 45.2924 52.2046 45.4656 52.0631 45.6117C51.9217 45.7579 51.7522 45.8739 51.5648 45.9529C51.3774 46.0318 51.176 46.0721 50.9726 46.0712C50.7684 46.0712 50.5664 46.0295 50.3788 45.9487C50.1913 45.8678 50.0222 45.7496 49.882 45.6012C49.7417 45.4527 49.6332 45.2772 49.5631 45.0854C49.493 44.8936 49.4628 44.6895 49.4743 44.4856C49.4558 43.1642 49.4584 41.8428 49.4743 40.5505C49.4743 40.0043 49.4743 39.4555 49.4743 38.9041V37.847H49.3501L49.0436 37.8285C48.8454 37.8152 48.6577 37.802 48.4701 37.7994H46.3349C45.2374 37.7994 44.1398 37.7994 43.0423 37.7994C41.7553 37.7994 41.1925 37.2153 41.174 35.9336C41.1608 33.2195 41.174 30.4922 41.174 28.1797C41.174 27.371 41.499 26.8584 42.1649 26.5941C42.7886 26.343 43.3673 26.4593 43.7082 26.9059C44.0161 27.3354 44.1932 27.8448 44.2182 28.3726C44.2605 29.85 44.2552 31.3035 44.2473 32.8416C44.2473 33.4124 44.2473 33.9868 44.2473 34.5646V34.6968H49.4796V33.6899C49.4796 33.1384 49.4796 32.587 49.4796 32.0355C49.4796 30.7485 49.4796 29.4165 49.4796 28.1084C49.4745 27.8825 49.5141 27.6579 49.5962 27.4475C49.6783 27.237 49.8012 27.0449 49.9579 26.8821C50.0965 26.7492 50.2601 26.6452 50.4394 26.5762C50.6186 26.5073 50.8098 26.4747 51.0017 26.4804C51.2052 26.4823 51.4063 26.5253 51.5928 26.6068C51.7794 26.6883 51.9475 26.8067 52.0872 26.9547C52.2269 27.1028 52.3352 27.2776 52.4057 27.4686C52.4762 27.6595 52.5074 27.8628 52.4974 28.0661C52.5 33.756 52.5 39.2873 52.4868 44.5067Z" fill="#353535"/>
</g>
<defs>
<clipPath id="clip0_356_13352">
<rect width="74" height="74" fill="white"/>
</clipPath>
</defs>
</svg>
